<svg width="76" height="75" viewBox="0 0 76 75" fill="none" xmlns="http://www.w3.org/2000/svg">
<rect x="0.5" y="0.679688" width="75" height="73" rx="19.5" stroke="#FA4B06" stroke-linecap="round"/>
<path d="M45.9985 52.1797L43.7105 44.6997H32.2705L29.9825 52.1797H22.8105L33.8985 20.6317H42.0385L53.1705 52.1797H45.9985ZM39.8385 31.8077C39.6919 31.309 39.5012 30.6784 39.2665 29.9157C39.0319 29.153 38.7972 28.3757 38.5625 27.5837C38.3279 26.7917 38.1372 26.1024 37.9905 25.5157C37.8439 26.1024 37.6385 26.8357 37.3745 27.7157C37.1399 28.5664 36.9052 29.3877 36.6705 30.1797C36.4652 30.9424 36.3039 31.485 36.1865 31.8077L33.9425 39.1117H42.1265L39.8385 31.8077Z" fill="#FA4B06"/>
</svg>
