<svg width="71" height="45" viewBox="0 0 71 45" fill="none" xmlns="http://www.w3.org/2000/svg">
<path d="M25.7773 17.9857C26.1148 17.9857 26.4523 17.9939 26.798 18.0186C28.4196 12.4706 32.5353 8.07502 37.8117 6.0254C35.4657 2.40358 31.3994 0 26.7651 0C19.9659 0 14.3686 5.16933 13.6854 11.7874C12.7305 11.4911 11.7181 11.3347 10.6727 11.3347C5.04238 11.3347 0.473938 15.9031 0.473938 21.5334C0.473938 27.1637 5.04238 31.7321 10.6727 31.7321H10.7714C11.4464 24.0357 17.9163 17.9774 25.7856 17.9774L25.7773 17.9857Z" fill="#EA4E17"/>
<path d="M59.8884 23.8053C59.8884 23.8053 59.8884 23.8053 59.8719 23.8053C59.8719 23.6324 59.8884 23.4514 59.8884 23.2785C59.8884 14.8084 53.0233 7.94336 44.5532 7.94336C36.6181 7.94336 30.0906 13.9688 29.3004 21.6898C28.1892 21.3441 27.0038 21.163 25.7856 21.163C19.2169 21.163 13.8912 26.4887 13.8912 33.0574C13.8912 39.6261 19.2169 44.9518 25.7856 44.9518H59.8966C65.7409 44.9518 70.474 40.2188 70.474 34.3745C70.474 28.5301 65.7409 23.7971 59.8966 23.7971L59.8884 23.8053Z" fill="#EA4E17"/>
</svg>
