<svg width="349" height="136" viewBox="0 0 349 136" fill="none" xmlns="http://www.w3.org/2000/svg">
<path d="M325.209 79.5496C326.578 81.3379 328.514 83.4398 331.171 85.3553C337.837 90.1567 344.875 90.7713 348.125 90.8348C347.383 92.0553 341.871 100.84 331.29 102.133C325.26 102.87 320.518 100.819 318.472 99.7766C314.789 105.358 308.005 114.083 296.907 121.381C277.636 134.056 258.313 133.895 252.228 133.759C244.3 133.586 28.5262 143.989 9.48324 121.381C-3.85614 105.553 1.05155 37.9986 0.822731 32.8709C-0.215436 9.48678 22.2294 8.06694 26.9203 2.41373C35.7056 -2.35255 245.503 1.43452 250.898 1.29892C255.847 1.17602 281.411 1.0404 302.526 20.9198C327.069 44.0327 325.497 75.2567 325.205 79.5496H325.209Z" fill="#FA4B06"/>
<path d="M68.9327 59.8551C68.8381 60.1627 68.7553 60.4704 68.6843 60.778C68.6251 61.0738 68.566 61.3696 68.5068 61.6654C68.4476 61.9493 68.3766 62.2747 68.2938 62.6415C68.2228 63.0083 68.14 63.3987 68.0454 63.8128C67.9625 64.2151 67.8679 64.6233 67.7614 65.0374C67.6667 65.4515 67.5662 65.8597 67.4597 66.262C67.3532 66.6525 67.2526 67.0133 67.158 67.3446C67.8797 66.9423 68.5955 66.6584 69.3054 66.4927C70.0153 66.3153 70.7667 66.2265 71.5594 66.2265C72.5178 66.2265 73.3519 66.3863 74.0618 66.7057C74.7835 67.0252 75.3396 67.4689 75.7301 68.0368C76.1324 68.6047 76.3335 69.2673 76.3335 70.0245C76.3335 71.0184 76.1028 71.8584 75.6414 72.5447C75.1917 73.2309 74.541 73.7693 73.6891 74.1597C72.8491 74.5502 71.8374 74.7986 70.6543 74.9051C69.4829 75.0116 68.1814 74.988 66.7498 74.8341L66.1286 72.5447C67.0988 72.7103 68.0454 72.7932 68.9682 72.7932C69.9029 72.7932 70.743 72.7044 71.4884 72.5269C72.2338 72.3495 72.8254 72.0655 73.2632 71.6751C73.7128 71.2728 73.9376 70.7463 73.9376 70.0955C73.9376 69.5631 73.7128 69.1076 73.2632 68.7289C72.8136 68.3385 72.1569 68.1433 71.2932 68.1433C70.2638 68.1433 69.3173 68.3207 68.4535 68.6757C67.6017 69.0307 66.9095 69.5453 66.3771 70.2197C66.2942 70.3499 66.2114 70.4741 66.1286 70.5924C66.0576 70.7108 65.9748 70.8468 65.8801 71.0006L63.7859 70.2552C64.1172 69.6163 64.4248 68.8887 64.7088 68.0723C64.9928 67.2559 65.2471 66.4336 65.4719 65.6054C65.6967 64.7771 65.8801 64.0081 66.0221 63.2982C66.1641 62.5764 66.2647 61.9907 66.3238 61.5411C66.383 61.1625 66.4185 60.8431 66.4303 60.5828C66.4421 60.3106 66.4362 60.0326 66.4126 59.7486L68.9327 59.8551ZM62.7388 61.9316C63.3067 62.0262 63.922 62.1091 64.5846 62.1801C65.2471 62.2392 65.8565 62.2688 66.4126 62.2688C66.9805 62.2688 67.6017 62.251 68.2761 62.2156C68.9623 62.1801 69.6841 62.1268 70.4413 62.0558C71.1985 61.9848 71.9558 61.8961 72.713 61.7896C73.4821 61.6713 74.2334 61.5352 74.9669 61.3814L75.0024 63.4934C74.4345 63.588 73.7897 63.6827 73.0679 63.7773C72.358 63.872 71.6126 63.9607 70.8317 64.0436C70.0508 64.1146 69.2818 64.1737 68.5245 64.221C67.7673 64.2684 67.0692 64.292 66.4303 64.292C65.7441 64.292 65.0874 64.2802 64.4603 64.2565C63.8451 64.221 63.2712 64.1796 62.7388 64.1323V61.9316ZM88.7214 62.748C88.6977 62.9136 88.6681 63.168 88.6326 63.5111C88.5971 63.8424 88.5794 64.1619 88.5794 64.4695C88.5794 64.6706 88.5794 64.9309 88.5794 65.2504C88.5794 65.5699 88.5794 65.9071 88.5794 66.262C88.5794 66.6051 88.5794 66.9128 88.5794 67.1849C88.5794 67.5517 88.5912 68.0013 88.6149 68.5337C88.6504 69.0543 88.68 69.5986 88.7036 70.1665C88.7391 70.7226 88.7687 71.2491 88.7924 71.746C88.8279 72.2311 88.8456 72.6157 88.8456 72.8996C88.8456 73.3374 88.751 73.7456 88.5617 74.1242C88.3723 74.5029 88.0529 74.8105 87.6033 75.0471C87.1537 75.2837 86.5325 75.4021 85.7398 75.4021C85.0299 75.4021 84.3732 75.3015 83.7698 75.1004C83.1782 74.8992 82.7049 74.5916 82.35 74.1775C82.0068 73.7634 81.8353 73.2487 81.8353 72.6334C81.8353 71.7815 82.1843 71.1012 82.8824 70.5924C83.5805 70.0719 84.5743 69.8116 85.864 69.8116C86.6449 69.8116 87.3903 69.9121 88.1002 70.1133C88.8101 70.3026 89.4727 70.551 90.088 70.8587C90.7032 71.1545 91.2593 71.4798 91.7562 71.8348C92.2532 72.1897 92.6791 72.5269 93.0341 72.8464L91.8095 74.7809C91.4664 74.4259 91.07 74.0592 90.6204 73.6805C90.1708 73.3019 89.6798 72.9588 89.1473 72.6512C88.6267 72.3317 88.0647 72.0714 87.4613 71.8703C86.8697 71.6691 86.2485 71.5686 85.5978 71.5686C85.0299 71.5686 84.5921 71.6573 84.2845 71.8348C83.9887 72.0004 83.8408 72.2311 83.8408 72.5269C83.8408 72.7872 83.9887 73.0061 84.2845 73.1836C84.5803 73.3493 84.9766 73.4321 85.4736 73.4321C85.8758 73.4321 86.1716 73.3315 86.3609 73.1304C86.5621 72.9174 86.6627 72.6039 86.6627 72.1897C86.6627 71.8703 86.6508 71.4917 86.6272 71.0539C86.6153 70.6161 86.5917 70.1606 86.5562 69.6873C86.5325 69.2022 86.5088 68.7289 86.4852 68.2675C86.4733 67.8061 86.4674 67.386 86.4674 67.0074C86.4674 66.7826 86.4674 66.5164 86.4674 66.2088C86.4674 65.8893 86.4674 65.5758 86.4674 65.2681C86.4674 64.9605 86.4674 64.7061 86.4674 64.505C86.4674 64.1619 86.4497 63.8247 86.4142 63.4934C86.3905 63.1621 86.3609 62.9136 86.3254 62.748H88.7214ZM87.621 65.3214C87.8222 65.3214 88.1239 65.3155 88.5262 65.3036C88.9284 65.2918 89.3721 65.28 89.8572 65.2681C90.3542 65.2445 90.8511 65.2149 91.348 65.1794C91.845 65.1439 92.2887 65.1025 92.6791 65.0552L92.7324 67.0252C92.3419 67.0607 91.8982 67.0962 91.4013 67.1317C90.9043 67.1553 90.4074 67.179 89.9105 67.2026C89.4135 67.2145 88.9639 67.2263 88.5617 67.2381C88.1594 67.2381 87.8517 67.2381 87.6388 67.2381L87.621 65.3214ZM98.0212 65.7828C98.2341 65.7947 98.5063 65.8124 98.8375 65.8361C99.1688 65.8479 99.512 65.8597 99.8669 65.8716C100.234 65.8834 100.571 65.8893 100.879 65.8893C101.174 65.8893 101.541 65.8893 101.979 65.8893C102.417 65.8893 102.89 65.8893 103.399 65.8893C103.919 65.8893 104.452 65.8893 104.996 65.8893C105.552 65.8893 106.102 65.8893 106.647 65.8893C107.191 65.8893 107.705 65.8893 108.191 65.8893C108.676 65.8893 109.108 65.8893 109.486 65.8893C109.877 65.8893 110.184 65.8893 110.409 65.8893C110.823 65.8893 111.214 65.8775 111.58 65.8538C111.947 65.8183 112.249 65.7947 112.486 65.7828V68.5692C112.284 68.5574 111.983 68.5396 111.58 68.516C111.178 68.4923 110.788 68.4805 110.409 68.4805C110.184 68.4805 109.877 68.4805 109.486 68.4805C109.096 68.4805 108.658 68.4805 108.173 68.4805C107.688 68.4805 107.173 68.4805 106.629 68.4805C106.096 68.4805 105.552 68.4805 104.996 68.4805C104.44 68.4805 103.902 68.4805 103.381 68.4805C102.872 68.4805 102.399 68.4805 101.961 68.4805C101.535 68.4805 101.174 68.4805 100.879 68.4805C100.37 68.4805 99.8492 68.4923 99.3167 68.516C98.7843 68.5278 98.3524 68.5456 98.0212 68.5692V65.7828ZM114.917 73.3433H131.121V75.2423H114.917V73.3433ZM117.206 60.7247H130.801V62.5705H117.206V60.7247ZM116.745 63.7596H121.164V65.4101H116.745V63.7596ZM117.047 69.3679H129.151V74.4614H127.056V71.0184H125.654V74.4614H123.72V71.0184H122.335V74.4614H120.401V71.0184H119.034V74.4614H117.047V69.3679ZM116.213 60.7247H118.342V62.6947C118.342 63.2035 118.319 63.7655 118.271 64.3808C118.224 64.996 118.129 65.6231 117.987 66.262C117.857 66.8891 117.662 67.4984 117.402 68.09C117.153 68.6698 116.834 69.2081 116.443 69.7051C116.337 69.5749 116.165 69.427 115.929 69.2614C115.704 69.0839 115.473 68.9183 115.236 68.7644C115.012 68.6106 114.816 68.4982 114.651 68.4272C115.124 67.8475 115.467 67.2204 115.68 66.546C115.905 65.8597 116.047 65.1794 116.106 64.505C116.177 63.8306 116.213 63.2213 116.213 62.677V60.7247ZM120.543 63.7596H122.495C122.495 63.7596 122.495 63.8365 122.495 63.9903C122.495 64.1441 122.489 64.2743 122.477 64.3808C122.442 65.1143 122.401 65.7237 122.353 66.2088C122.318 66.6939 122.264 67.0784 122.193 67.3624C122.122 67.6345 122.022 67.8416 121.892 67.9835C121.762 68.161 121.602 68.2912 121.413 68.374C121.223 68.445 121.016 68.4923 120.791 68.516C120.578 68.5396 120.306 68.5574 119.975 68.5692C119.656 68.581 119.307 68.5751 118.928 68.5515C118.916 68.303 118.863 68.0309 118.768 67.7351C118.685 67.4393 118.585 67.1849 118.466 66.9719C118.75 66.9956 119.005 67.0133 119.23 67.0252C119.454 67.037 119.626 67.0429 119.744 67.0429C119.851 67.0429 119.94 67.037 120.011 67.0252C120.093 67.0015 120.158 66.9542 120.206 66.8832C120.3 66.7767 120.371 66.5105 120.419 66.0845C120.466 65.6586 120.507 64.9605 120.543 63.9903V63.7596ZM122.69 58.9322H124.82C124.867 60.0208 125.015 61.062 125.264 62.0558C125.524 63.0497 125.844 63.9312 126.222 64.7002C126.613 65.4693 127.033 66.0786 127.482 66.5282C127.944 66.966 128.393 67.1849 128.831 67.1849C129.056 67.1849 129.216 67.0488 129.31 66.7767C129.417 66.4927 129.494 66.0076 129.541 65.3214C129.766 65.5225 130.032 65.7059 130.34 65.8716C130.659 66.0372 130.949 66.1674 131.209 66.262C131.115 67.0666 130.967 67.6818 130.766 68.1078C130.564 68.5337 130.298 68.8236 129.967 68.9774C129.647 69.1194 129.233 69.1904 128.725 69.1904C127.908 69.1904 127.151 68.9183 126.453 68.374C125.755 67.8297 125.134 67.0843 124.589 66.1378C124.057 65.1794 123.625 64.085 123.294 62.8545C122.963 61.6121 122.761 60.3047 122.69 58.9322ZM127.819 62.7835L129.754 63.3514C129.281 64.2151 128.707 65.0138 128.032 65.7473C127.358 66.4691 126.613 67.1198 125.796 67.6996C124.992 68.2675 124.158 68.7585 123.294 69.1726C123.211 69.0307 123.087 68.8591 122.921 68.658C122.767 68.4568 122.602 68.2557 122.424 68.0545C122.247 67.8534 122.087 67.6937 121.945 67.5753C123.211 67.0902 124.365 66.4395 125.406 65.6231C126.459 64.7949 127.263 63.8483 127.819 62.7835ZM125.708 59.6421L127.163 58.808C127.506 59.0091 127.861 59.2576 128.228 59.5534C128.594 59.8492 128.89 60.1154 129.115 60.352L127.607 61.3104C127.394 61.062 127.104 60.778 126.737 60.4585C126.382 60.1391 126.039 59.8669 125.708 59.6421ZM138.291 59.7486C138.231 59.9616 138.166 60.2278 138.095 60.5473C138.024 60.8667 137.953 61.2039 137.882 61.5589C137.811 61.902 137.746 62.2392 137.687 62.5705C137.64 62.9018 137.604 63.1917 137.581 63.4401C137.794 63.0852 138.048 62.7421 138.344 62.4108C138.64 62.0677 138.971 61.76 139.338 61.4879C139.716 61.2039 140.125 60.9791 140.562 60.8135C141.012 60.6478 141.485 60.565 141.982 60.565C142.81 60.565 143.556 60.8194 144.218 61.3282C144.881 61.8369 145.402 62.5646 145.78 63.5111C146.171 64.4577 146.366 65.5817 146.366 66.8832C146.366 68.1374 146.182 69.2377 145.816 70.1843C145.449 71.119 144.922 71.9176 144.236 72.5802C143.55 73.2428 142.728 73.7811 141.769 74.1952C140.823 74.6212 139.764 74.9406 138.592 75.1536L137.243 73.0949C138.226 72.9411 139.125 72.734 139.941 72.4737C140.769 72.2016 141.479 71.8348 142.071 71.3733C142.674 70.9119 143.136 70.3203 143.455 69.5986C143.786 68.865 143.952 67.9658 143.952 66.9009C143.952 65.9899 143.857 65.2208 143.668 64.5937C143.479 63.9548 143.201 63.4697 142.834 63.1384C142.479 62.8071 142.053 62.6415 141.556 62.6415C141.036 62.6415 140.539 62.8131 140.065 63.1562C139.592 63.4993 139.166 63.9489 138.788 64.505C138.421 65.0493 138.125 65.6409 137.9 66.2798C137.687 66.9187 137.569 67.5339 137.545 68.1255C137.533 68.374 137.527 68.6461 137.527 68.9419C137.539 69.2377 137.575 69.5927 137.634 70.0068L135.451 70.1488C135.404 69.8056 135.35 69.3797 135.291 68.8709C135.244 68.3503 135.22 67.7883 135.22 67.1849C135.22 66.7708 135.232 66.3271 135.256 65.8538C135.291 65.3806 135.327 64.9014 135.362 64.4163C135.41 63.9193 135.463 63.4224 135.522 62.9255C135.593 62.4285 135.658 61.9553 135.717 61.5056C135.765 61.1625 135.8 60.8253 135.824 60.494C135.847 60.1627 135.859 59.8788 135.859 59.6421L138.291 59.7486ZM157.991 64.2565H165.374V66.404H157.991V64.2565ZM150.395 72.5624H166.634V74.7099H150.395V72.5624ZM156.784 59.1452H159.073V73.7515H156.784V59.1452ZM175.454 60.1036C175.407 60.3284 175.354 60.5768 175.294 60.849C175.235 61.1093 175.182 61.3518 175.135 61.5766C175.087 61.8369 175.028 62.1327 174.957 62.464C174.886 62.7835 174.815 63.1089 174.744 63.4401C174.685 63.7596 174.62 64.0731 174.549 64.3808C174.431 64.8895 174.283 65.4811 174.105 66.1555C173.928 66.8299 173.721 67.5576 173.484 68.3385C173.248 69.1076 172.981 69.8825 172.686 70.6634C172.39 71.4443 172.076 72.2075 171.745 72.9529C171.414 73.6865 171.059 74.349 170.68 74.9406L168.373 74.0177C168.787 73.4617 169.172 72.8405 169.526 72.1542C169.893 71.4562 170.225 70.7463 170.52 70.0245C170.816 69.291 171.076 68.5692 171.301 67.8593C171.538 67.1376 171.739 66.4691 171.905 65.8538C172.082 65.2386 172.218 64.7121 172.313 64.2743C172.479 63.4697 172.609 62.6947 172.703 61.9493C172.798 61.2039 172.833 60.4999 172.81 59.8374L175.454 60.1036ZM181.559 61.8961C181.843 62.2865 182.133 62.7657 182.429 63.3337C182.737 63.8897 183.038 64.4813 183.334 65.1084C183.63 65.7355 183.896 66.3389 184.133 66.9187C184.369 67.4984 184.553 68.0013 184.683 68.4272L182.429 69.4566C182.323 68.9597 182.163 68.4095 181.95 67.8061C181.749 67.2026 181.512 66.5933 181.24 65.9781C180.968 65.351 180.678 64.7594 180.37 64.2033C180.075 63.6472 179.767 63.1798 179.447 62.8012L181.559 61.8961ZM168.249 63.7419C168.568 63.7655 168.882 63.7773 169.189 63.7773C169.509 63.7655 169.828 63.7537 170.148 63.7419C170.443 63.73 170.798 63.7123 171.213 63.6886C171.627 63.6531 172.064 63.6176 172.526 63.5821C172.999 63.5466 173.472 63.5111 173.946 63.4756C174.419 63.4283 174.857 63.3928 175.259 63.3691C175.661 63.3455 175.993 63.3337 176.253 63.3337C176.892 63.3337 177.448 63.4401 177.921 63.6531C178.394 63.8543 178.767 64.2033 179.039 64.7002C179.323 65.1972 179.465 65.8716 179.465 66.7235C179.465 67.4215 179.436 68.1788 179.376 68.9952C179.317 69.8116 179.211 70.5924 179.057 71.3379C178.915 72.0833 178.714 72.7163 178.454 73.2369C178.17 73.8521 177.779 74.278 177.282 74.5147C176.797 74.7513 176.217 74.8696 175.543 74.8696C175.212 74.8696 174.851 74.8401 174.46 74.7809C174.07 74.7336 173.721 74.6803 173.413 74.6212L173.041 72.2785C173.265 72.3376 173.514 72.3968 173.786 72.456C174.07 72.5151 174.336 72.5624 174.585 72.5979C174.845 72.6334 175.052 72.6512 175.206 72.6512C175.502 72.6512 175.762 72.5979 175.987 72.4914C176.211 72.3731 176.395 72.172 176.537 71.888C176.702 71.5449 176.839 71.1012 176.945 70.557C177.051 70.0127 177.128 69.427 177.176 68.7999C177.235 68.161 177.264 67.5517 177.264 66.9719C177.264 66.4987 177.193 66.1496 177.051 65.9248C176.921 65.7 176.726 65.5521 176.466 65.4811C176.217 65.3983 175.91 65.3569 175.543 65.3569C175.271 65.3569 174.904 65.3806 174.443 65.4279C173.981 65.4634 173.484 65.5107 172.952 65.5699C172.431 65.6172 171.946 65.6704 171.496 65.7296C171.047 65.7887 170.698 65.8302 170.449 65.8538C170.189 65.9011 169.858 65.9544 169.455 66.0136C169.065 66.0609 168.734 66.1082 168.462 66.1555L168.249 63.7419ZM181.24 59.4292C181.394 59.6421 181.553 59.8965 181.719 60.1923C181.897 60.4881 182.068 60.7839 182.234 61.0797C182.399 61.3755 182.541 61.6358 182.66 61.8606L181.222 62.4818C181.104 62.2333 180.968 61.9612 180.814 61.6654C180.66 61.3696 180.5 61.0738 180.335 60.778C180.169 60.4822 180.004 60.2278 179.838 60.0148L181.24 59.4292ZM183.352 58.6305C183.506 58.8553 183.671 59.1156 183.849 59.4114C184.026 59.7072 184.198 60.003 184.364 60.2988C184.541 60.5946 184.677 60.8431 184.772 61.0442L183.37 61.6476C183.18 61.2808 182.956 60.8667 182.695 60.4053C182.435 59.932 182.181 59.5297 181.932 59.1984L183.352 58.6305ZM187.665 66.4927C187.937 66.4336 188.25 66.3626 188.605 66.2798C188.96 66.1851 189.274 66.0964 189.546 66.0136C189.842 65.9189 190.238 65.7947 190.735 65.6409C191.232 65.487 191.776 65.3332 192.368 65.1794C192.971 65.0256 193.575 64.8954 194.178 64.789C194.793 64.6825 195.373 64.6292 195.917 64.6292C196.852 64.6292 197.668 64.8067 198.366 65.1617C199.076 65.5048 199.627 66.0017 200.017 66.6525C200.407 67.3032 200.603 68.0782 200.603 68.9774C200.603 69.782 200.425 70.5155 200.07 71.1781C199.727 71.8407 199.201 72.4205 198.491 72.9174C197.781 73.4143 196.893 73.8166 195.829 74.1242C194.775 74.4437 193.545 74.6448 192.137 74.7277L191.196 72.5447C192.214 72.521 193.149 72.4323 194.001 72.2785C194.864 72.1247 195.61 71.9058 196.237 71.6218C196.876 71.326 197.367 70.9533 197.71 70.5037C198.065 70.0541 198.242 69.5335 198.242 68.9419C198.242 68.4923 198.136 68.1019 197.923 67.7706C197.722 67.4274 197.432 67.1612 197.053 66.9719C196.674 66.7826 196.225 66.688 195.704 66.688C195.29 66.688 194.829 66.7412 194.32 66.8477C193.811 66.9542 193.285 67.0902 192.74 67.2559C192.208 67.4215 191.681 67.599 191.161 67.7883C190.64 67.9776 190.155 68.161 189.706 68.3385C189.256 68.516 188.883 68.6698 188.587 68.7999L187.665 66.4927ZM203.251 61.7896C203.605 61.7778 203.943 61.7659 204.262 61.7541C204.582 61.7304 204.83 61.7127 205.008 61.7009C205.374 61.6654 205.824 61.624 206.356 61.5766C206.889 61.5293 207.486 61.4761 208.149 61.4169C208.823 61.3577 209.539 61.2986 210.296 61.2394C211.054 61.1684 211.84 61.0974 212.657 61.0265C213.272 60.9791 213.887 60.9377 214.503 60.9022C215.118 60.8549 215.698 60.8194 216.242 60.7957C216.798 60.7602 217.277 60.7366 217.679 60.7247L217.697 62.9964C217.378 62.9964 217.011 63.0024 216.597 63.0142C216.183 63.026 215.769 63.0497 215.354 63.0852C214.952 63.1089 214.591 63.1562 214.272 63.2272C213.739 63.3691 213.242 63.6117 212.781 63.9548C212.331 64.2861 211.935 64.6825 211.592 65.1439C211.249 65.6054 210.983 66.1023 210.793 66.6347C210.616 67.1553 210.527 67.6818 210.527 68.2143C210.527 68.794 210.628 69.3087 210.829 69.7583C211.03 70.1961 211.308 70.5747 211.663 70.8942C212.03 71.2018 212.456 71.4621 212.941 71.6751C213.426 71.8762 213.946 72.03 214.503 72.1365C215.07 72.243 215.656 72.314 216.26 72.3495L215.425 74.7809C214.68 74.7336 213.952 74.6153 213.242 74.4259C212.544 74.2366 211.888 73.9763 211.272 73.645C210.669 73.3138 210.137 72.9115 209.675 72.4382C209.214 71.9531 208.853 71.4029 208.593 70.7877C208.332 70.1606 208.202 69.4625 208.202 68.6934C208.202 67.8297 208.338 67.0429 208.61 66.333C208.882 65.6231 209.22 65.0019 209.622 64.4695C210.024 63.9252 210.427 63.5052 210.829 63.2094C210.497 63.2449 210.095 63.2922 209.622 63.3514C209.161 63.3987 208.658 63.4579 208.113 63.5289C207.581 63.588 207.037 63.6531 206.481 63.7241C205.925 63.7951 205.386 63.8779 204.866 63.9726C204.357 64.0554 203.895 64.1382 203.481 64.221L203.251 61.7896ZM223.643 60.4763C223.891 60.5118 224.157 60.5354 224.441 60.5473C224.725 60.5591 224.997 60.565 225.258 60.565C225.447 60.565 225.731 60.565 226.11 60.565C226.488 60.5532 226.914 60.5414 227.387 60.5295C227.872 60.5177 228.352 60.5059 228.825 60.494C229.298 60.4822 229.724 60.4704 230.103 60.4585C230.493 60.4349 230.795 60.4171 231.008 60.4053C231.375 60.3698 231.665 60.3402 231.878 60.3166C232.09 60.2811 232.25 60.2456 232.357 60.2101L233.51 61.7896C233.309 61.9198 233.102 62.0499 232.889 62.1801C232.676 62.3102 232.469 62.4522 232.268 62.606C232.031 62.7716 231.747 62.9905 231.416 63.2627C231.085 63.523 230.73 63.801 230.351 64.0968C229.984 64.3926 229.624 64.6825 229.269 64.9664C228.925 65.2504 228.612 65.5048 228.328 65.7296C228.624 65.6586 228.908 65.6113 229.18 65.5876C229.452 65.5521 229.73 65.5344 230.014 65.5344C231.02 65.5344 231.919 65.7296 232.712 66.12C233.516 66.5105 234.149 67.0429 234.611 67.7173C235.084 68.3799 235.321 69.1431 235.321 70.0068C235.321 70.9415 235.084 71.7875 234.611 72.5447C234.137 73.3019 233.422 73.9053 232.463 74.355C231.517 74.8046 230.328 75.0294 228.896 75.0294C228.08 75.0294 227.34 74.911 226.677 74.6744C226.027 74.4378 225.512 74.1006 225.133 73.6628C224.755 73.225 224.565 72.7103 224.565 72.1187C224.565 71.6336 224.696 71.184 224.956 70.7699C225.228 70.344 225.601 70.0009 226.074 69.7406C226.559 69.4803 227.115 69.3501 227.742 69.3501C228.559 69.3501 229.245 69.5158 229.801 69.847C230.369 70.1665 230.801 70.5984 231.097 71.1426C231.404 71.6869 231.564 72.2844 231.576 72.9351L229.499 73.2191C229.487 72.5684 229.322 72.0478 229.002 71.6573C228.695 71.255 228.281 71.0539 227.76 71.0539C227.429 71.0539 227.163 71.1426 226.961 71.3201C226.76 71.4857 226.66 71.681 226.66 71.9058C226.66 72.2371 226.825 72.5033 227.157 72.7044C227.488 72.9056 227.92 73.0061 228.452 73.0061C229.458 73.0061 230.298 72.8878 230.972 72.6512C231.647 72.4027 232.15 72.0537 232.481 71.6041C232.824 71.1426 232.996 70.5984 232.996 69.9713C232.996 69.4389 232.83 68.9715 232.499 68.5692C232.179 68.1669 231.741 67.8534 231.185 67.6286C230.629 67.4038 230.002 67.2914 229.304 67.2914C228.618 67.2914 227.991 67.3801 227.423 67.5576C226.855 67.7232 226.317 67.9658 225.808 68.2853C225.311 68.5929 224.82 68.9715 224.335 69.4211C223.861 69.8589 223.388 70.3499 222.915 70.8942L221.3 69.2259C221.619 68.9656 221.98 68.6757 222.383 68.3562C222.785 68.025 223.193 67.6818 223.607 67.3269C224.033 66.9719 224.429 66.6406 224.796 66.333C225.175 66.0136 225.494 65.7473 225.755 65.5344C226.003 65.3332 226.293 65.0966 226.624 64.8245C226.955 64.5523 227.299 64.2743 227.654 63.9903C228.009 63.6945 228.346 63.4165 228.665 63.1562C228.985 62.884 229.251 62.6533 229.464 62.464C229.286 62.464 229.056 62.4699 228.772 62.4818C228.488 62.4936 228.174 62.5054 227.831 62.5173C227.5 62.5291 227.163 62.5409 226.819 62.5528C226.488 62.5646 226.175 62.5823 225.879 62.606C225.595 62.6178 225.358 62.6297 225.169 62.6415C224.932 62.6533 224.684 62.6711 224.423 62.6947C224.163 62.7184 223.927 62.748 223.714 62.7835L223.643 60.4763ZM245.454 69.4389L244.975 63.3691L244.887 60.7247H247.833L247.744 63.3691L247.265 69.4389H245.454ZM246.36 74.1597C245.91 74.1597 245.537 74.0118 245.241 73.716C244.946 73.4202 244.798 73.0475 244.798 72.5979C244.798 72.1365 244.946 71.7579 245.241 71.4621C245.537 71.1663 245.91 71.0184 246.36 71.0184C246.809 71.0184 247.182 71.1663 247.478 71.4621C247.773 71.7579 247.921 72.1365 247.921 72.5979C247.921 73.0475 247.773 73.4202 247.478 73.716C247.182 74.0118 246.809 74.1597 246.36 74.1597Z" fill="white"/>
</svg>
