<svg width="249" height="134" viewBox="0 0 249 134" fill="none" xmlns="http://www.w3.org/2000/svg">
<g clip-path="url(#clip0_802_4763)">
<path d="M236.743 49.5491C241.925 42.8864 241.185 35.1653 233.315 28.5026C225.446 21.8399 212.175 17.6787 197.752 16.5241C192.953 9.78925 182.26 4.11271 167.48 1.49092C152.701 -1.13087 137.044 -0.168747 124.513 3.48733C111.982 -0.168747 96.3257 -1.15493 81.5464 1.49092C66.7671 4.11271 56.0459 9.78925 51.2748 16.5241C36.8794 17.6546 23.5808 21.8399 15.7112 28.5026C7.84174 35.1653 7.1014 42.8864 12.2838 49.5491C2.74164 54.937 -1.97458 62.3213 0.767406 69.898C3.5094 77.4748 13.0515 83.6083 25.8018 87.096C25.5824 94.2398 31.697 101.36 43.7344 106.29C55.7717 111.245 71.1817 112.929 85.5223 111.582C94.7354 117.114 108.774 120.65 124.513 120.65C140.252 120.65 154.264 117.114 163.504 111.582C177.845 112.929 193.228 111.221 205.292 106.29C217.357 101.335 223.444 94.2157 223.225 87.096C235.975 83.6083 245.545 77.4748 248.259 69.898C251.001 62.3213 246.313 54.961 236.77 49.5491H236.743Z" fill="#FA4B06"/>
<path d="M59.1014 111.937C61.2491 105.54 55.418 98.3976 46.0773 95.9845C36.7367 93.5714 27.4235 96.8009 25.2759 103.198C23.1282 109.595 28.9593 116.737 38.3 119.15C47.6407 121.563 56.9538 118.334 59.1014 111.937Z" fill="#FA4B06"/>
<path d="M34.8105 129.293C36.0598 125.572 32.8212 121.457 27.5771 120.102C22.333 118.747 17.069 120.666 15.8198 124.387C14.5706 128.108 17.8091 132.222 23.0532 133.577C28.2974 134.932 33.5613 133.014 34.8105 129.293Z" fill="#FA4B06"/>
<path d="M52.219 61.1689H55.8973V62.509H52.219V61.1689ZM52.219 63.5783H55.9115V64.9185H52.219V63.5783ZM49.4674 65.9735H59.0909V67.556H49.4674V65.9735ZM48.3838 58.6026H60.0318V68.2831H58.2925V60.1709H50.0376V68.2831H48.3838V58.6026ZM51.4919 59.6434H53.0174V66.6863H51.4919V59.6434ZM55.2129 59.6434H56.7527V66.6721H55.2129V59.6434ZM53.1172 56.4498L55.1274 56.8775C54.9563 57.4003 54.79 57.923 54.6284 58.4458C54.4763 58.959 54.329 59.401 54.1864 59.7717L52.6324 59.3582C52.699 59.0826 52.7655 58.7785 52.832 58.4458C52.8986 58.1036 52.9556 57.7615 53.0031 57.4193C53.0601 57.0676 53.0982 56.7445 53.1172 56.4498ZM47.7993 55.7084H60.6876V57.3195H47.7993V55.7084ZM64.0095 65.6028H72.8631V67.3279H64.0095V65.6028ZM63.981 61.2402H72.8631V62.9368H63.981V61.2402ZM63.0971 56.9631H73.8896V68.2404H72.0647V58.7024H64.8222V68.2546H63.0971V56.9631ZM67.2744 54.8245L69.5127 55.1239C69.2941 55.6562 69.0613 56.1742 68.8141 56.6779C68.567 57.1817 68.3437 57.6141 68.1441 57.9753L66.4475 57.6331C66.552 57.3575 66.6566 57.0581 66.7611 56.735C66.8752 56.4118 66.975 56.0839 67.0605 55.7512C67.1556 55.4186 67.2269 55.1097 67.2744 54.8245ZM79.3073 56.8062C79.2693 56.9773 79.236 57.1722 79.2075 57.3908C79.1885 57.6094 79.1695 57.8232 79.1505 58.0323C79.141 58.2414 79.1362 58.4125 79.1362 58.5456C79.1267 58.8592 79.1219 59.1824 79.1219 59.5151C79.1315 59.8477 79.141 60.1899 79.1505 60.5416C79.1695 60.8837 79.1932 61.2259 79.2217 61.5681C79.2883 62.2524 79.3833 62.856 79.5069 63.3787C79.6304 63.9015 79.792 64.3102 79.9916 64.6048C80.1912 64.89 80.4431 65.0325 80.7472 65.0325C80.9088 65.0325 81.0657 64.9422 81.2177 64.7616C81.3793 64.5811 81.5219 64.3482 81.6454 64.0631C81.7785 63.7684 81.8926 63.4595 81.9876 63.1364C82.0922 62.8132 82.1825 62.509 82.2585 62.2239L83.6842 63.9633C83.3705 64.7902 83.0569 65.4507 82.7432 65.945C82.4391 66.4297 82.1207 66.7814 81.788 67C81.4553 67.2091 81.0942 67.3137 80.7045 67.3137C80.1912 67.3137 79.7017 67.1426 79.236 66.8004C78.7798 66.4582 78.3901 65.907 78.0669 65.1466C77.7438 64.3767 77.5157 63.355 77.3826 62.0813C77.3351 61.6441 77.2971 61.1831 77.2685 60.6984C77.2495 60.2137 77.2353 59.7527 77.2258 59.3155C77.2258 58.8783 77.2258 58.5171 77.2258 58.2319C77.2258 58.0323 77.2163 57.7947 77.1973 57.5191C77.1782 57.2435 77.1497 56.9963 77.1117 56.7777L79.3073 56.8062ZM86.4358 57.1341C86.7019 57.4573 86.9586 57.8518 87.2057 58.3175C87.4528 58.7832 87.6809 59.2822 87.89 59.8145C88.0991 60.3467 88.2845 60.8932 88.446 61.454C88.6076 62.0053 88.7359 62.5471 88.831 63.0793C88.9355 63.6021 89.0021 64.0821 89.0306 64.5193L87.1486 65.2464C87.1011 64.6666 87.0156 64.0345 86.892 63.3502C86.7685 62.6659 86.6021 61.9768 86.393 61.2829C86.1839 60.5891 85.932 59.9333 85.6374 59.3155C85.3523 58.6977 85.0148 58.1654 84.6252 57.7187L86.4358 57.1341ZM92.9655 56.6352C93.4883 56.6922 94.0776 56.735 94.7334 56.7635C95.3892 56.792 96.0925 56.8062 96.8434 56.8062C97.3091 56.8062 97.7891 56.7967 98.2834 56.7777C98.7871 56.7587 99.2719 56.735 99.7376 56.7064C100.203 56.6779 100.617 56.6447 100.978 56.6066V58.5028C100.645 58.5313 100.241 58.5598 99.7661 58.5884C99.3004 58.6169 98.8109 58.6406 98.2976 58.6596C97.7939 58.6692 97.3139 58.6739 96.8577 58.6739C96.1163 58.6739 95.4272 58.6596 94.7904 58.6311C94.1536 58.6026 93.5453 58.5646 92.9655 58.5171V56.6352ZM94.1631 62.6801C94.0966 62.9272 94.0395 63.1696 93.992 63.4072C93.9445 63.6449 93.9207 63.8825 93.9207 64.1201C93.9207 64.5763 94.1488 64.9517 94.6051 65.2464C95.0708 65.541 95.8169 65.6884 96.8434 65.6884C97.4897 65.6884 98.1123 65.6646 98.7111 65.6171C99.3099 65.5695 99.8754 65.503 100.408 65.4175C100.949 65.3319 101.429 65.2321 101.848 65.1181L101.862 67.1283C101.444 67.2234 100.978 67.3041 100.465 67.3707C99.9514 67.4467 99.3954 67.5037 98.7966 67.5418C98.2073 67.5893 97.58 67.6131 96.9147 67.6131C95.8312 67.6131 94.9235 67.4942 94.1916 67.2566C93.4597 67.019 92.9132 66.6768 92.5521 66.2301C92.1909 65.7739 92.0103 65.2179 92.0103 64.5621C92.0103 64.1438 92.0436 63.7637 92.1101 63.4215C92.1766 63.0793 92.2384 62.7752 92.2954 62.509L94.1631 62.6801ZM115.991 58.6882C115.781 58.8212 115.558 58.9495 115.32 59.0731C115.092 59.1967 114.845 59.325 114.579 59.458C114.361 59.5721 114.09 59.7052 113.766 59.8572C113.453 60.0093 113.111 60.1804 112.74 60.3705C112.379 60.5511 112.013 60.7459 111.642 60.955C111.272 61.1546 110.925 61.359 110.601 61.5681C110.012 61.9578 109.532 62.3617 109.161 62.7799C108.8 63.1981 108.62 63.6591 108.62 64.1629C108.62 64.6666 108.867 65.0563 109.361 65.3319C109.855 65.5981 110.597 65.7311 111.585 65.7311C112.079 65.7311 112.602 65.7121 113.153 65.6741C113.714 65.6266 114.265 65.5648 114.807 65.4888C115.349 65.4032 115.829 65.3082 116.247 65.2036L116.219 67.2566C115.819 67.3232 115.382 67.3849 114.907 67.442C114.441 67.499 113.933 67.5418 113.382 67.5703C112.84 67.5988 112.26 67.6131 111.642 67.6131C110.929 67.6131 110.269 67.556 109.66 67.442C109.062 67.3374 108.534 67.1616 108.078 66.9145C107.631 66.6673 107.28 66.3347 107.023 65.9165C106.776 65.4983 106.652 64.985 106.652 64.3767C106.652 63.7684 106.785 63.2171 107.051 62.7229C107.318 62.2287 107.679 61.7724 108.135 61.3542C108.601 60.936 109.109 60.5416 109.66 60.1709C110.003 59.9428 110.364 59.7242 110.744 59.5151C111.124 59.2965 111.495 59.0874 111.856 58.8878C112.227 58.6882 112.569 58.5076 112.883 58.346C113.206 58.1749 113.472 58.0276 113.681 57.904C113.957 57.7424 114.199 57.5951 114.408 57.4621C114.617 57.329 114.817 57.1864 115.007 57.0343L115.991 58.6882ZM108.819 55.6372C109.057 56.2645 109.304 56.868 109.561 57.4478C109.827 58.0276 110.088 58.5694 110.345 59.0731C110.611 59.5768 110.853 60.0283 111.072 60.4275L109.461 61.3827C109.204 60.9455 108.938 60.456 108.662 59.9143C108.387 59.3725 108.111 58.8022 107.836 58.2034C107.56 57.5951 107.294 56.9821 107.037 56.3643L108.819 55.6372ZM124.858 55.8368C124.82 56.0173 124.778 56.2169 124.73 56.4356C124.683 56.6447 124.64 56.8395 124.602 57.0201C124.564 57.2292 124.516 57.4668 124.459 57.7329C124.402 57.9896 124.345 58.2509 124.288 58.5171C124.241 58.7737 124.188 59.0256 124.131 59.2727C124.036 59.6814 123.917 60.1566 123.775 60.6984C123.632 61.2402 123.466 61.8247 123.276 62.452C123.086 63.0698 122.872 63.6924 122.634 64.3197C122.397 64.947 122.145 65.56 121.879 66.1588C121.613 66.7481 121.327 67.2804 121.023 67.7556L119.17 67.0143C119.503 66.5675 119.811 66.0685 120.097 65.5173C120.391 64.9565 120.657 64.3862 120.895 63.8064C121.133 63.2171 121.342 62.6374 121.522 62.0671C121.712 61.4873 121.874 60.9503 122.007 60.456C122.15 59.9618 122.259 59.5388 122.335 59.1872C122.468 58.5408 122.573 57.9183 122.649 57.3195C122.725 56.7207 122.753 56.1552 122.734 55.6229L124.858 55.8368ZM129.763 57.2767C129.991 57.5904 130.224 57.9753 130.461 58.4315C130.709 58.8783 130.951 59.3535 131.189 59.8572C131.426 60.361 131.64 60.8457 131.83 61.3115C132.02 61.7772 132.168 62.1811 132.272 62.5233L130.461 63.3502C130.376 62.951 130.248 62.509 130.077 62.0243C129.915 61.5396 129.725 61.0501 129.506 60.5558C129.288 60.0521 129.055 59.5769 128.808 59.1301C128.57 58.6834 128.323 58.308 128.066 58.0038L129.763 57.2767ZM119.07 58.7594C119.327 58.7785 119.579 58.788 119.826 58.788C120.082 58.7785 120.339 58.769 120.596 58.7594C120.833 58.7499 121.118 58.7357 121.451 58.7167C121.784 58.6882 122.135 58.6596 122.506 58.6311C122.886 58.6026 123.266 58.5741 123.647 58.5456C124.027 58.5076 124.378 58.4791 124.702 58.4601C125.025 58.441 125.291 58.4315 125.5 58.4315C126.013 58.4315 126.46 58.5171 126.84 58.6882C127.22 58.8497 127.52 59.1301 127.738 59.5293C127.966 59.9285 128.081 60.4703 128.081 61.1546C128.081 61.7154 128.057 62.3237 128.009 62.9795C127.962 63.6353 127.876 64.2627 127.753 64.8614C127.639 65.4602 127.477 65.9687 127.268 66.3869C127.04 66.8812 126.726 67.2234 126.327 67.4135C125.937 67.6035 125.471 67.6986 124.93 67.6986C124.664 67.6986 124.374 67.6748 124.06 67.6273C123.746 67.5893 123.466 67.5465 123.219 67.499L122.919 65.6171C123.1 65.6646 123.3 65.7121 123.518 65.7596C123.746 65.8072 123.96 65.8452 124.16 65.8737C124.369 65.9022 124.535 65.9165 124.659 65.9165C124.896 65.9165 125.106 65.8737 125.286 65.7882C125.467 65.6931 125.614 65.5315 125.728 65.3034C125.861 65.0278 125.97 64.6714 126.056 64.2341C126.142 63.7969 126.203 63.3264 126.241 62.8227C126.289 62.3094 126.313 61.82 126.313 61.3542C126.313 60.974 126.256 60.6936 126.142 60.5131C126.037 60.3325 125.88 60.2137 125.671 60.1566C125.471 60.0901 125.224 60.0568 124.93 60.0568C124.711 60.0568 124.416 60.0758 124.046 60.1139C123.675 60.1424 123.276 60.1804 122.848 60.2279C122.43 60.2659 122.04 60.3087 121.679 60.3562C121.318 60.4038 121.038 60.437 120.838 60.456C120.629 60.4941 120.363 60.5368 120.04 60.5843C119.726 60.6224 119.46 60.6604 119.241 60.6984L119.07 58.7594ZM129.506 55.295C129.63 55.4661 129.758 55.6704 129.891 55.908C130.034 56.1457 130.172 56.3833 130.305 56.6209C130.438 56.8585 130.552 57.0676 130.647 57.2482L129.492 57.7472C129.397 57.5476 129.288 57.329 129.164 57.0914C129.04 56.8538 128.912 56.6161 128.779 56.3785C128.646 56.1409 128.513 55.9366 128.38 55.7655L129.506 55.295ZM131.203 54.6534C131.326 54.834 131.459 55.0431 131.602 55.2807C131.745 55.5184 131.882 55.756 132.015 55.9936C132.158 56.2312 132.267 56.4308 132.343 56.5924L131.217 57.0771C131.065 56.7825 130.884 56.4498 130.675 56.0791C130.466 55.6989 130.262 55.3758 130.062 55.1097L131.203 54.6534ZM136.335 56.8062C136.297 56.9773 136.264 57.1722 136.236 57.3908C136.217 57.6094 136.198 57.8232 136.178 58.0323C136.169 58.2414 136.164 58.4125 136.164 58.5456C136.155 58.8592 136.15 59.1824 136.15 59.5151C136.159 59.8477 136.169 60.1899 136.178 60.5416C136.198 60.8837 136.221 61.2259 136.25 61.5681C136.316 62.2524 136.411 62.856 136.535 63.3787C136.658 63.9015 136.82 64.3102 137.02 64.6048C137.219 64.89 137.471 65.0325 137.775 65.0325C137.937 65.0325 138.094 64.9422 138.246 64.7616C138.407 64.5811 138.55 64.3482 138.673 64.0631C138.807 63.7684 138.921 63.4595 139.016 63.1364C139.12 62.8132 139.21 62.509 139.287 62.2239L140.712 63.9633C140.399 64.7902 140.085 65.4507 139.771 65.945C139.467 66.4297 139.149 66.7814 138.816 67C138.483 67.2091 138.122 67.3137 137.733 67.3137C137.219 67.3137 136.73 67.1426 136.264 66.8004C135.808 66.4582 135.418 65.907 135.095 65.1466C134.772 64.3767 134.544 63.355 134.411 62.0813C134.363 61.6441 134.325 61.1831 134.297 60.6984C134.278 60.2137 134.263 59.7527 134.254 59.3155C134.254 58.8783 134.254 58.5171 134.254 58.2319C134.254 58.0323 134.244 57.7947 134.225 57.5191C134.206 57.2435 134.178 56.9963 134.14 56.7777L136.335 56.8062ZM143.464 57.1341C143.73 57.4573 143.987 57.8518 144.234 58.3175C144.481 58.7832 144.709 59.2822 144.918 59.8145C145.127 60.3467 145.312 60.8932 145.474 61.454C145.636 62.0053 145.764 62.5471 145.859 63.0793C145.964 63.6021 146.03 64.0821 146.059 64.5193L144.177 65.2464C144.129 64.6666 144.044 64.0345 143.92 63.3502C143.796 62.6659 143.63 61.9768 143.421 61.2829C143.212 60.5891 142.96 59.9333 142.665 59.3155C142.38 58.6977 142.043 58.1654 141.653 57.7187L143.464 57.1341ZM148.924 60.9693C149.143 60.9218 149.395 60.8647 149.68 60.7982C149.965 60.7222 150.217 60.6509 150.436 60.5843C150.673 60.5083 150.992 60.4085 151.391 60.2849C151.79 60.1614 152.227 60.0378 152.702 59.9143C153.187 59.7907 153.672 59.6862 154.157 59.6006C154.651 59.5151 155.117 59.4723 155.554 59.4723C156.305 59.4723 156.96 59.6149 157.521 59.9C158.092 60.1756 158.533 60.5748 158.847 61.0976C159.161 61.6204 159.318 62.2429 159.318 62.9653C159.318 63.6116 159.175 64.2009 158.89 64.7331C158.614 65.2654 158.191 65.7311 157.621 66.1303C157.051 66.5295 156.338 66.8527 155.482 67.0998C154.637 67.3564 153.648 67.518 152.517 67.5845L151.761 65.8309C152.579 65.8119 153.33 65.7406 154.014 65.6171C154.708 65.4935 155.307 65.3177 155.81 65.0896C156.324 64.8519 156.718 64.5525 156.994 64.1914C157.279 63.8302 157.421 63.412 157.421 62.9368C157.421 62.5756 157.336 62.2619 157.165 61.9958C157.003 61.7202 156.77 61.5063 156.466 61.3542C156.162 61.2021 155.801 61.1261 155.383 61.1261C155.05 61.1261 154.679 61.1689 154.271 61.2544C153.862 61.34 153.439 61.4493 153.002 61.5823C152.574 61.7154 152.151 61.858 151.733 62.01C151.315 62.1621 150.925 62.3094 150.564 62.452C150.203 62.5946 149.903 62.7181 149.666 62.8227L148.924 60.9693ZM166.318 58.4173C166.727 58.4553 167.135 58.4838 167.544 58.5028C167.962 58.5218 168.385 58.5313 168.813 58.5313C169.687 58.5313 170.557 58.4933 171.422 58.4173C172.287 58.3412 173.09 58.2319 173.831 58.0894V59.843C173.08 59.957 172.272 60.0426 171.408 60.0996C170.543 60.1566 169.678 60.1899 168.813 60.1994C168.395 60.1994 167.981 60.1947 167.572 60.1851C167.164 60.1661 166.75 60.1424 166.332 60.1139L166.318 58.4173ZM171.735 56.0078C171.716 56.1409 171.697 56.2882 171.678 56.4498C171.669 56.6114 171.659 56.7682 171.65 56.9203C171.64 57.0724 171.631 57.2815 171.621 57.5476C171.612 57.8042 171.602 58.0941 171.593 58.4173C171.593 58.7309 171.593 59.0588 171.593 59.401C171.593 60.0568 171.602 60.6651 171.621 61.2259C171.65 61.7867 171.678 62.3094 171.707 62.7942C171.745 63.2694 171.774 63.7114 171.793 64.1201C171.812 64.5193 171.821 64.89 171.821 65.2321C171.821 65.6028 171.769 65.9497 171.664 66.2729C171.569 66.5865 171.412 66.8574 171.194 67.0855C170.975 67.3232 170.685 67.5037 170.324 67.6273C169.972 67.7604 169.54 67.8269 169.027 67.8269C168.038 67.8269 167.259 67.6273 166.689 67.2281C166.118 66.8289 165.833 66.2539 165.833 65.503C165.833 65.0183 165.961 64.5906 166.218 64.2199C166.484 63.8492 166.85 63.5641 167.316 63.3645C167.791 63.1554 168.352 63.0508 168.998 63.0508C169.673 63.0508 170.286 63.1268 170.837 63.2789C171.389 63.4215 171.888 63.6116 172.334 63.8492C172.791 64.0868 173.199 64.3434 173.56 64.6191C173.922 64.8947 174.24 65.1608 174.516 65.4175L173.56 66.9145C173.009 66.4012 172.472 65.9592 171.949 65.5886C171.436 65.2179 170.928 64.9327 170.424 64.7331C169.92 64.5335 169.397 64.4337 168.856 64.4337C168.456 64.4337 168.128 64.5145 167.872 64.6761C167.625 64.8282 167.501 65.0373 167.501 65.3034C167.501 65.5981 167.629 65.8119 167.886 65.945C168.143 66.078 168.456 66.1446 168.827 66.1446C169.122 66.1446 169.355 66.0923 169.526 65.9878C169.697 65.8832 169.82 65.7359 169.896 65.5458C169.972 65.3557 170.01 65.1228 170.01 64.8472C170.01 64.6001 170.001 64.2769 169.982 63.8777C169.963 63.469 169.939 63.0223 169.911 62.5376C169.882 62.0433 169.858 61.5301 169.839 60.9978C169.82 60.456 169.811 59.9285 169.811 59.4153C169.811 58.8735 169.811 58.3793 169.811 57.9325C169.811 57.4858 169.806 57.1579 169.797 56.9488C169.797 56.8348 169.787 56.6874 169.768 56.5068C169.749 56.3167 169.725 56.1504 169.697 56.0078H171.735ZM164.778 56.1504C164.75 56.2455 164.712 56.3785 164.664 56.5496C164.616 56.7207 164.569 56.8918 164.521 57.0629C164.483 57.2244 164.455 57.348 164.436 57.4335C164.388 57.6236 164.336 57.8898 164.279 58.2319C164.232 58.5741 164.175 58.959 164.108 59.3868C164.041 59.805 163.984 60.2327 163.937 60.6699C163.889 61.1071 163.847 61.5253 163.809 61.9245C163.78 62.3237 163.766 62.6659 163.766 62.951C163.766 63.0841 163.771 63.2361 163.78 63.4072C163.79 63.5783 163.804 63.7351 163.823 63.8777C163.889 63.7066 163.956 63.5403 164.022 63.3787C164.098 63.2171 164.17 63.0556 164.236 62.894C164.312 62.7324 164.384 62.5756 164.45 62.4235L165.334 63.1078C165.211 63.4975 165.077 63.9062 164.935 64.3339C164.792 64.7616 164.664 65.1704 164.55 65.56C164.445 65.9402 164.365 66.2586 164.308 66.5153C164.289 66.6103 164.27 66.7244 164.251 66.8574C164.232 66.9905 164.227 67.095 164.236 67.1711C164.236 67.2471 164.236 67.3374 164.236 67.442C164.236 67.556 164.241 67.6653 164.251 67.7699L162.654 67.8839C162.502 67.3897 162.369 66.7481 162.255 65.9592C162.141 65.1704 162.083 64.2959 162.083 63.3359C162.083 62.7942 162.107 62.2334 162.155 61.6536C162.202 61.0738 162.259 60.5131 162.326 59.9713C162.392 59.42 162.454 58.921 162.511 58.4743C162.578 58.0276 162.63 57.6664 162.668 57.3908C162.697 57.1912 162.725 56.9631 162.754 56.7064C162.782 56.4498 162.801 56.2122 162.811 55.9936L164.778 56.1504ZM172.947 56.2787C172.947 56.4688 173.014 56.6304 173.147 56.7635C173.28 56.8965 173.446 56.9631 173.646 56.9631C173.836 56.9631 173.998 56.8965 174.131 56.7635C174.273 56.6304 174.345 56.4688 174.345 56.2787C174.345 56.0791 174.273 55.9128 174.131 55.7797C173.998 55.6467 173.836 55.5801 173.646 55.5801C173.446 55.5801 173.28 55.6467 173.147 55.7797C173.014 55.9128 172.947 56.0791 172.947 56.2787ZM172.106 56.2787C172.106 55.851 172.253 55.4898 172.548 55.1952C172.843 54.891 173.209 54.739 173.646 54.739C174.074 54.739 174.435 54.891 174.729 55.1952C175.034 55.4898 175.186 55.851 175.186 56.2787C175.186 56.7064 175.034 57.0676 174.729 57.3623C174.435 57.6569 174.074 57.8042 173.646 57.8042C173.209 57.8042 172.843 57.6569 172.548 57.3623C172.253 57.0676 172.106 56.7064 172.106 56.2787ZM179.106 56.8062C179.068 56.9773 179.035 57.1722 179.007 57.3908C178.988 57.6094 178.969 57.8232 178.95 58.0323C178.94 58.2414 178.935 58.4125 178.935 58.5456C178.926 58.8592 178.921 59.1824 178.921 59.5151C178.931 59.8477 178.94 60.1899 178.95 60.5416C178.969 60.8837 178.992 61.2259 179.021 61.5681C179.087 62.2524 179.182 62.856 179.306 63.3787C179.43 63.9015 179.591 64.3102 179.791 64.6048C179.99 64.89 180.242 65.0325 180.546 65.0325C180.708 65.0325 180.865 64.9422 181.017 64.7616C181.178 64.5811 181.321 64.3482 181.445 64.0631C181.578 63.7684 181.692 63.4595 181.787 63.1364C181.891 62.8132 181.982 62.509 182.058 62.2239L183.483 63.9633C183.17 64.7902 182.856 65.4507 182.542 65.945C182.238 66.4297 181.92 66.7814 181.587 67C181.254 67.2091 180.893 67.3137 180.504 67.3137C179.99 67.3137 179.501 67.1426 179.035 66.8004C178.579 66.4582 178.189 65.907 177.866 65.1466C177.543 64.3767 177.315 63.355 177.182 62.0813C177.134 61.6441 177.096 61.1831 177.068 60.6984C177.049 60.2137 177.034 59.7527 177.025 59.3155C177.025 58.8783 177.025 58.5171 177.025 58.2319C177.025 58.0323 177.015 57.7947 176.996 57.5191C176.977 57.2435 176.949 56.9963 176.911 56.7777L179.106 56.8062ZM186.235 57.1341C186.501 57.4573 186.758 57.8518 187.005 58.3175C187.252 58.7832 187.48 59.2822 187.689 59.8145C187.898 60.3467 188.084 60.8932 188.245 61.454C188.407 62.0053 188.535 62.5471 188.63 63.0793C188.735 63.6021 188.801 64.0821 188.83 64.5193L186.948 65.2464C186.9 64.6666 186.815 64.0345 186.691 63.3502C186.568 62.6659 186.401 61.9768 186.192 61.2829C185.983 60.5891 185.731 59.9333 185.436 59.3155C185.151 58.6977 184.814 58.1654 184.424 57.7187L186.235 57.1341ZM196.058 63.3359L195.673 58.4601L195.602 56.3358H197.968L197.897 58.4601L197.512 63.3359H196.058ZM196.785 67.1283C196.424 67.1283 196.124 67.0095 195.887 66.7719C195.649 66.5343 195.53 66.2349 195.53 65.8737C195.53 65.503 195.649 65.1989 195.887 64.9612C196.124 64.7236 196.424 64.6048 196.785 64.6048C197.146 64.6048 197.446 64.7236 197.683 64.9612C197.921 65.1989 198.04 65.503 198.04 65.8737C198.04 66.2349 197.921 66.5343 197.683 66.7719C197.446 67.0095 197.146 67.1283 196.785 67.1283Z" fill="white"/>
</g>
<defs>
<clipPath id="clip0_802_4763">
<rect width="249" height="134" fill="white"/>
</clipPath>
</defs>
</svg>
