<svg width="314" height="123" viewBox="0 0 314 123" fill="none" xmlns="http://www.w3.org/2000/svg">
<g clip-path="url(#clip0_802_3840)">
<path d="M293.085 71.8004C294.319 73.4145 296.065 75.3117 298.46 77.0406C304.469 81.3743 310.815 81.9289 313.745 81.9863C313.077 83.0879 308.106 91.0171 298.567 92.1837C293.131 92.8492 288.856 90.9979 287.011 90.057C283.691 95.0945 277.574 102.97 267.569 109.557C250.194 120.997 232.774 120.852 227.288 120.729C220.14 120.573 25.6056 129.963 8.43708 109.557C-3.58926 95.2705 0.835348 34.297 0.629051 29.6688C-0.306925 8.56265 19.9286 7.28111 24.1577 2.1786C32.0783 -2.12338 221.225 1.29478 226.088 1.17238C230.55 1.06146 253.598 0.939051 272.635 18.882C294.762 39.7433 293.345 67.9257 293.081 71.8004H293.085Z" fill="#FA4B06"/>
<path d="M49.1604 55.7309C49.36 55.7499 49.5691 55.7689 49.7877 55.7879C50.0158 55.7974 50.2059 55.8022 50.358 55.8022C50.5671 55.8022 50.8047 55.7974 51.0709 55.7879C51.3465 55.7784 51.6269 55.7689 51.912 55.7594C52.1972 55.7499 52.468 55.7356 52.7247 55.7166C52.9813 55.6976 53.1904 55.6834 53.352 55.6739C53.5231 55.6643 53.6942 55.6406 53.8652 55.6026C54.0458 55.5645 54.1979 55.5218 54.3215 55.4743L55.462 56.3582C55.367 56.4722 55.2767 56.5768 55.1911 56.6718C55.1056 56.7574 55.0343 56.8524 54.9773 56.957C54.8157 57.2231 54.6304 57.589 54.4213 58.0548C54.2122 58.511 53.9888 59.0052 53.7512 59.5375C53.5231 60.0698 53.2997 60.5878 53.0811 61.0915C52.9385 61.4147 52.7912 61.7568 52.6391 62.118C52.4871 62.4792 52.3302 62.8404 52.1687 63.2016C52.0071 63.5532 51.8502 63.8859 51.6982 64.1995C51.5461 64.5037 51.3988 64.7698 51.2562 64.9979C50.9711 65.4256 50.6527 65.7441 50.301 65.9532C49.9493 66.1528 49.5264 66.2526 49.0321 66.2526C48.4048 66.2526 47.882 66.0482 47.4638 65.6395C47.0456 65.2308 46.8365 64.6653 46.8365 63.9429C46.8365 63.3726 46.9648 62.8404 47.2215 62.3461C47.4781 61.8519 47.8393 61.4242 48.305 61.063C48.7802 60.6923 49.3363 60.4072 49.9731 60.2076C50.6099 60.008 51.3085 59.9082 52.0689 59.9082C52.8958 59.9082 53.6942 60.0032 54.464 60.1933C55.2339 60.3834 55.9515 60.6258 56.6168 60.9204C57.2917 61.2151 57.8952 61.524 58.4275 61.8471C58.9692 62.1608 59.4302 62.4459 59.8104 62.7026L58.9692 64.6843C58.5415 64.2851 58.0616 63.9001 57.5293 63.5295C56.997 63.1588 56.4267 62.8214 55.8184 62.5172C55.2197 62.2036 54.5781 61.9564 53.8938 61.7759C53.2189 61.5953 52.5156 61.505 51.7837 61.505C51.0899 61.505 50.4958 61.6143 50.0016 61.8329C49.5168 62.0515 49.1462 62.3271 48.8895 62.6598C48.6329 62.9829 48.5046 63.3204 48.5046 63.672C48.5046 63.9001 48.5616 64.076 48.6757 64.1995C48.7992 64.3231 48.9418 64.3849 49.1034 64.3849C49.2555 64.3849 49.3838 64.3469 49.4883 64.2708C49.5929 64.1948 49.7117 64.0665 49.8448 63.8859C49.9683 63.7148 50.0871 63.5105 50.2012 63.2728C50.3247 63.0352 50.4483 62.7738 50.5719 62.4887C50.7049 62.2036 50.8332 61.9137 50.9568 61.619C51.0899 61.3244 51.2182 61.0392 51.3417 60.7636C51.5128 60.3834 51.6887 59.989 51.8693 59.5803C52.0498 59.1621 52.2209 58.7581 52.3825 58.3684C52.5536 57.9787 52.7104 57.6366 52.853 57.3419C52.7104 57.3514 52.5346 57.3609 52.3255 57.3704C52.1164 57.3704 51.893 57.3752 51.6554 57.3847C51.4273 57.3942 51.1992 57.4085 50.9711 57.4275C50.7525 57.437 50.5624 57.4465 50.4008 57.456C50.2582 57.4655 50.0729 57.4797 49.8448 57.4988C49.6262 57.5178 49.4266 57.5415 49.246 57.57L49.1604 55.7309ZM58.5558 59.1098C58.4988 60.1173 58.3942 61.044 58.2421 61.8899C58.0996 62.7263 57.8667 63.4914 57.5435 64.1853C57.2299 64.8696 56.7974 65.4922 56.2462 66.053C55.6949 66.6042 54.9915 67.1032 54.1361 67.5499L52.6249 66.3096C53.4993 65.9294 54.1979 65.4922 54.7207 64.9979C55.2529 64.5037 55.6521 63.9857 55.9182 63.4439C56.1939 62.9022 56.384 62.3746 56.4885 61.8614C56.5931 61.3386 56.6596 60.8682 56.6881 60.45C56.7071 60.1743 56.7166 59.9034 56.7166 59.6373C56.7166 59.3617 56.7071 59.1145 56.6881 58.8959L58.5558 59.1098ZM68.607 55.9305C68.5405 56.0255 68.4644 56.1348 68.3789 56.2584C68.3028 56.3724 68.2268 56.4865 68.1508 56.6006C67.9797 56.8572 67.7896 57.1566 67.5805 57.4988C67.3809 57.8314 67.1718 58.1878 66.9532 58.568C66.7346 58.9387 66.5207 59.3094 66.3116 59.6801C66.112 60.0508 65.9219 60.3929 65.7413 60.7066C66.0075 60.5545 66.2783 60.4452 66.554 60.3787C66.8296 60.3121 67.1052 60.2789 67.3809 60.2789C67.9131 60.2789 68.3313 60.4404 68.6355 60.7636C68.9492 61.0773 69.1202 61.5335 69.1488 62.1323C69.1583 62.3414 69.163 62.5933 69.163 62.8879C69.163 63.1825 69.163 63.4772 69.163 63.7718C69.1725 64.0665 69.1868 64.3136 69.2058 64.5132C69.2343 64.7888 69.3341 64.9884 69.5052 65.112C69.6858 65.226 69.8949 65.2831 70.1325 65.2831C70.4366 65.2831 70.7123 65.1928 70.9594 65.0122C71.216 64.8316 71.4441 64.5845 71.6437 64.2708C71.8433 63.9477 72.0144 63.5865 72.157 63.1873C72.3091 62.7786 72.4374 62.3556 72.5419 61.9184L74.0817 63.173C73.8346 63.9809 73.5209 64.6938 73.1407 65.3116C72.7605 65.9199 72.2948 66.3904 71.7435 66.723C71.2018 67.0652 70.5649 67.2363 69.8331 67.2363C69.3103 67.2363 68.8731 67.1412 68.5214 66.9511C68.1698 66.7706 67.9084 66.5329 67.7373 66.2383C67.5662 65.9341 67.4712 65.6062 67.4522 65.2546C67.4332 64.9979 67.4189 64.7128 67.4094 64.3991C67.4094 64.0855 67.4046 63.7813 67.3951 63.4867C67.3951 63.1825 67.3856 62.9354 67.3666 62.7453C67.3476 62.4982 67.2668 62.3034 67.1243 62.1608C66.9817 62.0182 66.7821 61.9469 66.5255 61.9469C66.2118 61.9469 65.9124 62.0467 65.6273 62.2463C65.3421 62.4459 65.0808 62.7073 64.8431 63.0305C64.615 63.3536 64.4154 63.7101 64.2443 64.0997C64.1493 64.3088 64.0495 64.556 63.9449 64.8411C63.8404 65.1263 63.7406 65.4209 63.6455 65.725C63.5505 66.0292 63.4602 66.3143 63.3747 66.5805C63.2891 66.8561 63.2178 67.089 63.1608 67.2791L61.1506 66.5947C61.3312 66.1195 61.5498 65.5777 61.8064 64.9694C62.0725 64.3516 62.3624 63.7053 62.6761 63.0305C62.9897 62.3556 63.3081 61.6856 63.6313 61.0202C63.9544 60.3549 64.2633 59.7276 64.558 59.1383C64.8526 58.5395 65.114 58.0215 65.3421 57.5843C65.5797 57.1376 65.7603 56.8002 65.8839 56.572C65.9789 56.382 66.0882 56.1681 66.2118 55.9305C66.3354 55.6929 66.4589 55.422 66.5825 55.1178L68.607 55.9305ZM75.821 57.1851C76.1252 57.2231 76.4483 57.2516 76.7905 57.2706C77.1422 57.2801 77.4511 57.2849 77.7172 57.2849C78.3065 57.2849 78.9005 57.2516 79.4993 57.1851C80.1076 57.1186 80.6922 57.033 81.253 56.9285C81.8137 56.8144 82.3222 56.6861 82.7785 56.5435L82.8355 58.1973C82.4268 58.3019 81.9373 58.4112 81.367 58.5253C80.8062 58.6298 80.2122 58.7201 79.5849 58.7961C78.9576 58.8627 78.3398 58.8959 77.7315 58.8959C77.4463 58.8959 77.1564 58.8912 76.8618 58.8817C76.5671 58.8722 76.263 58.8579 75.9493 58.8389L75.821 57.1851ZM81.367 55.0465C81.31 55.2842 81.2339 55.5931 81.1389 55.9733C81.0438 56.3534 80.9345 56.7526 80.811 57.1708C80.6969 57.589 80.5734 58.0025 80.4403 58.4112C80.2312 59.0955 79.9556 59.8226 79.6134 60.5925C79.2712 61.3624 78.9005 62.1133 78.5013 62.8451C78.1022 63.577 77.6982 64.2281 77.2895 64.7983L75.5644 63.9144C75.8876 63.5152 76.206 63.0732 76.5196 62.5885C76.8333 62.1038 77.1279 61.6048 77.4036 61.0915C77.6792 60.5783 77.9263 60.084 78.1449 59.6088C78.373 59.124 78.5536 58.6868 78.6867 58.2971C78.8673 57.7934 79.0241 57.2326 79.1572 56.6148C79.2997 55.9875 79.3805 55.3982 79.3995 54.8469L81.367 55.0465ZM84.7031 59.4805C84.6841 59.7846 84.6746 60.0888 84.6746 60.3929C84.6841 60.6876 84.6936 60.9917 84.7031 61.3054C84.7127 61.524 84.7222 61.8044 84.7317 62.1465C84.7507 62.4792 84.7697 62.8356 84.7887 63.2158C84.8077 63.5865 84.822 63.9429 84.8315 64.2851C84.8505 64.6178 84.86 64.8839 84.86 65.0835C84.86 65.5207 84.7697 65.9199 84.5891 66.2811C84.4085 66.6327 84.1186 66.9131 83.7194 67.1222C83.3297 67.3313 82.7927 67.4359 82.1084 67.4359C81.5191 67.4359 80.9868 67.3456 80.5116 67.165C80.0364 66.9939 79.6562 66.7373 79.371 66.3951C79.0859 66.0435 78.9433 65.6062 78.9433 65.0835C78.9433 64.6178 79.0669 64.1995 79.314 63.8289C79.5611 63.4487 79.9175 63.154 80.3833 62.9449C80.8585 62.7263 81.4288 62.617 82.0941 62.617C82.9305 62.617 83.7004 62.7358 84.4038 62.9734C85.1071 63.2016 85.7392 63.4962 86.2999 63.8574C86.8607 64.2186 87.3407 64.5797 87.7399 64.9409L86.7847 66.4664C86.528 66.2383 86.2334 65.9817 85.9007 65.6965C85.5776 65.4114 85.2116 65.1453 84.8029 64.8981C84.4038 64.651 83.9665 64.4467 83.4913 64.2851C83.0256 64.1235 82.5218 64.0427 81.9801 64.0427C81.5714 64.0427 81.2434 64.1235 80.9963 64.2851C80.7492 64.4467 80.6256 64.6558 80.6256 64.9124C80.6256 65.1785 80.7302 65.3924 80.9393 65.554C81.1579 65.7155 81.4621 65.7963 81.8517 65.7963C82.1749 65.7963 82.4315 65.7441 82.6216 65.6395C82.8117 65.5254 82.9448 65.3686 83.0208 65.169C83.0969 64.9599 83.1349 64.7271 83.1349 64.4704C83.1349 64.2518 83.1254 63.9429 83.1064 63.5437C83.0874 63.1445 83.0636 62.7026 83.0351 62.2178C83.0161 61.7331 82.9971 61.2483 82.9781 60.7636C82.959 60.2789 82.94 59.8512 82.921 59.4805H84.7031ZM87.1554 60.2361C86.8797 60.008 86.5376 59.7656 86.1288 59.509C85.7201 59.2524 85.2972 59.01 84.86 58.7819C84.4323 58.5443 84.0568 58.3542 83.7337 58.2116L84.6461 56.8002C84.9027 56.9142 85.1926 57.0568 85.5158 57.2279C85.8485 57.3894 86.1811 57.5605 86.5138 57.7411C86.856 57.9217 87.1696 58.1023 87.4548 58.2829C87.7494 58.454 87.987 58.606 88.1676 58.7391L87.1554 60.2361ZM89.8784 56.7431C90.1636 56.7336 90.4345 56.7241 90.6911 56.7146C90.9477 56.6956 91.1426 56.6813 91.2756 56.6718C91.5703 56.6528 91.9314 56.6243 92.3592 56.5863C92.7964 56.5388 93.2811 56.4913 93.8134 56.4437C94.3551 56.3962 94.9302 56.3487 95.5385 56.3012C96.1468 56.2536 96.7788 56.2014 97.4347 56.1443C97.9289 56.0968 98.4184 56.0588 98.9031 56.0303C99.3974 55.9923 99.8631 55.9637 100.3 55.9447C100.747 55.9162 101.137 55.8972 101.469 55.8877L101.484 57.7126C101.227 57.7126 100.932 57.7174 100.6 57.7269C100.267 57.7364 99.9344 57.7554 99.6017 57.7839C99.2786 57.8029 98.9887 57.8457 98.732 57.9122C98.3043 58.0263 97.9051 58.2211 97.5345 58.4967C97.1638 58.7629 96.8406 59.0813 96.565 59.452C96.2988 59.8131 96.0897 60.2076 95.9377 60.6353C95.7856 61.0535 95.7096 61.4765 95.7096 61.9042C95.7096 62.3699 95.7903 62.7833 95.9519 63.1445C96.123 63.4962 96.3511 63.8003 96.6363 64.057C96.9309 64.3041 97.2731 64.5132 97.6628 64.6843C98.0525 64.8459 98.4707 64.9694 98.9174 65.055C99.3736 65.1405 99.8441 65.1975 100.329 65.226L99.6587 67.1793C99.06 67.1412 98.4754 67.0462 97.9051 66.8941C97.3444 66.742 96.8169 66.5329 96.3226 66.2668C95.8284 66.0007 95.3959 65.6775 95.0252 65.2973C94.664 64.9076 94.3742 64.4657 94.1555 63.9714C93.9464 63.4677 93.8419 62.9069 93.8419 62.2891C93.8419 61.6048 93.9512 60.9775 94.1698 60.4072C94.3884 59.8274 94.6593 59.3236 94.9825 58.8959C95.3151 58.4587 95.643 58.1213 95.9662 57.8837C95.7001 57.9217 95.3769 57.9597 94.9967 57.9977C94.626 58.0358 94.2221 58.0833 93.7849 58.1403C93.3572 58.1878 92.9199 58.2401 92.4732 58.2971C92.0265 58.3542 91.594 58.4207 91.1758 58.4967C90.7671 58.5633 90.3964 58.6298 90.0638 58.6963L89.8784 56.7431ZM99.4449 59.1098C99.5685 59.2809 99.6968 59.4852 99.8298 59.7228C99.9724 59.951 100.11 60.1838 100.243 60.4214C100.376 60.6495 100.49 60.8587 100.585 61.0487L99.5019 61.5335C99.3213 61.1343 99.1455 60.7826 98.9744 60.4785C98.8128 60.1743 98.618 59.8654 98.3899 59.5518L99.4449 59.1098ZM101.042 58.454C101.165 58.6251 101.298 58.8247 101.441 59.0528C101.593 59.2714 101.74 59.4995 101.883 59.7371C102.025 59.9652 102.144 60.1696 102.239 60.3502L101.17 60.8634C100.98 60.4832 100.795 60.1458 100.614 59.8512C100.443 59.5565 100.239 59.2524 100.001 58.9387L101.042 58.454ZM103.922 62.5172H116.653V63.9999H103.922V62.5172ZM109.396 61.3767H111.136V67.7781H109.396V61.3767ZM108.869 63.173L110.266 63.7718C109.838 64.3326 109.32 64.8649 108.712 65.3686C108.113 65.8629 107.467 66.3048 106.773 66.6945C106.089 67.0937 105.395 67.4216 104.691 67.6783C104.606 67.5262 104.492 67.3598 104.349 67.1793C104.216 67.0082 104.078 66.8371 103.936 66.666C103.803 66.4949 103.67 66.3524 103.537 66.2383C104.23 66.0387 104.915 65.7821 105.59 65.4684C106.264 65.1548 106.887 64.8031 107.457 64.4134C108.037 64.0142 108.508 63.6008 108.869 63.173ZM111.649 63.2158C112.02 63.6245 112.49 64.019 113.06 64.3991C113.64 64.7698 114.272 65.1025 114.957 65.3971C115.65 65.6918 116.344 65.9341 117.038 66.1242C116.905 66.2288 116.767 66.3666 116.625 66.5377C116.482 66.7183 116.344 66.8989 116.211 67.0795C116.078 67.26 115.969 67.4216 115.883 67.5642C115.189 67.3266 114.496 67.0177 113.802 66.6375C113.108 66.2573 112.452 65.8343 111.834 65.3686C111.226 64.8934 110.694 64.3944 110.237 63.8716L111.649 63.2158ZM109.068 59.3094V60.2789H111.421V59.3094H109.068ZM109.068 57.1281V58.0833H111.421V57.1281H109.068ZM107.486 55.8307H113.075V61.5763H107.486V55.8307ZM109.468 54.3907L111.378 54.6188C111.235 54.999 111.093 55.365 110.95 55.7166C110.808 56.0588 110.675 56.3534 110.551 56.6006L109.04 56.3297C109.116 56.0445 109.197 55.7261 109.282 55.3745C109.368 55.0133 109.43 54.6854 109.468 54.3907ZM103.822 56.2726L105.005 55.2889C105.29 55.4885 105.58 55.7071 105.875 55.9447C106.169 56.1824 106.44 56.4295 106.687 56.6861C106.944 56.9427 107.148 57.1803 107.301 57.399L106.046 58.4967C105.913 58.2781 105.723 58.0405 105.476 57.7839C105.238 57.5178 104.972 57.2516 104.677 56.9855C104.392 56.7194 104.107 56.4818 103.822 56.2726ZM112.718 59.6801L113.702 58.5395C114.054 58.7201 114.439 58.9245 114.857 59.1526C115.275 59.3807 115.674 59.6135 116.054 59.8512C116.444 60.0888 116.762 60.3121 117.01 60.5212L115.94 61.8044C115.712 61.5953 115.413 61.3672 115.042 61.12C114.681 60.8634 114.291 60.6115 113.873 60.3644C113.464 60.1078 113.079 59.8797 112.718 59.6801ZM115.128 55.1178L116.596 56.0018C116.216 56.4105 115.812 56.8144 115.384 57.2136C114.957 57.6128 114.562 57.955 114.201 58.2401L112.918 57.399C113.165 57.2089 113.422 56.9855 113.688 56.7289C113.954 56.4627 114.215 56.1919 114.472 55.9162C114.728 55.6311 114.947 55.365 115.128 55.1178ZM103.579 60.4357C104.017 60.2361 104.535 59.9747 105.133 59.6516C105.742 59.3284 106.36 59.0005 106.987 58.6678L107.443 60.0508C106.949 60.3549 106.436 60.6686 105.903 60.9917C105.371 61.3054 104.882 61.5905 104.435 61.8471L103.579 60.4357ZM122.698 55.2176C122.66 55.5123 122.622 55.8307 122.584 56.1728C122.556 56.515 122.532 56.8287 122.513 57.1138C122.503 57.5035 122.484 57.9787 122.456 58.5395C122.437 59.0908 122.418 59.6706 122.399 60.2789C122.389 60.8872 122.375 61.486 122.356 62.0753C122.346 62.6645 122.342 63.1778 122.342 63.615C122.342 64.0902 122.427 64.4704 122.598 64.7556C122.779 65.0312 123.016 65.2308 123.311 65.3544C123.606 65.4684 123.938 65.5254 124.309 65.5254C124.898 65.5254 125.435 65.4494 125.92 65.2973C126.405 65.1358 126.847 64.9219 127.246 64.6558C127.645 64.3896 128.002 64.0807 128.315 63.7291C128.639 63.3774 128.928 63.0067 129.185 62.617L130.482 64.1853C130.254 64.5275 129.955 64.8886 129.584 65.2688C129.214 65.649 128.772 66.0054 128.258 66.3381C127.755 66.6708 127.17 66.9416 126.505 67.1507C125.839 67.3598 125.103 67.4644 124.295 67.4644C123.515 67.4644 122.836 67.3408 122.256 67.0937C121.686 66.8561 121.239 66.4854 120.916 65.9817C120.602 65.4684 120.445 64.8078 120.445 63.9999C120.445 63.6103 120.45 63.1683 120.46 62.674C120.469 62.1703 120.483 61.6475 120.503 61.1058C120.522 60.564 120.536 60.0365 120.545 59.5232C120.555 59.0005 120.564 58.53 120.574 58.1118C120.583 57.6936 120.588 57.3609 120.588 57.1138C120.588 56.7716 120.574 56.439 120.545 56.1158C120.517 55.7832 120.469 55.4743 120.403 55.1891L122.698 55.2176ZM142.13 56.2441C141.902 56.4057 141.679 56.5768 141.46 56.7574C141.242 56.9285 141.052 57.0853 140.89 57.2279C140.652 57.4085 140.367 57.6318 140.035 57.8979C139.711 58.1546 139.369 58.4255 139.008 58.7106C138.656 58.9862 138.314 59.2571 137.982 59.5232C137.649 59.7894 137.364 60.027 137.126 60.2361C136.879 60.4547 136.713 60.6353 136.627 60.7779C136.542 60.9109 136.542 61.044 136.627 61.1771C136.722 61.3101 136.898 61.4907 137.155 61.7188C137.364 61.8994 137.63 62.1228 137.953 62.3889C138.286 62.655 138.642 62.9497 139.022 63.2728C139.412 63.5865 139.806 63.9144 140.206 64.2566C140.614 64.5892 141.004 64.9219 141.375 65.2546C141.755 65.5777 142.092 65.8819 142.387 66.167L140.719 67.6925C140.32 67.2458 139.906 66.8038 139.479 66.3666C139.26 66.148 138.975 65.8819 138.623 65.5682C138.281 65.2451 137.906 64.9076 137.497 64.556C137.098 64.2043 136.698 63.8574 136.299 63.5152C135.9 63.1635 135.539 62.8499 135.216 62.5742C134.74 62.175 134.432 61.8091 134.289 61.4765C134.156 61.1438 134.175 60.8159 134.346 60.4927C134.527 60.1601 134.855 59.7989 135.33 59.4092C135.615 59.1906 135.938 58.934 136.299 58.6393C136.66 58.3352 137.031 58.0263 137.411 57.7126C137.791 57.3894 138.153 57.0805 138.495 56.7859C138.837 56.4818 139.127 56.2156 139.365 55.9875C139.574 55.7784 139.783 55.5645 139.992 55.3459C140.201 55.1273 140.358 54.9372 140.462 54.7757L142.13 56.2441ZM153.422 57.456C153.26 57.2754 153.056 57.0663 152.809 56.8287C152.562 56.5815 152.31 56.3439 152.053 56.1158C151.797 55.8782 151.573 55.6929 151.383 55.5598L152.695 54.6473C152.875 54.7709 153.094 54.9467 153.351 55.1749C153.607 55.3935 153.864 55.6216 154.121 55.8592C154.387 56.0873 154.601 56.2917 154.762 56.4722L153.422 57.456ZM149.544 55.9305C149.592 56.016 149.649 56.1301 149.715 56.2726C149.782 56.4152 149.853 56.5578 149.929 56.7004C150.005 56.8334 150.067 56.9475 150.114 57.0425C150.409 57.5938 150.708 58.2021 151.012 58.8674C151.317 59.5232 151.597 60.1506 151.854 60.7493C152.015 61.139 152.201 61.6048 152.41 62.1465C152.628 62.6883 152.842 63.2538 153.051 63.8431C153.26 64.4324 153.455 64.9979 153.636 65.5397C153.826 66.0815 153.978 66.552 154.092 66.9511L152.139 67.4644C151.996 66.8656 151.82 66.2145 151.611 65.5112C151.402 64.8078 151.179 64.114 150.941 63.4297C150.704 62.7358 150.466 62.1038 150.228 61.5335C150.038 61.0868 149.848 60.6495 149.658 60.2218C149.477 59.7941 149.292 59.3854 149.102 58.9957C148.921 58.5965 148.731 58.2306 148.532 57.8979C148.437 57.7174 148.308 57.5083 148.147 57.2706C147.995 57.033 147.843 56.8239 147.691 56.6433L149.544 55.9305ZM146.465 60.1078C146.75 60.0413 147.025 59.9605 147.291 59.8654C147.567 59.7704 147.762 59.6991 147.876 59.6516C148.399 59.4425 148.926 59.2191 149.458 58.9815C150 58.7439 150.542 58.5062 151.084 58.2686C151.635 58.0215 152.172 57.8029 152.695 57.6128C153.227 57.4132 153.745 57.2564 154.249 57.1423C154.762 57.0188 155.242 56.957 155.689 56.957C156.43 56.957 157.062 57.09 157.585 57.3562C158.117 57.6223 158.521 57.9835 158.797 58.4397C159.082 58.8959 159.225 59.3997 159.225 59.951C159.225 60.6163 159.082 61.1961 158.797 61.6903C158.512 62.175 158.103 62.5505 157.571 62.8166C157.038 63.0827 156.406 63.2158 155.675 63.2158C155.294 63.2158 154.9 63.173 154.491 63.0875C154.092 63.002 153.755 62.9117 153.479 62.8166L153.522 61.0202C153.845 61.1628 154.178 61.2816 154.52 61.3767C154.862 61.4622 155.19 61.505 155.503 61.505C155.855 61.505 156.169 61.4432 156.444 61.3196C156.73 61.1866 156.953 61.0012 157.114 60.7636C157.276 60.526 157.357 60.2361 157.357 59.8939C157.357 59.6563 157.286 59.4377 157.143 59.2381C157.01 59.0385 156.815 58.8817 156.558 58.7676C156.311 58.6441 156.007 58.5823 155.646 58.5823C155.18 58.5823 154.653 58.6726 154.063 58.8532C153.484 59.0242 152.871 59.2476 152.224 59.5232C151.578 59.7989 150.946 60.0935 150.328 60.4072C149.71 60.7113 149.14 61.0012 148.617 61.2769C148.095 61.543 147.657 61.7568 147.306 61.9184L146.465 60.1078ZM162.219 60.4927C162.437 60.4452 162.689 60.3882 162.974 60.3216C163.259 60.2456 163.511 60.1743 163.73 60.1078C163.967 60.0317 164.286 59.9319 164.685 59.8084C165.084 59.6848 165.521 59.5613 165.997 59.4377C166.481 59.3141 166.966 59.2096 167.451 59.124C167.945 59.0385 168.411 58.9957 168.848 58.9957C169.599 58.9957 170.255 59.1383 170.815 59.4234C171.386 59.6991 171.828 60.0983 172.141 60.621C172.455 61.1438 172.612 61.7663 172.612 62.4887C172.612 63.135 172.469 63.7243 172.184 64.2566C171.909 64.7888 171.486 65.2546 170.915 65.6538C170.345 66.053 169.632 66.3761 168.777 66.6232C167.931 66.8799 166.942 67.0414 165.811 67.108L165.056 65.3544C165.873 65.3354 166.624 65.2641 167.308 65.1405C168.002 65.0169 168.601 64.8411 169.105 64.613C169.618 64.3754 170.012 64.076 170.288 63.7148C170.573 63.3536 170.716 62.9354 170.716 62.4602C170.716 62.099 170.63 61.7854 170.459 61.5192C170.297 61.2436 170.065 61.0297 169.76 60.8777C169.456 60.7256 169.095 60.6495 168.677 60.6495C168.344 60.6495 167.974 60.6923 167.565 60.7779C167.156 60.8634 166.733 60.9727 166.296 61.1058C165.868 61.2388 165.445 61.3814 165.027 61.5335C164.609 61.6856 164.219 61.8329 163.858 61.9755C163.497 62.118 163.197 62.2416 162.96 62.3461L162.219 60.4927ZM174.739 56.7146C175.024 56.7051 175.295 56.6956 175.552 56.6861C175.808 56.6671 176.008 56.6528 176.15 56.6433C176.445 56.6148 176.806 56.5815 177.234 56.5435C177.662 56.5055 178.142 56.4627 178.674 56.4152C179.216 56.3677 179.791 56.3202 180.399 56.2726C181.007 56.2156 181.639 56.1586 182.295 56.1016C182.789 56.0635 183.284 56.0303 183.778 56.0018C184.272 55.9637 184.738 55.9352 185.175 55.9162C185.622 55.8877 186.007 55.8687 186.33 55.8592L186.344 57.6841C186.088 57.6841 185.793 57.6888 185.46 57.6983C185.128 57.7079 184.795 57.7269 184.462 57.7554C184.139 57.7744 183.849 57.8124 183.593 57.8694C183.165 57.9835 182.766 58.1783 182.395 58.454C182.034 58.7201 181.715 59.0385 181.44 59.4092C181.164 59.7799 180.95 60.1791 180.798 60.6068C180.656 61.025 180.584 61.4479 180.584 61.8757C180.584 62.3414 180.665 62.7548 180.827 63.116C180.988 63.4677 181.212 63.7718 181.497 64.0285C181.791 64.2756 182.134 64.4847 182.523 64.6558C182.913 64.8173 183.331 64.9409 183.778 65.0265C184.234 65.112 184.705 65.169 185.189 65.1975L184.519 67.1507C183.92 67.1127 183.336 67.0177 182.766 66.8656C182.205 66.7135 181.677 66.5044 181.183 66.2383C180.698 65.9722 180.271 65.649 179.9 65.2688C179.529 64.8791 179.239 64.4372 179.03 63.9429C178.821 63.4392 178.717 62.8784 178.717 62.2606C178.717 61.5668 178.826 60.9347 179.045 60.3644C179.263 59.7941 179.534 59.2951 179.857 58.8674C180.18 58.4302 180.504 58.0928 180.827 57.8552C180.561 57.8837 180.237 57.9217 179.857 57.9692C179.487 58.0073 179.083 58.0548 178.645 58.1118C178.218 58.1593 177.78 58.2116 177.334 58.2686C176.887 58.3257 176.455 58.3922 176.036 58.4682C175.628 58.5348 175.257 58.6013 174.924 58.6678L174.739 56.7146ZM191.12 55.6596C191.32 55.6881 191.534 55.7071 191.762 55.7166C191.99 55.7261 192.209 55.7309 192.418 55.7309C192.57 55.7309 192.798 55.7309 193.102 55.7309C193.406 55.7214 193.748 55.7119 194.128 55.7024C194.518 55.6929 194.903 55.6834 195.283 55.6739C195.663 55.6643 196.006 55.6548 196.31 55.6453C196.623 55.6263 196.866 55.6121 197.037 55.6026C197.332 55.5741 197.564 55.5503 197.735 55.5313C197.907 55.5028 198.035 55.4743 198.12 55.4457L199.047 56.7146C198.886 56.8192 198.719 56.9237 198.548 57.0283C198.377 57.1328 198.211 57.2469 198.049 57.3704C197.859 57.5035 197.631 57.6793 197.365 57.8979C197.099 58.107 196.814 58.3304 196.509 58.568C196.215 58.8056 195.925 59.0385 195.64 59.2666C195.364 59.4947 195.112 59.6991 194.884 59.8797C195.122 59.8226 195.35 59.7846 195.568 59.7656C195.787 59.7371 196.01 59.7228 196.239 59.7228C197.046 59.7228 197.769 59.8797 198.406 60.1933C199.052 60.507 199.56 60.9347 199.931 61.4765C200.311 62.0087 200.501 62.6218 200.501 63.3156C200.501 64.0665 200.311 64.7461 199.931 65.3544C199.551 65.9627 198.976 66.4474 198.206 66.8086C197.446 67.1698 196.49 67.3503 195.34 67.3503C194.684 67.3503 194.09 67.2553 193.558 67.0652C193.035 66.8751 192.622 66.6042 192.318 66.2526C192.014 65.9009 191.862 65.4874 191.862 65.0122C191.862 64.6225 191.966 64.2613 192.175 63.9287C192.394 63.5865 192.693 63.3109 193.073 63.1018C193.463 62.8927 193.91 62.7881 194.414 62.7881C195.069 62.7881 195.621 62.9212 196.067 63.1873C196.524 63.4439 196.871 63.7908 197.108 64.2281C197.355 64.6653 197.484 65.1453 197.493 65.668L195.825 65.8961C195.816 65.3734 195.682 64.9552 195.426 64.6415C195.179 64.3184 194.846 64.1568 194.428 64.1568C194.162 64.1568 193.948 64.2281 193.786 64.3706C193.625 64.5037 193.544 64.6605 193.544 64.8411C193.544 65.1072 193.677 65.3211 193.943 65.4827C194.209 65.6443 194.556 65.725 194.984 65.725C195.792 65.725 196.467 65.63 197.008 65.4399C197.55 65.2403 197.954 64.9599 198.22 64.5987C198.496 64.2281 198.634 63.7908 198.634 63.2871C198.634 62.8594 198.501 62.484 198.234 62.1608C197.978 61.8376 197.626 61.5858 197.179 61.4052C196.733 61.2246 196.229 61.1343 195.668 61.1343C195.117 61.1343 194.613 61.2056 194.157 61.3481C193.701 61.4812 193.268 61.6761 192.86 61.9327C192.46 62.1798 192.066 62.484 191.676 62.8451C191.296 63.1968 190.916 63.5912 190.536 64.0285L189.238 62.6883C189.495 62.4792 189.785 62.2463 190.108 61.9897C190.431 61.7236 190.759 61.4479 191.092 61.1628C191.434 60.8777 191.752 60.6115 192.047 60.3644C192.351 60.1078 192.608 59.8939 192.817 59.7228C193.016 59.5613 193.249 59.3712 193.515 59.1526C193.782 58.934 194.057 58.7106 194.342 58.4825C194.627 58.2449 194.898 58.0215 195.155 57.8124C195.412 57.5938 195.625 57.4085 195.797 57.2564C195.654 57.2564 195.469 57.2611 195.241 57.2706C195.012 57.2801 194.761 57.2896 194.485 57.2992C194.219 57.3087 193.948 57.3182 193.672 57.3277C193.406 57.3372 193.154 57.3514 192.917 57.3704C192.689 57.3799 192.498 57.3894 192.346 57.399C192.156 57.4085 191.957 57.4227 191.748 57.4417C191.538 57.4607 191.348 57.4845 191.177 57.513L191.12 55.6596ZM210.367 55.0893C210.348 55.2224 210.329 55.3887 210.31 55.5883C210.291 55.7784 210.277 55.978 210.267 56.1871C210.258 56.3867 210.248 56.5768 210.239 56.7574C210.229 57.0996 210.225 57.4702 210.225 57.8694C210.234 58.2686 210.239 58.6726 210.239 59.0813C210.239 59.4805 210.248 59.951 210.267 60.4927C210.296 61.025 210.329 61.5763 210.367 62.1465C210.405 62.7168 210.434 63.2491 210.453 63.7433C210.481 64.2281 210.496 64.6225 210.496 64.9267C210.496 65.2403 210.448 65.5445 210.353 65.8391C210.258 66.1337 210.096 66.3951 209.868 66.6232C209.64 66.8609 209.331 67.0462 208.942 67.1793C208.552 67.3218 208.058 67.3931 207.459 67.3931C206.784 67.3931 206.161 67.3076 205.591 67.1365C205.03 66.9749 204.584 66.704 204.251 66.3238C203.918 65.9437 203.752 65.4304 203.752 64.7841C203.752 64.2898 203.895 63.8431 204.18 63.4439C204.465 63.0352 204.893 62.7121 205.463 62.4744C206.043 62.2368 206.77 62.118 207.644 62.118C208.385 62.118 209.103 62.2036 209.797 62.3746C210.5 62.5457 211.156 62.7691 211.764 63.0447C212.382 63.3109 212.938 63.615 213.432 63.9572C213.936 64.2898 214.369 64.6273 214.73 64.9694L213.632 66.666C213.28 66.3143 212.876 65.9627 212.42 65.611C211.974 65.2593 211.484 64.9409 210.952 64.6558C210.419 64.3706 209.849 64.1425 209.241 63.9714C208.642 63.7908 208.02 63.7005 207.373 63.7005C206.822 63.7005 206.385 63.7908 206.062 63.9714C205.748 64.1425 205.591 64.3849 205.591 64.6985C205.591 65.0502 205.753 65.2973 206.076 65.4399C206.399 65.5825 206.812 65.6538 207.316 65.6538C207.763 65.6538 208.081 65.5492 208.271 65.3401C208.462 65.1215 208.557 64.7746 208.557 64.2993C208.557 64.0522 208.547 63.7101 208.528 63.2728C208.509 62.8261 208.49 62.3461 208.471 61.8329C208.452 61.3101 208.433 60.8064 208.414 60.3216C208.395 59.8369 208.385 59.4234 208.385 59.0813C208.385 58.7961 208.385 58.5157 208.385 58.2401C208.385 57.9645 208.385 57.6983 208.385 57.4417C208.385 57.1851 208.381 56.957 208.371 56.7574C208.362 56.5198 208.347 56.2964 208.328 56.0873C208.319 55.8782 208.305 55.6881 208.286 55.517C208.276 55.3459 208.252 55.2034 208.214 55.0893H210.367ZM209.269 57.8124C209.479 57.8124 209.778 57.8124 210.168 57.8124C210.557 57.8029 210.985 57.7886 211.451 57.7696C211.926 57.7506 212.401 57.7269 212.876 57.6983C213.361 57.6603 213.808 57.6223 214.217 57.5843L214.274 59.2809C213.874 59.3189 213.432 59.3522 212.948 59.3807C212.463 59.4092 211.983 59.433 211.508 59.452C211.033 59.4615 210.595 59.471 210.196 59.4805C209.806 59.49 209.502 59.4947 209.284 59.4947L209.269 57.8124ZM222.899 62.8594L222.514 57.9835L222.443 55.8592H224.81L224.738 57.9835L224.353 62.8594H222.899ZM223.626 66.6518C223.265 66.6518 222.966 66.5329 222.728 66.2953C222.49 66.0577 222.372 65.7583 222.372 65.3971C222.372 65.0265 222.49 64.7223 222.728 64.4847C222.966 64.2471 223.265 64.1283 223.626 64.1283C223.987 64.1283 224.287 64.2471 224.524 64.4847C224.762 64.7223 224.881 65.0265 224.881 65.3971C224.881 65.7583 224.762 66.0577 224.524 66.2953C224.287 66.5329 223.987 66.6518 223.626 66.6518Z" fill="white"/>
</g>
<defs>
<clipPath id="clip0_802_3840">
<rect width="313.745" height="122.752" fill="white"/>
</clipPath>
</defs>
</svg>
