<svg width="346" height="136" viewBox="0 0 346 136" fill="none" xmlns="http://www.w3.org/2000/svg">
<g clip-path="url(#clip0_588_1787)">
<path d="M322.48 79.0016C323.838 80.7776 325.759 82.8651 328.394 84.7673C335.006 89.5357 341.988 90.146 345.212 90.2091C344.477 91.4212 339.008 100.146 328.512 101.429C322.53 102.162 317.827 100.125 315.796 99.0893C312.144 104.632 305.414 113.298 294.405 120.545C275.288 133.133 256.12 132.973 250.083 132.838C242.219 132.665 28.1737 142.998 9.28327 120.545C-3.94925 104.826 0.919129 37.7368 0.692141 32.6444C-0.337708 9.42144 21.9274 8.01137 26.5806 2.39711C35.2956 -2.33635 243.413 1.42464 248.764 1.28997C253.673 1.16792 279.033 1.03323 299.979 20.7757C324.325 43.7294 322.766 74.7383 322.476 79.0016H322.48Z" fill="#FA4B06"/>
<path d="M98.9407 63.3122C98.7629 63.1135 98.538 62.8834 98.2661 62.622C97.9942 62.3501 97.7171 62.0886 97.4347 61.8376C97.1524 61.5762 96.9066 61.3722 96.6975 61.2258L98.1406 60.2219C98.3393 60.3578 98.5799 60.5513 98.8622 60.8023C99.1446 61.0428 99.427 61.2938 99.7093 61.5552C100.002 61.8062 100.237 62.0311 100.415 62.2298L98.9407 63.3122ZM94.6738 61.6337C94.7261 61.7278 94.7889 61.8533 94.8621 62.0102C94.9353 62.167 95.0137 62.3239 95.0974 62.4808C95.181 62.6272 95.249 62.7527 95.3013 62.8573C95.6255 63.4638 95.9549 64.1331 96.2896 64.8652C96.6242 65.5868 96.9328 66.277 97.2151 66.9359C97.3929 67.3646 97.5968 67.8771 97.8269 68.4732C98.0674 69.0693 98.3027 69.6915 98.5328 70.3399C98.7629 70.9883 98.9773 71.6106 99.176 72.2067C99.3851 72.8028 99.5525 73.3204 99.678 73.7597L97.5289 74.3244C97.372 73.6655 97.1785 72.9492 96.9484 72.1753C96.7184 71.4014 96.4726 70.638 96.2112 69.885C95.9497 69.1216 95.6883 68.4261 95.4268 67.7986C95.2177 67.3071 95.0085 66.8261 94.7993 66.3554C94.6006 65.8848 94.3967 65.4351 94.1875 65.0064C93.9888 64.5671 93.7797 64.1645 93.5601 63.7985C93.4555 63.5998 93.3143 63.3697 93.1365 63.1083C92.9692 62.8468 92.8019 62.6167 92.6345 62.418L94.6738 61.6337ZM91.2855 66.2299C91.5992 66.1567 91.9025 66.0679 92.1953 65.9633C92.4986 65.8587 92.713 65.7803 92.8385 65.728C93.4137 65.4979 93.9941 65.2521 94.5797 64.9907C95.1758 64.7292 95.7719 64.4678 96.368 64.2063C96.9746 63.9344 97.5655 63.6939 98.1406 63.4847C98.7263 63.2651 99.2963 63.0926 99.8505 62.9671C100.415 62.8311 100.943 62.7631 101.435 62.7631C102.251 62.7631 102.946 62.9096 103.521 63.2024C104.107 63.4952 104.551 63.8926 104.855 64.3946C105.168 64.8966 105.325 65.4508 105.325 66.0574C105.325 66.7894 105.168 67.4274 104.855 67.9712C104.541 68.5046 104.091 68.9176 103.506 69.2105C102.92 69.5033 102.224 69.6497 101.419 69.6497C101.001 69.6497 100.567 69.6026 100.117 69.5085C99.678 69.4144 99.3067 69.315 99.0034 69.2105L99.0505 67.2339C99.4061 67.3908 99.7721 67.5215 100.149 67.6261C100.525 67.7202 100.886 67.7673 101.231 67.7673C101.618 67.7673 101.963 67.6993 102.266 67.5633C102.58 67.4169 102.826 67.213 103.004 66.9515C103.181 66.6901 103.27 66.3711 103.27 65.9946C103.27 65.7332 103.192 65.4927 103.035 65.273C102.889 65.0534 102.674 64.8809 102.392 64.7554C102.12 64.6194 101.785 64.5514 101.388 64.5514C100.875 64.5514 100.295 64.6508 99.6466 64.8495C99.0087 65.0377 98.3341 65.2835 97.623 65.5868C96.9118 65.8901 96.2164 66.2143 95.5366 66.5594C94.8569 66.894 94.2294 67.213 93.6542 67.5163C93.079 67.8091 92.5979 68.0444 92.211 68.2222L91.2855 66.2299ZM108.62 66.6535C108.86 66.6012 109.137 66.5385 109.451 66.4653C109.765 66.3816 110.042 66.3032 110.282 66.2299C110.544 66.1463 110.894 66.0365 111.333 65.9005C111.773 65.7646 112.254 65.6286 112.777 65.4927C113.31 65.3567 113.843 65.2417 114.377 65.1476C114.92 65.0534 115.433 65.0064 115.914 65.0064C116.74 65.0064 117.462 65.1632 118.079 65.477C118.706 65.7803 119.192 66.2195 119.538 66.7947C119.883 67.3699 120.055 68.0549 120.055 68.8497C120.055 69.5608 119.898 70.2092 119.585 70.7948C119.281 71.3805 118.816 71.8929 118.189 72.3322C117.561 72.7714 116.777 73.127 115.835 73.3989C114.905 73.6812 113.817 73.859 112.573 73.9322L111.741 72.0027C112.641 71.9818 113.467 71.9034 114.22 71.7674C114.983 71.6315 115.642 71.438 116.196 71.187C116.761 70.9256 117.195 70.5961 117.498 70.1987C117.812 69.8013 117.969 69.3412 117.969 68.8183C117.969 68.4209 117.875 68.0758 117.687 67.783C117.509 67.4797 117.253 67.2444 116.918 67.077C116.583 66.9097 116.186 66.8261 115.726 66.8261C115.36 66.8261 114.952 66.8731 114.502 66.9672C114.052 67.0614 113.587 67.1816 113.106 67.328C112.635 67.4744 112.17 67.6313 111.71 67.7986C111.25 67.966 110.821 68.1281 110.424 68.2849C110.026 68.4418 109.697 68.5778 109.435 68.6928L108.62 66.6535ZM122.396 62.4965C122.709 62.486 123.007 62.4755 123.29 62.4651C123.572 62.4442 123.792 62.4285 123.949 62.418C124.273 62.3867 124.67 62.3501 125.141 62.3082C125.612 62.2664 126.14 62.2193 126.725 62.167C127.321 62.1147 127.954 62.0625 128.623 62.0102C129.293 61.9474 129.988 61.8847 130.71 61.8219C131.254 61.7801 131.797 61.7435 132.341 61.7121C132.885 61.6703 133.397 61.6389 133.879 61.618C134.37 61.5866 134.794 61.5657 135.149 61.5552L135.165 63.5632C134.882 63.5632 134.558 63.5684 134.192 63.5789C133.826 63.5893 133.46 63.6102 133.094 63.6416C132.739 63.6625 132.42 63.7044 132.137 63.7671C131.667 63.8926 131.227 64.107 130.82 64.4103C130.422 64.7031 130.072 65.0534 129.769 65.4613C129.465 65.8692 129.23 66.3084 129.063 66.779C128.906 67.2391 128.827 67.7045 128.827 68.1751C128.827 68.6876 128.916 69.1425 129.094 69.5399C129.272 69.9268 129.518 70.2615 129.831 70.5439C130.155 70.8158 130.532 71.0458 130.961 71.2341C131.39 71.4119 131.85 71.5478 132.341 71.6419C132.843 71.7361 133.361 71.7988 133.894 71.8302L133.157 73.9793C132.498 73.9375 131.855 73.8329 131.227 73.6655C130.61 73.4982 130.03 73.2681 129.486 72.9753C128.953 72.6825 128.482 72.3269 128.074 71.9086C127.666 71.4798 127.348 70.9935 127.117 70.4497C126.887 69.8955 126.772 69.2784 126.772 68.5987C126.772 67.8352 126.893 67.1398 127.133 66.5123C127.374 65.8848 127.672 65.3358 128.027 64.8652C128.383 64.3841 128.738 64.0129 129.094 63.7514C128.801 63.7828 128.446 63.8246 128.027 63.8769C127.619 63.9187 127.175 63.971 126.694 64.0338C126.223 64.0861 125.742 64.1436 125.251 64.2063C124.759 64.2691 124.283 64.3423 123.823 64.426C123.374 64.4992 122.966 64.5724 122.6 64.6456L122.396 62.4965ZM145.22 63.3122C145.042 63.1135 144.818 62.8834 144.546 62.622C144.274 62.3501 143.997 62.0886 143.714 61.8376C143.432 61.5762 143.186 61.3722 142.977 61.2258L144.42 60.2219C144.619 60.3578 144.859 60.5513 145.142 60.8023C145.424 61.0428 145.706 61.2938 145.989 61.5552C146.282 61.8062 146.517 62.0311 146.695 62.2298L145.22 63.3122ZM140.953 61.6337C141.006 61.7278 141.068 61.8533 141.142 62.0102C141.215 62.167 141.293 62.3239 141.377 62.4808C141.461 62.6272 141.528 62.7527 141.581 62.8573C141.905 63.4638 142.234 64.1331 142.569 64.8652C142.904 65.5868 143.212 66.277 143.495 66.9359C143.672 67.3646 143.876 67.8771 144.106 68.4732C144.347 69.0693 144.582 69.6915 144.812 70.3399C145.042 70.9883 145.257 71.6106 145.455 72.2067C145.665 72.8028 145.832 73.3204 145.957 73.7597L143.808 74.3244C143.651 73.6655 143.458 72.9492 143.228 72.1753C142.998 71.4014 142.752 70.638 142.491 69.885C142.229 69.1216 141.968 68.4261 141.706 67.7986C141.497 67.3071 141.288 66.8261 141.079 66.3554C140.88 65.8848 140.676 65.4351 140.467 65.0064C140.268 64.5671 140.059 64.1645 139.84 63.7985C139.735 63.5998 139.594 63.3697 139.416 63.1083C139.249 62.8468 139.081 62.6167 138.914 62.418L140.953 61.6337ZM137.565 66.2299C137.879 66.1567 138.182 66.0679 138.475 65.9633C138.778 65.8587 138.992 65.7803 139.118 65.728C139.693 65.4979 140.274 65.2521 140.859 64.9907C141.455 64.7292 142.051 64.4678 142.647 64.2063C143.254 63.9344 143.845 63.6939 144.42 63.4847C145.006 63.2651 145.576 63.0926 146.13 62.9671C146.695 62.8311 147.223 62.7631 147.714 62.7631C148.53 62.7631 149.226 62.9096 149.801 63.2024C150.386 63.4952 150.831 63.8926 151.134 64.3946C151.448 64.8966 151.605 65.4508 151.605 66.0574C151.605 66.7894 151.448 67.4274 151.134 67.9712C150.82 68.5046 150.371 68.9176 149.785 69.2105C149.199 69.5033 148.504 69.6497 147.699 69.6497C147.28 69.6497 146.846 69.6026 146.397 69.5085C145.957 69.4144 145.586 69.315 145.283 69.2105L145.33 67.2339C145.686 67.3908 146.052 67.5215 146.428 67.6261C146.805 67.7202 147.165 67.7673 147.51 67.7673C147.897 67.7673 148.242 67.6993 148.546 67.5633C148.86 67.4169 149.105 67.213 149.283 66.9515C149.461 66.6901 149.55 66.3711 149.55 65.9946C149.55 65.7332 149.471 65.4927 149.314 65.273C149.168 65.0534 148.954 64.8809 148.671 64.7554C148.399 64.6194 148.065 64.5514 147.667 64.5514C147.155 64.5514 146.574 64.6508 145.926 64.8495C145.288 65.0377 144.614 65.2835 143.902 65.5868C143.191 65.8901 142.496 66.2143 141.816 66.5594C141.136 66.894 140.509 67.213 139.934 67.5163C139.358 67.8091 138.877 68.0444 138.49 68.2222L137.565 66.2299ZM156.107 61.3356C156.326 61.367 156.562 61.3879 156.813 61.3984C157.064 61.4088 157.304 61.4141 157.534 61.4141C157.702 61.4141 157.953 61.4141 158.287 61.4141C158.622 61.4036 158.998 61.3932 159.417 61.3827C159.846 61.3722 160.269 61.3618 160.687 61.3513C161.106 61.3409 161.482 61.3304 161.817 61.3199C162.162 61.299 162.429 61.2833 162.617 61.2729C162.941 61.2415 163.197 61.2154 163.386 61.1944C163.574 61.1631 163.715 61.1317 163.809 61.1003L164.829 62.4965C164.651 62.6115 164.468 62.7265 164.28 62.8416C164.092 62.9566 163.908 63.0821 163.731 63.2181C163.522 63.3645 163.271 63.5579 162.978 63.7985C162.685 64.0286 162.371 64.2743 162.037 64.5358C161.712 64.7972 161.393 65.0534 161.08 65.3044C160.776 65.5554 160.499 65.7803 160.248 65.979C160.51 65.9162 160.761 65.8744 161.001 65.8535C161.242 65.8221 161.487 65.8064 161.738 65.8064C162.627 65.8064 163.422 65.979 164.123 66.3241C164.834 66.6692 165.394 67.1398 165.801 67.7359C166.22 68.3215 166.429 68.9961 166.429 69.7595C166.429 70.5857 166.22 71.3334 165.801 72.0027C165.383 72.672 164.75 73.2054 163.903 73.6028C163.067 74.0002 162.016 74.1989 160.75 74.1989C160.029 74.1989 159.375 74.0943 158.789 73.8852C158.214 73.676 157.759 73.378 157.425 72.991C157.09 72.6041 156.923 72.1491 156.923 71.6262C156.923 71.1975 157.038 70.8001 157.268 70.434C157.508 70.0576 157.838 69.7543 158.256 69.5242C158.685 69.2941 159.176 69.1791 159.731 69.1791C160.452 69.1791 161.059 69.3255 161.55 69.6183C162.052 69.9007 162.434 70.2824 162.695 70.7635C162.967 71.2445 163.108 71.7727 163.119 72.3478L161.284 72.5988C161.273 72.0237 161.127 71.5635 160.844 71.2184C160.572 70.8628 160.206 70.685 159.746 70.685C159.453 70.685 159.218 70.7635 159.04 70.9203C158.863 71.0667 158.774 71.2393 158.774 71.438C158.774 71.7308 158.92 71.9661 159.213 72.1439C159.506 72.3217 159.887 72.4106 160.358 72.4106C161.247 72.4106 161.989 72.306 162.586 72.0969C163.182 71.8772 163.626 71.5687 163.919 71.1713C164.222 70.7635 164.374 70.2824 164.374 69.7281C164.374 69.2575 164.227 68.8444 163.935 68.4889C163.652 68.1333 163.265 67.8562 162.774 67.6575C162.282 67.4588 161.728 67.3594 161.111 67.3594C160.504 67.3594 159.95 67.4378 159.448 67.5947C158.946 67.7411 158.47 67.9555 158.021 68.2379C157.581 68.5098 157.147 68.8444 156.719 69.2418C156.3 69.6288 155.882 70.0628 155.464 70.5439L154.036 69.0693C154.319 68.8392 154.638 68.583 154.993 68.3006C155.349 68.0078 155.709 67.7045 156.075 67.3908C156.452 67.077 156.802 66.7842 157.127 66.5123C157.461 66.2299 157.744 65.9946 157.974 65.8064C158.193 65.6286 158.449 65.4195 158.742 65.1789C159.035 64.9384 159.338 64.6926 159.652 64.4416C159.966 64.1802 160.264 63.9344 160.546 63.7044C160.829 63.4638 161.064 63.2599 161.252 63.0926C161.095 63.0926 160.891 63.0978 160.64 63.1083C160.389 63.1187 160.112 63.1292 159.809 63.1396C159.516 63.1501 159.218 63.1605 158.915 63.171C158.622 63.1815 158.345 63.1971 158.083 63.2181C157.832 63.2285 157.623 63.239 157.456 63.2494C157.247 63.2599 157.027 63.2756 156.797 63.2965C156.567 63.3174 156.358 63.3436 156.17 63.3749L156.107 61.3356ZM171.715 61.2729C171.956 61.2938 172.196 61.3095 172.437 61.3199C172.688 61.3304 172.944 61.3356 173.206 61.3356C173.352 61.3356 173.566 61.3304 173.849 61.3199C174.131 61.3095 174.455 61.299 174.821 61.2886C175.187 61.2677 175.559 61.2467 175.935 61.2258C176.322 61.2049 176.678 61.184 177.002 61.1631C177.326 61.1317 177.587 61.1056 177.786 61.0846C178.037 61.0637 178.252 61.0376 178.429 61.0062C178.618 60.9644 178.764 60.9278 178.869 60.8964L180.108 62.3396C179.941 62.4442 179.731 62.5801 179.48 62.7475C179.24 62.9148 179.036 63.0664 178.869 63.2024C178.649 63.3802 178.414 63.5736 178.163 63.7828C177.912 63.9919 177.65 64.2063 177.378 64.426C177.106 64.6351 176.84 64.8495 176.578 65.0691C176.317 65.2783 176.061 65.4822 175.81 65.6809C175.569 65.8796 175.344 66.0626 175.135 66.2299C175.836 66.1567 176.573 66.094 177.347 66.0417C178.131 65.979 178.9 65.9319 179.653 65.9005C180.406 65.8692 181.107 65.8535 181.755 65.8535V67.7045C181.012 67.6627 180.275 67.6418 179.543 67.6418C178.811 67.6418 178.205 67.6731 177.723 67.7359C177.357 67.7882 177.018 67.8875 176.704 68.0339C176.39 68.1804 176.108 68.3686 175.857 68.5987C175.606 68.8183 175.412 69.0693 175.276 69.3516C175.14 69.6236 175.072 69.9216 175.072 70.2458C175.072 70.6537 175.172 70.9883 175.37 71.2498C175.569 71.5112 175.851 71.7099 176.217 71.8459C176.584 71.9818 176.997 72.0759 177.457 72.1282C177.896 72.1805 178.33 72.2067 178.759 72.2067C179.188 72.1962 179.548 72.1805 179.841 72.1596L179.433 74.2303C177.415 74.3139 175.851 74.0525 174.743 73.4459C173.634 72.8394 173.08 71.8825 173.08 70.5752C173.08 70.251 173.132 69.9373 173.237 69.634C173.352 69.3203 173.493 69.0327 173.661 68.7712C173.838 68.4993 174.021 68.2745 174.21 68.0967C173.498 68.149 172.725 68.2326 171.888 68.3477C171.062 68.4627 170.251 68.5882 169.456 68.7242L169.268 66.8261C169.687 66.7842 170.147 66.7319 170.649 66.6692C171.151 66.6064 171.606 66.5541 172.013 66.5123C172.369 66.2822 172.751 66.0103 173.159 65.6966C173.566 65.3829 173.974 65.0534 174.382 64.7083C174.79 64.3632 175.172 64.039 175.527 63.7357C175.893 63.4324 176.197 63.171 176.437 62.9514C176.312 62.9618 176.139 62.9723 175.919 62.9828C175.7 62.9932 175.465 63.0089 175.214 63.0298C174.963 63.0403 174.706 63.0507 174.445 63.0612C174.183 63.0717 173.943 63.0873 173.723 63.1083C173.514 63.1187 173.347 63.1292 173.221 63.1396C173.023 63.1501 172.798 63.171 172.547 63.2024C172.306 63.2337 172.06 63.2599 171.809 63.2808L171.715 61.2729ZM179.998 63.2337C180.186 63.5266 180.375 63.8351 180.563 64.1593C180.751 64.473 180.918 64.7868 181.065 65.1005L179.873 65.6182C179.716 65.273 179.559 64.9541 179.402 64.6613C179.245 64.358 179.057 64.0495 178.837 63.7357L179.998 63.2337ZM181.724 62.5278C181.912 62.7893 182.111 63.0873 182.32 63.422C182.529 63.7462 182.712 64.0599 182.869 64.3632L181.692 64.8966C181.525 64.5619 181.352 64.2429 181.175 63.9397C180.997 63.6259 180.798 63.3331 180.578 63.0612L181.724 62.5278ZM185.473 66.026C185.661 66.0365 185.902 66.0522 186.194 66.0731C186.487 66.0835 186.79 66.094 187.104 66.1045C187.428 66.1149 187.726 66.1201 187.998 66.1201C188.26 66.1201 188.584 66.1201 188.971 66.1201C189.358 66.1201 189.776 66.1201 190.226 66.1201C190.686 66.1201 191.157 66.1201 191.638 66.1201C192.129 66.1201 192.616 66.1201 193.097 66.1201C193.578 66.1201 194.033 66.1201 194.461 66.1201C194.89 66.1201 195.272 66.1201 195.607 66.1201C195.952 66.1201 196.224 66.1201 196.422 66.1201C196.788 66.1201 197.133 66.1097 197.458 66.0888C197.782 66.0574 198.048 66.0365 198.258 66.026V68.4889C198.08 68.4784 197.813 68.4627 197.458 68.4418C197.102 68.4209 196.757 68.4104 196.422 68.4104C196.224 68.4104 195.952 68.4104 195.607 68.4104C195.261 68.4104 194.874 68.4104 194.446 68.4104C194.017 68.4104 193.562 68.4104 193.081 68.4104C192.61 68.4104 192.129 68.4104 191.638 68.4104C191.146 68.4104 190.67 68.4104 190.21 68.4104C189.761 68.4104 189.342 68.4104 188.955 68.4104C188.579 68.4104 188.26 68.4104 187.998 68.4104C187.549 68.4104 187.089 68.4209 186.618 68.4418C186.147 68.4523 185.766 68.4679 185.473 68.4889V66.026ZM206.76 69.2575L206.336 63.8926L206.258 61.5552H208.862L208.784 63.8926L208.36 69.2575H206.76ZM207.56 73.4302C207.163 73.4302 206.833 73.2995 206.572 73.0381C206.31 72.7766 206.18 72.4472 206.18 72.0498C206.18 71.6419 206.31 71.3073 206.572 71.0458C206.833 70.7844 207.163 70.6537 207.56 70.6537C207.957 70.6537 208.287 70.7844 208.548 71.0458C208.81 71.3073 208.94 71.6419 208.94 72.0498C208.94 72.4472 208.81 72.7766 208.548 73.0381C208.287 73.2995 207.957 73.4302 207.56 73.4302Z" fill="white"/>
</g>
<defs>
<clipPath id="clip0_588_1787">
<rect width="345.212" height="135.063" fill="white"/>
</clipPath>
</defs>
</svg>
