<svg width="92" height="80" viewBox="0 0 92 80" fill="none" xmlns="http://www.w3.org/2000/svg">
<g clip-path="url(#clip0_537_4206)">
<path d="M60.5404 52.8718C59.866 54.7229 60.9395 56.4703 62.8732 60.0687C64.8757 63.8053 66.1213 66.1329 68.6467 66.8098C71.7159 67.6317 75.5351 65.6702 76.8632 62.8936C79.2441 57.9207 73.856 49.8467 67.9448 49.2458C65.1441 48.9626 61.4763 50.2818 60.5404 52.8649V52.8718Z" fill="white" stroke="#FA4B06" stroke-width="1.6" stroke-linecap="round" stroke-linejoin="round"/>
<path d="M26.5116 46.3938C25.9954 46.1935 25.5069 46.3593 18.3089 52.7757C11.3518 58.9849 9.47314 60.9119 9.18412 63.9302C9.13595 64.462 8.84693 67.4319 10.6155 68.9652C11.8885 70.0703 13.7259 69.9529 17.3524 69.6835C19.9398 69.4902 21.3711 69.3796 22.4446 68.9652C29.2572 66.3199 30.3239 47.8512 26.5047 46.3938H26.5116Z" fill="white" stroke="#FA4B06" stroke-width="1.6" stroke-linecap="round" stroke-linejoin="round"/>
<path d="M23.6219 40.8957C23.6976 42.056 24.2206 43.907 25.2666 47.6091C26.6497 52.506 27.0902 52.6648 27.3448 54.509C27.7439 57.3822 26.9044 58.6185 24.7023 65.6496C21.6401 75.4366 22.1286 76.6936 22.686 77.3774C24.2757 79.332 28.3839 79.0626 31.0676 77.7227C35.0038 75.7612 36.5177 71.182 37.9353 66.879C39.5387 62.0097 38.6372 61.2983 40.1098 59.3023C41.5962 57.2855 43.4748 56.7329 53.04 54.5228C63.7819 52.0432 64.7729 51.9742 66.2592 52.5474C69.7068 53.8735 69.3421 56.139 75.0399 61.2569C78.9348 64.7517 82.293 67.77 85.2933 66.8376C88.211 65.9328 89.7043 61.6437 89.8419 58.4942C90.0208 54.4261 87.9013 52.7753 85.0524 46.2139C81.825 38.7753 83.339 38.1053 81.0612 34.203C76.7603 26.8265 68.4338 24.2157 65.3715 23.2626C55.1733 20.0716 46.4958 22.9172 42.9656 24.1328C34.5634 27.0268 23.1884 34.1063 23.6219 40.8749V40.8957Z" fill="white" stroke="#FA4B06" stroke-width="1.6" stroke-linecap="round" stroke-linejoin="round"/>
<path d="M15.3915 24.6919C14.2699 12.3978 21.6399 2.3277 30.5651 0.787487C36.9098 -0.310695 45.0023 2.7352 48.2091 9.35192C51.3952 15.9341 47.9407 22.8823 46.3167 26.17C42.3667 34.1612 35.4509 37.9668 29.0994 41.4547C24.2824 44.1 21.5986 45.5781 17.6074 45.6817C10.2442 45.8682 0.885498 41.3097 0.885498 35.6047C0.885498 31.0738 6.79664 25.9559 15.3915 24.6988V24.6919Z" fill="white" stroke="#FA4B06" stroke-width="1.6" stroke-linecap="round" stroke-linejoin="round"/>
<path d="M36.6549 2.17603C33.6477 4.73846 34.7832 13.7795 42.1119 22.9517C47.0803 26.8471 53.0809 27.4066 55.9504 25.003C59.5012 22.0262 59.7283 13.3098 52.8951 7.1213C46.2889 1.94811 39.3387 -0.11012 36.6549 2.17603Z" fill="#FA4B06" stroke="white" stroke-width="1.6" stroke-linecap="round" stroke-linejoin="round"/>
<path d="M91.0528 31.875C91.7547 30.7561 86.7312 23.9253 80.9233 24.4709C76.9596 24.8439 73.6083 28.5528 74.1244 29.7477C74.5236 30.6663 76.994 29.6303 81.9073 30.0378C87.8942 30.5351 90.5917 32.6071 91.0528 31.875Z" fill="#FA4B06" stroke="white" stroke-width="1.6" stroke-linecap="round" stroke-linejoin="round"/>
<path d="M23.9792 22.1643C23.9792 22.1643 23.9792 22.1367 23.9792 22.1229L23.9173 22.5787C23.9173 22.5787 23.9242 22.5442 23.9311 22.5235L23.759 22.9379C23.759 22.9379 23.7797 22.9034 23.7866 22.8895L23.5182 23.2418C23.5182 23.2418 23.5526 23.2003 23.5732 23.1865L23.2223 23.4559C23.2223 23.4559 23.2705 23.4214 23.298 23.4076L22.8851 23.5802C22.8851 23.5802 22.947 23.5595 22.9814 23.5526L22.5273 23.6148C22.5273 23.6148 22.5892 23.6148 22.6167 23.6148L22.1625 23.5526C22.1625 23.5526 22.2176 23.5664 22.2382 23.5733L21.8254 23.4006C21.8254 23.4006 21.8804 23.4283 21.9079 23.449L21.557 23.1796C21.557 23.1796 21.612 23.228 21.6327 23.2556L21.3643 22.9034C21.3918 22.9448 21.4194 22.9862 21.44 23.0277L21.268 22.6133C21.2886 22.6685 21.3024 22.7238 21.3093 22.779L21.2473 22.3232C21.2473 22.3715 21.2542 22.413 21.2473 22.4613L22.1006 20.9694C22.1006 20.9694 22.08 20.9833 22.0662 20.9902L22.4791 20.8175C22.4791 20.8175 22.4447 20.8313 22.4309 20.8313L22.8851 20.7692C22.8851 20.7692 22.8438 20.7692 22.8232 20.7692L23.2773 20.8313C23.2773 20.8313 23.2292 20.8244 23.2085 20.8106L23.6214 20.9833C23.6214 20.9833 23.5732 20.9556 23.5526 20.9418L23.9035 21.2112C23.9035 21.2112 23.8691 21.1767 23.8554 21.1628L24.1238 21.5151C24.1238 21.5151 24.0962 21.4736 24.0893 21.4529L24.2614 21.8673C24.2614 21.8673 24.2476 21.8328 24.2476 21.8121L24.3096 22.2679C24.3096 22.2679 24.3096 22.2334 24.3096 22.2196L24.2476 22.6754C24.2476 22.6754 24.2476 22.6409 24.2614 22.6271L24.0893 23.0415C24.0893 23.0415 24.1031 23.0139 24.1169 22.9931L23.8485 23.3454C23.8485 23.3454 23.8691 23.3178 23.8829 23.3109L23.532 23.5802C23.532 23.5802 23.5664 23.5595 23.587 23.5526L23.1741 23.7253C23.1741 23.7253 23.2223 23.7115 23.2498 23.7045L22.7956 23.7667C22.7956 23.7667 22.8507 23.7667 22.8782 23.7667L22.424 23.7045C22.424 23.7045 22.4722 23.7114 22.4929 23.7253L22.08 23.5526C22.08 23.5526 22.1144 23.5733 22.135 23.5802L21.7841 23.3109C21.7841 23.3109 21.8116 23.3316 21.8185 23.3454L21.5501 22.9931C21.5501 22.9931 21.5707 23.0208 21.5776 23.0415L21.4056 22.6271C21.4056 22.6271 21.4194 22.6616 21.4194 22.6823L21.3574 22.2265C21.3574 22.2265 21.3574 22.2679 21.3574 22.2956L21.4194 21.8397C21.4194 21.8397 21.4125 21.8811 21.3987 21.9019L21.5707 21.4875C21.5707 21.4875 21.5432 21.5358 21.5295 21.5565L21.7978 21.2043C21.7978 21.2043 21.7634 21.2388 21.7497 21.2526L22.1006 20.9833C22.1006 20.9833 22.0593 21.0109 22.0318 21.0247L22.4447 20.852C22.4447 20.852 22.4103 20.8658 22.3896 20.8658L22.8438 20.8037C22.8438 20.8037 22.7956 20.8037 22.775 20.8037L23.2292 20.8658C23.2292 20.8658 23.1741 20.852 23.1466 20.8451L23.5595 21.0178C23.5595 21.0178 23.5113 20.9902 23.4838 20.9764L23.8347 21.2457C23.8347 21.2457 23.7866 21.2043 23.7659 21.1767L24.0343 21.5289C24.0343 21.5289 23.9999 21.4736 23.9861 21.446L24.1582 21.8604C24.1582 21.8604 24.1375 21.8052 24.1375 21.7775L24.1994 22.2334C24.1994 22.2334 24.1994 22.1781 24.1994 22.1505L24.1375 22.6064C24.1375 22.6064 24.1513 22.5442 24.165 22.5166L23.993 22.931C23.993 22.931 24.0274 22.8688 24.0481 22.8412L23.7797 23.1934C23.7797 23.1934 23.8279 23.1382 23.8554 23.1175L23.5044 23.3868C23.5044 23.3868 23.5664 23.3454 23.6076 23.3247L23.1948 23.4973C23.1948 23.4973 23.2498 23.4766 23.2842 23.4766L22.83 23.5388C22.83 23.5388 22.8851 23.5388 22.9126 23.5388L22.4584 23.4766C22.4584 23.4766 22.5135 23.4904 22.541 23.4973L22.1281 23.3247C22.1281 23.3247 22.1763 23.3454 22.197 23.3661L21.846 23.0967C21.846 23.0967 21.8942 23.1382 21.9148 23.1658L21.6464 22.8136C21.6464 22.8136 21.6808 22.8688 21.6946 22.9034L21.5226 22.4889C21.5363 22.5235 21.5501 22.5649 21.557 22.6064L21.495 22.1505C21.495 22.185 21.495 22.2265 21.495 22.261L21.557 21.8052C21.557 21.8052 21.5432 21.8604 21.5363 21.8881L21.7084 21.4736C21.7084 21.4736 21.6877 21.522 21.6671 21.5427L21.9355 21.1905C21.9355 21.1905 21.9011 21.2319 21.8804 21.2457L22.2314 20.9764C22.2314 20.9764 22.1832 21.0109 22.1557 21.0178L22.5686 20.8451C22.5686 20.8451 22.5066 20.8658 22.4722 20.8728L22.9264 20.8106C22.892 20.8106 22.8507 20.8106 22.8163 20.8106L23.2705 20.8728C23.2292 20.8728 23.1948 20.8589 23.1535 20.8382L23.5664 21.0109C23.5664 21.0109 23.5044 20.9833 23.4838 20.9625L23.8347 21.2319C23.8347 21.2319 23.7934 21.1905 23.7728 21.1697L24.0412 21.522C24.0412 21.522 24.0137 21.4806 23.9999 21.4529L24.1719 21.8673C24.1169 21.6325 24.0137 21.4391 23.8623 21.2733C23.7384 21.0869 23.5801 20.9349 23.3806 20.8313C23.181 20.707 22.9677 20.6379 22.7406 20.6241C22.5135 20.5758 22.2864 20.5827 22.0524 20.6517L21.6396 20.8244C21.3781 20.9764 21.1785 21.1836 21.0202 21.446L20.8482 21.8604C20.7656 22.1643 20.7656 22.4751 20.8482 22.779C20.9996 23.1658 21.0615 23.3454 21.3574 23.6493C21.4744 23.7667 21.6189 23.8634 21.7497 23.9601C21.7703 23.9739 21.7909 23.9877 21.8116 24.0015C21.8804 24.0361 21.9974 24.0775 22.0318 24.0982C22.08 24.119 22.1763 24.1604 22.2451 24.188C22.2589 24.188 22.2726 24.1949 22.2795 24.2018C22.3759 24.2295 22.4929 24.2364 22.5754 24.2502C22.658 24.264 22.775 24.2847 22.8713 24.2847C23.0434 24.2847 23.2223 24.2502 23.3943 24.2156C23.4218 24.2156 23.4425 24.2018 23.4631 24.1949C23.5526 24.1604 23.7934 24.0568 23.876 24.0223C23.876 24.0223 23.8898 24.0223 23.8967 24.0153C23.9104 24.0153 23.9173 24.0015 23.9311 23.9946C23.9999 23.9532 24.0825 23.8772 24.1306 23.8427C24.1788 23.8012 24.2683 23.746 24.3302 23.6907C24.3371 23.6838 24.344 23.6769 24.3508 23.6631C24.399 23.6078 24.4816 23.4973 24.4954 23.4766C24.5229 23.4352 24.5986 23.3523 24.6399 23.2832C24.7224 23.1589 24.8463 22.8067 24.8394 22.8205C24.8463 22.7998 24.8532 22.7721 24.8601 22.7514C24.8738 22.6754 24.8876 22.5373 24.8945 22.5097C24.8945 22.4682 24.922 22.3508 24.9289 22.2679C24.9289 22.2541 24.9289 22.2472 24.9289 22.2334C24.9289 22.0607 24.8807 21.8259 24.8601 21.7016C24.8601 21.6808 24.8532 21.6532 24.8463 21.6325C24.7981 21.4667 24.7224 21.3148 24.6467 21.1559C24.6399 21.1352 24.6261 21.1145 24.6123 21.0938C24.5366 20.9902 24.4197 20.8382 24.3371 20.7346C24.3371 20.7346 24.3302 20.7208 24.3233 20.7208C24.3164 20.7139 24.3027 20.7001 24.2958 20.6932C24.2889 20.6863 24.282 20.6794 24.2683 20.6725C24.1995 20.6172 23.993 20.4514 23.9173 20.3962C23.9173 20.3962 23.9035 20.3893 23.9035 20.3824C23.8967 20.3824 23.8829 20.3686 23.876 20.3617C23.876 20.3617 23.8623 20.3616 23.8554 20.3547C23.7659 20.3133 23.5251 20.2097 23.4356 20.1752C23.4081 20.1683 23.3806 20.1614 23.353 20.1544C23.2636 20.1406 22.9814 20.0992 22.892 20.0923C22.8851 20.0923 22.8782 20.0923 22.8713 20.0923C22.8576 20.0923 22.8438 20.0923 22.8232 20.0923C22.7337 20.0992 22.4516 20.1406 22.3621 20.1544C22.3552 20.1544 22.3483 20.1544 22.3415 20.1544C22.3277 20.1544 22.3139 20.1544 22.3002 20.1614C22.2933 20.1614 22.2864 20.1614 22.2795 20.1683C22.1832 20.2028 21.9561 20.3064 21.8598 20.3478C21.846 20.3478 21.8322 20.3617 21.8185 20.3686C21.674 20.4514 21.5019 20.6034 21.4056 20.6794C21.3849 20.7001 21.3643 20.7208 21.3437 20.7415C21.0753 21.0523 20.9514 21.2388 20.8276 21.6325C20.7725 21.7983 20.7656 21.9917 20.7519 22.1574C20.7519 22.1712 20.7519 22.185 20.7519 22.1989C20.7519 22.1989 20.7519 22.2127 20.7519 22.2196C20.7587 22.3025 20.7725 22.3784 20.7863 22.4613C20.7931 22.5373 20.8069 22.6202 20.8207 22.6961C20.8344 22.7928 20.8895 22.8964 20.9308 22.9793C20.9652 23.0691 20.9996 23.1796 21.0615 23.2625C21.1235 23.3523 21.2611 23.5319 21.3368 23.6148C21.3368 23.6148 21.3437 23.6286 21.3505 23.6355C21.3574 23.6493 21.3712 23.6562 21.3781 23.6631C21.3781 23.6631 21.3849 23.67 21.3918 23.6769C21.4882 23.7598 21.6464 23.8772 21.7497 23.9532C21.7634 23.9601 21.7772 23.9739 21.791 23.9808C21.8666 24.0223 21.9699 24.0568 22.0318 24.0844C22.0937 24.112 22.1901 24.1604 22.2726 24.1811C22.2864 24.1811 22.3071 24.188 22.3208 24.188C22.4172 24.2018 22.6855 24.2433 22.7819 24.2502C22.7888 24.2502 22.8025 24.2502 22.8094 24.2502C22.892 24.2502 23.009 24.2226 23.0709 24.2156C23.1122 24.2156 23.2567 24.2018 23.3324 24.1742C23.3393 24.1742 23.3462 24.1742 23.353 24.1673C23.4218 24.1397 23.704 24.0223 23.7659 23.9877C23.7797 23.9877 23.7934 23.9739 23.8072 23.967C23.8072 23.967 23.821 23.9601 23.8279 23.9532C23.8967 23.9048 24.1169 23.7322 24.1788 23.6769C24.1926 23.67 24.1994 23.6562 24.2132 23.6424C24.3302 23.5181 24.4472 23.3799 24.5229 23.2349C24.5229 23.2349 24.5229 23.228 24.5298 23.2211V23.2073C24.5917 23.0691 24.6467 22.931 24.7087 22.7928C24.7087 22.779 24.7156 22.7652 24.7224 22.7583C24.7224 22.7514 24.7224 22.7445 24.7224 22.7376C24.7362 22.6685 24.7775 22.3439 24.7844 22.2748C24.7844 22.261 24.7844 22.2472 24.7844 22.2265C24.7844 22.2196 24.7844 22.2127 24.7844 22.2058L24.7568 21.9778C24.75 21.895 24.7362 21.819 24.7224 21.7361C24.7224 21.7223 24.7224 21.7085 24.7087 21.7016C24.6949 21.6601 24.5573 21.3286 24.5366 21.2872C24.5366 21.2872 24.5366 21.2733 24.5298 21.2733C24.5298 21.2595 24.516 21.2526 24.5091 21.2457C24.4678 21.1836 24.282 20.9418 24.2339 20.8866C24.2339 20.8866 24.2339 20.8866 24.227 20.8797C24.2201 20.8728 24.2132 20.8658 24.2063 20.8589C24.1375 20.7968 23.9517 20.6241 23.8072 20.5619C23.7522 20.5343 23.4494 20.4031 23.3943 20.3893H23.3806C23.3737 20.3893 23.3599 20.3893 23.353 20.3824C23.181 20.3478 23.009 20.3133 22.8369 20.3133C22.8232 20.3133 22.8163 20.3133 22.8025 20.3133C22.6787 20.3202 22.4584 20.3547 22.3346 20.3755C22.3346 20.3755 22.3277 20.3755 22.3208 20.3755C22.2314 20.3962 22.1281 20.4514 22.0524 20.4791C21.9767 20.5067 21.8735 20.5412 21.7978 20.5965C21.7634 20.6241 21.4813 20.8382 21.4469 20.8658C21.4469 20.8658 21.44 20.8728 21.4331 20.8797C21.4262 20.8866 21.4194 20.8935 21.4125 20.9073C21.3987 20.9211 21.1854 21.1628 21.1166 21.301C20.9377 21.6739 20.8895 21.8052 20.8688 22.2334C20.8688 22.2472 20.8688 22.2541 20.8688 22.2679C20.8688 22.3163 20.9239 22.6823 20.9308 22.7307C20.9308 22.7307 20.9308 22.7445 20.9308 22.7514C20.9652 22.9172 21.0478 23.0829 21.1303 23.228C21.1303 23.2349 21.1441 23.2418 21.1441 23.2556C21.2336 23.3799 21.323 23.4973 21.4125 23.6148C21.4125 23.6148 21.4194 23.6286 21.4262 23.6286C21.5432 23.7529 21.6877 23.8496 21.8254 23.9394C21.9079 23.9946 22.0112 24.0223 22.0869 24.0568C22.1763 24.0913 22.2658 24.1466 22.3621 24.1604C22.8094 24.2364 22.7475 24.2364 23.1053 24.188C23.415 24.1466 23.4769 24.1466 23.8003 23.967C23.876 23.9256 23.9448 23.8634 23.9999 23.8151L24.1719 23.6769C24.3371 23.5181 24.4609 23.3385 24.5298 23.1244L24.6192 22.9172L24.6811 22.4613C24.6811 22.4613 24.6811 22.3922 24.6811 22.3646C24.6743 22.2748 24.6605 22.185 24.6467 22.0953C24.633 22.0055 24.6261 21.9157 24.6123 21.8259C24.6123 21.7983 24.5986 21.7637 24.5917 21.7361C24.5366 21.5703 24.4678 21.4046 24.3852 21.2526C24.3715 21.225 24.3577 21.1974 24.3371 21.1767C24.0687 20.8037 23.993 20.7139 23.6145 20.4514C23.6008 20.4445 23.587 20.4307 23.5732 20.4238C23.5732 20.4238 23.5664 20.4238 23.5595 20.4238C23.4975 20.3893 23.2085 20.2719 23.1466 20.2442C23.1191 20.2373 23.0984 20.2304 23.0709 20.2235C22.947 20.2028 22.7268 20.1683 22.603 20.1614C22.603 20.1614 22.5961 20.1614 22.5892 20.1614C22.5754 20.1614 22.5617 20.1614 22.5548 20.1614C22.4722 20.1614 22.3552 20.189 22.2933 20.1959C22.2176 20.2028 22.1075 20.2166 22.0249 20.2373C21.8735 20.2719 21.5845 20.4169 21.557 20.4307C21.5363 20.4445 21.5088 20.4514 21.4882 20.4653C21.4262 20.5067 21.323 20.5965 21.3024 20.6103C21.2886 20.6172 21.1785 20.7001 21.1235 20.7484C21.1166 20.7553 21.1028 20.7622 21.0959 20.7692C20.9789 20.8935 20.8688 21.0247 20.7863 21.1697C20.7037 21.3148 20.6349 21.4736 20.5936 21.6325C20.5936 21.6325 20.5936 21.6394 20.5936 21.6463C20.5729 21.8121 20.5523 21.964 20.5316 22.116C20.5316 22.1298 20.5316 22.1436 20.5316 22.1574C20.5248 22.3923 20.5729 22.6202 20.683 22.8205C20.7519 23.0346 20.8688 23.2211 21.0409 23.373C21.1991 23.5388 21.3781 23.6631 21.5914 23.7322C21.7978 23.8427 22.018 23.891 22.252 23.8841L22.7062 23.822C22.9952 23.7391 23.2498 23.594 23.4631 23.3799L23.7315 23.0277C23.8898 22.7583 23.9655 22.4682 23.9655 22.1574L23.9792 22.1643Z" fill="#FA4B06"/>
<path d="M5.54416 33.063C5.54416 33.063 5.5304 33.0492 5.52352 33.0422L5.79189 33.3945C5.79189 33.3945 5.76437 33.36 5.75749 33.3392L5.92952 33.7536C5.92952 33.7536 5.91576 33.7053 5.90888 33.6846L5.97081 34.1404C5.97081 34.1404 5.97081 34.0852 5.97081 34.0575L5.90888 34.5134C5.90888 34.5134 5.92264 34.4512 5.9364 34.4236L5.76437 34.838C5.77813 34.8035 5.79878 34.7689 5.8263 34.7344L5.55793 35.0867C5.58545 35.0452 5.61986 35.0176 5.66115 34.9831L5.31019 35.2524C5.3446 35.2248 5.38589 35.2041 5.42718 35.1834L5.01429 35.356C5.0487 35.3422 5.08999 35.3284 5.13128 35.3215L4.6771 35.3836C4.6771 35.3836 4.73904 35.3836 4.76656 35.3836L4.31239 35.3215C4.31239 35.3215 4.36744 35.3353 4.40185 35.3422L3.98896 35.1695C3.98896 35.1695 4.03713 35.1972 4.06466 35.211L3.7137 34.9416C3.7137 34.9416 3.76876 34.99 3.7894 35.0176L3.52102 34.6653C3.52102 34.6653 3.56231 34.7275 3.58296 34.7689L3.41092 34.3545C3.43157 34.396 3.43845 34.4443 3.44533 34.4927L3.3834 34.0368C3.39028 34.0921 3.3834 34.1473 3.3834 34.2026L3.44533 33.7467C3.43845 33.8089 3.4178 33.8642 3.39716 33.9194L3.56919 33.505C3.54855 33.5603 3.52102 33.6086 3.48662 33.6569L3.75499 33.3047C3.72059 33.3461 3.68618 33.3876 3.64489 33.4152L3.99584 33.1458C3.99584 33.1458 3.92703 33.1942 3.88574 33.208L4.29863 33.0353C4.24357 33.0561 4.1954 33.0699 4.14035 33.0768L4.59453 33.0146C4.53948 33.0146 4.48442 33.0146 4.42937 33.0146L4.88355 33.0768C4.82161 33.0699 4.76656 33.0561 4.71151 33.0284L5.1244 33.2011C5.08311 33.1804 5.04182 33.1597 5.00741 33.132L5.35837 33.4014C5.35837 33.4014 5.29643 33.3461 5.26891 33.3116L5.53728 33.6639C5.53728 33.6639 5.49599 33.6086 5.48223 33.5741L5.65427 33.9885C5.65427 33.9885 5.63362 33.9194 5.62674 33.8849L5.68867 34.3407C5.68867 34.3407 5.68867 34.2786 5.68867 34.2509L5.62674 34.7068C5.62674 34.7068 5.6405 34.6377 5.65427 34.6101L5.48223 35.0245C5.49599 34.99 5.51664 34.9554 5.53728 34.9278L5.26891 35.28C5.29643 35.2455 5.33084 35.211 5.36525 35.1834L5.01429 35.4527C5.01429 35.4527 5.07623 35.4113 5.11063 35.3975L4.69775 35.5701C4.69775 35.5701 4.75968 35.5494 4.79409 35.5425L4.33991 35.6047C4.33991 35.6047 4.39497 35.6047 4.42249 35.6047L3.96832 35.5425C3.96832 35.5425 4.01649 35.5563 4.03713 35.5632L3.62425 35.3906C3.62425 35.3906 3.66553 35.4113 3.6793 35.4251C3.87886 35.5494 4.09218 35.6185 4.31927 35.6323C4.54636 35.6806 4.77344 35.6737 5.00741 35.6047C5.2345 35.5494 5.42718 35.4458 5.59233 35.2939C5.77813 35.1695 5.92952 35.0107 6.03274 34.8104L6.20478 34.396C6.28736 34.0921 6.28736 33.7813 6.20478 33.4774L6.03274 33.063C5.88135 32.8005 5.67491 32.6002 5.41342 32.4413C5.26891 32.3377 5.08311 32.2756 4.91107 32.2203C4.76656 32.1789 4.37432 32.1444 4.41561 32.1513C4.39497 32.1513 4.37432 32.1513 4.35368 32.1513C4.17476 32.1651 3.98208 32.172 3.81004 32.2272C3.63801 32.2825 3.45221 32.3516 3.30082 32.4483C2.95675 32.6762 2.76407 32.8696 2.53698 33.2149C2.44064 33.3669 2.37871 33.5533 2.31677 33.7191C2.25484 33.8987 2.24108 34.099 2.2342 34.2855C2.22043 34.6446 2.3443 35.0452 2.52322 35.356C2.72278 35.7083 2.95675 35.9017 3.28017 36.1227C3.31458 36.1434 3.34899 36.1641 3.3834 36.1779C3.50038 36.2263 3.72747 36.3506 3.8995 36.3851C4.0853 36.4266 4.2711 36.4473 4.4569 36.4611C4.49819 36.4611 4.54636 36.4611 4.58765 36.4611C4.69775 36.4473 4.97989 36.4266 5.15192 36.3782C5.32396 36.3299 5.50288 36.247 5.66115 36.1641C5.67491 36.1572 5.69556 36.1434 5.70932 36.1365C5.84007 36.0467 5.97081 35.9431 6.09468 35.8395C6.1222 35.8119 6.14973 35.7842 6.17725 35.7566C6.28736 35.6254 6.41122 35.4803 6.50068 35.3284C6.50756 35.3146 6.52133 35.2939 6.52821 35.28C6.59702 35.1281 6.66584 34.9692 6.72089 34.8173C6.73465 34.7828 6.74153 34.7482 6.75529 34.7068C6.77594 34.617 6.78282 34.5203 6.79658 34.4305C6.81035 34.3407 6.83099 34.2371 6.83099 34.1473C6.83099 34.1128 6.83099 34.0714 6.83099 34.0368C6.81723 33.9332 6.80346 33.6431 6.74841 33.4774C6.74841 33.4705 6.74841 33.4636 6.74153 33.4497C6.69336 33.3185 6.61767 33.1528 6.56261 33.0284C6.55573 33.0146 6.54885 32.9939 6.54197 32.9801C6.45251 32.8212 6.33553 32.6762 6.21166 32.545C5.96393 32.2894 5.63362 32.096 5.28955 31.9993C5.11752 31.951 4.92484 31.9302 4.74592 31.9233C4.73216 31.9233 4.71151 31.9233 4.69775 31.9233C4.567 31.9372 4.36056 31.9648 4.22981 31.9855C4.21605 31.9855 4.20917 31.9855 4.1954 31.9855C4.17476 31.9855 4.161 31.9924 4.14035 31.9993C4.06466 32.0269 3.98208 32.0684 3.91327 32.096C3.84445 32.1236 3.75499 32.1582 3.6793 32.1927C3.66553 32.1996 3.64489 32.2134 3.63113 32.2203C3.62425 32.2203 3.61736 32.2272 3.61048 32.2341C3.48662 32.3239 3.36275 32.4206 3.24577 32.5173C3.21136 32.545 3.18383 32.5726 3.15631 32.6002C3.04621 32.7314 2.91546 32.8765 2.83288 33.0353C2.7503 33.1942 2.66773 33.36 2.62644 33.5395C2.62644 33.5464 2.62644 33.5603 2.62644 33.5672C2.61268 33.6431 2.60579 33.726 2.59203 33.8089C2.57827 33.8918 2.57139 33.9678 2.55762 34.0506C2.55762 34.0714 2.55762 34.0852 2.55762 34.1059C2.56451 34.2855 2.57827 34.4789 2.6402 34.6515C2.78471 35.0383 2.85353 35.1903 3.13566 35.4942C3.29394 35.6599 3.47285 35.7842 3.68618 35.8533C3.89262 35.9638 4.11283 36.0122 4.3468 36.0053C4.58076 36.0122 4.80785 35.9638 5.00741 35.8533C5.22074 35.7842 5.40653 35.6668 5.55793 35.4942L5.8263 35.1419C5.98457 34.8725 6.06027 34.5825 6.06027 34.2717L5.99834 33.8158C5.91576 33.5257 5.77125 33.2702 5.55793 33.0561L5.54416 33.063Z" fill="#FA4B06"/>
<path d="M25.218 47.0218C34.9277 42.8777 43.151 35.6325 48.5942 26.5639C49.7434 24.6576 46.7638 22.9171 45.6215 24.8233C40.4535 33.4223 32.6706 40.115 23.477 44.0381C22.6237 44.4041 22.431 45.6681 22.8577 46.4002C23.3738 47.2912 24.351 47.3879 25.2111 47.0218H25.218Z" fill="#FA4B06"/>
<path d="M10.9666 40.626C10.7532 41.1647 10.533 41.9521 10.6087 42.8983C10.7739 44.922 12.2328 46.9388 13.0654 46.8283C13.3888 46.7869 13.7123 45.7854 14.3522 43.7962C14.5656 43.1263 14.7514 42.4839 14.8408 41.6482C14.8959 41.1509 14.8959 40.7296 14.889 40.4326C13.5815 40.5017 12.274 40.5638 10.9597 40.6329L10.9666 40.626Z" fill="#FA4B06" stroke="#FA4B06" stroke-width="0.551875" stroke-miterlimit="10"/>
<path d="M9.14307 39.3073C9.44585 40.6127 10.7258 41.2274 11.586 40.8751C12.2328 40.6127 12.6732 39.7908 12.5769 38.886C12.7283 39.8322 13.3132 40.5851 13.9945 40.7232C14.951 40.9166 16.2722 39.9427 16.3617 38.292" fill="white"/>
<path d="M9.14307 39.3073C9.44585 40.6127 10.7258 41.2274 11.586 40.8751C12.2328 40.6127 12.6732 39.7908 12.5769 38.886C12.7283 39.8322 13.3132 40.5851 13.9945 40.7232C14.951 40.9166 16.2722 39.9427 16.3617 38.292" stroke="#FA4B06" stroke-width="1.6" stroke-linecap="round" stroke-linejoin="round"/>
<path d="M12.233 41.8209C12.0954 42.7533 12.1022 43.6926 12.233 44.6181C12.2467 44.701 12.35 44.7493 12.4257 44.7286C12.5151 44.701 12.5495 44.6181 12.5358 44.5352C12.405 43.665 12.405 42.774 12.5358 41.9037C12.5495 41.8209 12.5151 41.738 12.4257 41.7104C12.35 41.6896 12.2467 41.738 12.233 41.8209Z" fill="white"/>
</g>
<defs>
<clipPath id="clip0_537_4206">
<rect width="91" height="79" fill="white" transform="translate(0.5 0.179688)"/>
</clipPath>
</defs>
</svg>
