<svg width="290" height="270" viewBox="0 0 290 270" fill="none" xmlns="http://www.w3.org/2000/svg">
<g clip-path="url(#clip0_566_4285)">
<path d="M1.60107 119.882L19.0322 132.621C19.0322 132.621 69.4877 58.9515 132.77 22.1071C132.77 22.1071 184.134 37.57 270.816 113.983L283.662 103.518C283.662 103.518 198.818 18.4618 131.86 1.17627C131.86 1.17627 65.8118 43.469 1.62084 119.882H1.60107Z" fill="#FA4B06" stroke="white" stroke-width="1.60444" stroke-miterlimit="10"/>
<path d="M193.64 146.653L270.816 113.983C270.816 113.983 180.023 35.9824 132.77 22.1069C132.77 22.1069 76.4049 52.9544 19.0322 132.621L94.6858 160.293L134.667 134.953L193.64 146.653Z" fill="#FA4B06" stroke="white" stroke-width="1.60444" stroke-miterlimit="10"/>
<path d="M181.545 99.7945L177.494 88.4668L185.004 66.8501L188.601 81.9211L181.545 99.7945Z" fill="#FA4B06" stroke="white" stroke-width="1.60444" stroke-linejoin="round"/>
<path d="M81.563 71.0435C81.563 71.0435 89.6264 77.8832 92.5711 96.7366L93.1047 107.084L82.4919 89.5441L81.5827 71.0435H81.563Z" fill="#FA4B06" stroke="white" stroke-width="1.60444" stroke-linejoin="round"/>
<path d="M177.494 88.4658L92.4526 95.188L93.1048 107.084L182.395 99.7739L177.494 88.4658Z" fill="#FA4B06" stroke="white" stroke-width="1.60444" stroke-miterlimit="10"/>
<path d="M200.538 154.238L206.506 255.364L194.154 256.951C194.154 256.951 185.162 183.341 188.64 154.179L200.538 154.238Z" fill="#FA4B06" stroke="white" stroke-width="1.60444" stroke-miterlimit="10"/>
<path d="M77.2349 162.959L81.6025 264.164L94.0534 264.497C94.0534 264.497 95.4763 190.357 89.0533 161.705L77.2349 162.959Z" fill="#FA4B06" stroke="white" stroke-width="1.60444" stroke-miterlimit="10"/>
<path d="M120.872 58.8143L143.066 55.6982L139.528 102.479L181.525 99.794L188.581 81.9009L205.241 79.6276L189.45 110.906C189.45 110.906 89.5867 110.514 78.9541 117.432L65.021 90.7593L82.4719 89.5442L93.0848 107.085C93.0848 107.085 122.888 105.164 127.532 104.968L120.852 58.8143H120.872Z" fill="#FA4B06" stroke="white" stroke-width="1.60444" stroke-linejoin="round"/>
<path d="M271.527 200.078V230.239L288.188 229.808" stroke="white" stroke-width="1.60444" stroke-miterlimit="10"/>
<path d="M263.384 231.768L252.554 232.238L253.641 211.405L263.009 210.661L263.384 231.768Z" fill="#FA4B06" stroke="white" stroke-width="1.60444" stroke-miterlimit="10"/>
<path d="M280.757 231.396L269.926 231.866L271.033 211.033L280.381 210.269L280.757 231.396Z" fill="#FA4B06" stroke="white" stroke-width="1.60444" stroke-miterlimit="10"/>
<path d="M213.699 190.71L215.577 229.103L224.589 230.985L222.711 192.122L213.699 190.71Z" fill="#FA4B06" stroke="white" stroke-width="1.60444" stroke-miterlimit="10"/>
<path d="M57.9263 233.728L59.8038 195.315L68.8158 193.454L66.9383 232.317L57.9263 233.728Z" fill="#FA4B06" stroke="white" stroke-width="1.60444" stroke-miterlimit="10"/>
<path d="M232.831 210.523L234.649 230.925H246.843L244.234 210.523H232.831Z" fill="#FA4B06" stroke="white" stroke-width="1.60444" stroke-miterlimit="10"/>
<path d="M52.7879 231.395L54.3492 214.972L42.5308 215.58L42.9853 235.041L52.7879 231.395Z" fill="#FA4B06" stroke="white" stroke-width="1.60444" stroke-miterlimit="10"/>
<path d="M35.3759 217.089L35.8304 235.962L24.9014 236.57L25.5733 217.089H35.3759Z" fill="#FA4B06" stroke="white" stroke-width="1.60444" stroke-miterlimit="10"/>
<path d="M16.3634 217.089L16.7982 235.962L5.86914 236.57L6.54109 217.089H16.3634Z" fill="#FA4B06" stroke="white" stroke-width="1.60444" stroke-miterlimit="10"/>
<path d="M81.5629 71.0435C81.5629 71.0435 84.31 75.2962 82.472 89.5441C82.472 89.5441 72.9856 96.8346 65.0211 90.7592C65.0211 90.7592 64.1119 80.7445 68.3808 71.0435C68.3808 71.0435 75.7327 67.3982 81.5431 71.0435H81.5629Z" fill="white" stroke="#FA4B06" stroke-width="1.60444" stroke-miterlimit="10"/>
<path d="M216.427 255.128C216.427 255.128 209.688 244.349 215.222 231.16L289.334 230.689L289.274 253.756L216.427 255.128Z" fill="#FA4B06"/>
<path d="M184.826 63.9295C184.826 63.9295 183.067 68.6722 187.968 82.1949C187.968 82.1949 198.818 87.2708 205.261 79.6472C205.261 79.6472 203.976 69.6717 197.672 61.1074C197.672 61.1074 189.707 59.1279 184.826 63.9295Z" fill="white" stroke="#FA4B06" stroke-width="1.60444" stroke-miterlimit="10"/>
<path d="M121.445 39.1968C121.445 39.1968 118.757 50.6225 120.892 58.8341L143.086 55.718L142.354 38.0993C142.354 38.0993 125.338 35.3556 121.445 39.1968Z" fill="white" stroke="#FA4B06" stroke-width="1.60444" stroke-miterlimit="10"/>
<path d="M88.8159 115.609L95.733 128.191L95.239 138.324L89.1124 128.975L88.8159 115.609Z" fill="#FA4B06" stroke="white" stroke-width="1.60444" stroke-linejoin="round"/>
<path d="M73.9934 132.542L89.0925 128.995L95.2191 139.97L179.055 132.405L184.154 126.604C184.154 126.604 198.719 125.448 203.996 127.878L189.924 137.559L80.4362 144.654L73.9736 132.581L73.9934 132.542Z" fill="#FA4B06" stroke="white" stroke-width="1.60444" stroke-linejoin="round"/>
<path d="M95.7328 128.192L95.2388 139.951L179.074 132.366L178.462 123.567L95.7328 128.192Z" fill="#FA4B06" stroke="white" stroke-width="1.60444" stroke-linejoin="round"/>
<path d="M184.509 108.907L178.462 123.567L179.549 132.17L184.173 126.565L184.509 108.907Z" fill="#FA4B06" stroke="white" stroke-width="1.60444" stroke-linejoin="round"/>
<path d="M70.1399 114.806C70.1399 114.806 68.539 129.975 74.0135 132.542C74.0135 132.542 80.4563 133.346 89.6264 128.701L88.8161 115.61C88.8161 115.61 78.1835 111.298 70.1399 114.806Z" fill="white" stroke="#FA4B06" stroke-width="1.60444" stroke-miterlimit="10"/>
<path d="M184.43 108.417C184.43 108.417 182.889 121.96 184.173 126.565C184.173 126.565 196.802 125.291 204.016 127.839L203.245 108.163C203.245 108.163 187.276 106.379 184.43 108.417Z" fill="white" stroke="#FA4B06" stroke-width="1.60444" stroke-miterlimit="10"/>
<path d="M87.1943 142.911L100.594 161.607L93.3802 162.038L87.5303 155.316L87.1943 142.911Z" fill="#FA4B06" stroke="white" stroke-width="1.60444" stroke-linejoin="round"/>
<path d="M67.9453 156.589L77.1747 162.959L93.3806 163.547L87.5307 155.315L67.9453 156.589Z" fill="#FA4B06" stroke="white" stroke-width="1.60444" stroke-linejoin="round"/>
<path d="M189.588 136.541L176.189 155.257L183.422 155.669L189.272 148.947L189.588 136.541Z" fill="#FA4B06" stroke="white" stroke-width="1.60444" stroke-linejoin="round"/>
<path d="M208.858 150.22L199.628 156.59L183.422 157.177L189.272 148.946L208.858 150.22Z" fill="#FA4B06" stroke="white" stroke-width="1.60444" stroke-linejoin="round"/>
<path d="M200.537 154.238L77.1753 162.959L78.5192 201.94C78.5192 201.94 112.117 213.503 140.931 182.126C140.931 182.126 163.382 206.839 202.988 195.1L200.557 154.218L200.537 154.238Z" fill="#FA4B06" stroke="white" stroke-width="1.60444" stroke-miterlimit="10"/>
<path d="M95.6141 174.62C95.6141 174.62 101.583 160.921 113.5 172.758C113.5 172.758 121.662 165.605 110.832 166.075C110.832 166.075 103.302 157.824 98.5983 165.762C98.5983 165.762 85.5744 165.448 95.6141 174.64V174.62Z" fill="white"/>
<path d="M164.568 178.265C164.568 178.265 170.537 191.964 182.454 180.127C182.454 180.127 190.616 187.28 179.786 186.81C179.786 186.81 172.256 195.06 167.552 187.123C167.552 187.123 154.528 187.437 164.568 178.245V178.265Z" fill="white"/>
<path d="M112.65 180.401C112.65 180.401 106.682 194.1 94.7648 182.263C94.7648 182.263 86.6025 189.416 97.4328 188.946C97.4328 188.946 104.963 197.197 109.666 189.259C109.666 189.259 122.69 189.573 112.65 180.381V180.401Z" fill="white"/>
<path d="M182.948 170.426C182.948 170.426 176.98 156.727 165.063 168.564C165.063 168.564 156.9 161.411 167.731 161.881C167.731 161.881 175.26 153.63 179.964 161.567C179.964 161.567 192.988 161.254 182.948 170.445V170.426Z" fill="white"/>
<path d="M175.339 179.402C175.339 179.402 168.264 179.402 168.599 173.522C168.599 173.522 170.813 166.154 177.315 170.191C177.315 170.191 183.461 175.953 175.339 179.402Z" fill="white"/>
<path d="M163.007 170.583C163.007 170.583 168.778 166.193 171.604 170.446C171.604 170.446 173.719 176.874 166.288 178.128C166.288 178.128 158.224 177.991 163.007 170.583Z" fill="white"/>
<path d="M183.343 170.406C183.343 170.406 176.881 167.094 174.845 171.778C174.845 171.778 173.916 178.461 181.446 178.402C181.446 178.402 189.371 176.854 183.323 170.406H183.343Z" fill="white"/>
<path d="M102.571 182.812C102.571 182.812 109.646 182.812 109.31 176.932C109.31 176.932 107.097 169.563 100.595 173.6C100.595 173.6 94.4483 179.362 102.571 182.812Z" fill="white"/>
<path d="M114.904 174.012C114.904 174.012 109.133 169.622 106.307 173.875C106.307 173.875 104.192 180.303 111.623 181.558C111.623 181.558 119.686 181.421 114.904 174.012Z" fill="white"/>
<path d="M94.5669 173.836C94.5669 173.836 101.029 170.524 103.065 175.208C103.065 175.208 103.994 181.891 96.4641 181.832C96.4641 181.832 88.5391 180.284 94.5866 173.836H94.5669Z" fill="white"/>
<path d="M67.9461 156.59C67.9461 156.59 66.3453 146.732 67.3137 143.851C67.3137 143.851 80.7922 140.99 87.2152 142.891L87.5314 155.296C87.5314 155.296 69.8829 157.844 67.9461 156.57V156.59Z" fill="white" stroke="#FA4B06" stroke-width="1.60444" stroke-miterlimit="10"/>
<path d="M208.857 150.22C208.857 150.22 210.458 140.362 209.49 137.481C209.49 137.481 196.011 134.62 189.588 136.521L189.272 148.927C189.272 148.927 206.921 151.474 208.857 150.201V150.22Z" fill="white" stroke="#FA4B06" stroke-width="1.60444" stroke-miterlimit="10"/>
<path d="M4.26899 236.021L4.18994 259.636L73.3217 256.148C73.3217 256.148 79.5866 240.293 68.7366 229.534C68.7366 229.534 15.2969 238.47 4.26899 236.021Z" fill="#FA4B06"/>
<path d="M72.8867 256.305C72.8867 256.305 79.4283 238.451 68.3016 229.691C68.3016 229.691 21.8383 238.451 3.83398 236.178" stroke="white" stroke-width="1.60444" stroke-miterlimit="10"/>
<path d="M289.373 230.67L214.114 231.004C214.114 231.004 212.474 236.844 212.81 242.037C213.146 247.231 215.103 255.344 215.103 255.344" stroke="white" stroke-width="1.60444" stroke-miterlimit="10"/>
<path d="M0.751465 198.471L2.05584 185.458L68.5788 179.873L73.4406 193.846L0.751465 198.471Z" fill="#FA4B06"/>
<path d="M206.169 189.946L210.063 174.365L288.997 174.483L287.456 189.887L206.169 189.946Z" fill="#FA4B06"/>
<path d="M1.48196 184.674L69.0524 179.088L73.4398 193.865C73.4398 193.865 11.6205 198.824 0.730957 199.196" stroke="white" stroke-width="1.60444" stroke-miterlimit="10"/>
<path d="M287.654 189.73C275.934 192.004 205.894 190.318 205.894 190.318L210.064 174.346L288.998 175.09" stroke="white" stroke-width="1.60444" stroke-miterlimit="10"/>
<path d="M3.9325 207.642L3.73486 216.912L58.8149 214.325V205.055L3.9325 207.642Z" fill="#FA4B06"/>
<path d="M3.37891 205.467L58.2416 203.527L58.8147 214.325L3.73464 216.912" stroke="white" stroke-width="1.60444" stroke-miterlimit="10"/>
<path d="M285.954 202.9L286.172 212.169L222.593 209.582V200.293L285.954 202.9Z" fill="#FA4B06"/>
<path d="M286.606 200.724L223.265 198.784L222.593 209.583L286.172 212.17" stroke="white" stroke-width="1.60444" stroke-miterlimit="10"/>
<path d="M53.0835 184.673L54.21 190.984" stroke="white" stroke-width="1.60444" stroke-miterlimit="10"/>
<path d="M37.2534 186.045L37.5696 192.454" stroke="white" stroke-width="1.60444" stroke-miterlimit="10"/>
<path d="M23.4199 187.064L22.9258 193.473" stroke="white" stroke-width="1.60444" stroke-miterlimit="10"/>
<path d="M9.70336 188.162L8.89307 194.532" stroke="white" stroke-width="1.60444" stroke-miterlimit="10"/>
<path d="M227.969 178.539L227.178 184.908" stroke="white" stroke-width="1.60444" stroke-miterlimit="10"/>
<path d="M243.858 179.127V185.536" stroke="white" stroke-width="1.60444" stroke-miterlimit="10"/>
<path d="M257.732 179.46L258.542 185.81" stroke="white" stroke-width="1.60444" stroke-miterlimit="10"/>
<path d="M271.487 179.853L272.614 186.183" stroke="white" stroke-width="1.60444" stroke-miterlimit="10"/>
<path d="M51.4829 197.785L41.5815 197.256L34.4272 268.181L55.8901 267.633L51.4829 197.785Z" fill="white" stroke="#FA4B06" stroke-width="1.60444" stroke-miterlimit="10"/>
<path d="M68.6174 180.793L46.9569 167.329L26.0475 182.479L24.2095 177.893L46.9174 160.705L69.2498 175.462L68.6174 180.793Z" fill="#FA4B06" stroke="white" stroke-width="1.60444" stroke-miterlimit="10"/>
<path d="M46.9174 167.114L34.9014 176.658V198.686L58.5579 199.157L59.0323 175.208L46.8976 167.094L46.9174 167.114ZM54.2496 192.395L39.3679 192.611L39.7829 178.481H54.467L54.2496 192.415V192.395Z" fill="#FA4B06" stroke="white" stroke-width="1.60444" stroke-miterlimit="10"/>
<path d="M230.755 190.985L240.676 190.436L247.831 261.381L226.368 260.833L230.755 190.985Z" fill="white" stroke="#FA4B06" stroke-width="1.60444" stroke-miterlimit="10"/>
<path d="M213.62 173.973L235.301 160.529L256.21 175.659L258.028 171.073L235.34 153.885L213.008 168.643L213.62 173.973Z" fill="#FA4B06" stroke="white" stroke-width="1.60444" stroke-miterlimit="10"/>
<path d="M223.186 168.407L223.661 192.356L247.317 191.886V169.857L235.301 160.313L223.167 168.427L223.186 168.407ZM227.791 171.66H242.475L242.89 185.791L228.009 185.575L227.791 171.641V171.66Z" fill="#FA4B06" stroke="white" stroke-width="1.60444" stroke-miterlimit="10"/>
</g>
<defs>
<clipPath id="clip0_566_4285">
<rect width="289.373" height="269.317" fill="white"/>
</clipPath>
</defs>
</svg>
