<svg width="1440" height="448" viewBox="0 0 1440 448" fill="none" xmlns="http://www.w3.org/2000/svg">
<rect width="1440" height="246" transform="translate(0 201.202)" fill="#1B2F6C"/>
<g clip-path="url(#clip0_483_3633)">
<path d="M829.199 91.4505H647.916C647.916 41.6775 688.829 0.727539 738.557 0.727539C788.286 0.727539 829.199 41.6775 829.199 91.4505Z" fill="#F0A931"/>
<path d="M1428.53 697.727C919.561 697.571 410.592 697.414 -98.3767 697.258V363.955C-16.5837 319.963 259.475 174.938 513.546 108.694C592.691 88.0621 658.675 77.942 729.675 76.835C736.546 76.7231 856.046 75.6385 982.048 111.411C1236.28 183.571 1389.19 369.456 1428.52 420.023V697.716L1428.53 697.727Z" fill="#2F4CA5"/>
<path d="M23.2906 282.524H-131V409.669H23.2906V282.524Z" fill="#231815"/>
<path d="M166.342 218.953H12.0511V346.097H166.342V218.953Z" fill="#231815"/>
<path d="M96.883 163.187H-57.4075V290.331H96.883V163.187Z" fill="#231815"/>
<path d="M268.524 163.187H114.234V290.331H268.524V163.187Z" fill="#231815"/>
<path d="M422.815 99.6143H268.524V226.758H422.815V99.6143Z" fill="#231815"/>
<path d="M470.577 89.0352H371.679V170.533H470.577V89.0352Z" fill="#231815"/>
<path d="M552.079 65.1387H453.181V146.636H552.079V65.1387Z" fill="#231815"/>
<path d="M610.164 73.7607H552.079V121.621H610.164V73.7607Z" fill="#231815"/>
<path d="M1004.78 73.0686L917.024 66.4795L911.604 138.794L999.363 145.383L1004.78 73.0686Z" fill="#231815"/>
<path d="M924.723 74.8447L870.889 70.8027L867.564 115.162L921.398 119.204L924.723 74.8447Z" fill="#231815"/>
<path d="M1086.3 127.361L998.542 120.771L993.122 193.086L1080.88 199.675L1086.3 127.361Z" fill="#231815"/>
<path d="M1140.61 160.856L1052.85 154.267L1047.43 226.581L1135.19 233.17L1140.61 160.856Z" fill="#231815"/>
<path d="M1451.33 361.188L1297.48 349.636L1287.97 476.424L1441.83 487.976L1451.33 361.188Z" fill="#231815"/>
<path d="M1340.92 294.567L1187.06 283.015L1177.56 409.802L1331.42 421.355L1340.92 294.567Z" fill="#231815"/>
<path d="M1259.26 206.609L1105.4 195.057L1095.9 321.845L1249.76 333.397L1259.26 206.609Z" fill="#231815"/>
<path d="M1088.14 73.0696L1000.38 66.4805L994.963 138.795L1082.72 145.384L1088.14 73.0696Z" fill="#231815"/>
<path d="M1169.67 98.0803L1081.91 91.4912L1076.49 163.806L1164.25 170.395L1169.67 98.0803Z" fill="#231815"/>
<path d="M1222.55 151.416L1134.79 144.827L1129.37 217.142L1217.13 223.731L1222.55 151.416Z" fill="#231815"/>
<path d="M1495.99 306.211L1342.13 294.659L1332.62 421.447L1486.48 432.999L1495.99 306.211Z" fill="#231815"/>
<path d="M1424.29 266.022L1270.43 254.47L1260.93 381.258L1414.79 392.81L1424.29 266.022Z" fill="#231815"/>
<path d="M1342.62 178.063L1188.76 166.511L1179.26 293.299L1333.12 304.851L1342.62 178.063Z" fill="#231815"/>
<path d="M1243.71 89.8479L1155.96 83.2588L1150.54 155.574L1238.29 162.163L1243.71 89.8479Z" fill="#231815"/>
<path d="M1325.23 115.572L1237.47 108.982L1232.05 181.297L1319.81 187.886L1325.23 115.572Z" fill="#231815"/>
<path d="M1280.49 160.862L1192.73 154.272L1187.31 226.587L1275.07 233.176L1280.49 160.862Z" fill="#231815"/>
<path d="M1378.12 168.196L1290.36 161.606L1284.94 233.921L1372.7 240.51L1378.12 168.196Z" fill="#231815"/>
<path d="M1495.99 194.833L1342.13 183.281L1332.63 310.069L1486.48 321.621L1495.99 194.833Z" fill="#231815"/>
<path d="M824.92 91.3271H652.173C649.816 91.3271 647.905 93.2396 647.905 95.5988C647.905 97.958 649.816 99.8705 652.173 99.8705H824.92C827.277 99.8705 829.188 97.958 829.188 95.5988C829.188 93.2396 827.277 91.3271 824.92 91.3271Z" fill="#F0A931"/>
<path d="M801.167 107.341H675.936C673.579 107.341 671.668 109.253 671.668 111.613C671.668 113.972 673.579 115.884 675.936 115.884H801.167C803.524 115.884 805.435 113.972 805.435 111.613C805.435 109.253 803.524 107.341 801.167 107.341Z" fill="#F0A931"/>
<path d="M782.398 123.343H694.706C692.349 123.343 690.438 125.255 690.438 127.614C690.438 129.974 692.349 131.886 694.706 131.886H782.398C784.755 131.886 786.666 129.974 786.666 127.614C786.666 125.255 784.755 123.343 782.398 123.343Z" fill="#F0A931"/>
</g>
<defs>
<clipPath id="clip0_483_3633">
<rect width="1627" height="697" fill="white" transform="translate(-131 0.727539)"/>
</clipPath>
</defs>
</svg>
