<svg width="142" height="128" viewBox="0 0 142 128" fill="none" xmlns="http://www.w3.org/2000/svg">
<g clip-path="url(#clip0_280_563)">
<path d="M142 71.3649H0C0 32.2953 32.0519 0.143555 71 0.143555C109.948 0.143555 142 32.2953 142 71.3649Z" fill="#FA9806"/>
<path d="M137.055 80.0381H4.94504C2.21397 80.0381 0 82.2579 0 84.9961C0 87.7344 2.21397 89.9542 4.94504 89.9542H137.055C139.786 89.9542 142 87.7344 142 84.9961C142 82.2579 139.786 80.0381 137.055 80.0381Z" fill="#FA9806"/>
<path d="M118.447 98.6328H23.5583C20.8272 98.6328 18.6132 100.853 18.6132 103.591C18.6132 106.329 20.8272 108.549 23.5583 108.549H118.447C121.178 108.549 123.392 106.329 123.392 103.591C123.392 100.853 121.178 98.6328 118.447 98.6328Z" fill="#FA9806"/>
<path d="M103.884 117.228H38.116C35.4642 117.228 33.3144 119.384 33.3144 122.044V122.327C33.3144 124.987 35.4642 127.144 38.116 127.144H103.884C106.536 127.144 108.686 124.987 108.686 122.327V122.044C108.686 119.384 106.536 117.228 103.884 117.228Z" fill="#FA9806"/>
</g>
<defs>
<clipPath id="clip0_280_563">
<rect width="142" height="127" fill="white" transform="translate(0 0.143555)"/>
</clipPath>
</defs>
</svg>
