<svg width="1440" height="537" viewBox="0 0 1440 537" fill="none" xmlns="http://www.w3.org/2000/svg">
<g clip-path="url(#clip0_911_4100)">
<circle cx="814" cy="109.256" r="61.5" fill="#FFB336"/>
<path d="M1030.63 133.046H996.459V152.469H1043.8L1030.63 133.046Z" fill="#4B301C"/>
<path d="M962.277 133.046H996.445V152.469H949.099L962.277 133.046Z" fill="#4B301C"/>
<path d="M960.363 185.793H1031.64V147.207H960.363V185.793Z" fill="#4B301C"/>
<path d="M969.756 134.502H976.029V122.785H969.756V134.502Z" fill="#4B301C"/>
<path d="M984.88 175.121H1005.93V155.945H984.88V175.121Z" fill="#F5EF6A"/>
<path d="M714.394 165.147H666.732V196.782H714.394V165.147Z" fill="#4B301C"/>
<path d="M673.17 146.741H690.706V166.879H654.338L673.17 146.741Z" fill="#4B301C"/>
<path d="M708.227 146.741H690.706V166.879H727.074L708.227 146.741Z" fill="#4B301C"/>
<path d="M701.246 168.362H683.363V184.654H701.246V168.362Z" fill="#F5EF6A"/>
<path d="M768.735 124.873H708.528V196.756H768.735V124.873Z" fill="#4B301C"/>
<path d="M737.885 99.6807L783.421 133.527H692.757" fill="#4B301C"/>
<path d="M747.581 127.648H729.261V149.338H747.581V127.648Z" fill="#F5EF6A"/>
<path d="M469.631 339.848H377.654V413.557H469.631V339.848Z" fill="#4B301C"/>
<path d="M163.983 124.756H2.5V425.764H163.983V124.756Z" fill="#4B301C"/>
<path d="M128.654 169.321H38.427V211.906H128.654V169.321Z" fill="#F5EF6A"/>
<path d="M128.654 250.162H38.427V292.747H128.654V250.162Z" fill="#F5EF6A"/>
<path d="M74.8563 447.471L74.6904 615.618L1403.84 615.756L1403.04 468.543C1403.04 468.543 1177.14 319.379 921.688 269.708C743.781 182.345 1144.81 182.73 1144.81 182.73C1144.81 182.73 458.292 151.507 617.215 277.126C776.139 402.745 74.8563 447.471 74.8563 447.471Z" fill="#8AD1E9"/>
<path d="M484.136 246.357H402.971V300.218H484.136V246.357Z" fill="#4B301C"/>
<path d="M413.932 215.011H443.772V249.311H381.861L413.932 215.011Z" fill="#4B301C"/>
<path d="M473.627 215.011H443.772V249.311H505.698L473.627 215.011Z" fill="#4B301C"/>
<path d="M461.73 251.825H431.272V279.573H461.73V251.825Z" fill="#F5EF6A"/>
<path d="M576.655 177.787H474.124V300.206H576.655V177.787Z" fill="#4B301C"/>
<path d="M524.123 134.872L601.67 192.51H447.285" fill="#4B301C"/>
<path d="M540.634 182.511H509.437V219.448H540.634V182.511Z" fill="#F5EF6A"/>
<path d="M517.685 291.234H388.662V381.689H517.685V291.234Z" fill="#4B301C"/>
<path d="M451.793 232.566L350.951 298.336L451.899 298.515L451.793 232.566Z" fill="#4B301C"/>
<path d="M451.794 232.566L552.651 298.336L451.688 298.515L451.794 232.566Z" fill="#4B301C"/>
<path d="M413.329 246.112H396.819V271.799H413.329V246.112Z" fill="#4B301C"/>
<path d="M473.793 306.77H433.579V354.38H473.793V306.77Z" fill="#F5EF6A"/>
<path d="M589.427 132.426H629.218V155.036H574.093L589.427 132.426Z" fill="#4B301C"/>
<path d="M669.008 132.426H629.232V155.036H684.343L669.008 132.426Z" fill="#4B301C"/>
<path d="M671.256 148.925H588.266V193.843H671.256V148.925Z" fill="#4B301C"/>
<path d="M660.324 120.477H653.011V134.117H660.324V120.477Z" fill="#4B301C"/>
<path d="M642.682 159.075H618.18V181.397H642.682V159.075Z" fill="#F5EF6A"/>
<path d="M774.254 138.431H806.853V156.961H761.709L774.254 138.431Z" fill="#4B301C"/>
<path d="M839.467 138.431H806.868V156.961H852.012L839.467 138.431Z" fill="#4B301C"/>
<path d="M841.291 151.947H773.304V188.747H841.291V151.947Z" fill="#4B301C"/>
<path d="M832.335 128.638H826.349V139.819H832.335V128.638Z" fill="#4B301C"/>
<path d="M817.905 160.272H797.821V178.569H817.905V160.272Z" fill="#F5EF6A"/>
<path d="M194.647 251.949H178.278V283.254H194.647V251.949Z" fill="#4B301C"/>
<path d="M35.8281 279.38H124.975V331.262H3L35.8281 279.38Z" fill="#4B301C"/>
<path d="M214.137 279.38H124.99V331.262H248.466L214.137 279.38Z" fill="#4B301C"/>
<path d="M219.127 317.211H33.2225V420.289H219.127V317.211Z" fill="#4B301C"/>
<path d="M155.167 340.533H100.26V391.77H155.167V340.533Z" fill="#F5EF6A"/>
<path d="M898.693 150.064H847.548V185.93H898.693V150.064Z" fill="#4B301C"/>
<path d="M872.578 126.81L832.591 152.881L872.623 152.95L872.578 126.81Z" fill="#4B301C"/>
<path d="M872.578 126.81L912.565 152.881L872.548 152.95L872.578 126.81Z" fill="#4B301C"/>
<path d="M857.334 132.166H850.79V142.345H857.334V132.166Z" fill="#4B301C"/>
<path d="M881.293 156.22H865.356V175.094H881.293V156.22Z" fill="#F5EF6A"/>
<path d="M319.558 406.854H417.521V341.853H319.558V406.854Z" fill="#4B301C"/>
<path d="M404.421 282.424H368.276V345.424H443.276L404.421 282.424Z" fill="#4B301C"/>
<path d="M332.13 282.424H368.276V345.424H293.276L332.13 282.424Z" fill="#4B301C"/>
<path d="M346.609 381.95H383.369V348.461H346.609V381.95Z" fill="#F5EF6A"/>
<path d="M207.89 406.84H331.636V259.105H207.89V406.84Z" fill="#4B301C"/>
<path d="M271.309 207.305L177.704 276.88H364.054" fill="#4B301C"/>
<path d="M251.375 309.395H289.025V264.82H251.375V309.395Z" fill="#F5EF6A"/>
<path d="M1320.91 332.403H1240V406.113H1320.91V332.403Z" fill="#4B301C"/>
<path d="M1221.02 271.275H1140.11V344.985H1221.02V271.275Z" fill="#4B301C"/>
<path d="M1126.25 242.36H1045.34V316.07H1126.25V242.36Z" fill="#4B301C"/>
<path d="M1023.07 214.38H942.163V288.089H1023.07V214.38Z" fill="#4B301C"/>
<path d="M313.859 357.183H214.283V430.892H313.859V357.183Z" fill="#4B301C"/>
<path d="M611.169 251.331H499.817V370.178H611.169V251.331Z" fill="#4B301C"/>
<path d="M929.543 212.594H882.123V254.38H929.543V212.594Z" fill="#4B301C"/>
<path d="M611.018 190.877H572.976V233.405H611.018V190.877Z" fill="#4B301C"/>
<path d="M960.423 89.5146H901.905V182.345H960.423V89.5146Z" fill="#4B301C"/>
<path d="M947.652 103.251H915.068V116.383H947.652V103.251Z" fill="#F5EF6A"/>
<path d="M947.652 128.183H915.068V141.315H947.652V128.183Z" fill="#F5EF6A"/>
<path d="M1192.49 245.904H1088.33V318.927H1192.49V245.904Z" fill="#4B301C"/>
<path d="M1139.29 198.541L1057.89 251.632L1139.39 251.783L1139.29 198.541Z" fill="#4B301C"/>
<path d="M1139.29 198.541L1220.72 251.632L1139.22 251.783L1139.29 198.541Z" fill="#4B301C"/>
<path d="M1108.25 209.476H1094.92V230.218H1108.25V209.476Z" fill="#4B301C"/>
<path d="M1157.06 258.444H1124.59V296.879H1157.06V258.444Z" fill="#F5EF6A"/>
<path d="M1111.16 222.388H982.316V292.127H1111.16V222.388Z" fill="#4B301C"/>
<path d="M1066.81 238.157H1028.77V272.814H1066.81V238.157Z" fill="#F5EF6A"/>
<path d="M1271.18 363.653H1354.53V308.351H1271.18V363.653Z" fill="#4B301C"/>
<path d="M1343.27 276.151H1312.63V311.371H1376.22L1343.27 276.151Z" fill="#4B301C"/>
<path d="M1281.98 276.151H1312.63V311.371H1249.03L1281.98 276.151Z" fill="#4B301C"/>
<path d="M1294.19 342.458H1325.48V313.955H1294.19V342.458Z" fill="#F5EF6A"/>
<path d="M1176.18 363.639H1281.47V237.937H1176.18V363.639Z" fill="#4B301C"/>
<path d="M1230.12 193.857L1150.48 253.048H1309.03" fill="#4B301C"/>
<path d="M1213.18 280.713H1245.2V242.787H1213.18V280.713Z" fill="#F5EF6A"/>
<path d="M1442.35 391.37H1361.44V465.08L1442.35 471.756V391.37Z" fill="#4B301C"/>
<path d="M765.5 197.756H824.169H882.838" stroke="#E7A436" stroke-width="7.05593" stroke-linecap="round" stroke-linejoin="round"/>
<path d="M783.286 211.689H875.639" stroke="#E7A436" stroke-width="7.05593" stroke-linecap="round" stroke-linejoin="round"/>
<path d="M818.342 226.599L859.325 226.406" stroke="#E7A436" stroke-width="7.05593" stroke-linecap="round" stroke-linejoin="round"/>
<path d="M1442.5 208.253H1301.43V432.033H1442.5V208.253Z" fill="#4B301C"/>
<path d="M1411.74 241.385H1333.18V273.047H1411.74V241.385Z" fill="#F5EF6A"/>
<path d="M1411.74 301.48H1333.18V333.143H1411.74V301.48Z" fill="#F5EF6A"/>
<path d="M2.5 423.256V476.756C144.874 472.491 185.842 470.188 298.919 456.023C517.601 423.896 633.016 377.234 643.889 332.135C648.164 312.486 651.415 293.228 630.5 272.756C605.033 247.855 604.591 238.867 621 222.756C632.549 213.596 643.151 206.273 652.439 204.6C753.122 183.127 1153.5 182.716 1153.5 182.716C1153.5 182.716 708.524 164.479 612.209 191.807C515.894 219.135 590.156 282.484 588.126 295.25C591.971 306.124 602.26 413.493 2.5 423.256Z" fill="#E5E5E5"/>
<path d="M997.153 209.256H922.909V261.303H997.153V209.256Z" fill="#4B301C"/>
<path d="M1442.22 526.756L1442.5 468.598C1442.5 468.598 1300.85 358.076 1099.01 297.089C933.189 252.732 720.402 195.494 1157.29 182.763C1157.29 182.763 549.206 179.22 1056.51 325.433C1056.51 325.433 1243.79 390.417 1442.21 526.756H1442.22Z" fill="#E5E5E5"/>
<path d="M959.247 175.492L901.196 213.336L959.292 213.432L959.247 175.492Z" fill="#4B301C"/>
<path d="M959.232 175.492L1017.28 213.336L959.187 213.432L959.232 175.492Z" fill="#4B301C"/>
<path d="M937.097 183.279H927.598V198.06H937.097V183.279Z" fill="#4B301C"/>
<path d="M971.898 218.184H948.753V245.588H971.898V218.184Z" fill="#F5EF6A"/>
<path d="M984.111 196.783H1045.89V231.893H960.318L984.111 196.783Z" fill="#4B301C"/>
<path d="M1107.68 196.783H1045.92V231.893H1131.48L1107.68 196.783Z" fill="#4B301C"/>
<path d="M1094.17 178.225H1082.83V199.406H1094.17V178.225Z" fill="#4B301C"/>
</g>
<defs>
<clipPath id="clip0_911_4100">
<rect width="1447" height="615" fill="white" transform="translate(-4.5 0.755859)"/>
</clipPath>
</defs>
</svg>
