<svg width="359" height="254" viewBox="0 0 359 254" fill="none" xmlns="http://www.w3.org/2000/svg">
<g style="mix-blend-mode:multiply" opacity="0.5">
<path d="M209.62 253.144C202.99 253.144 192.97 253.144 186.7 245.004C183.58 240.944 182.08 235.714 182.21 230.564L181.74 230.514L176.68 220.924L176.58 221.594C179.94 229.004 179.11 238.484 174.09 245.004C167.83 253.144 157.8 253.144 151.17 253.144C149.33 253.144 147.3 253.114 145.08 253.074C131.75 252.844 121.23 252.664 117.6 243.114C116.67 240.654 116.03 236.694 118.28 231.764C120.9 226.014 127.04 220.184 134.52 216.054C134.24 211.494 134.06 206.944 133.99 202.454C133.85 193.864 134.1 185.104 134.71 176.404C133.36 171.184 132.57 165.824 132.36 160.464C132.13 154.484 132.61 148.514 133.81 142.624C116.58 127.784 108.96 106.524 114.77 88.3639C120.12 71.6439 135.04 63.2839 145.85 58.9839C143.94 55.3739 142.64 51.4239 142.05 47.3139L140.49 47.0039L141.77 37.6539C143.8 22.8139 154.43 10.5739 168.23 7.19387C170.88 6.54387 173.64 6.21387 176.43 6.21387C185.72 6.21387 194.59 9.91387 200.74 16.3639C207.47 23.4139 209.26 31.7139 209.72 36.2439C210.02 38.0439 210.19 39.8639 210.21 41.6739L210.74 47.5039H209.83C209.31 51.0839 208.26 54.5239 206.72 57.7239C214.78 60.5439 226.5 66.7339 232.98 79.8939C236.1 86.2339 237.48 93.1639 237.27 100.114C238.79 98.4439 240.38 96.8439 242.02 95.2939C236.27 89.1739 232.86 80.8939 232.86 71.9139C232.86 71.6039 232.86 71.3039 232.88 70.9939C232.73 66.2139 233.45 55.1639 242.18 46.0539C249.07 38.8639 256.64 36.7039 261.79 36.1539C262.87 36.0339 263.96 35.9839 265.04 35.9839C266.33 35.9839 267.62 36.0639 268.9 36.2239C270.32 35.1439 271.89 34.2739 273.58 33.6439C275.62 32.8739 277.76 32.4839 279.94 32.4839C285.06 32.4839 288.99 34.6139 290.86 35.8739C293.57 37.3739 295.93 39.3439 297.89 41.7339C300.35 44.7339 302.05 48.3039 302.87 52.1139C304.6 56.8839 305.08 61.6539 304.3 66.2939C304.12 67.3639 303.89 68.3139 303.64 69.1539C304.72 69.6039 306.22 70.1439 308.27 70.7339L320.17 74.1339L314.35 85.0539C312.49 88.5339 309.95 91.4739 306.98 93.6839C326.35 114.604 320.7 144.724 319.96 148.214L318.65 154.434L318.47 154.474C318.38 155.224 318.29 155.964 318.2 156.704C329.28 182.104 336.11 198.104 336.07 209.754C336.15 209.754 336.23 209.754 336.31 209.754C341.13 209.754 345.86 211.464 349.63 214.574C356.24 220.024 359.52 229.194 358.18 238.504L357.28 244.794L351.2 246.654C344.29 248.764 337.18 249.984 330.06 250.274C328.93 250.314 327.8 250.344 326.7 250.344C320.02 250.344 313.31 249.524 306.76 247.924L302.44 246.864L300.33 242.944C298.37 239.284 296.99 235.364 296.23 231.394C295.8 236.364 294.09 241.414 291.17 246.034L288.9 249.614L284.76 250.474C278.33 251.814 271.73 252.494 265.17 252.494C264.09 252.494 262.98 252.474 261.85 252.434C254.87 252.194 247.87 251.184 241.08 249.424L238.97 248.874C233.83 252.754 225.54 252.894 215.72 253.064H215.15C213.15 253.104 211.32 253.134 209.63 253.134L209.62 253.144ZM227.01 216.474C230.93 218.724 234.54 221.464 237.42 224.504C238.88 222.384 240.71 220.524 242.86 219.024C244.39 217.954 246.03 217.094 247.76 216.454C247.45 212.114 247.73 207.644 247.99 203.564C249.15 185.084 251.83 172.314 253.97 162.054C254.41 159.934 254.83 157.944 255.21 156.044L256.11 146.614C256.15 146.144 256.19 145.674 256.21 145.204C252.64 151.734 249.09 158.274 245.55 164.814L242.59 170.284C239.34 177.204 236.76 182.244 230.44 184.974L224.42 198.804C225.39 204.714 226.26 210.624 227.03 216.474H227.01ZM213.59 140.584C213.72 141.364 213.83 142.124 213.94 142.864C214.32 142.744 214.7 142.644 215.08 142.544C215.34 141.394 215.63 140.254 215.93 139.114C215.16 139.614 214.38 140.104 213.59 140.584Z" fill="#231815"/>
</g>
<path d="M203.62 247.144C196.99 247.144 186.97 247.144 180.7 239.004C177.58 234.944 176.08 229.714 176.21 224.564L175.74 224.514L170.68 214.924L170.58 215.594C173.94 223.004 173.11 232.484 168.09 239.004C161.83 247.144 151.8 247.144 145.17 247.144C143.33 247.144 141.3 247.114 139.08 247.074C125.75 246.844 115.23 246.664 111.6 237.114C110.67 234.654 110.03 230.694 112.28 225.764C114.9 220.014 121.04 214.184 128.52 210.054C128.24 205.494 128.06 200.944 127.99 196.454C127.85 187.864 128.1 179.104 128.71 170.404C127.36 165.184 126.57 159.824 126.36 154.464C126.13 148.484 126.61 142.514 127.81 136.624C110.58 121.784 102.96 100.524 108.77 82.3639C114.12 65.6439 129.04 57.2839 139.85 52.9839C137.94 49.3739 136.64 45.4239 136.05 41.3139L134.49 41.0039L135.77 31.6539C137.8 16.8139 148.43 4.57387 162.23 1.19387C164.88 0.543867 167.64 0.213867 170.43 0.213867C179.72 0.213867 188.59 3.91387 194.74 10.3639C201.47 17.4139 203.26 25.7139 203.72 30.2439C204.02 32.0439 204.19 33.8639 204.21 35.6739L204.74 41.5039H203.83C203.31 45.0839 202.26 48.5239 200.72 51.7239C208.78 54.5439 220.5 60.7339 226.98 73.8939C230.1 80.2339 231.48 87.1639 231.27 94.1139C232.79 92.4439 234.38 90.8439 236.02 89.2939C230.27 83.1739 226.86 74.8939 226.86 65.9139C226.86 65.6039 226.86 65.3039 226.88 64.9939C226.73 60.2139 227.45 49.1639 236.18 40.0539C243.07 32.8639 250.64 30.7039 255.79 30.1539C256.87 30.0339 257.96 29.9839 259.04 29.9839C260.33 29.9839 261.62 30.0639 262.9 30.2239C264.32 29.1439 265.89 28.2739 267.58 27.6439C269.62 26.8739 271.76 26.4839 273.94 26.4839C279.06 26.4839 282.99 28.6139 284.86 29.8739C287.57 31.3739 289.93 33.3439 291.89 35.7339C294.35 38.7339 296.05 42.3039 296.87 46.1139C298.6 50.8839 299.08 55.6539 298.3 60.2939C298.12 61.3639 297.89 62.3139 297.64 63.1539C298.72 63.6039 300.22 64.1439 302.27 64.7339L314.17 68.1339L308.35 79.0539C306.49 82.5339 303.95 85.4739 300.98 87.6839C320.35 108.604 314.7 138.724 313.96 142.214L312.65 148.434L312.47 148.474C312.38 149.224 312.29 149.964 312.2 150.704C323.28 176.104 330.11 192.104 330.07 203.754C330.15 203.754 330.23 203.754 330.31 203.754C335.13 203.754 339.86 205.464 343.63 208.574C350.24 214.024 353.52 223.194 352.18 232.504L351.28 238.794L345.2 240.654C338.29 242.764 331.18 243.984 324.06 244.274C322.93 244.314 321.8 244.344 320.7 244.344C314.02 244.344 307.31 243.524 300.76 241.924L296.44 240.864L294.33 236.944C292.37 233.284 290.99 229.364 290.23 225.394C289.8 230.364 288.09 235.414 285.17 240.034L282.9 243.614L278.76 244.474C272.33 245.814 265.73 246.494 259.17 246.494C258.09 246.494 256.98 246.474 255.85 246.434C248.87 246.194 241.87 245.184 235.08 243.424L232.97 242.874C227.83 246.754 219.54 246.894 209.72 247.064H209.15C207.15 247.104 205.32 247.134 203.63 247.134L203.62 247.144ZM221.01 210.464C224.93 212.714 228.54 215.454 231.42 218.494C232.88 216.374 234.71 214.514 236.86 213.014C238.39 211.944 240.03 211.084 241.76 210.444C241.45 206.104 241.73 201.634 241.99 197.554C243.15 179.074 245.83 166.304 247.97 156.044C248.41 153.924 248.83 151.934 249.21 150.034L250.11 140.604C250.15 140.134 250.19 139.664 250.21 139.194C246.64 145.724 243.09 152.264 239.55 158.804L236.59 164.274C233.34 171.194 230.76 176.234 224.44 178.964L218.42 192.794C219.39 198.704 220.26 204.614 221.03 210.464H221.01ZM207.59 134.584C207.72 135.364 207.83 136.124 207.94 136.864C208.32 136.744 208.7 136.644 209.08 136.544C209.34 135.394 209.63 134.254 209.93 133.114C209.16 133.614 208.38 134.104 207.59 134.584Z" fill="white"/>
<path d="M200.45 205.593L197.55 200.153H197.12L192.84 209.543L192.88 209.803L195 212.073L195.32 212.103C198.2 209.893 199.77 207.213 200.45 205.823V205.603V205.593Z" fill="white"/>
<mask id="mask0_1056_4892" style="mask-type:luminance" maskUnits="userSpaceOnUse" x="117" y="10" width="112" height="228">
<path d="M228.77 10.3535H117.59V237.284H228.77V10.3535Z" fill="white"/>
</mask>
<g mask="url(#mask0_1056_4892)">
<path d="M164.96 136.203C156.13 136.203 147.12 134.543 138.89 131.403C130.89 125.463 124.82 117.933 121.34 109.623C117.88 101.353 117.29 93.1035 119.64 85.7435C125.02 68.9135 144.25 62.8435 152.46 60.2535C158.65 58.3035 165.14 57.3135 171.75 57.3135C178.36 57.3135 185.13 58.3035 191.67 60.2535C191.7 60.2535 191.72 60.2635 191.75 60.2735C193.68 60.5935 210.82 63.8335 218.16 78.7335C225.37 93.3735 220.21 112.253 205.89 123.623C199.11 128.223 187.94 134.043 173.21 135.723C170.48 136.033 167.71 136.193 164.96 136.193V136.203Z" fill="#EA4E17"/>
<path d="M171.75 56.6641V57.9741C178.36 57.9741 185 58.9541 191.48 60.8941C191.53 60.9141 191.59 60.9241 191.64 60.9341C192.91 61.1441 197.43 62.0341 202.61 64.6041C209.5 68.0241 214.54 72.8841 217.57 79.0441C220.93 85.8741 221.62 94.0341 219.51 102.014C217.36 110.154 212.38 117.654 205.5 123.124C198.77 127.674 187.71 133.434 173.13 135.104C170.43 135.414 167.67 135.574 164.96 135.574C156.24 135.574 147.34 133.944 139.21 130.854C131.34 124.994 125.37 117.574 121.94 109.394C120.27 105.414 119.28 101.384 118.98 97.4341C118.68 93.4141 119.11 89.5641 120.26 85.9641C125.54 69.4541 144.54 63.4641 152.65 60.9041C158.77 58.9741 165.2 57.9941 171.75 57.9941V56.6841M171.75 56.6641C165.88 56.6641 159.25 57.4341 152.26 59.6341C144.01 62.2341 124.5 68.3841 119.02 85.5441C114.14 100.794 121.96 119.694 138.57 131.984C143.58 133.904 152.93 136.854 164.96 136.854C167.61 136.854 170.39 136.714 173.28 136.384C189.41 134.544 200.86 127.834 206.28 124.164C221.15 112.354 225.9 92.9941 218.75 78.4541C211.21 63.1341 193.79 59.9541 191.86 59.6341C187.83 58.4341 180.66 56.6641 171.75 56.6641Z" fill="white"/>
<path d="M160.77 68.0236C160.77 68.0236 160.7 68.0236 160.67 68.0236C160.08 67.9336 158.13 66.7836 157.11 55.8936L169.47 59.7236C169.53 59.7436 169.6 59.7536 169.66 59.7536C169.72 59.7536 169.79 59.7436 169.86 59.7236L185.03 54.9736C183.86 59.6036 182.72 63.0136 181.66 65.1236C180.57 67.2936 179.84 67.5236 179.57 67.5236C179.31 67.5236 179.03 67.2736 178.37 66.6636C177.97 66.2936 177.47 65.8436 176.77 65.2636C175.1 63.8836 173.31 62.6336 171.44 61.5736C171.34 61.5136 171.23 61.4836 171.12 61.4836C171.01 61.4836 170.89 61.5136 170.78 61.5736C169.44 62.3736 168.09 63.2236 166.77 64.1036C165.13 65.1836 163.95 66.0336 163.09 66.6436C161.82 67.5536 161.18 68.0136 160.77 68.0136V68.0236Z" fill="white"/>
<path d="M184.09 55.9432C181.53 65.6332 179.87 66.7432 179.59 66.8632C179.43 66.7632 179.11 66.4732 178.8 66.1932C178.41 65.8432 177.89 65.3632 177.18 64.7732C175.48 63.3632 173.66 62.1032 171.76 61.0132C171.56 60.9032 171.33 60.8432 171.11 60.8432C170.89 60.8432 170.65 60.9032 170.44 61.0332C169.1 61.8432 167.74 62.7032 166.4 63.5832C164.75 64.6732 163.57 65.5232 162.7 66.1432C161.82 66.7732 160.99 67.3632 160.76 67.3932C160.74 67.3932 158.9 66.9832 157.84 56.8232L162.38 58.2232L169.26 60.3532C169.39 60.3932 169.52 60.4132 169.65 60.4132C169.78 60.4132 169.91 60.3932 170.04 60.3532L178.28 57.7732L184.09 55.9532M185.93 54.0032C180.5 55.7032 175.07 57.4032 169.65 59.0932C165.22 57.7232 160.79 56.3532 156.36 54.9832C157.36 66.8832 159.45 68.5032 160.56 68.6632C160.63 68.6732 160.7 68.6832 160.76 68.6832C161.73 68.6832 162.71 67.5732 167.12 64.6632C168.83 63.5332 170.24 62.6732 171.11 62.1432C172.37 62.8632 174.26 64.0432 176.35 65.7732C178.37 67.4432 178.78 68.1532 179.52 68.1732H179.56C181.01 68.1732 183.1 65.5332 185.93 53.9932V54.0032Z" fill="#EA4E17"/>
<path d="M170.68 60.8532C157.66 60.8532 147.06 49.8532 147.06 36.3332C147.06 22.8132 157.65 11.8232 170.68 11.8232C183.71 11.8232 194.3 22.8232 194.3 36.3432C194.3 49.8632 183.71 60.8632 170.68 60.8632V60.8532Z" fill="white"/>
<path d="M170.68 12.4738C183.34 12.4738 193.64 23.1838 193.64 36.3338C193.64 49.4838 183.34 60.1938 170.68 60.1938C158.02 60.1938 147.72 49.4838 147.72 36.3338C147.72 23.1838 158.02 12.4738 170.68 12.4738ZM170.68 11.1738C157.28 11.1738 146.41 22.4438 146.41 36.3438C146.41 50.2438 157.28 61.5138 170.68 61.5138C184.08 61.5138 194.95 50.2438 194.95 36.3438C194.95 22.4438 184.08 11.1738 170.68 11.1738Z" fill="#EA4E17"/>
<path d="M194.52 31.6436C193.89 31.8436 188.18 33.6036 183.19 30.0036C179.64 27.4436 178.65 23.7436 178.4 22.6936C178.21 23.3236 177.89 24.1536 177.3 25.0236C176.44 26.3136 175.41 27.0936 174.74 27.5236C174.15 27.2336 172.95 26.5436 172.06 25.1536C171.56 24.3636 171.32 23.6036 171.2 23.0636C171.23 23.5536 171.22 24.3936 170.84 25.3536C170.3 26.7036 169.33 27.4536 168.92 27.7436C168.41 27.3636 167.6 26.6736 166.95 25.5636C166.45 24.7036 166.22 23.8936 166.11 23.3436C165.53 24.8436 164.95 26.3336 164.36 27.8336C163.81 27.4336 163.26 26.8836 162.86 26.1436C161.24 23.1736 163.38 19.6936 163.54 19.4436C163.52 20.0936 163.18 27.3336 156.99 31.2836C152.33 34.2636 147.47 33.3836 146.4 33.1636C147.89 22.2736 155.46 13.4836 165.34 11.0636C172.78 9.24357 182.02 10.9136 188.23 17.4236C193.42 22.8636 194.31 29.3636 194.52 31.6536V31.6436Z" fill="#EA4E17"/>
<path d="M166.26 35.4337C165.78 36.2037 165.46 37.0837 165.33 37.9837C165.27 38.4437 165.24 38.8937 165.27 39.3637C165.31 39.8637 165.38 40.4537 165.89 40.7137C166.3 40.9237 166.68 40.7337 166.85 40.3237C167.45 38.8537 167.82 37.3138 167.99 35.7438C168.03 35.3938 167.66 35.0938 167.34 35.0938C166.95 35.0938 166.73 35.3938 166.69 35.7438C166.53 37.1538 166.14 38.6237 165.59 39.9737L166.55 39.5837C166.45 39.5337 166.48 39.5537 166.62 39.6737C166.64 39.7437 166.64 39.7437 166.62 39.6737C166.61 39.6337 166.6 39.5937 166.59 39.5537C166.59 39.5871 166.59 39.5871 166.59 39.5537C166.57 39.3637 166.56 39.1738 166.56 38.9938C166.56 38.6538 166.58 38.3237 166.64 38.0437C166.77 37.3137 167 36.7237 167.39 36.1037C167.58 35.8037 167.46 35.3837 167.16 35.2137C166.86 35.0437 166.46 35.1437 166.27 35.4437L166.26 35.4337Z" fill="#EA4E17"/>
<path d="M179.16 34.8536C178.47 36.2036 178.11 37.7136 178.16 39.2236C178.17 39.6636 178.2 40.1436 178.61 40.3936C179.02 40.6536 179.59 40.5136 179.88 40.1336C180.12 39.8336 180.2 39.4336 180.3 39.0736C180.4 38.6936 180.5 38.3036 180.58 37.9136C180.77 37.0136 180.89 36.1036 180.96 35.1936C180.99 34.8436 180.64 34.5436 180.31 34.5436C179.93 34.5436 179.68 34.8436 179.66 35.1936C179.6 35.9636 179.5 36.7236 179.34 37.4736C179.26 37.8636 179.17 38.2536 179.07 38.6336C179.02 38.8236 178.97 39.0036 178.91 39.1836C178.9 39.2236 178.88 39.2736 178.87 39.3136C178.89 39.2736 178.89 39.2736 178.87 39.3136C178.83 39.3836 178.85 39.3536 178.95 39.2436C179.16 39.1536 179.34 39.2336 179.48 39.4836C179.49 39.5536 179.49 39.5436 179.48 39.4436V39.3636C179.47 39.2536 179.47 39.1436 179.46 39.0336C179.46 38.8736 179.46 38.7036 179.47 38.5436C179.49 38.1636 179.52 37.8636 179.6 37.4936C179.74 36.7936 179.97 36.1136 180.29 35.4836C180.45 35.1736 180.37 34.7736 180.06 34.5936C179.77 34.4236 179.33 34.5136 179.17 34.8236L179.16 34.8536Z" fill="#EA4E17"/>
<path d="M172.73 44.0237C172.63 44.6337 172.58 45.2337 172.63 45.8537C172.64 46.0237 172.69 46.1937 172.82 46.3137C172.93 46.4137 173.05 46.4737 173.2 46.4937C173.5 46.5337 173.85 46.3437 173.92 46.0237C174 45.6137 174.08 45.2037 174.16 44.8037C174.19 44.6337 174.19 44.4637 174.09 44.3037C174.01 44.1637 173.86 44.0437 173.7 44.0037C173.53 43.9637 173.35 43.9737 173.2 44.0737C173.06 44.1637 172.93 44.2937 172.9 44.4637C172.82 44.8737 172.74 45.2837 172.66 45.6837L173.94 45.8537C173.91 45.3737 173.92 44.8937 173.98 44.4237L173.96 44.5937C173.97 44.5237 173.98 44.4437 173.99 44.3737C174.02 44.1937 174.02 44.0337 173.92 43.8737C173.84 43.7337 173.69 43.6137 173.53 43.5737C173.36 43.5337 173.18 43.5437 173.03 43.6437C172.9 43.7337 172.76 43.8637 172.73 44.0337V44.0237Z" fill="#EA4E17"/>
<path d="M166.92 49.1032C167.36 49.4932 167.8 49.8932 168.25 50.2732C168.7 50.6632 169.13 51.0332 169.69 51.2232C170.87 51.6332 172.07 51.0832 173.11 50.5532C173.42 50.3932 173.51 49.9532 173.34 49.6632C173.15 49.3432 172.76 49.2732 172.45 49.4332C171.75 49.7932 170.83 50.2932 170.02 49.9632C169.62 49.8032 169.3 49.4632 168.98 49.1832C168.6 48.8532 168.22 48.5132 167.84 48.1732C167.58 47.9432 167.17 47.9132 166.92 48.1732C166.68 48.4132 166.66 48.8632 166.92 49.0932V49.1032Z" fill="#EA4E17"/>
<path d="M145.9 236.624C144.11 236.624 142.11 236.594 140 236.554C130.34 236.384 123.36 236.264 122.3 233.464C121.94 232.514 122.19 231.214 123.03 229.674C124.47 227.034 127.46 224.044 131.22 221.474C135.37 218.644 140.13 216.554 144.61 215.614C146.55 215.204 149.2 214.644 151.89 214.644C155.47 214.644 158.12 215.614 159.98 217.614C163.47 221.364 163.65 228.384 160.38 232.634C157.79 236.004 153.47 236.624 145.9 236.624Z" fill="#EA4E17"/>
<path d="M151.89 214.003V215.303C155.28 215.303 157.77 216.203 159.5 218.063C161.1 219.783 162 222.273 162.04 225.073C162.08 227.773 161.28 230.393 159.86 232.233C158.69 233.753 157.16 234.683 154.91 235.243C152.84 235.753 150.24 235.963 145.9 235.963C144.12 235.963 142.12 235.933 140.01 235.893C130.96 235.733 123.81 235.613 122.91 233.223C122.63 232.473 122.87 231.323 123.6 229.983C126.35 224.943 135.22 218.253 144.74 216.243C146.65 215.843 149.27 215.293 151.89 215.293V213.983M151.89 214.003C149.13 214.003 146.43 214.573 144.47 214.983C131.52 217.713 119.79 228.723 121.68 233.703C122.9 236.913 129.59 237.033 139.98 237.213C142.14 237.253 144.1 237.283 145.89 237.283C153.55 237.283 158.09 236.663 160.88 233.043C164.16 228.783 164.28 221.323 160.44 217.183C158.15 214.723 154.97 214.003 151.87 214.003H151.89Z" fill="white"/>
<path d="M204.35 236.633C196.79 236.633 192.47 236.013 189.87 232.643C186.6 228.393 186.78 221.373 190.27 217.623C192.13 215.623 194.78 214.653 198.36 214.653C201.05 214.653 203.71 215.213 205.64 215.623C210.12 216.573 214.87 218.653 219.03 221.483C222.8 224.053 225.78 227.043 227.22 229.683C228.06 231.213 228.31 232.523 227.95 233.473C226.89 236.273 219.91 236.393 210.25 236.563C208.13 236.603 206.13 236.633 204.35 236.633Z" fill="#EA4E17"/>
<path d="M198.36 215.304C200.98 215.304 203.6 215.854 205.51 216.254C215.03 218.264 223.9 224.944 226.65 229.994C227.38 231.334 227.63 232.484 227.34 233.234C226.43 235.624 219.29 235.744 210.24 235.904C208.13 235.944 206.13 235.974 204.35 235.974C197 235.974 192.82 235.394 190.39 232.244C188.97 230.394 188.17 227.784 188.21 225.084C188.25 222.284 189.15 219.794 190.75 218.074C192.48 216.214 194.97 215.314 198.36 215.314M198.36 214.004C195.26 214.004 192.09 214.724 189.79 217.184C185.95 221.314 186.07 228.784 189.35 233.044C192.14 236.664 196.69 237.284 204.34 237.284C206.14 237.284 208.1 237.254 210.25 237.214C220.65 237.034 227.33 236.924 228.55 233.704C230.44 228.734 218.71 217.714 205.76 214.984C203.8 214.574 201.1 214.004 198.34 214.004H198.36Z" fill="white"/>
<path d="M190.03 217.904C181.81 197.444 176.69 183.654 174.39 175.764L174.35 175.614C173.25 171.814 171.96 168.304 170.03 168.304H169.98C168.76 168.344 167.78 169.754 166.89 172.734C166.89 172.764 166.87 172.794 166.87 172.824L160.29 217.494L140.4 216.514C139.83 209.854 139.49 203.094 139.38 196.414C139.17 183.524 139.84 170.484 141.36 157.644L200.2 153.214C203.15 165.334 205.72 177.694 207.84 189.974C209.35 198.754 210.67 207.684 211.76 216.524L190.04 217.904H190.03Z" fill="#EA4E17"/>
<path d="M199.69 153.903C202.58 165.833 205.1 178.003 207.19 190.083C208.66 198.623 209.95 207.303 211.02 215.923L200.96 216.563L190.46 217.233C182.35 197.033 177.29 183.413 175.01 175.593L174.97 175.443C173.61 170.773 172.25 167.663 170.02 167.663H169.95C167.95 167.733 166.93 170.313 166.26 172.563C166.24 172.623 166.23 172.683 166.22 172.743L162.91 195.183L159.72 216.823L150.38 216.363L141 215.903C140.46 209.433 140.13 202.883 140.03 196.413C139.83 183.733 140.47 170.903 141.95 158.263L170.84 156.083L199.7 153.913L199.69 153.903ZM200.7 152.523C180.72 154.023 160.75 155.533 140.77 157.033C139.35 168.823 138.49 182.033 138.72 196.423C138.83 203.683 139.22 210.603 139.79 217.143C146.81 217.483 153.82 217.833 160.84 218.173C163.06 203.093 165.29 188.003 167.51 172.923C168.01 171.233 168.85 168.993 169.99 168.963H170.02C171.78 168.963 173.26 174.223 173.76 175.943C175.73 182.713 180.16 195.113 189.6 218.583C197.23 218.103 204.85 217.613 212.48 217.133C211.42 208.373 210.1 199.273 208.47 189.863C206.19 176.653 203.55 164.193 200.69 152.523H200.7Z" fill="white"/>
<path d="M162.07 184.904C156.41 184.904 150.78 183.984 145.31 182.154C140.73 173.514 138.12 163.844 137.74 154.174C137.14 138.774 142.12 126.604 146.44 119.054C147.8 118.274 149.32 117.864 150.84 117.864C153.44 117.864 155.79 119.064 156.97 120.984C158.29 123.144 158.12 126.164 156.52 128.684C156.42 128.844 156.39 129.044 156.45 129.224C156.5 129.404 156.64 129.554 156.81 129.634C162.7 132.234 167.44 133.544 170.9 133.544C173.26 133.544 175.1 132.934 176.39 131.734C178.17 130.064 178.38 127.744 178.58 125.514C178.8 123.104 179 120.834 180.98 119.184C182.35 118.044 184.29 117.414 186.46 117.414C188.63 117.414 190.82 118.084 192.36 119.244C194.29 120.704 195.02 122.674 196.11 127.504C197.98 135.774 198.72 142.614 199.16 146.694C199.23 147.294 199.29 147.844 199.34 148.334C199.99 154.004 201.09 159.774 202.6 165.484C197.58 171.464 186.84 181.574 170.1 184.234C167.46 184.654 164.76 184.864 162.08 184.864L162.07 184.904Z" fill="white"/>
<path d="M186.44 118.084C188.51 118.084 190.51 118.704 191.95 119.784C193.72 121.124 194.41 123.014 195.46 127.674C197.32 135.904 198.06 142.724 198.5 146.794C198.57 147.394 198.63 147.944 198.68 148.444C199.32 154.044 200.39 159.734 201.87 165.364C199 168.734 195.57 171.884 191.92 174.504C185.22 179.314 177.84 182.384 170 183.634C167.39 184.054 164.73 184.264 162.08 184.264C156.58 184.264 151.09 183.384 145.77 181.634C141.31 173.134 138.77 163.654 138.4 154.174C137.81 139.034 142.66 127.044 146.92 119.564C148.14 118.894 149.49 118.544 150.84 118.544C153.22 118.544 155.35 119.624 156.41 121.354C157.6 123.304 157.43 126.054 155.97 128.374C155.77 128.694 155.71 129.084 155.83 129.454C155.94 129.814 156.2 130.114 156.55 130.264C162.61 132.934 167.3 134.234 170.91 134.234C173.44 134.234 175.44 133.564 176.84 132.244C177.76 131.384 178.8 130.404 179.23 125.604C179.44 123.234 179.62 121.194 181.4 119.714C182.65 118.674 184.45 118.094 186.46 118.094M186.44 116.774C184.26 116.774 182.1 117.394 180.55 118.694C176.39 122.154 179.31 128.094 175.93 131.274C174.93 132.214 173.38 132.914 170.89 132.914C167.88 132.914 163.5 131.894 157.06 129.054C158.77 126.354 158.98 123.054 157.51 120.654C156.2 118.524 153.63 117.224 150.82 117.224C149.21 117.224 147.52 117.654 145.95 118.584C142.85 123.974 136.4 136.864 137.08 154.204C137.59 167.394 142 177.364 144.85 182.694C148.54 183.944 154.59 185.554 162.07 185.554C164.62 185.554 167.34 185.364 170.2 184.914C189.07 181.904 200.24 169.374 203.31 165.674C201.38 158.464 200.46 152.484 199.98 148.284C199.53 144.354 198.88 136.874 196.73 127.374C195.66 122.644 194.89 120.364 192.74 118.734C191.03 117.444 188.72 116.764 186.45 116.764L186.44 116.774Z" fill="#EA4E17"/>
<path d="M185.93 122.954C184.96 122.934 183.1 122.694 181.44 121.334C179.04 119.354 178.84 116.364 178.83 115.494C178.82 113.944 179.28 111.634 181.54 109.394C182.03 108.904 184.64 106.474 187.87 106.474C188.52 106.474 189.17 106.574 189.79 106.774C193.49 107.954 195.31 112.104 194.94 115.424C194.43 119.924 189.95 122.954 186.08 122.954H185.94H185.93Z" fill="white"/>
<path d="M187.86 107.123C188.44 107.123 189.02 107.213 189.59 107.393C191.09 107.873 192.39 108.973 193.26 110.503C194.1 111.973 194.47 113.743 194.29 115.353C193.82 119.513 189.66 122.303 186.08 122.303H185.95C185.07 122.283 183.37 122.073 181.86 120.833C179.68 119.033 179.5 116.293 179.49 115.493C179.48 114.073 179.91 111.943 182 109.863C182.46 109.403 184.9 107.133 187.87 107.133M187.86 105.823C184.29 105.823 181.48 108.523 181.07 108.933C180.5 109.493 178.15 111.843 178.17 115.493C178.17 116.233 178.29 119.583 181.01 121.823C182.94 123.423 185.13 123.583 185.9 123.603H186.06C190.1 123.603 195.01 120.493 195.57 115.493C196 111.673 193.82 107.383 189.97 106.143C189.24 105.913 188.53 105.813 187.85 105.813L187.86 105.823Z" fill="#EA4E17"/>
<path d="M152.78 126.324C149.89 126.324 147.83 124.384 147.45 123.994L145.33 121.684C145.05 119.684 145.04 116.724 146.49 113.614C147.24 112.004 148.29 110.554 149.61 109.314C150.57 108.954 151.64 108.764 152.65 108.764C153.66 108.764 154.68 108.964 155.61 109.354C156.56 109.754 159.67 111.304 159.97 114.394C160.15 116.264 159.23 117.754 158.66 118.474C158.52 118.644 158.49 118.884 158.56 119.094C158.8 119.784 159.26 121.574 158.39 123.344C157.29 125.554 154.87 126.134 153.53 126.294C153.28 126.324 153.03 126.334 152.79 126.334L152.78 126.324Z" fill="white"/>
<path d="M152.65 109.413C153.6 109.413 154.51 109.593 155.35 109.953C155.72 110.113 156.68 110.563 157.56 111.333C158.61 112.253 159.2 113.303 159.31 114.453C159.47 116.093 158.64 117.423 158.14 118.073C157.87 118.423 157.79 118.883 157.94 119.303C158.15 119.913 158.56 121.503 157.8 123.043C156.84 124.973 154.66 125.493 153.45 125.633C153.23 125.663 153 125.673 152.78 125.673C150.19 125.673 148.32 123.943 147.93 123.553L145.95 121.393C145.71 119.493 145.75 116.753 147.08 113.893C147.78 112.393 148.75 111.043 149.96 109.883C150.54 109.683 151.51 109.413 152.65 109.413ZM152.65 108.113C150.99 108.113 149.7 108.583 149.25 108.753C148.28 109.653 146.91 111.153 145.89 113.343C144.15 117.063 144.48 120.513 144.7 121.973L146.97 124.453C147.3 124.783 149.53 126.983 152.76 126.983C153.03 126.983 153.3 126.963 153.58 126.933C154.21 126.863 157.53 126.483 158.95 123.633C160.01 121.503 159.33 119.373 159.16 118.883C159.56 118.363 160.82 116.623 160.61 114.343C160.27 110.803 156.69 109.113 155.86 108.763C154.73 108.283 153.62 108.123 152.64 108.123L152.65 108.113Z" fill="#EA4E17"/>
<path d="M170.25 70.8736C169.58 76.4936 168.91 82.1136 168.23 87.7436C167.56 93.3436 166.89 98.9436 166.22 104.544C165.84 107.714 165.46 110.874 165.08 114.044C165.04 114.394 165.41 114.694 165.73 114.694C166.12 114.694 166.34 114.394 166.38 114.044C167.05 108.424 167.72 102.804 168.4 97.1736C169.07 91.5536 169.74 85.9736 170.41 80.3736C170.79 77.2036 171.17 74.0436 171.55 70.8736C171.59 70.5236 171.22 70.2236 170.9 70.2236C170.51 70.2236 170.29 70.5236 170.25 70.8736Z" fill="white"/>
<path d="M178.01 81.8031C178.13 81.8131 177.93 81.7731 177.89 81.7631C178 81.8031 177.82 81.7131 177.79 81.6931C177.89 81.7631 177.72 81.6131 177.7 81.5931C177.68 81.5731 177.63 81.4931 177.69 81.5831C177.66 81.5431 177.64 81.4931 177.61 81.4531C177.59 81.4131 177.57 81.3831 177.55 81.3431C177.51 81.2531 177.58 81.4231 177.55 81.3231C177.52 81.2431 177.5 81.1631 177.48 81.0831C177.46 81.0031 177.48 81.0831 177.48 81.1031C177.48 81.0631 177.48 81.0231 177.47 80.9731C177.46 80.9231 177.47 80.8931 177.47 80.8431C177.47 80.8431 177.5 80.6531 177.47 80.7531C177.62 79.9931 178.22 79.3931 178.81 78.8631C179.1 78.6031 179.42 78.3631 179.79 78.2631C179.83 78.2531 179.88 78.2431 179.92 78.2331C179.94 78.2331 180.05 78.2231 179.95 78.2331C180.04 78.2331 180.13 78.2331 180.22 78.2331C180.22 78.2331 180.33 78.2431 180.27 78.2331C180.2 78.2231 180.33 78.2531 180.35 78.2531C180.39 78.2631 180.44 78.2731 180.48 78.2931C180.52 78.3131 180.52 78.3031 180.48 78.2931L180.54 78.3231C180.66 78.3931 180.72 78.4431 180.78 78.5331C180.85 78.6531 180.86 78.7431 180.85 78.9131C180.85 79.0231 180.87 78.8331 180.85 78.9531C180.85 79.0031 180.83 79.0531 180.82 79.0931C180.8 79.1731 180.76 79.2831 180.74 79.3331C180.67 79.4931 180.55 79.6931 180.44 79.8531C180.25 80.1231 179.89 80.5031 179.62 80.6931C179.23 80.9631 178.95 81.0731 178.51 81.0431C178.16 81.0131 177.86 81.3631 177.86 81.6931C177.86 82.0731 178.16 82.3131 178.51 82.3431C179.71 82.4431 180.74 81.5931 181.43 80.6931C182.11 79.7931 182.55 78.3631 181.6 77.4731C180.65 76.5831 179.32 76.8631 178.39 77.5531C177.46 78.2431 176.49 79.2131 176.25 80.3631C175.99 81.6131 176.71 82.9431 178.03 83.0931C178.38 83.1331 178.68 82.7631 178.68 82.4431C178.68 82.0531 178.38 81.8331 178.03 81.7931L178.01 81.8031Z" fill="white"/>
<path d="M178.21 94.8334C177.77 94.1534 177.27 93.4034 177.39 92.6134C177.38 92.6834 177.42 92.4834 177.43 92.4634C177.46 92.3634 177.45 92.3834 177.48 92.3134C177.5 92.2734 177.53 92.2234 177.55 92.1834C177.55 92.1834 177.62 92.0934 177.58 92.1434C177.61 92.1034 177.65 92.0734 177.68 92.0334C177.68 92.0334 177.77 91.9634 177.72 92.0034C177.98 91.8134 178.31 91.7534 178.61 91.7234C178.8 91.7034 178.99 91.7034 179.18 91.7034C179.37 91.7034 179.59 91.6834 179.74 91.7434C179.96 91.8234 180.07 92.1834 180.13 92.4534C180.26 93.0534 180.08 93.7934 179.68 94.3034C179.17 94.9734 178.32 95.3534 177.54 95.4234C177.19 95.4534 176.89 95.7034 176.89 96.0734C176.89 96.4034 177.19 96.7634 177.54 96.7234C178.65 96.6134 179.74 96.1834 180.5 95.3334C181.26 94.4934 181.59 93.3834 181.42 92.2834C181.34 91.7434 181.1 91.1634 180.69 90.8034C180.2 90.3834 179.57 90.3734 178.96 90.3934C177.9 90.4234 176.76 90.7134 176.29 91.7834C175.71 93.0934 176.36 94.3834 177.08 95.4934C177.27 95.7834 177.66 95.9134 177.97 95.7234C178.26 95.5534 178.4 95.1234 178.2 94.8334H178.21Z" fill="white"/>
<path d="M178.65 105.703C178.57 105.693 178.5 105.673 178.42 105.653C178.41 105.653 178.26 105.613 178.37 105.643C178.47 105.673 178.34 105.623 178.32 105.613C178.26 105.583 178.2 105.533 178.14 105.503C178.25 105.603 178.06 105.463 178.14 105.503C178.11 105.473 178.07 105.443 178.04 105.403C178.01 105.373 177.99 105.333 177.96 105.313C178.04 105.443 177.89 105.263 177.96 105.313C177.92 105.253 177.88 105.193 177.85 105.133C177.83 105.103 177.8 105.053 177.8 105.023C177.8 105.113 177.83 105.103 177.81 105.043C177.78 104.953 177.76 104.863 177.73 104.773C177.71 104.683 177.71 104.773 177.73 104.803C177.71 104.783 177.73 104.713 177.73 104.683C177.73 104.623 177.71 104.533 177.74 104.473V104.553C177.74 104.553 177.74 104.493 177.75 104.463C177.75 104.433 177.77 104.403 177.78 104.373C177.78 104.353 177.8 104.303 177.81 104.283C177.71 104.413 177.81 104.283 177.84 104.243C177.87 104.183 177.92 104.123 177.96 104.063C177.86 104.203 178.01 104.013 178.05 103.983C178.07 103.963 178.1 103.943 178.12 103.913C178.23 103.803 178.01 103.983 178.14 103.893C178.21 103.853 178.27 103.803 178.35 103.763C178.39 103.743 178.44 103.713 178.48 103.703C178.46 103.703 178.34 103.753 178.46 103.713C178.54 103.693 178.61 103.663 178.69 103.643C178.71 103.643 178.78 103.633 178.78 103.623C178.73 103.673 178.67 103.633 178.78 103.623C178.87 103.623 178.95 103.623 179.04 103.623C179.19 103.623 178.94 103.593 179.04 103.623C179.08 103.633 179.12 103.643 179.16 103.653C179.19 103.653 179.23 103.673 179.26 103.683C179.41 103.723 179.18 103.643 179.26 103.683C179.33 103.713 179.4 103.753 179.46 103.793C179.5 103.823 179.54 103.843 179.59 103.883C179.5 103.813 179.57 103.863 179.61 103.913C179.67 103.963 179.72 104.023 179.77 104.073C179.8 104.103 179.86 104.193 179.78 104.073C179.8 104.103 179.82 104.123 179.84 104.153C179.89 104.223 179.93 104.293 179.97 104.373C179.99 104.403 180 104.433 180.01 104.463C179.94 104.313 180.01 104.493 180.03 104.523C180.05 104.593 180.07 104.673 180.09 104.743C180.13 104.903 180.09 104.603 180.09 104.773C180.09 104.803 180.09 104.843 180.09 104.873C180.09 104.963 180.09 105.053 180.08 105.133C180.11 105.023 180.08 105.103 180.08 105.133C180.06 105.193 180.05 105.253 180.03 105.313C179.99 105.483 180.09 105.233 180 105.383C179.97 105.433 179.94 105.483 179.91 105.533C179.89 105.563 179.83 105.623 179.92 105.523C179.89 105.563 179.85 105.603 179.82 105.633C179.79 105.663 179.75 105.703 179.71 105.733C179.79 105.663 179.74 105.713 179.68 105.743C179.61 105.783 179.54 105.823 179.46 105.863C179.61 105.793 179.46 105.863 179.43 105.863C179.38 105.883 179.33 105.893 179.28 105.903C179.25 105.903 179.21 105.923 179.18 105.923C179.15 105.923 179.11 105.933 179.08 105.943C179.16 105.933 179.18 105.933 179.13 105.943C179.04 105.943 178.94 105.953 178.85 105.943C178.82 105.943 178.78 105.943 178.75 105.943C178.67 105.943 178.68 105.943 178.77 105.943C178.74 105.943 178.7 105.933 178.67 105.923C178.34 105.853 177.95 106.013 177.87 106.383C177.8 106.703 177.97 107.113 178.33 107.183C179.34 107.383 180.45 107.083 181.04 106.193C181.63 105.303 181.42 104.013 180.74 103.193C180.11 102.433 179.05 102.103 178.11 102.443C177.18 102.773 176.43 103.613 176.44 104.643C176.44 105.673 177.24 106.773 178.32 106.923C178.66 106.963 179.04 106.843 179.12 106.463C179.19 106.153 179.03 105.713 178.66 105.663L178.65 105.703Z" fill="white"/>
</g>
<mask id="mask1_1056_4892" style="mask-type:luminance" maskUnits="userSpaceOnUse" x="169" y="36" width="175" height="201">
<path d="M343.18 36.6338H169.06V236.644H343.18V36.6338Z" fill="white"/>
</mask>
<g mask="url(#mask1_1056_4892)">
<path d="M221.44 134.913C220.45 138.413 219.47 141.913 218.48 145.413C216.53 145.943 213.08 147.153 210 150.123C206.12 153.863 203.17 160.033 204.92 161.963C205.44 162.533 206.69 163.083 210.22 161.963C210.09 162.373 209.7 163.803 210.4 165.253C211.2 166.893 213.08 167.893 215.15 167.753C215.03 168.433 214.98 169.373 215.51 170.003C216.88 171.623 220.83 170.073 220.99 170.003C224.31 168.653 225.71 165.573 228.84 158.883C229.93 156.553 231.92 152.323 234.63 146.633L221.43 134.923L221.44 134.913Z" fill="white" stroke="#EA4E17" stroke-width="1.28" stroke-linecap="round" stroke-linejoin="round"/>
<path d="M193.77 209.524L214.52 164.034C214.64 163.774 214.56 163.474 214.33 163.304C214.23 163.224 214.1 163.194 213.98 163.194C213.83 163.194 213.69 163.244 213.58 163.344L176.91 196.814L173.03 193.344L217.55 151.014L223.99 155.184L198.26 214.324L193.77 209.524Z" fill="#EA4E17"/>
<path d="M217.62 151.774L223.25 155.414L198.08 213.264L194.48 209.414L215.06 164.284C215.3 163.774 215.13 163.164 214.68 162.824C214.47 162.674 214.22 162.594 213.98 162.594C213.69 162.594 213.4 162.704 213.18 162.904L176.91 196.014L173.92 193.334L217.63 151.774H217.62ZM217.48 150.264L172.15 193.364L176.91 197.624L213.98 163.794L193.07 209.644L198.45 215.404L224.75 154.964L217.49 150.264H217.48Z" fill="white"/>
<path d="M184.8 214.803C184.27 214.803 183.74 214.773 183.22 214.733L169.9 189.513C170.36 187.753 171.54 184.683 174.53 182.353C177.41 180.103 180.62 179.623 182.8 179.623C184.16 179.623 185.24 179.803 185.81 179.923L199.58 205.723C198.58 207.693 196.36 211.023 192.17 213.103C189.32 214.513 186.59 214.813 184.81 214.813L184.8 214.803Z" fill="white"/>
<path d="M182.79 180.213C183.91 180.213 184.82 180.343 185.41 180.443L192.17 193.113L198.9 205.723C197.87 207.643 195.75 210.653 191.89 212.563C189.15 213.923 186.51 214.213 184.79 214.213C184.39 214.213 183.98 214.193 183.59 214.163L170.53 189.433C171.01 187.723 172.16 184.943 174.89 182.813C177.64 180.663 180.7 180.213 182.79 180.213ZM182.79 179.023C180.39 179.023 177.12 179.563 174.16 181.873C170.63 184.633 169.57 188.333 169.27 189.583L182.84 215.293C183.31 215.343 183.98 215.403 184.8 215.403C186.73 215.403 189.5 215.083 192.43 213.633C197.39 211.173 199.6 207.053 200.25 205.713C195.57 196.943 190.89 188.173 186.21 179.403C185.86 179.323 184.57 179.033 182.81 179.033L182.79 179.023Z" fill="#EA4E17"/>
<path d="M169.27 189.584C168.19 187.884 171.45 183.344 175.38 181.034C179.54 178.584 185.39 178.084 186.32 179.914C187.24 181.734 183.29 185.874 179.48 188.004C175.81 190.054 170.36 191.304 169.28 189.594L169.27 189.584Z" fill="#EA4E17"/>
<path d="M184.8 214.804C184.27 214.804 183.74 214.774 183.22 214.734L169.9 189.514C170.36 187.754 171.54 184.684 174.53 182.354C177.41 180.104 180.62 179.624 182.8 179.624C184.16 179.624 185.24 179.804 185.81 179.924L199.58 205.724C198.58 207.694 196.36 211.024 192.17 213.104C189.32 214.514 186.59 214.814 184.81 214.814L184.8 214.804Z" fill="white"/>
<path d="M182.79 180.213C183.91 180.213 184.82 180.343 185.41 180.443L192.17 193.113L198.9 205.723C197.87 207.643 195.75 210.653 191.89 212.563C189.15 213.923 186.51 214.213 184.79 214.213C184.39 214.213 183.98 214.203 183.59 214.163L170.53 189.433C171.01 187.723 172.16 184.943 174.89 182.813C177.64 180.663 180.7 180.213 182.79 180.213ZM182.79 179.023C180.39 179.023 177.12 179.563 174.16 181.873C170.63 184.633 169.57 188.333 169.27 189.583L182.84 215.293C183.31 215.343 183.98 215.403 184.8 215.403C186.73 215.403 189.5 215.083 192.43 213.633C197.39 211.173 199.6 207.053 200.25 205.713C195.57 196.943 190.89 188.173 186.21 179.403C185.86 179.323 184.57 179.033 182.81 179.033L182.79 179.023Z" fill="#EA4E17"/>
<path d="M193.77 209.523L214.52 164.033C214.64 163.773 214.56 163.473 214.33 163.303C214.23 163.223 214.1 163.193 213.98 163.193C213.83 163.193 213.69 163.243 213.58 163.353L176.91 196.823L173.03 193.353L217.55 151.023L223.99 155.193L198.26 214.333L193.77 209.523Z" fill="#EA4E17"/>
<path d="M217.62 151.774L223.25 155.414L198.08 213.264L194.48 209.414L215.06 164.284C215.3 163.774 215.13 163.164 214.68 162.824C214.47 162.674 214.22 162.594 213.98 162.594C213.69 162.594 213.4 162.704 213.18 162.904L176.91 196.014L173.92 193.334L217.63 151.774H217.62ZM217.48 150.264L172.15 193.364L176.91 197.624L213.98 163.794L193.07 209.644L198.45 215.404L224.75 154.964L217.49 150.264H217.48Z" fill="white"/>
<path d="M259.88 236.043C258.91 236.043 257.92 236.023 256.94 235.993C250.84 235.783 244.75 234.913 238.82 233.413C238.19 228.863 240.06 224.353 243.65 221.843C245.56 220.503 247.85 219.803 250.27 219.803C253.36 219.803 256.35 220.953 258.7 223.053C258.81 223.153 258.95 223.203 259.1 223.203C259.18 223.203 259.26 223.183 259.34 223.153C259.55 223.063 259.69 222.853 259.7 222.623C259.75 220.383 260.38 218.323 261.52 216.643C263.59 213.593 267.51 211.623 271.49 211.623C272.99 211.623 274.36 211.923 275.45 212.483C277.49 213.543 279.11 215.833 279.91 218.783C281.22 223.643 280.19 229.283 277.07 234.303C271.42 235.463 265.65 236.053 259.89 236.053L259.88 236.043Z" fill="#EA4E17"/>
<path d="M271.48 212.203C272.89 212.203 274.16 212.483 275.16 213.003C277.05 213.983 278.56 216.143 279.32 218.933C280.57 223.563 279.61 228.943 276.68 233.763C271.15 234.883 265.5 235.443 259.87 235.443C258.9 235.443 257.92 235.423 256.95 235.393C251.03 235.193 245.11 234.363 239.35 232.923C238.91 228.723 240.67 224.623 243.98 222.323C245.79 221.053 247.96 220.383 250.26 220.383C253.2 220.383 256.05 221.483 258.29 223.483C258.51 223.683 258.8 223.783 259.08 223.783C259.24 223.783 259.4 223.753 259.55 223.683C259.98 223.493 260.25 223.083 260.27 222.613C260.32 220.493 260.91 218.533 261.99 216.953C263.96 214.063 267.68 212.193 271.47 212.193L271.48 212.203ZM271.48 211.013C267.71 211.013 263.39 212.803 261.02 216.293C259.39 218.683 259.13 221.213 259.1 222.593C256.57 220.333 253.39 219.193 250.28 219.193C247.81 219.193 245.37 219.903 243.32 221.343C239.44 224.063 237.47 228.973 238.3 233.883C243.22 235.153 249.53 236.333 256.92 236.583C257.92 236.623 258.91 236.633 259.88 236.633C266.81 236.633 272.77 235.793 277.43 234.823C283.62 225.043 281.04 214.703 275.71 211.933C274.51 211.313 273.04 211.003 271.48 211.003V211.013Z" fill="white"/>
<path d="M321.41 233.843C315.68 233.843 309.92 233.153 304.29 231.793C298.24 220.283 301.18 208.793 305.91 205.903C306.98 205.253 308.33 204.903 309.81 204.903C313.76 204.903 317.64 207.223 319.71 210.813C320.86 212.813 321.5 215.273 321.55 217.943C321.55 218.203 321.72 218.443 321.96 218.533C322.04 218.563 322.11 218.573 322.19 218.573C322.36 218.573 322.54 218.503 322.66 218.373C324.99 215.913 327.96 214.563 331.01 214.563C333.4 214.563 335.66 215.393 337.56 216.953C341.17 219.933 343.05 225.313 342.4 230.753C336.49 232.523 330.42 233.543 324.33 233.793C323.36 233.833 322.37 233.853 321.4 233.853L321.41 233.843Z" fill="#EA4E17"/>
<path d="M309.81 205.553C313.53 205.553 317.2 207.743 319.15 211.143C320.25 213.043 320.85 215.403 320.9 217.963C320.9 218.483 321.24 218.953 321.73 219.143C321.88 219.203 322.04 219.233 322.2 219.233C322.55 219.233 322.89 219.093 323.14 218.833C325.35 216.503 328.15 215.223 331.02 215.223C333.26 215.223 335.38 215.993 337.15 217.463C340.51 220.233 342.29 225.183 341.8 230.263C336.07 231.943 330.19 232.913 324.3 233.153C323.34 233.193 322.36 233.213 321.4 233.213C315.81 233.213 310.2 232.553 304.72 231.253C302.2 226.343 301.12 220.913 301.67 215.913C302.15 211.523 303.9 207.903 306.24 206.473C307.21 205.883 308.44 205.563 309.8 205.563M309.81 204.253C308.24 204.253 306.77 204.613 305.58 205.353C300.25 208.613 297.67 220.823 303.86 232.353C308.52 233.503 314.48 234.483 321.41 234.483C322.38 234.483 323.36 234.463 324.37 234.423C331.76 234.123 338.08 232.743 342.99 231.233C343.82 225.443 341.86 219.643 337.97 216.443C335.92 214.753 333.48 213.913 331.01 213.913C327.89 213.913 324.72 215.253 322.19 217.923C322.16 216.293 321.89 213.313 320.27 210.483C317.89 206.363 313.57 204.243 309.81 204.243V204.253Z" fill="white"/>
<path d="M253.58 92.1733C260.15 89.2333 266.71 86.2933 273.28 83.3633C279.02 97.2433 287.96 118.613 299.33 144.743C316.43 184.033 325.76 203.613 318.08 211.623C313.26 216.643 307.44 211.193 285.74 215.533C268.98 218.883 262.31 224.173 256.86 220.343C252.23 217.103 251.98 209.743 252.69 198.313C254.37 171.613 259.3 157.443 261.1 144.143C262.69 132.333 262.58 114.863 253.59 92.1633L253.58 92.1733Z" fill="white" stroke="#EA4E17" stroke-width="1.28" stroke-linecap="round" stroke-linejoin="round"/>
<path d="M289.62 137.364C289.5 140.534 289.06 144.924 287.64 149.964C285.98 155.834 283.64 160.214 284.82 161.094C285.22 161.394 286.1 161.334 288.17 159.884C287.82 161.834 288.34 163.534 289.23 163.894C290.26 164.304 292.31 163.124 293.22 160.454C293.22 162.724 293.92 164.494 294.76 164.634C295.67 164.784 297.11 163.104 297.73 160.284C299.09 162.934 299.87 163.344 300.32 163.254C301.68 162.994 302.07 158.624 302.34 155.744C302.8 150.894 303.59 143.914 305.04 134.934C299.9 135.744 294.76 136.554 289.62 137.354V137.364Z" fill="white" stroke="#EA4E17" stroke-width="1.28" stroke-linecap="round" stroke-linejoin="round"/>
<path d="M219.56 141.803C221.84 129.923 226.78 118.503 233.83 108.753C240.25 99.883 248.26 92.463 257.62 86.713L267.77 92.603C267.86 92.653 267.97 92.683 268.07 92.683C268.27 92.683 268.46 92.583 268.57 92.413L274.4 83.373C281.2 85.283 287.1 88.533 291.93 93.053C299.57 100.203 304.01 109.983 305.15 122.143C305.96 130.783 304.78 137.783 304.38 139.823L288.91 143.443C289.08 140.903 289.13 138.343 289.05 135.823C289.05 135.503 288.78 135.243 288.45 135.243H288.43C288.18 135.243 287.98 135.403 287.89 135.623L261.42 140.953C261.71 136.943 261.37 132.943 260.4 129.053C259.1 123.873 256.63 118.913 253.26 114.703C253.15 114.563 252.97 114.483 252.79 114.483H252.74C252.54 114.503 252.37 114.613 252.27 114.793C249.47 119.893 246.64 125.033 243.88 130.093C239.7 137.743 235.46 145.523 231.3 153.213L219.54 141.813L219.56 141.803ZM286.06 118.423C286.06 118.423 285.96 118.423 285.91 118.443C285.59 118.523 285.4 118.853 285.48 119.163C285.62 119.693 285.75 120.223 285.87 120.753C285.93 121.023 286.18 121.213 286.45 121.213C286.5 121.213 286.54 121.213 286.59 121.193C286.91 121.113 287.11 120.793 287.03 120.473C286.99 120.303 286.95 120.143 286.91 119.973C286.82 119.593 286.73 119.223 286.63 118.863C286.56 118.593 286.32 118.413 286.05 118.413L286.06 118.423Z" fill="#EA4E17"/>
<path d="M274.67 84.0638C281.2 85.9638 286.87 89.1238 291.53 93.4838C295.65 97.3338 298.86 102.054 301.09 107.504C302.9 111.944 304.07 116.884 304.57 122.194C305.33 130.284 304.33 136.924 303.88 139.324L297.05 140.924L289.56 142.674C289.69 140.384 289.72 138.074 289.65 135.804C289.53 131.504 289.04 127.184 288.19 122.964C288.02 122.104 287.83 121.224 287.62 120.354C287.58 120.184 287.54 120.014 287.5 119.844C287.41 119.474 287.31 119.094 287.22 118.724C286.42 115.634 285.57 113.054 284.99 111.444C284.65 110.484 284.37 109.774 284.2 109.344C284.1 109.094 284.02 108.904 283.96 108.774C283.85 108.504 283.58 107.884 282.81 107.864H282.78C282.31 107.864 281.89 108.134 281.7 108.554C281.48 109.024 281.62 109.364 281.78 109.764C283.01 112.854 284.07 116.074 284.91 119.324C285.05 119.854 285.18 120.384 285.3 120.914C286.4 125.564 287.05 130.354 287.24 135.164L274.38 137.754L262.07 140.224C262.27 136.414 261.91 132.614 260.98 128.924C259.66 123.664 257.15 118.624 253.73 114.344C253.5 114.064 253.16 113.894 252.8 113.894C252.77 113.894 252.73 113.894 252.7 113.894C252.3 113.924 251.95 114.154 251.76 114.504C248.96 119.594 246.14 124.734 243.37 129.804C239.3 137.234 235.2 144.774 231.16 152.244L220.2 141.614C222.49 129.934 227.36 118.714 234.31 109.124C240.62 100.414 248.46 93.1138 257.63 87.4338L262.24 90.1138L267.47 93.1438C267.66 93.2538 267.86 93.3038 268.07 93.3038C268.46 93.3038 268.84 93.1138 269.07 92.7538L272.1 88.0438L274.66 84.0738M274.14 82.6738C272.12 85.8138 270.1 88.9538 268.07 92.0838C264.58 90.0638 261.1 88.0438 257.61 86.0138C251.51 89.7238 241.82 96.6838 233.34 108.394C223.72 121.674 220.28 134.704 218.9 141.994C223.08 146.054 227.27 150.114 231.45 154.174C235.75 146.224 240.07 138.294 244.41 130.364C247.2 125.264 249.99 120.164 252.79 115.074C254.87 117.674 258.12 122.434 259.82 129.194C261.1 134.304 261.05 138.714 260.76 141.684C269.99 139.824 279.22 137.974 288.45 136.114C288.45 136.024 288.45 135.934 288.45 135.844C288.31 131.324 287.76 126.174 286.45 120.624C286.32 120.074 286.19 119.534 286.05 119.004C284.54 113.164 282.75 109.044 282.77 109.034C282.8 109.034 284.54 113.144 286.05 119.004C286.15 119.364 286.24 119.734 286.33 120.114C286.37 120.284 286.41 120.454 286.45 120.624C286.65 121.454 286.84 122.314 287.01 123.204C288.06 128.414 288.36 132.824 288.44 135.844C288.53 138.944 288.44 141.764 288.24 144.204C293.78 142.904 299.33 141.614 304.87 140.314C305.37 137.964 310.84 109.954 292.32 92.6138C286.08 86.7738 279.13 84.0338 274.12 82.6738H274.14Z" fill="white"/>
<path d="M266.18 45.2734C266.98 62.6834 272.62 76.5434 281.34 80.5334C283.16 81.3634 287 83.1234 291.51 81.9134C296.89 80.4634 299.59 75.7534 300.25 74.5134C290.02 71.5834 287.48 68.4634 287.19 66.0534C286.92 63.8734 288.53 62.5634 289.17 58.7934C289.83 54.8334 288.87 51.3434 287.94 49.0034C287.72 47.6534 287.06 44.8934 284.88 42.2234C283.26 40.2434 281.46 39.1334 280.32 38.5434C280.11 38.3834 276.27 35.4734 271.82 37.1534C268.52 38.3934 266.28 41.6134 266.18 45.2734Z" fill="#EA4E17"/>
<path d="M260.41 89.1132C248.16 89.1132 238.2 78.7632 238.2 66.0532C238.2 53.3432 248.16 42.9932 260.41 42.9932C272.66 42.9932 282.62 53.3432 282.62 66.0532C282.62 78.7632 272.66 89.1132 260.41 89.1132Z" fill="white"/>
<path d="M260.41 43.5933C272.33 43.5933 282.03 53.6733 282.03 66.0533C282.03 78.4333 272.33 88.5133 260.41 88.5133C248.49 88.5133 238.79 78.4333 238.79 66.0533C238.79 53.6733 248.49 43.5933 260.41 43.5933ZM260.41 42.4033C247.81 42.4033 237.6 52.9933 237.6 66.0533C237.6 79.1133 247.81 89.7033 260.41 89.7033C273.01 89.7033 283.22 79.1133 283.22 66.0533C283.22 52.9933 273.01 42.4033 260.41 42.4033Z" fill="#EA4E17"/>
<path d="M237.63 65.2134C239.53 65.0034 243.28 64.3234 247.1 61.6934C251.66 58.5634 253.7 54.4634 254.45 52.7034C255.48 54.5934 257.59 57.7734 261.43 59.8734C270.93 65.0834 281.49 58.5134 281.94 58.2234C281.28 55.8034 279.81 51.7434 276.39 47.8734C274.32 45.5334 272.37 44.2234 271.91 43.9034C270.45 42.9034 265.02 39.4434 257.59 40.2334C250.1 41.0334 245.57 45.6134 244.15 47.1034C237.27 54.2834 237.55 63.4334 237.64 65.2034L237.63 65.2134Z" fill="#EA4E17"/>
<path d="M249.79 71.4734C249.28 70.5334 247.86 68.2834 248.62 67.2034L247.93 67.4834C247.99 67.4834 248.3 68.2734 248.32 68.3134C248.48 68.6734 248.62 69.0434 248.75 69.4234C248.86 69.7434 248.95 70.0634 249.04 70.3934C249.15 70.8134 249.04 71.0334 249.54 71.0734C248.75 71.0034 248.76 72.2234 249.54 72.3034C250.99 72.4434 250.33 70.4334 250.13 69.7434C249.87 68.8334 249.34 66.4934 248.26 66.3034C247.97 66.2534 247.74 66.3434 247.57 66.5834C246.47 68.1334 248 70.7134 248.74 72.0934C249.11 72.7934 250.17 72.1734 249.8 71.4734H249.79Z" fill="#EA4E17"/>
<path d="M260.05 68.973C259.76 68.493 259.47 68.023 259.24 67.513C259.13 67.273 259.03 67.023 258.95 66.763C258.88 66.543 258.9 66.003 258.79 65.853C258.83 65.603 258.69 65.603 258.37 65.853L258.62 66.173C258.79 66.403 258.96 66.633 259.1 66.883C259.42 67.443 259.72 68.293 259.29 68.883L259.66 68.603C259.66 68.603 259.25 67.513 259.21 67.393C259.07 66.923 259 66.443 258.97 65.953L257.83 66.263C258.27 66.853 258.6 67.463 258.83 68.153C259.08 68.903 260.26 68.583 260.01 67.823C259.75 67.033 259.39 66.303 258.89 65.633C258.56 65.193 257.71 65.273 257.75 65.943C257.81 67.073 258.1 69.283 259.36 69.753C260.02 70.003 260.48 69.503 260.64 68.893C260.84 68.133 260.69 67.323 260.36 66.623C260.04 65.923 258.48 63.453 257.7 65.113C257.05 66.473 258.34 68.453 259.01 69.553C259.42 70.223 260.48 69.613 260.07 68.933L260.05 68.973Z" fill="#EA4E17"/>
<path d="M251.43 75.8835V77.9335C251.43 78.7235 252.66 78.7235 252.66 77.9335V75.8835C252.66 75.0935 251.43 75.0935 251.43 75.8835Z" fill="#EA4E17"/>
<path d="M257.78 81.7537C259.86 82.2837 262.07 81.6137 263.46 79.9637C263.96 79.3637 263.1 78.4937 262.59 79.0937C261.48 80.4237 259.8 81.0037 258.11 80.5737C257.35 80.3737 257.02 81.5637 257.78 81.7537Z" fill="#EA4E17"/>
<path d="M214.66 146.583C214.36 146.603 208.4 147.043 207.03 150.793C206.96 150.993 206.21 153.133 207.28 154.303C208.39 155.523 210.72 154.883 211.63 154.633C214.83 153.763 216.7 151.203 217.48 149.953" fill="white"/>
<path d="M214.66 145.993C213.59 146.063 212.51 146.283 211.49 146.593C209.76 147.123 208.03 148.013 207 149.563C206.58 150.193 206.33 150.913 206.21 151.653C206.04 152.743 206.11 153.973 206.95 154.783C207.79 155.593 208.95 155.673 210.02 155.553C211.08 155.423 212.07 155.163 213.02 154.753C215.12 153.853 216.79 152.163 217.98 150.243C218.38 149.603 217.37 149.023 216.98 149.653C216.09 151.073 214.92 152.363 213.42 153.243C212.58 153.733 211.67 154.043 210.72 154.263C209.93 154.443 208.97 154.583 208.22 154.263C206.79 153.643 207.26 151.473 207.85 150.433C208.61 149.103 210.08 148.303 211.5 147.823C212.22 147.583 212.96 147.403 213.7 147.283C213.84 147.263 213.97 147.243 214.11 147.223C213.91 147.253 214.14 147.223 214.18 147.223C214.23 147.223 214.27 147.213 214.32 147.203C214.44 147.193 214.55 147.183 214.67 147.173C214.98 147.153 215.25 146.923 215.25 146.593C215.25 146.293 214.98 145.993 214.67 146.013L214.66 145.993Z" fill="#EA4E17"/>
</g>
<g style="mix-blend-mode:multiply" opacity="0.5">
<path d="M119.587 171.294C109.637 169.324 99.7773 162.664 92.2973 156.374C90.2873 156.774 88.2773 157.134 86.2773 157.444C78.3873 158.684 70.5373 159.324 62.9573 159.324C30.7673 159.324 9.0473 148.414 6.2873 130.864C4.4373 119.144 11.5673 107.434 26.3573 97.8937C38.7673 89.8937 55.7673 83.8737 74.2273 80.9637C82.1173 79.7237 89.9673 79.0938 97.5473 79.0938C129.737 79.0938 151.457 90.0038 154.217 107.554C156.417 121.514 145.797 135.314 125.517 145.414C127.487 152.174 129.887 155.984 129.917 156.034L143.207 176.034L119.607 171.304L119.587 171.294Z" fill="#545454"/>
</g>
<path d="M113.587 165.294C103.637 163.324 93.7773 156.664 86.2973 150.374C84.2873 150.774 82.2773 151.134 80.2773 151.444C72.3873 152.684 64.5373 153.324 56.9573 153.324C24.7673 153.324 3.0473 142.414 0.287303 124.854C-1.5627 113.134 5.5673 101.424 20.3573 91.884C32.7573 83.874 49.7573 77.864 68.2173 74.954C76.1073 73.714 83.9573 73.084 91.5373 73.084C123.727 73.084 145.447 83.994 148.207 101.544C150.407 115.504 139.787 129.304 119.507 139.404C121.477 146.164 123.877 149.974 123.907 150.024L137.197 170.024L113.597 165.294H113.587Z" fill="white"/>
<path d="M138.957 102.063C136.487 86.3934 105.797 78.2234 70.4073 83.8034C35.0173 89.3834 8.3173 106.603 10.7873 122.263C13.2573 137.933 43.9473 146.103 79.3373 140.523C82.8973 139.963 86.3673 139.273 89.7373 138.493C95.4173 143.713 106.147 152.463 116.147 154.443C116.147 154.443 110.867 146.503 108.577 132.593C128.227 124.633 140.667 112.973 138.947 102.063H138.957Z" fill="white"/>
<path d="M22.9235 112.765L22.9594 113.041L23.2468 115.112C23.2708 115.256 23.3186 115.352 23.3905 115.412C23.4743 115.472 23.5581 115.484 23.6539 115.472C23.6779 115.472 23.7138 115.472 23.7378 115.472C25.1268 115.112 26.3841 114.693 27.5337 114.214C27.5935 114.19 27.6534 114.178 27.7253 114.166C27.8809 114.142 28.0126 114.19 28.1324 114.286C28.2042 114.37 28.2521 114.466 28.2761 114.598L28.3719 114.993C28.5036 115.639 28.6233 116.106 28.7431 116.382C28.7431 116.442 28.7551 116.489 28.767 116.525C28.803 116.837 28.6712 117.064 28.3719 117.184C27.39 117.579 26.0129 117.974 24.2287 118.381C24.097 118.393 24.0012 118.453 23.9413 118.537C23.8815 118.621 23.8575 118.729 23.8695 118.836L24.1928 120.621L24.4921 122.273C24.5161 122.477 24.6478 122.596 24.8634 122.632C26.5518 122.932 28.2641 123.447 30.0004 124.177C30.2519 124.285 30.3836 124.429 30.4075 124.596C30.4315 124.752 30.3716 124.908 30.2519 125.051C29.9525 125.434 29.6771 125.913 29.4137 126.488C29.3418 126.632 29.2939 126.764 29.246 126.895C29.1622 127.123 29.0305 127.255 28.8389 127.278C28.6473 127.302 28.5036 127.278 28.3958 127.207C28.2881 127.135 28.0845 127.027 27.7851 126.883C27.4858 126.74 27.1505 126.584 26.7673 126.404C26.3841 126.225 26.0728 126.105 25.8333 126.033C25.5938 125.961 25.4501 125.937 25.3783 125.937C25.1986 125.961 25.0789 126.153 25.019 126.524C24.8634 127.542 24.3125 128.344 23.3546 128.919C22.7798 129.266 22.0374 129.506 21.1153 129.625C20.9836 129.637 20.8639 129.649 20.7322 129.649C18.8402 129.805 17.4631 129.29 16.6129 128.105C16.3136 127.698 16.122 127.135 16.0262 126.428C15.9304 125.722 16.098 125.075 16.5172 124.488C17.2955 123.327 18.481 122.644 20.0975 122.441C20.1813 122.441 20.4927 122.393 21.0196 122.345H21.2231C21.0914 121.603 20.9477 120.788 20.804 119.938L20.2891 117.136C20.1813 116.178 20.0257 115.316 19.8461 114.538C19.7862 114.274 19.7383 114.023 19.7024 113.795L19.6066 113.113C19.5706 112.873 19.6305 112.67 19.7503 112.49C19.882 112.322 20.0616 112.227 20.3131 112.191L21.9536 111.975C22.205 111.939 22.4206 111.999 22.6002 112.131C22.7678 112.274 22.8756 112.478 22.9115 112.741L22.9235 112.765ZM19.1635 126.093C19.1875 126.285 19.2833 126.404 19.4509 126.464C19.6664 126.536 20.0257 126.572 20.5286 126.56C20.6603 126.56 20.7801 126.56 20.8759 126.536C21.1872 126.5 21.4147 126.404 21.5584 126.249C21.75 126.069 21.8338 125.83 21.7979 125.542L21.762 125.303V125.171C21.6183 125.159 21.4267 125.159 21.1752 125.159L20.5286 125.219C19.5587 125.351 19.1036 125.626 19.1635 126.069V126.093Z" fill="#EA4E17"/>
<path d="M43.6154 126.752C43.5076 126.848 43.3639 126.92 43.1723 126.944C42.9807 126.968 42.8131 126.884 42.6694 126.68C41.2564 124.824 39.3285 122.836 36.8977 120.717C36.4786 120.37 36.0475 120.034 35.6164 119.735C35.1375 119.388 34.874 119.017 34.8141 118.609C34.7663 118.202 34.9339 117.795 35.3291 117.376C35.7961 116.873 36.3589 116.179 36.9935 115.316C38.5262 113.221 39.6039 111.437 40.2266 109.964C40.3703 109.641 40.5739 109.461 40.8253 109.425C41.0409 109.401 41.2325 109.425 41.4001 109.497L43.1005 110.335C43.3639 110.479 43.5196 110.682 43.5555 110.97C43.5795 111.137 43.5555 111.293 43.4597 111.437C43.3639 111.58 43.2921 111.7 43.2202 111.796C43.1484 111.892 43.0646 112.023 42.9448 112.203C42.8251 112.383 42.6814 112.586 42.5018 112.838C42.3221 113.089 42.1425 113.341 41.9629 113.616L40.8253 115.197C40.6457 115.472 40.4541 115.724 40.2745 115.963L38.8376 117.819C38.7777 117.915 38.7537 117.999 38.7657 118.095C38.7657 118.178 38.8615 118.286 39.0052 118.406C39.1489 118.502 39.3166 118.621 39.5081 118.777C40.1069 119.28 40.5499 119.651 40.8253 119.915C41.1007 120.166 41.46 120.501 41.927 120.92C42.6934 121.615 43.8908 122.765 45.4834 124.369C45.6031 124.501 45.675 124.633 45.687 124.752C45.7109 124.98 45.6151 125.171 45.3756 125.339C44.5254 125.914 43.9387 126.381 43.6274 126.74L43.6154 126.752Z" fill="#EA4E17"/>
<path d="M58.2721 113.017C58.2721 113.089 58.32 113.113 58.3919 113.113L58.8708 112.981C59.1582 112.921 59.3977 112.873 59.5893 112.837L60.0443 112.777C60.1761 112.765 60.2719 112.753 60.3317 112.753C60.3916 112.753 60.4395 112.753 60.4515 112.753C60.5832 112.741 60.655 112.658 60.679 112.526L60.8347 111.748C60.8945 111.448 61.0622 111.281 61.3136 111.245C61.3855 111.245 61.4454 111.245 61.5052 111.245L63.1218 111.472C63.3852 111.508 63.5768 111.616 63.7085 111.807C63.7804 111.915 63.8283 112.023 63.8402 112.119C63.8522 112.262 63.8283 112.466 63.7445 112.718C63.7325 112.837 63.7205 112.921 63.7085 112.957C63.7325 113.113 63.8403 113.232 64.0318 113.304C64.894 113.664 65.6005 114.19 66.1753 114.873C66.7381 115.555 67.0853 116.358 67.2051 117.292C67.3248 118.226 67.2769 119.076 67.0734 119.83C66.8578 120.585 66.5225 121.267 66.0675 121.866C65.1574 123.04 63.8642 123.878 62.1519 124.381C62.08 124.405 62.0201 124.417 61.9603 124.429C61.589 124.476 61.3136 124.297 61.134 123.89C61.0382 123.698 60.8107 123.315 60.4395 122.74C60.3317 122.596 60.2719 122.453 60.2599 122.333C60.224 122.058 60.3916 121.866 60.7508 121.746C61.8525 121.375 62.6668 120.896 63.1936 120.321C63.8283 119.627 64.0797 118.765 63.936 117.723C63.8403 117.016 63.5409 116.466 63.0499 116.082C62.9661 116.022 62.8823 115.999 62.7745 116.01C62.6787 116.022 62.5829 116.118 62.5111 116.286C61.9243 117.699 61.1699 118.992 60.2359 120.19C60.188 120.273 60.1641 120.333 60.1761 120.393C60.1761 120.441 60.2 120.489 60.212 120.537L60.3317 120.824L60.5233 121.124C60.5473 121.195 60.5593 121.267 60.5712 121.339C60.5952 121.555 60.4994 121.71 60.2838 121.806C60.2 121.842 60.1282 121.89 60.0683 121.938C59.9007 122.034 59.7809 122.106 59.6851 122.165C59.3019 122.357 58.8948 122.632 58.4517 123.004C58.4038 123.063 58.344 123.099 58.2721 123.111C58.1524 123.123 58.0446 123.063 57.9488 122.932L57.7931 122.692C56.7514 123.447 55.7455 123.89 54.7756 124.021C54.56 124.045 54.3445 124.057 54.129 124.033C53.5781 124.045 53.0513 123.842 52.5483 123.411C52.0454 122.98 51.7341 122.357 51.6263 121.543C51.5185 120.728 51.5425 119.986 51.6981 119.315C51.8538 118.657 52.0813 118.034 52.4046 117.459C53.0632 116.274 53.9853 115.292 55.1707 114.538C55.2905 114.442 55.3504 114.346 55.3504 114.274C55.3623 114.154 55.3504 114.023 55.3504 113.867C55.3504 113.855 55.3384 113.699 55.3144 113.4L55.2785 113.161C55.2785 113.161 55.2785 113.137 55.2785 113.113C55.2546 112.969 55.2067 112.873 55.1348 112.813C55.051 112.753 54.9432 112.729 54.7995 112.753C54.7876 112.753 54.6678 112.777 54.4403 112.825C54.2128 112.873 53.9014 112.921 53.5063 112.969C53.0393 113.029 52.704 113.065 52.5124 113.065C52.3208 113.065 52.1412 113.029 51.9855 112.945C51.7939 112.837 51.6742 112.67 51.6143 112.43C51.4347 111.508 51.3509 111.041 51.3509 111.029C51.315 110.802 51.3748 110.61 51.5185 110.442C51.6622 110.275 51.8778 110.179 52.1771 110.143C52.237 110.143 52.2849 110.131 52.3448 110.119C52.8477 110.095 53.662 110.011 54.7876 109.868C54.8953 109.844 54.9911 109.796 55.051 109.736C55.1109 109.676 55.1468 109.58 55.1468 109.437L55.1707 108.155C55.1827 107.916 55.2665 107.736 55.4222 107.604C55.53 107.509 55.6617 107.437 55.8293 107.425C55.8772 107.425 55.9132 107.425 55.9611 107.425L57.6734 107.509C57.8051 107.521 57.9249 107.568 58.0326 107.64C58.1404 107.712 58.2123 107.844 58.2362 108.024C58.2362 108.071 58.2362 108.107 58.2482 108.155C58.2123 108.742 58.1883 109.041 58.2003 109.077L58.2242 109.137C58.2242 109.137 58.2362 109.161 58.2721 109.149C58.2961 109.149 58.332 109.137 58.3559 109.113C59.757 108.754 60.9185 108.383 61.8405 107.988C62.0201 107.916 62.1399 107.88 62.1998 107.88C62.3434 107.856 62.4871 107.88 62.6189 107.94C62.8344 108.059 62.9781 108.275 63.0499 108.574C63.2415 109.353 63.3373 109.748 63.3373 109.772C63.3852 110.167 63.2296 110.442 62.8583 110.598C61.6968 111.125 60.212 111.592 58.4158 111.999C58.344 112.023 58.2961 112.059 58.2721 112.095C58.2482 112.131 58.2362 112.191 58.2242 112.262L58.308 113.053L58.2721 113.017ZM54.572 120.429C54.6079 120.681 54.6678 120.848 54.7397 120.908C54.7995 120.944 54.8833 120.956 54.9791 120.944C55.1588 120.92 55.3743 120.824 55.6258 120.657C55.8772 120.489 56.1167 120.309 56.3442 120.118C56.4879 119.998 56.5478 119.866 56.5239 119.699C56.5239 119.675 56.5239 119.639 56.5239 119.615C56.3562 119.088 56.2005 118.561 56.0808 118.046C55.9611 117.819 55.8533 117.675 55.7695 117.627C55.6737 117.639 55.5659 117.711 55.4461 117.843C55.2785 118.01 55.0989 118.298 54.8834 118.717C54.596 119.28 54.4882 119.842 54.56 120.429H54.572ZM58.9307 115.675C58.9307 115.675 58.8828 115.675 58.8349 115.699C58.787 115.723 58.7511 115.747 58.7272 115.795C58.7032 115.843 58.6912 115.879 58.7032 115.903C58.7032 115.927 58.7152 115.987 58.7391 116.07C58.7631 116.154 58.787 116.262 58.811 116.406C58.8708 116.717 58.9068 116.909 58.9307 116.98C59.0145 116.909 59.1343 116.681 59.3019 116.298L59.6492 115.627C59.6492 115.627 59.6851 115.543 59.6731 115.52C59.5534 115.532 59.4935 115.543 59.4696 115.543C59.4456 115.543 59.4097 115.543 59.3498 115.555C59.29 115.555 59.2421 115.591 59.1822 115.615L58.9666 115.639C58.9666 115.639 58.9427 115.663 58.9307 115.663V115.675Z" fill="#EA4E17"/>
<path d="M82.6521 120.98C81.9217 121.327 81.2152 121.542 80.5207 121.638C79.8262 121.734 79.1796 121.758 78.5808 121.722C77.9821 121.698 77.4193 121.578 76.8805 121.387C75.6591 120.92 74.9645 120.058 74.8089 118.812C74.6891 117.89 74.9286 117.088 75.5154 116.417C76.0662 115.795 76.7966 115.424 77.6947 115.304C79.4669 115.076 80.8081 115.699 81.7181 117.196C81.8259 117.399 81.9576 117.495 82.0774 117.471C82.245 117.447 82.3767 117.208 82.4606 116.741C82.5444 116.346 82.5564 115.962 82.5085 115.603C82.4606 115.244 82.3408 114.921 82.1492 114.645C81.9576 114.358 81.7181 114.13 81.4547 113.939C80.856 113.567 80.1974 113.424 79.4789 113.52C78.7605 113.615 78.1138 113.771 77.5271 113.987C76.9403 114.202 76.4374 114.573 75.9943 115.1L74.6053 116.585C74.4616 116.753 74.294 116.837 74.1024 116.872C73.8988 116.896 73.7072 116.825 73.5037 116.669L72.3421 115.711C72.1266 115.531 72.0069 115.352 71.9829 115.148C71.947 114.897 72.0667 114.645 72.3421 114.406C74.0545 113.017 75.7668 111.017 77.4672 108.406C77.5271 108.311 77.563 108.227 77.587 108.155C77.575 108.155 77.5391 108.155 77.5031 108.155C77.4912 108.155 77.1439 108.263 76.4614 108.49C75.671 108.754 74.8568 108.969 74.0305 109.161C73.9707 109.161 73.9347 109.173 73.8988 109.173C73.7431 109.197 73.5995 109.173 73.4558 109.101C73.2642 108.993 73.1444 108.838 73.0846 108.622L72.5696 107.149C72.5696 107.077 72.5577 107.017 72.5457 106.958C72.5218 106.73 72.5697 106.538 72.7133 106.395C72.8331 106.311 72.9888 106.251 73.1923 106.227L73.4917 106.191C74.9645 106 76.5212 105.628 78.1737 105.054C78.7006 104.886 79.0718 104.754 79.2753 104.67C79.4789 104.587 79.6585 104.527 79.8142 104.515C79.9699 104.503 80.1136 104.515 80.2692 104.587L81.778 105.329C81.9816 105.425 82.1133 105.557 82.1971 105.748C82.233 105.82 82.257 105.88 82.269 105.94C82.2929 106.083 82.257 106.227 82.1732 106.371C81.6104 107.748 80.6764 109.305 79.3711 111.041L79.7903 110.969C81.4188 110.753 82.7719 111.017 83.8496 111.747C85.0231 112.514 85.7056 113.663 85.9092 115.22C86.1367 116.968 85.6817 118.453 84.5321 119.662C84.0053 120.201 83.3826 120.632 82.6521 120.992V120.98ZM77.8504 118.07C77.8504 118.07 77.7785 118.202 77.7905 118.297C77.8025 118.393 77.8504 118.477 77.9342 118.537C78.1617 118.693 78.6048 118.764 79.2634 118.752C79.1317 118.525 78.988 118.321 78.8203 118.154C78.6527 117.986 78.4252 117.926 78.1258 117.962C77.9941 117.974 77.9103 118.01 77.8624 118.058L77.8504 118.07Z" fill="#EA4E17"/>
<path d="M108.373 119.591C106.338 119.232 104.613 118.741 103.2 118.13C102.997 118.035 102.877 117.915 102.829 117.759C102.781 117.604 102.817 117.436 102.937 117.256C103.057 117.077 103.093 116.945 103.021 116.849C102.961 116.753 102.817 116.717 102.602 116.753L99.2847 117.184C99.0692 117.208 98.9494 117.28 98.9135 117.4C98.8776 117.508 98.9374 117.639 99.0931 117.795C99.2488 117.939 99.3326 118.106 99.3326 118.274C99.3326 118.454 99.2368 118.609 99.0572 118.741C97.3448 119.939 95.7402 120.825 94.2554 121.387C94.0878 121.471 93.9321 121.471 93.7645 121.411C93.6088 121.352 93.4771 121.256 93.3932 121.136C93.0699 120.633 92.7346 120.226 92.4113 119.939C92.112 119.627 92.1599 119.412 92.567 119.268C92.6628 119.232 92.7706 119.196 92.8783 119.16C93.6806 118.885 94.2913 118.633 94.7104 118.406C95.1296 118.19 95.4289 118.035 95.6085 117.939C95.7881 117.843 95.86 117.783 95.848 117.723C95.836 117.663 95.6923 117.651 95.4409 117.687L94.7104 117.783C94.4949 117.807 94.3153 117.771 94.1716 117.663C94.0279 117.556 93.9441 117.388 93.9081 117.172L92.9382 109.784C92.9143 109.569 92.9502 109.389 93.0699 109.245C93.1777 109.102 93.3453 109.018 93.5609 108.982L99.2727 108.239C99.4284 108.216 99.5122 108.18 99.5122 108.12C99.5122 108.06 99.4643 108 99.3326 107.928L98.9135 107.677C98.8416 107.641 98.7698 107.605 98.7099 107.581C98.65 107.545 98.5902 107.521 98.5183 107.497C98.3028 107.377 98.2669 107.246 98.4345 107.09C98.5902 106.946 98.7458 106.779 98.8776 106.623C99.0093 106.467 99.0212 106.312 98.9255 106.18C98.8177 106.048 98.6381 106 98.3627 106.036L98.0034 106.084C97.7879 106.108 97.6322 106.204 97.5125 106.348C97.4047 106.491 97.3568 106.671 97.3807 106.886L97.4406 107.353C97.4646 107.569 97.4286 107.749 97.3089 107.892C97.2011 108.036 97.0335 108.12 96.8179 108.156L95.369 108.347C95.1535 108.371 94.9739 108.335 94.8302 108.216C94.6865 108.108 94.6027 107.94 94.5667 107.725L94.4829 107.078C94.435 106.719 94.2315 106.563 93.8842 106.611H93.8602C93.501 106.659 93.3094 106.85 93.2615 107.186C93.022 108.299 92.6508 109.257 92.1599 110.024C91.9803 110.311 91.8006 110.467 91.6091 110.491C91.4294 110.515 91.2259 110.467 91.0223 110.347C90.6271 110.084 90.208 109.868 89.765 109.7C89.3818 109.533 89.3219 109.269 89.5734 108.922C90.4116 107.796 90.7708 106.156 90.6631 103.977C90.6391 103.689 90.6032 103.414 90.5553 103.15C90.5074 102.887 90.5433 102.683 90.6511 102.516C90.7589 102.36 90.9624 102.252 91.2618 102.204C91.5612 102.156 91.9324 102.097 92.3634 102.025C92.8065 101.953 93.2496 101.869 93.7046 101.761C94.6865 101.534 95.381 101.33 95.7881 101.151C96.1953 100.971 96.4827 100.899 96.6503 100.935C96.8179 100.971 96.9736 101.067 97.0934 101.222L97.7041 102.037C97.8478 102.24 97.8956 102.42 97.8477 102.588C97.7999 102.767 97.6921 102.875 97.5125 102.947C97.3328 103.019 97.1772 103.067 97.0574 103.102C96.9257 103.138 96.7581 103.198 96.5306 103.27C96.0995 103.414 95.5367 103.569 94.8541 103.713C94.1596 103.869 93.7525 103.965 93.6208 103.989C93.489 104.024 93.4292 104.072 93.4292 104.12V104.228V104.336C93.4292 104.408 93.4771 104.432 93.5489 104.432L98.2669 103.821C98.4824 103.797 98.662 103.833 98.8057 103.941C98.9494 104.048 99.0332 104.216 99.0692 104.432L99.117 104.779C99.1649 105.138 99.2368 105.306 99.3326 105.294C99.5002 105.27 99.5841 104.839 99.5721 104.001C99.5721 103.498 99.5002 102.791 99.3446 101.905C99.2967 101.677 99.3446 101.486 99.4404 101.342C99.5481 101.187 99.7038 101.103 99.8834 101.079C101.895 100.731 103.464 100.372 104.589 100.013C104.745 99.9651 104.889 99.9172 105.02 99.8813C105.152 99.8454 105.284 99.7975 105.428 99.7496C105.787 99.6059 106.074 99.6777 106.278 99.9651L106.924 100.791C107.092 100.995 107.152 101.198 107.104 101.378C107.044 101.558 106.841 101.713 106.505 101.845C106.014 102.037 105.152 102.276 103.943 102.552L102.614 102.839C102.494 102.887 102.434 102.971 102.458 103.102C102.47 103.234 102.554 103.282 102.697 103.27L108.086 102.564C108.301 102.54 108.481 102.576 108.625 102.695C108.768 102.815 108.852 102.971 108.888 103.186L108.984 103.917C109.008 104.132 108.972 104.312 108.864 104.456C108.756 104.599 108.589 104.683 108.373 104.719L107.092 104.887C106.877 104.911 106.721 105.006 106.601 105.15C106.493 105.294 106.445 105.473 106.469 105.689L106.529 106.156C106.553 106.371 106.517 106.551 106.398 106.695C106.29 106.838 106.122 106.922 105.907 106.958L104.458 107.15C104.242 107.174 104.062 107.138 103.919 107.018C103.775 106.91 103.691 106.743 103.655 106.527L103.572 105.904C103.548 105.749 103.476 105.629 103.356 105.533C103.236 105.437 103.093 105.402 102.937 105.425H102.853C102.566 105.473 102.362 105.653 102.23 105.976C102.147 106.288 101.919 106.791 101.572 107.449C101.344 107.796 101.428 107.952 101.823 107.892L105.99 107.353C106.206 107.329 106.386 107.365 106.529 107.485C106.673 107.593 106.757 107.761 106.793 107.976L107.763 115.364C107.787 115.58 107.751 115.759 107.643 115.903C107.535 116.047 107.367 116.131 107.152 116.155L106.96 116.179C106.685 116.214 106.553 116.262 106.553 116.322C106.553 116.382 106.721 116.442 107.044 116.514C107.99 116.753 108.804 116.885 109.487 116.909C109.942 116.969 110.05 117.184 109.81 117.58C109.69 117.771 109.571 117.987 109.463 118.238C109.319 118.49 109.212 118.741 109.128 118.981C108.984 119.424 108.721 119.615 108.337 119.579L108.373 119.591ZM96.5904 111.101L103.667 110.179C103.871 110.155 103.955 110.036 103.931 109.844C103.907 109.64 103.787 109.557 103.595 109.581L96.5186 110.503C96.315 110.527 96.2312 110.646 96.2551 110.838C96.2791 111.042 96.3988 111.125 96.5904 111.101ZM96.8898 113.221L103.919 112.299C104.134 112.275 104.23 112.155 104.194 111.94C104.17 111.724 104.051 111.628 103.835 111.664L96.806 112.586C96.5904 112.61 96.4946 112.742 96.5306 112.945C96.5545 113.161 96.6743 113.257 96.8898 113.221ZM97.1532 115.316L104.206 114.394C104.41 114.37 104.494 114.251 104.47 114.047C104.446 113.844 104.326 113.748 104.134 113.772L97.0814 114.694C96.8658 114.718 96.7701 114.837 96.806 115.041C96.8299 115.245 96.9497 115.34 97.1652 115.304L97.1532 115.316Z" fill="#EA4E17"/>
<path d="M114.54 117.735L112.241 100.145C112.217 99.929 112.253 99.7494 112.361 99.6057C112.469 99.462 112.636 99.3782 112.852 99.3423L120.252 98.3723C120.467 98.3484 120.647 98.3843 120.791 98.4921C120.935 98.5999 121.018 98.7675 121.054 98.983L121.857 105.09C121.88 105.306 121.845 105.485 121.737 105.629C121.629 105.773 121.461 105.856 121.246 105.892L116.887 106.455C116.672 106.479 116.504 106.575 116.396 106.719C116.288 106.862 116.241 107.042 116.276 107.257L117.594 117.328C117.618 117.543 117.582 117.723 117.474 117.867C117.366 118.01 117.198 118.094 116.983 118.13L115.354 118.346C115.139 118.37 114.959 118.334 114.816 118.214C114.672 118.106 114.588 117.939 114.552 117.723L114.54 117.735ZM116.025 101.941L117.989 101.689C118.276 101.653 118.396 101.486 118.36 101.198C118.324 100.911 118.156 100.779 117.881 100.815L115.917 101.067C115.618 101.103 115.486 101.27 115.522 101.558C115.558 101.845 115.726 101.977 116.025 101.941ZM116.348 104.443L118.312 104.192C118.599 104.156 118.719 103.988 118.683 103.701C118.647 103.414 118.48 103.282 118.204 103.318L116.241 103.569C115.941 103.605 115.809 103.773 115.845 104.06C115.881 104.348 116.049 104.479 116.348 104.443ZM119.078 113.58L118.408 108.431C118.384 108.215 118.42 108.036 118.528 107.892C118.635 107.748 118.803 107.665 119.019 107.629L126.036 106.719C126.251 106.695 126.431 106.731 126.574 106.838C126.718 106.946 126.802 107.114 126.838 107.329L127.508 112.478C127.532 112.694 127.497 112.873 127.377 113.017C127.257 113.161 127.101 113.245 126.886 113.281L119.869 114.191C119.653 114.215 119.474 114.179 119.33 114.071C119.186 113.963 119.102 113.795 119.066 113.58H119.078ZM122.551 111.52L123.617 111.377C123.832 111.353 123.988 111.257 124.108 111.113C124.216 110.969 124.263 110.79 124.227 110.574L124.156 110.024C124.132 109.808 124.036 109.652 123.892 109.533C123.748 109.425 123.569 109.377 123.353 109.401L122.288 109.545C122.072 109.568 121.916 109.664 121.797 109.808C121.689 109.952 121.641 110.131 121.677 110.347L121.749 110.898C121.773 111.113 121.869 111.269 122.012 111.389C122.156 111.496 122.336 111.544 122.551 111.508V111.52ZM128.718 116.083C128.622 115.747 128.514 115.412 128.407 115.065C128.311 114.717 128.179 114.406 128.035 114.119C127.892 113.831 127.952 113.664 128.239 113.628L129.113 113.508C129.353 113.472 129.544 113.412 129.676 113.316C129.808 113.221 129.855 113.041 129.82 112.766L128.886 105.629C128.862 105.413 128.766 105.258 128.622 105.138C128.478 105.03 128.299 104.982 128.083 105.006L123.701 105.581C123.485 105.605 123.305 105.569 123.162 105.461C123.018 105.353 122.934 105.186 122.898 104.97L122.096 98.8633C122.072 98.6478 122.108 98.4681 122.216 98.3244C122.324 98.1808 122.491 98.0969 122.707 98.061L130.167 97.0911C130.382 97.0671 130.562 97.1031 130.706 97.2108C130.849 97.3186 130.933 97.4862 130.969 97.7018L133.041 113.604C133.208 114.897 132.753 115.735 131.676 116.107C131.34 116.226 130.957 116.31 130.538 116.358L129.317 116.514C128.993 116.562 128.778 116.406 128.694 116.071L128.718 116.083ZM125.784 100.671L127.772 100.408C128.059 100.372 128.179 100.204 128.143 99.9171C128.107 99.6297 127.94 99.4979 127.652 99.5339L125.664 99.7973C125.365 99.8332 125.233 100.001 125.269 100.288C125.305 100.576 125.473 100.707 125.772 100.671H125.784ZM126.119 103.162L128.107 102.899C128.395 102.863 128.514 102.695 128.478 102.408C128.442 102.12 128.275 101.989 127.987 102.025L126 102.288C125.7 102.324 125.569 102.492 125.605 102.779C125.64 103.066 125.808 103.198 126.107 103.162H126.119Z" fill="#EA4E17"/>
</svg>
