<svg width="397" height="23" viewBox="0 0 397 23" fill="none" xmlns="http://www.w3.org/2000/svg">
<path d="M13.775 20.7297L9.9 19.9547C10.875 16.5047 11.8 12.0547 11.225 2.85469C13.85 2.72969 16.525 2.67969 19.2 2.67969C20.175 2.67969 21.05 2.67969 21.975 2.70469C21.95 4.50469 21.95 6.75469 21.95 9.07969C21.95 13.7297 21.975 18.7297 21.975 21.2547H18.025V15.7047C17.05 15.7297 15.875 15.7547 14.725 15.8047C14.45 17.6547 14.1 19.2297 13.775 20.7297ZM0.8 17.5047C0.65 13.3297 0.6 7.50469 0.55 5.10469C5.225 5.00469 6.825 4.97969 9.675 5.05469L9.5 17.5047H0.8ZM15.275 6.25469V8.07969C16.35 7.97969 17.15 7.92969 18.025 7.90469V6.10469C17.175 6.10469 16.375 6.15469 15.275 6.25469ZM4 8.27969C4.025 8.82969 4.025 9.37969 4.025 9.97969H6.225C6.225 9.30469 6.225 8.72969 6.25 8.22969C5.45 8.22969 4.9 8.25469 4 8.27969ZM15.2 11.1547C15.15 11.6797 15.125 12.2047 15.075 12.7047C16.125 12.6547 17.15 12.6297 18.025 12.6047V11.0297C17.125 11.0547 16.275 11.1047 15.2 11.1547ZM4.075 12.7047C4.1 13.2047 4.1 13.7047 4.1 14.2047H6.125C6.125 13.7047 6.15 13.2047 6.15 12.7047H4.075ZM44.45 11.7047C44.375 11.3547 44.275 11.0047 44.175 10.6547C40.975 10.9297 38.075 11.0797 33.7 11.1797V7.25469C34.175 7.22969 34.625 7.22969 35.075 7.20469C35.8 5.07969 36.525 3.07969 37.15 1.25469L40.775 2.27969C40.05 3.95469 39.55 5.42969 39.05 7.05469L43.075 6.82969C42.875 6.17969 42.675 5.55469 42.475 4.95469L45.8 3.95469C46.45 6.02969 47.15 8.72969 47.725 10.6797L44.45 11.7047ZM31.475 7.85469C29.825 7.40469 28.5 7.02969 26.85 6.60469L27.9 3.15469C29.575 3.55469 30.95 3.90469 32.55 4.37969L31.475 7.85469ZM30.9 13.3547C28.625 13.0297 27.95 13.0047 25.925 12.8797L26.325 9.25469C28.2 9.42969 29.85 9.60469 31.4 9.85469L30.9 13.3547ZM34.925 21.3297C34.8 16.5547 34.675 14.8297 34.65 12.7047C38.325 12.6047 42.525 12.5797 46 12.6297L45.825 21.3297H34.925ZM28.85 20.9797L26.725 17.8547C28.45 16.7547 30.075 15.7547 31.5 14.8547L33.65 17.9297C31.725 19.2547 30.85 19.8297 28.85 20.9797ZM38.6 17.9547H42.125L42.2 16.0547C40.925 16.0297 39.8 16.0297 38.55 16.0797C38.575 16.6297 38.575 17.2297 38.6 17.9547ZM61.55 9.00469C63 9.00469 63.975 10.0047 64.175 11.1297C64.225 11.3547 64.25 11.5547 64.25 11.7797C64.25 12.9047 63.575 13.9297 62.3 14.1547C62.025 14.2047 61.75 14.2297 61.475 14.2297C60.3 14.2297 59.2 13.7297 58.85 12.6047C58.775 12.3797 58.75 12.1297 58.75 11.8797C58.75 10.6547 59.525 9.40469 60.725 9.10469C61.025 9.02969 61.3 9.00469 61.55 9.00469ZM77.95 20.9797C77.825 17.4047 77.6 9.57969 77.6 5.27969C80.225 5.17969 82.725 5.15469 85 5.12969C85.05 4.15469 85.075 3.05469 85.075 1.82969L88.825 2.02969C88.8 3.10469 88.75 4.12969 88.65 5.10469C91.2 5.10469 93.575 5.15469 95.7 5.27969C95.6 10.2047 95.425 14.2297 95.175 20.8797H91.425C91.525 18.1047 91.6 16.0297 91.65 14.2547L89.55 16.4047C88.675 15.7297 87.525 14.5047 86.475 13.1297C85.775 14.4547 84.9 15.6047 83.8 16.6297L81.5 14.6797C81.55 16.9047 81.575 18.9797 81.6 20.9797H77.95ZM81.5 14.2547C83.1 12.6047 84 11.0797 84.525 8.97969C83.425 9.00469 82.375 9.02969 81.4 9.07969C81.425 10.9047 81.45 12.6297 81.5 14.2547ZM91.675 13.8797C91.725 12.1047 91.75 10.6297 91.775 9.02969C90.675 9.00469 89.375 8.97969 88.025 8.97969C87.975 9.22969 87.9 9.45469 87.825 9.70469C88.825 11.4047 90.2 12.7297 91.675 13.8797ZM103.725 19.5047C103.475 15.1547 103.2 10.2547 103 4.85469H103.35C111.825 4.77969 115.45 4.72969 120.35 4.72969C120.275 6.95469 120.025 13.2547 119.725 19.3797C115.375 19.3797 110.75 19.3797 107.7 19.5047H103.725ZM113.575 10.4797C114.4 10.5047 115.225 10.5047 116.1 10.5047C116.15 9.62969 116.175 8.85469 116.225 8.22969C115.525 8.20469 114.6 8.20469 113.575 8.22969C113.575 8.87969 113.575 9.65469 113.575 10.4797ZM107.15 8.30469C107.175 9.05469 107.2 9.80469 107.225 10.5297C108.05 10.5047 108.875 10.5047 109.675 10.5047C109.675 9.65469 109.675 8.87969 109.675 8.25469C108.8 8.27969 107.95 8.27969 107.15 8.30469ZM107.475 15.7547C108.225 15.7547 109 15.7547 109.725 15.7547C109.725 15.2297 109.7 14.4047 109.7 13.5047C108.925 13.5047 108.15 13.5047 107.35 13.5297C107.375 14.2797 107.425 15.0297 107.475 15.7547ZM113.575 13.5297C113.6 14.3047 113.6 15.0547 113.625 15.7547C114.425 15.7297 115.175 15.7297 115.875 15.7297C115.9 14.9797 115.925 14.2547 115.95 13.5797C115.125 13.5547 114.35 13.5297 113.575 13.5297ZM137.05 10.9547L135.025 8.87969C135.675 8.50469 136.45 7.85469 137.025 7.25469C136.675 7.25469 136.35 7.27969 136.125 7.27969L136.05 4.70469C136.725 4.67969 137.7 4.67969 138.8 4.65469C138.875 4.40469 138.95 4.15469 139.025 3.85469C138.525 3.95469 138.075 4.00469 137.7 4.07969L137.275 1.37969C139.3 1.07969 141.775 0.679686 143.575 0.204686L144.15 2.85469C143.625 3.00469 142.9 3.17969 142.125 3.32969C142.05 3.77969 141.95 4.20469 141.85 4.57969C143.7 4.52969 145.525 4.45469 146.7 4.40469L146.675 7.00469L145.65 7.02969C146.25 7.52969 146.925 7.97969 147.825 8.45469L146.25 10.8297C145.5 10.3797 144.8 9.82969 144.15 9.22969C144.125 10.1047 144.1 11.1547 144.075 12.0297H138.55C138.5 11.0047 138.475 10.3297 138.45 9.75469C138.025 10.1297 137.575 10.5297 137.05 10.9547ZM127.175 16.2297L125.175 14.0797C126.7 12.4797 127.75 11.2297 128.9 9.50469C128 9.52969 127.15 9.57969 126.475 9.65469L126.425 6.02969C127.075 5.97969 127.975 5.92969 129 5.87969C129 4.70469 129 3.62969 129.025 2.72969L132.35 2.80469C132.325 3.75469 132.325 4.77969 132.325 5.82969C133.125 5.80469 133.85 5.80469 134.325 5.80469V9.40469C133.725 9.40469 133.025 9.40469 132.3 9.40469C132.3 10.0047 132.3 10.5797 132.3 11.1547L133.15 10.1547C134.275 11.2297 134.55 11.4547 135.75 12.2297L134.1 14.7047C133.275 14.0797 132.825 13.7297 132.3 13.2297C132.325 16.1047 132.35 18.8547 132.375 21.0047L129.05 20.9797C129.025 19.3297 129 16.7547 129 13.9797C128.425 14.7047 127.875 15.4297 127.175 16.2297ZM140.6 7.15469C140.375 7.57969 140.1 7.97969 139.8 8.35469C141.1 8.32969 142.15 8.30469 143.3 8.32969C142.975 7.92969 142.675 7.52969 142.4 7.10469L140.6 7.15469ZM140.7 9.85469C140.7 10.0547 140.725 10.3047 140.725 10.5547C141.2 10.5297 141.6 10.5297 141.95 10.5297C141.975 10.3047 141.975 10.0547 141.975 9.82969C141.525 9.82969 141.125 9.82969 140.7 9.85469ZM135.825 21.5547C135.725 18.6797 135.6 15.8047 135.55 12.7547C139.325 12.6797 143.5 12.6297 147.475 12.7047C147.45 15.1047 147.3 19.0047 147.275 21.6047H144.1C144.2 18.9797 144.25 17.0297 144.275 15.6547C142.475 15.6047 140.5 15.6297 138.725 15.7047C138.775 17.4547 138.825 19.4797 138.875 21.5547H135.825ZM139.5 20.8297C139.425 18.5047 139.375 17.6297 139.35 16.7047C142.075 16.6547 142.625 16.6547 143.6 16.6547C143.575 17.6797 143.5 20.2797 143.475 20.8297H139.5ZM141.05 18.3797C141.075 18.6047 141.075 18.8797 141.075 19.1547C141.375 19.1547 141.675 19.1547 141.95 19.1547C141.95 18.8797 141.975 18.6047 141.975 18.3547C141.6 18.3547 141.325 18.3547 141.05 18.3797ZM160.8 18.9047L157.875 17.6047C159.275 14.7047 159.925 10.9297 159.925 4.92969V2.22969C163.225 2.15469 167.875 2.05469 170.875 2.05469H172.35C172.275 4.57969 172.125 7.07969 172.025 9.65469H170.5C168.925 9.65469 165.45 9.75469 162.975 9.85469C162.625 13.4797 162.025 16.4797 160.8 18.9047ZM151.125 17.3297L150.55 13.7797C151.225 13.6547 151.925 13.5047 152.625 13.3797C152.625 12.5047 152.625 11.5047 152.6 10.5047C151.875 10.5047 151.275 10.5297 150.85 10.5297L150.8 7.02969C151.425 7.00469 152.025 7.00469 152.6 6.97969C152.6 6.25469 152.625 5.60469 152.625 5.05469L156.2 5.12969V6.90469C156.775 6.90469 157.375 6.87969 158.025 6.87969L158.125 10.3797C157.5 10.4047 156.85 10.4047 156.2 10.4297V12.6297C156.7 12.5047 157.225 12.3797 157.725 12.2297L158.45 15.5547C155.925 16.3047 153.7 16.8797 151.125 17.3297ZM163.175 6.80469C164.925 6.75469 167.125 6.70469 168.825 6.67969L168.9 5.37969L163.225 5.45469C163.225 5.92969 163.2 6.37969 163.175 6.80469ZM162.525 21.8297C162.475 19.5797 162.525 18.4547 162.55 16.8047H165.2V18.5297H166.175V15.8547L163.4 15.9047H162.9C162.9 14.6547 162.9 13.0797 162.925 11.3297H165.325V13.3797C165.6 13.3547 165.9 13.3547 166.175 13.3547V10.3547L169 10.3047C168.975 11.4047 168.975 12.3797 168.975 13.3047C169.225 13.3047 169.475 13.2797 169.75 13.2797C169.75 12.6047 169.775 12.0547 169.775 11.3297H172.175C172.175 13.3297 172.175 13.4547 172.15 15.7547H170.6C170.075 15.7797 169.525 15.7797 168.975 15.8047C168.975 16.6297 168.975 17.5047 169 18.4797C169.25 18.4797 169.5 18.4797 169.75 18.4547C169.775 17.9047 169.775 17.3797 169.775 16.8047H172.425C172.425 18.9047 172.425 19.3797 172.4 21.6797C170.1 21.7297 164.575 21.8047 162.525 21.8297ZM190.775 20.9047C190.85 15.8547 190.8 8.25469 190.725 2.60469L195.175 2.57969C195.1 8.07969 195.15 15.8297 195.225 20.9047H190.775ZM180.725 20.0547L176.475 19.1797C177.65 15.0047 178 11.3297 177.775 3.47969L182.075 3.45469C182.3 10.7797 181.675 15.5797 180.725 20.0547ZM184.45 17.0547C184.425 13.8547 184.425 8.07969 184.45 4.75469H188.375C188.3 8.17969 188.3 13.6047 188.375 17.0047L184.45 17.0547ZM218.275 18.8547L214.95 16.6547C217.375 13.8797 217.1 10.5797 214.35 9.17969C213.025 15.0047 209.675 18.7047 206.275 18.1047C203.75 17.6547 202.225 15.8047 202.225 13.1797C202.225 8.62969 206.35 4.60469 211.675 4.60469C216.775 4.60469 220.825 7.75469 220.825 12.7297C220.825 15.0297 219.9 17.2297 218.275 18.8547ZM206.975 14.3547C207.875 14.5297 209.575 11.7297 210.425 8.65469C207.575 9.00469 206 11.2547 205.95 12.8297C205.95 13.4047 206.1 14.2047 206.975 14.3547ZM241.2 11.2797L237.6 10.4547C237.775 9.82969 237.975 9.12969 238.1 8.42969C235.9 8.17969 233.325 7.80469 230.7 7.35469L231.15 3.22969C235.975 4.00469 238.95 4.27969 242.625 4.70469C242.175 6.87969 241.625 9.62969 241.2 11.2797ZM237.9 20.2047C234.875 20.2047 231.9 19.7047 229.55 18.7797L230.475 14.5297C233.675 15.9547 237.75 16.2797 242.4 15.4797L242.9 19.7297C241.4 20.0547 239.75 20.2047 237.9 20.2047ZM263.425 20.9047C258.45 20.9047 255.875 18.9547 255.875 15.1797C255.875 13.9547 256.3 12.7297 257.15 11.3547C256.275 9.17969 255.525 5.77969 255.375 3.37969L259.35 2.65469C259.525 4.45469 259.85 6.72969 260.15 8.00469C261.55 6.80469 263.25 5.62969 264.825 4.77969L266.525 8.72969C263.15 10.4547 260.35 13.1797 260.35 14.7297C260.35 16.6297 261.825 17.0297 267 16.4797L266.975 20.6297C265.5 20.8297 264.375 20.9047 263.425 20.9047ZM287.525 20.6297L284.175 18.7797C286.4 14.2297 286.725 11.1297 284.825 10.8047C284.625 10.7797 284.375 10.7297 284.1 10.7047C282.75 14.6797 281.275 19.0047 281.125 19.6047L277.65 18.4047C277.725 17.9797 278.425 15.8047 280.125 10.7047C278.975 10.7547 278.075 10.8547 277.55 10.9297L277.375 6.97969C278.35 6.85469 279.75 6.77969 281.45 6.75469C281.9 5.42969 282.5 3.65469 282.825 2.75469L286.45 4.00469C286.3 4.42969 285.85 5.72969 285.45 6.82969C286.325 6.87969 287.025 6.95469 287.575 7.05469C291.3 7.75469 291.275 14.5547 287.525 20.6297ZM292 12.2797C291.25 9.47969 290.45 7.40469 289.55 5.92969L292.575 4.85469C293.175 5.97969 294.525 9.37969 295 10.9797L292 12.2797ZM293.875 5.47969C293.7 5.00469 293.175 3.35469 293.025 3.05469L294.9 2.45469C295.1 2.72969 295.7 4.25469 295.8 4.75469L293.875 5.47969ZM296.55 4.67969C296.4 4.22969 295.975 2.87969 295.7 2.27969L297.575 1.72969C297.825 2.22969 298.225 3.27969 298.45 4.02969L296.55 4.67969ZM316.95 21.8297L313.75 20.3297C314.625 18.8297 315.1 17.1047 315.175 15.2797C313.225 15.3047 311.85 15.3297 311.025 15.3547L311 11.7297L314.775 11.6547C314.6 10.9797 314.375 10.3297 314.1 9.70469C315.5 8.17969 316.15 7.30469 316.775 6.20469C315.25 6.22969 313.875 6.27969 311.725 6.40469L311.45 2.92969C313 2.85469 314.65 2.82969 316.925 2.82969C318.425 2.82969 320.025 2.85469 321.875 2.90469C321 5.62969 320.2 7.07969 318 9.92969C318.175 10.3297 318.275 10.7047 318.525 11.6297C319.7 11.6297 320.9 11.6047 322.125 11.5797L322.2 15.1547L318.85 15.2297C318.75 17.5547 318.1 19.8547 316.95 21.8297ZM305.95 20.8047L303.075 18.8547C303.625 18.1547 304.1 17.4797 304.55 16.8547C303.725 16.1797 302.85 15.4547 301.65 14.3797C301.825 13.3297 302 12.0047 302.3 9.92969C301.625 9.95469 301.1 9.95469 300.85 9.97969L300.75 6.42969C301.25 6.37969 301.775 6.35469 302.825 6.32969C302.975 5.17969 303.125 4.15469 303.225 3.42969L306.825 3.85469L306.475 6.25469C307.25 6.25469 308.1 6.22969 309.325 6.20469L309.4 9.77969C308.55 9.77969 307.05 9.80469 305.975 9.85469C305.75 11.3547 305.65 12.2047 305.55 12.9797C305.825 13.2297 306.125 13.5047 306.4 13.7297C306.825 12.9047 307.225 12.0547 307.625 11.1297L310.7 12.7047C310.175 13.8797 309.675 14.9047 309.125 15.9547C309.55 16.3047 310.025 16.6547 310.5 17.0297L308.35 19.9547C307.95 19.6547 307.575 19.3547 307.225 19.0547L305.95 20.8047ZM337.475 15.3797C337.125 14.5297 336.725 13.2547 336.375 11.8297C334.45 11.9547 332.525 11.9797 330.6 11.9047L330.65 8.52969C332.375 8.57969 334.025 8.55469 335.65 8.45469C335.55 7.95469 335.45 7.47969 335.375 6.97969C333.85 7.02969 332.375 7.05469 330.9 7.05469L330.925 3.77969C331.975 3.77969 333 3.75469 334.9 3.72969C334.8 2.90469 334.75 2.40469 334.725 1.95469L338.85 1.65469C338.875 2.20469 338.925 2.82969 339 3.52969C339.9 3.42969 340.925 3.30469 342.2 3.15469L342.7 6.35469C341.55 6.50469 340.475 6.62969 339.45 6.72969C339.55 7.17969 339.625 7.65469 339.7 8.12969C340.775 8.00469 341.9 7.85469 343.1 7.67969L343.45 11.0797C342.425 11.2297 341.425 11.3547 340.425 11.4797C340.7 12.7047 341 13.7797 341.3 14.6047L337.475 15.3797ZM337.325 22.0797C332.525 21.5797 329.75 19.3797 328.8 15.3297L332.15 13.6547C332.8 16.3797 335.05 18.1547 338.25 18.4797L337.325 22.0797ZM361.9 21.0797C356.225 21.0797 355.95 12.4797 362.475 12.4797C362.975 12.4797 363.1 12.4797 363.35 12.5047C363.3 11.8547 363.225 11.1047 363.15 10.4047L367.2 10.2047C367.325 11.3797 367.375 12.4547 367.35 13.3797C368.6 13.8547 369.875 14.5547 370.575 15.1297L368.35 18.4297C367.95 18.1297 367.375 17.7547 366.875 17.4797C366.825 17.6297 366.775 17.8047 366.725 17.9297C365.9 20.0547 364.325 21.0797 361.9 21.0797ZM362.075 17.7797C362.7 17.7797 363.1 17.2297 363.3 16.1297C362.85 16.0547 362.55 16.0297 362.275 16.0297C361.4 16.0047 360.925 16.3047 360.925 16.8797C360.925 17.3797 361.425 17.7797 362.075 17.7797ZM356.975 13.4797L352.85 12.9297C353.275 11.6547 353.675 10.2047 354.025 8.67969C353.3 8.67969 352.625 8.67969 352.05 8.67969L352.175 4.82969C353.025 4.82969 353.875 4.80469 354.725 4.80469C354.85 3.95469 354.95 3.02969 355.025 2.07969L359.175 2.30469C359.075 3.12969 358.95 3.90469 358.85 4.67969C359.55 4.65469 360.275 4.62969 361.525 4.55469L361.625 8.40469C360.675 8.45469 359.675 8.50469 358.15 8.57969C357.75 10.5547 357.35 12.2297 356.975 13.4797ZM369.975 9.47969C368.775 9.17969 366.875 8.80469 363.975 8.27969L364.6 4.80469C366.175 5.05469 367.65 5.35469 370.6 6.00469L369.975 9.47969ZM380.675 21.2547L377.85 18.6297C382.2 13.9547 384.125 11.9547 384 2.90469L388.025 2.87969C388.025 5.75469 387.85 8.07969 387.425 10.1047C389.9 14.0047 392.075 15.8047 396.2 17.6047L394.1 21.1797C391 19.7297 388.375 17.9797 385.975 14.4797C384.825 16.8047 383.1 18.8547 380.675 21.2547Z" fill="#EA4E17"/>
</svg>
