<svg width="269" height="22" viewBox="0 0 269 22" fill="none" xmlns="http://www.w3.org/2000/svg">
<path d="M3.175 20.2547L0.35 17.6297C4.7 12.9547 6.625 10.9547 6.5 1.90469L10.525 1.87969C10.525 4.75469 10.35 7.07969 9.925 9.10469C12.4 13.0047 14.575 14.8047 18.7 16.6047L16.6 20.1797C13.5 18.7297 10.875 16.9797 8.475 13.4797C7.325 15.8047 5.6 17.8547 3.175 20.2547ZM35.925 19.9047C30.95 19.9047 28.375 17.9547 28.375 14.1797C28.375 12.9547 28.8 11.7297 29.65 10.3547C28.775 8.17969 28.025 4.77969 27.875 2.37969L31.85 1.65469C32.025 3.45469 32.35 5.72969 32.65 7.00469C34.05 5.80469 35.75 4.62969 37.325 3.77969L39.025 7.72969C35.65 9.45469 32.85 12.1797 32.85 13.7297C32.85 15.6297 34.325 16.0297 39.5 15.4797L39.475 19.6297C38 19.8297 36.875 19.9047 35.925 19.9047ZM59.75 9.42969V0.279686H63.15C65.7 0.304687 67.05 0.329687 68.875 0.404687C68.9 2.87969 68.925 10.4797 68.925 15.9047C68.925 17.9297 68.925 19.7297 68.925 20.9047L65.425 20.9297C65.45 17.7797 65.45 13.7047 65.425 9.42969C64.15 9.42969 62.75 9.45469 60 9.42969H59.75ZM49.125 20.9297L49.05 0.379686L52.55 0.354686C54.7 0.304687 56.25 0.354686 58.2 0.354686C58.175 2.05469 58.125 5.02969 58.1 9.42969H57.9C56.525 9.42969 55.25 9.45469 52.5 9.42969C52.5 13.0297 52.55 16.9547 52.625 20.8797L49.125 20.9297ZM63.15 4.02969H65.4C65.4 3.70469 65.375 3.35469 65.375 3.02969H63.15V4.02969ZM52.525 4.02969H54.8C54.8 3.72969 54.8 3.42969 54.8 3.12969C54.05 3.12969 53.275 3.15469 52.525 3.15469C52.525 3.45469 52.525 3.72969 52.525 4.02969ZM63.15 6.75469H65.425C65.425 6.40469 65.4 6.07969 65.4 5.72969H63.15V6.75469ZM52.525 5.72969C52.5 5.95469 52.5 6.10469 52.5 6.75469C53.4 6.75469 54.125 6.75469 54.75 6.75469C54.75 6.10469 54.75 5.92969 54.775 5.72969H52.525ZM54.175 17.1297L54.025 14.9547C54.9 14.9047 56.15 14.8547 57.25 14.8297C57.3 14.4047 57.3 14.2047 57.325 13.9797C56.2 13.9797 55.175 14.0297 54.525 14.0547L54.45 11.9047C54.825 11.8797 55.275 11.8797 55.775 11.8547C55.65 11.5547 55.5 11.2297 55.25 10.5547L57.825 10.1547C58.125 11.0297 58.275 11.4047 58.475 11.8047C58.95 11.8047 59.05 11.8047 59.225 11.7797C59.45 11.1797 59.7 10.5547 59.825 10.0547L62.425 10.4047C62.25 11.0047 62.1 11.4297 61.975 11.7797C62.4 11.7797 62.775 11.7797 63.075 11.7797V13.9297C62.45 13.9297 61.425 13.9297 60.3 13.9297C60.275 14.3547 60.25 14.5547 60.2 14.7547C61.425 14.7047 62.85 14.6797 63.8 14.6797L63.825 16.8547C63.25 16.8547 62.225 16.8797 61.05 16.9047C61.8 17.5297 62.65 18.0547 63.55 18.5047L61.675 20.1797C60.875 19.7297 59.875 18.9297 58.925 18.0297C58.35 18.8047 57.575 19.5547 56.5 20.3797L54.45 18.8547C55.425 18.1047 55.975 17.5797 56.375 17.0297C55.45 17.0547 54.675 17.1047 54.175 17.1297ZM79.875 19.1797C79.725 17.4547 79.625 15.6547 79.575 13.9047C78.825 14.6797 78.025 15.6297 77.375 16.3797L74.375 13.7797C76.075 11.9797 78.2 9.92969 79.475 8.92969C79.475 8.65469 79.475 8.35469 79.475 8.05469C77.8 8.50469 75.975 8.77969 74.7 9.00469L74.225 5.30469C75.5 5.17969 77.625 4.87969 79.475 4.52969C79.5 3.55469 79.525 2.60469 79.55 1.62969L83.675 1.65469C83.625 2.50469 83.625 3.25469 83.625 6.70469C88.95 4.95469 93.45 7.50469 93.45 12.3047C93.45 14.3797 92.6 16.6797 90.975 18.9547L87.35 16.7047C91.05 12.3297 88.75 8.60469 83.675 10.9047C83.725 14.1797 83.875 17.4047 84.05 19.0547L79.875 19.1797ZM109.075 20.4797C106.25 20.4797 104.125 18.9547 104.125 16.9547C104.125 12.9297 109.775 11.7797 111.725 15.1297C111.8 14.9047 111.825 14.6047 111.825 14.2297C111.825 11.8297 109.075 11.0047 104.45 12.0297L103.9 10.6297C105.25 8.77969 106.025 7.62969 107.2 5.82969C106 5.80469 104.475 5.80469 103.1 5.82969L103.05 2.05469C103.7 2.05469 104.35 2.05469 104.975 2.05469C107.275 2.05469 109.625 2.07969 113.475 2.17969C111.8 5.07969 110.95 6.45469 109.725 8.45469C113.125 8.25469 115.7 10.6547 115.7 14.0297C115.7 17.9297 113.075 20.4797 109.075 20.4797ZM108.55 17.6297C109.2 17.6797 109.875 17.6047 110.3 17.3547C110.225 15.2547 107.45 15.3547 107.35 16.4547C107.325 17.2047 107.85 17.5797 108.55 17.6297ZM140.775 17.8547L137.45 15.6547C139.875 12.8797 139.6 9.57969 136.85 8.17969C135.525 14.0047 132.175 17.7047 128.775 17.1047C126.25 16.6547 124.725 14.8047 124.725 12.1797C124.725 7.62969 128.85 3.60469 134.175 3.60469C139.275 3.60469 143.325 6.75469 143.325 11.7297C143.325 14.0297 142.4 16.2297 140.775 17.8547ZM129.475 13.3547C130.375 13.5297 132.075 10.7297 132.925 7.65469C130.075 8.00469 128.5 10.2547 128.45 11.8297C128.45 12.4047 128.6 13.2047 129.475 13.3547ZM160.025 19.6297L156.675 17.7797C158.9 13.2297 159.225 10.1297 157.325 9.80469C157.125 9.77969 156.875 9.72969 156.6 9.70469C155.25 13.6797 153.775 18.0047 153.625 18.6047L150.15 17.4047C150.225 16.9797 150.925 14.8047 152.625 9.70469C151.475 9.75469 150.575 9.85469 150.05 9.92969L149.875 5.97969C150.85 5.85469 152.25 5.77969 153.95 5.75469C154.4 4.42969 155 2.65469 155.325 1.75469L158.95 3.00469C158.8 3.42969 158.35 4.72969 157.95 5.82969C158.825 5.87969 159.525 5.95469 160.075 6.05469C163.8 6.75469 163.775 13.5547 160.025 19.6297ZM164.5 11.2797C163.75 8.47969 162.95 6.40469 162.05 4.92969L165.075 3.85469C165.675 4.97969 167.025 8.37969 167.5 9.97969L164.5 11.2797ZM166.375 4.47969C166.2 4.00469 165.675 2.35469 165.525 2.05469L167.4 1.45469C167.6 1.72969 168.2 3.25469 168.3 3.75469L166.375 4.47969ZM169.05 3.67969C168.9 3.22969 168.475 1.87969 168.2 1.27969L170.075 0.729686C170.325 1.22969 170.725 2.27969 170.95 3.02969L169.05 3.67969ZM189.45 20.8297L186.25 19.3297C187.125 17.8297 187.6 16.1047 187.675 14.2797C185.725 14.3047 184.35 14.3297 183.525 14.3547L183.5 10.7297L187.275 10.6547C187.1 9.97969 186.875 9.32969 186.6 8.70469C188 7.17969 188.65 6.30469 189.275 5.20469C187.75 5.22969 186.375 5.27969 184.225 5.40469L183.95 1.92969C185.5 1.85469 187.15 1.82969 189.425 1.82969C190.925 1.82969 192.525 1.85469 194.375 1.90469C193.5 4.62969 192.7 6.07969 190.5 8.92969C190.675 9.32969 190.775 9.70469 191.025 10.6297C192.2 10.6297 193.4 10.6047 194.625 10.5797L194.7 14.1547L191.35 14.2297C191.25 16.5547 190.6 18.8547 189.45 20.8297ZM178.45 19.8047L175.575 17.8547C176.125 17.1547 176.6 16.4797 177.05 15.8547C176.225 15.1797 175.35 14.4547 174.15 13.3797C174.325 12.3297 174.5 11.0047 174.8 8.92969C174.125 8.95469 173.6 8.95469 173.35 8.97969L173.25 5.42969C173.75 5.37969 174.275 5.35469 175.325 5.32969C175.475 4.17969 175.625 3.15469 175.725 2.42969L179.325 2.85469L178.975 5.25469C179.75 5.25469 180.6 5.22969 181.825 5.20469L181.9 8.77969C181.05 8.77969 179.55 8.80469 178.475 8.85469C178.25 10.3547 178.15 11.2047 178.05 11.9797C178.325 12.2297 178.625 12.5047 178.9 12.7297C179.325 11.9047 179.725 11.0547 180.125 10.1297L183.2 11.7047C182.675 12.8797 182.175 13.9047 181.625 14.9547C182.05 15.3047 182.525 15.6547 183 16.0297L180.85 18.9547C180.45 18.6547 180.075 18.3547 179.725 18.0547L178.45 19.8047ZM209.975 14.3797C209.625 13.5297 209.225 12.2547 208.875 10.8297C206.95 10.9547 205.025 10.9797 203.1 10.9047L203.15 7.52969C204.875 7.57969 206.525 7.55469 208.15 7.45469C208.05 6.95469 207.95 6.47969 207.875 5.97969C206.35 6.02969 204.875 6.05469 203.4 6.05469L203.425 2.77969C204.475 2.77969 205.5 2.75469 207.4 2.72969C207.3 1.90469 207.25 1.40469 207.225 0.954686L211.35 0.654687C211.375 1.20469 211.425 1.82969 211.5 2.52969C212.4 2.42969 213.425 2.30469 214.7 2.15469L215.2 5.35469C214.05 5.50469 212.975 5.62969 211.95 5.72969C212.05 6.17969 212.125 6.65469 212.2 7.12969C213.275 7.00469 214.4 6.85469 215.6 6.67969L215.95 10.0797C214.925 10.2297 213.925 10.3547 212.925 10.4797C213.2 11.7047 213.5 12.7797 213.8 13.6047L209.975 14.3797ZM209.825 21.0797C205.025 20.5797 202.25 18.3797 201.3 14.3297L204.65 12.6547C205.3 15.3797 207.55 17.1547 210.75 17.4797L209.825 21.0797ZM234.4 20.0797C228.725 20.0797 228.45 11.4797 234.975 11.4797C235.475 11.4797 235.6 11.4797 235.85 11.5047C235.8 10.8547 235.725 10.1047 235.65 9.40469L239.7 9.20469C239.825 10.3797 239.875 11.4547 239.85 12.3797C241.1 12.8547 242.375 13.5547 243.075 14.1297L240.85 17.4297C240.45 17.1297 239.875 16.7547 239.375 16.4797C239.325 16.6297 239.275 16.8047 239.225 16.9297C238.4 19.0547 236.825 20.0797 234.4 20.0797ZM234.575 16.7797C235.2 16.7797 235.6 16.2297 235.8 15.1297C235.35 15.0547 235.05 15.0297 234.775 15.0297C233.9 15.0047 233.425 15.3047 233.425 15.8797C233.425 16.3797 233.925 16.7797 234.575 16.7797ZM229.475 12.4797L225.35 11.9297C225.775 10.6547 226.175 9.20469 226.525 7.67969C225.8 7.67969 225.125 7.67969 224.55 7.67969L224.675 3.82969C225.525 3.82969 226.375 3.80469 227.225 3.80469C227.35 2.95469 227.45 2.02969 227.525 1.07969L231.675 1.30469C231.575 2.12969 231.45 2.90469 231.35 3.67969C232.05 3.65469 232.775 3.62969 234.025 3.55469L234.125 7.40469C233.175 7.45469 232.175 7.50469 230.65 7.57969C230.25 9.55469 229.85 11.2297 229.475 12.4797ZM242.475 8.47969C241.275 8.17969 239.375 7.80469 236.475 7.27969L237.1 3.80469C238.675 4.05469 240.15 4.35469 243.1 5.00469L242.475 8.47969ZM253.175 20.2547L250.35 17.6297C254.7 12.9547 256.625 10.9547 256.5 1.90469L260.525 1.87969C260.525 4.75469 260.35 7.07969 259.925 9.10469C262.4 13.0047 264.575 14.8047 268.7 16.6047L266.6 20.1797C263.5 18.7297 260.875 16.9797 258.475 13.4797C257.325 15.8047 255.6 17.8547 253.175 20.2547Z" fill="#EA4E17"/>
</svg>
