<svg width="246" height="23" viewBox="0 0 246 23" fill="none" xmlns="http://www.w3.org/2000/svg">
<path d="M3.8 21.8047L1.925 19.1797C3.4 18.2797 4.675 17.5547 5.9 16.8047C4.725 16.8547 3.75 16.8797 3.075 16.9047L3.025 13.7297C4.2 13.6797 6.425 13.6297 8.675 13.6047V12.6547H6.5C6.4 8.90469 6.3 4.80469 6.25 2.40469C7.15 2.37969 8.475 2.32969 9.05 2.32969L9.7 0.479686L12.6 1.00469C12.4 1.47969 12.25 1.90469 12.1 2.30469C13 2.30469 13.9 2.32969 14.95 2.35469C14.925 4.37969 14.775 10.3047 14.775 12.6547H12.5V13.5547C14.175 13.5297 16.375 13.5297 18.4 13.5297V16.6797C16.825 16.6797 16.15 16.6797 15.5 16.7047C16.775 17.3047 18.025 17.8547 19.575 18.4797L18.125 21.2047C16.325 20.3297 14.65 19.5297 12.5 18.2547C12.55 20.1297 12.575 20.8797 12.6 21.6297H8.775C8.725 19.8297 8.725 19.1297 8.725 18.4297C7.15 19.5047 5.4 20.6797 3.8 21.8047ZM16.875 6.82969L15.35 3.72969C16.725 3.00469 17.725 2.55469 19.35 1.80469L20.775 4.72969C19.6 5.35469 18.45 5.87969 16.875 6.82969ZM4.45 6.77969C2.475 5.90469 1.9 5.77969 0.55 5.17969L1.75 2.12969C3.325 2.70469 4.25 3.02969 5.7 3.60469L4.45 6.77969ZM9.6 6.32969C10.275 6.32969 10.95 6.30469 11.625 6.30469C11.65 5.90469 11.65 5.55469 11.675 5.25469C10.925 5.22969 10.275 5.22969 9.575 5.25469C9.575 5.57969 9.6 5.95469 9.6 6.32969ZM20.15 12.9797C17.575 12.2547 17.25 12.1297 15.175 11.1297L16.45 7.90469C18.675 8.85469 19.2 9.05469 21.175 9.65469L20.15 12.9797ZM1.5 13.2047L0.15 10.1547C2 9.22969 2.8 8.87969 5 8.05469L6.1 11.2797C4.225 11.9547 3.775 12.1047 1.5 13.2047ZM9.65 9.65469H11.525C11.525 9.27969 11.55 8.92969 11.55 8.57969H9.65V9.65469ZM36.35 20.3547C31.975 20.3547 29.575 17.0297 29.575 10.9297C29.575 8.62969 29.9 6.02969 30.55 3.35469L34.925 3.90469C33.125 10.6047 33.725 15.9797 36.475 15.9797C37.825 15.9797 38.875 15.4547 39.85 14.2547L43.1 16.9797C41.225 19.2797 39.075 20.3547 36.35 20.3547ZM53.25 18.8547C51.925 15.8797 51.35 13.2297 51.35 10.1047C51.35 8.65469 51.475 7.07969 51.725 5.22969L55.725 5.80469C55.45 8.50469 55.525 11.4297 55.9 13.5297C56.775 13.3547 57.45 13.1797 58.35 12.9797L59.075 16.4047C57.15 17.2297 55.125 18.0547 53.25 18.8547ZM65.825 14.9297C65.575 13.0047 64.925 10.2297 63.975 7.17969L68 6.25469C68.775 8.00469 69.55 11.6297 69.625 13.8297L65.825 14.9297ZM90.2 11.2797L86.6 10.4547C86.775 9.82969 86.975 9.12969 87.1 8.42969C84.9 8.17969 82.325 7.80469 79.7 7.35469L80.15 3.22969C84.975 4.00469 87.95 4.27969 91.625 4.70469C91.175 6.87969 90.625 9.62969 90.2 11.2797ZM86.9 20.2047C83.875 20.2047 80.9 19.7047 78.55 18.7797L79.475 14.5297C82.675 15.9547 86.75 16.2797 91.4 15.4797L91.9 19.7297C90.4 20.0547 88.75 20.2047 86.9 20.2047ZM112.425 20.9047C107.45 20.9047 104.875 18.9547 104.875 15.1797C104.875 13.9547 105.3 12.7297 106.15 11.3547C105.275 9.17969 104.525 5.77969 104.375 3.37969L108.35 2.65469C108.525 4.45469 108.85 6.72969 109.15 8.00469C110.55 6.80469 112.25 5.62969 113.825 4.77969L115.525 8.72969C112.15 10.4547 109.35 13.1797 109.35 14.7297C109.35 16.6297 110.825 17.0297 116 16.4797L115.975 20.6297C114.5 20.8297 113.375 20.9047 112.425 20.9047ZM136.525 20.6297L133.175 18.7797C135.4 14.2297 135.725 11.1297 133.825 10.8047C133.625 10.7797 133.375 10.7297 133.1 10.7047C131.75 14.6797 130.275 19.0047 130.125 19.6047L126.65 18.4047C126.725 17.9797 127.425 15.8047 129.125 10.7047C127.975 10.7547 127.075 10.8547 126.55 10.9297L126.375 6.97969C127.35 6.85469 128.75 6.77969 130.45 6.75469C130.9 5.42969 131.5 3.65469 131.825 2.75469L135.45 4.00469C135.3 4.42969 134.85 5.72969 134.45 6.82969C135.325 6.87969 136.025 6.95469 136.575 7.05469C140.3 7.75469 140.275 14.5547 136.525 20.6297ZM141 12.2797C140.25 9.47969 139.45 7.40469 138.55 5.92969L141.575 4.85469C142.175 5.97969 143.525 9.37969 144 10.9797L141 12.2797ZM142.875 5.47969C142.7 5.00469 142.175 3.35469 142.025 3.05469L143.9 2.45469C144.1 2.72969 144.7 4.25469 144.8 4.75469L142.875 5.47969ZM145.55 4.67969C145.4 4.22969 144.975 2.87969 144.7 2.27969L146.575 1.72969C146.825 2.22969 147.225 3.27969 147.45 4.02969L145.55 4.67969ZM165.95 21.8297L162.75 20.3297C163.625 18.8297 164.1 17.1047 164.175 15.2797C162.225 15.3047 160.85 15.3297 160.025 15.3547L160 11.7297L163.775 11.6547C163.6 10.9797 163.375 10.3297 163.1 9.70469C164.5 8.17969 165.15 7.30469 165.775 6.20469C164.25 6.22969 162.875 6.27969 160.725 6.40469L160.45 2.92969C162 2.85469 163.65 2.82969 165.925 2.82969C167.425 2.82969 169.025 2.85469 170.875 2.90469C170 5.62969 169.2 7.07969 167 9.92969C167.175 10.3297 167.275 10.7047 167.525 11.6297C168.7 11.6297 169.9 11.6047 171.125 11.5797L171.2 15.1547L167.85 15.2297C167.75 17.5547 167.1 19.8547 165.95 21.8297ZM154.95 20.8047L152.075 18.8547C152.625 18.1547 153.1 17.4797 153.55 16.8547C152.725 16.1797 151.85 15.4547 150.65 14.3797C150.825 13.3297 151 12.0047 151.3 9.92969C150.625 9.95469 150.1 9.95469 149.85 9.97969L149.75 6.42969C150.25 6.37969 150.775 6.35469 151.825 6.32969C151.975 5.17969 152.125 4.15469 152.225 3.42969L155.825 3.85469L155.475 6.25469C156.25 6.25469 157.1 6.22969 158.325 6.20469L158.4 9.77969C157.55 9.77969 156.05 9.80469 154.975 9.85469C154.75 11.3547 154.65 12.2047 154.55 12.9797C154.825 13.2297 155.125 13.5047 155.4 13.7297C155.825 12.9047 156.225 12.0547 156.625 11.1297L159.7 12.7047C159.175 13.8797 158.675 14.9047 158.125 15.9547C158.55 16.3047 159.025 16.6547 159.5 17.0297L157.35 19.9547C156.95 19.6547 156.575 19.3547 156.225 19.0547L154.95 20.8047ZM186.475 15.3797C186.125 14.5297 185.725 13.2547 185.375 11.8297C183.45 11.9547 181.525 11.9797 179.6 11.9047L179.65 8.52969C181.375 8.57969 183.025 8.55469 184.65 8.45469C184.55 7.95469 184.45 7.47969 184.375 6.97969C182.85 7.02969 181.375 7.05469 179.9 7.05469L179.925 3.77969C180.975 3.77969 182 3.75469 183.9 3.72969C183.8 2.90469 183.75 2.40469 183.725 1.95469L187.85 1.65469C187.875 2.20469 187.925 2.82969 188 3.52969C188.9 3.42969 189.925 3.30469 191.2 3.15469L191.7 6.35469C190.55 6.50469 189.475 6.62969 188.45 6.72969C188.55 7.17969 188.625 7.65469 188.7 8.12969C189.775 8.00469 190.9 7.85469 192.1 7.67969L192.45 11.0797C191.425 11.2297 190.425 11.3547 189.425 11.4797C189.7 12.7047 190 13.7797 190.3 14.6047L186.475 15.3797ZM186.325 22.0797C181.525 21.5797 178.75 19.3797 177.8 15.3297L181.15 13.6547C181.8 16.3797 184.05 18.1547 187.25 18.4797L186.325 22.0797ZM210.9 21.0797C205.225 21.0797 204.95 12.4797 211.475 12.4797C211.975 12.4797 212.1 12.4797 212.35 12.5047C212.3 11.8547 212.225 11.1047 212.15 10.4047L216.2 10.2047C216.325 11.3797 216.375 12.4547 216.35 13.3797C217.6 13.8547 218.875 14.5547 219.575 15.1297L217.35 18.4297C216.95 18.1297 216.375 17.7547 215.875 17.4797C215.825 17.6297 215.775 17.8047 215.725 17.9297C214.9 20.0547 213.325 21.0797 210.9 21.0797ZM211.075 17.7797C211.7 17.7797 212.1 17.2297 212.3 16.1297C211.85 16.0547 211.55 16.0297 211.275 16.0297C210.4 16.0047 209.925 16.3047 209.925 16.8797C209.925 17.3797 210.425 17.7797 211.075 17.7797ZM205.975 13.4797L201.85 12.9297C202.275 11.6547 202.675 10.2047 203.025 8.67969C202.3 8.67969 201.625 8.67969 201.05 8.67969L201.175 4.82969C202.025 4.82969 202.875 4.80469 203.725 4.80469C203.85 3.95469 203.95 3.02969 204.025 2.07969L208.175 2.30469C208.075 3.12969 207.95 3.90469 207.85 4.67969C208.55 4.65469 209.275 4.62969 210.525 4.55469L210.625 8.40469C209.675 8.45469 208.675 8.50469 207.15 8.57969C206.75 10.5547 206.35 12.2297 205.975 13.4797ZM218.975 9.47969C217.775 9.17969 215.875 8.80469 212.975 8.27969L213.6 4.80469C215.175 5.05469 216.65 5.35469 219.6 6.00469L218.975 9.47969ZM229.675 21.2547L226.85 18.6297C231.2 13.9547 233.125 11.9547 233 2.90469L237.025 2.87969C237.025 5.75469 236.85 8.07969 236.425 10.1047C238.9 14.0047 241.075 15.8047 245.2 17.6047L243.1 21.1797C240 19.7297 237.375 17.9797 234.975 14.4797C233.825 16.8047 232.1 18.8547 229.675 21.2547Z" fill="#EA4E17"/>
</svg>
