<svg width="368" height="21" viewBox="0 0 368 21" fill="none" xmlns="http://www.w3.org/2000/svg">
<path d="M0.75 15.0547C0.575 10.8797 0.525 4.52969 0.475 2.12969L3.725 2.05469C4.85 2.02969 6.025 2.00469 7.025 2.00469C8.9 2.00469 10.625 2.05469 12.4 2.07969L12.375 4.77969C15.675 4.62969 19.1 4.52969 21.45 4.50469L21.35 8.60469C20.675 8.60469 19.95 8.60469 19.175 8.60469C19.1 12.9797 19.15 16.4297 19.175 19.7547L15.1 19.7797C15.1 17.8797 15.125 13.0047 15.15 8.72969C13.9 8.80469 13.025 8.82969 12.3 8.87969L12.225 15.0547H0.75ZM7.775 7.22969H9.05C9.075 6.47969 9.075 5.80469 9.1 5.25469C8.65 5.25469 8.2 5.22969 7.775 5.22969C7.775 5.85469 7.775 6.52969 7.775 7.22969ZM3.975 7.22969H5.15C5.15 6.02969 5.15 5.70469 5.125 5.27969C4.725 5.27969 4.35 5.30469 3.95 5.32969C3.975 5.67969 3.975 5.97969 3.975 7.22969ZM7.775 9.82969C7.775 10.6547 7.8 11.4797 7.8 11.7297C8.225 11.7297 8.7 11.7297 8.95 11.7297C8.975 11.1047 8.975 10.4547 9 9.85469C8.75 9.82969 8.55 9.82969 7.775 9.82969ZM4.025 9.85469C4.05 10.2547 4.05 10.5547 4.05 11.7547C4.475 11.7547 4.825 11.7547 5.175 11.7547C5.175 11.0047 5.175 10.4047 5.175 9.82969C4.8 9.85469 4.425 9.85469 4.025 9.85469ZM42.775 17.8547L39.45 15.6547C41.875 12.8797 41.6 9.57969 38.85 8.17969C37.525 14.0047 34.175 17.7047 30.775 17.1047C28.25 16.6547 26.725 14.8047 26.725 12.1797C26.725 7.62969 30.85 3.60469 36.175 3.60469C41.275 3.60469 45.325 6.75469 45.325 11.7297C45.325 14.0297 44.4 16.2297 42.775 17.8547ZM31.475 13.3547C32.375 13.5297 34.075 10.7297 34.925 7.65469C32.075 8.00469 30.5 10.2547 30.45 11.8297C30.45 12.4047 30.6 13.2047 31.475 13.3547ZM65.7 10.2797L62.1 9.45469C62.275 8.82969 62.475 8.12969 62.6 7.42969C60.4 7.17969 57.825 6.80469 55.2 6.35469L55.65 2.22969C60.475 3.00469 63.45 3.27969 67.125 3.70469C66.675 5.87969 66.125 8.62969 65.7 10.2797ZM62.4 19.2047C59.375 19.2047 56.4 18.7047 54.05 17.7797L54.975 13.5297C58.175 14.9547 62.25 15.2797 66.9 14.4797L67.4 18.7297C65.9 19.0547 64.25 19.2047 62.4 19.2047ZM87.925 19.9047C82.95 19.9047 80.375 17.9547 80.375 14.1797C80.375 12.9547 80.8 11.7297 81.65 10.3547C80.775 8.17969 80.025 4.77969 79.875 2.37969L83.85 1.65469C84.025 3.45469 84.35 5.72969 84.65 7.00469C86.05 5.80469 87.75 4.62969 89.325 3.77969L91.025 7.72969C87.65 9.45469 84.85 12.1797 84.85 13.7297C84.85 15.6297 86.325 16.0297 91.5 15.4797L91.475 19.6297C90 19.8297 88.875 19.9047 87.925 19.9047ZM113.575 20.2297C108.925 20.2297 106.2 18.7547 105.95 16.1297C105.8 14.5047 106.725 12.7547 108.625 11.1297C108.15 10.9047 107.625 10.7297 106.975 10.5547C107.15 9.05469 107.275 7.85469 107.4 6.77969C106.45 6.77969 105.425 6.75469 104.25 6.72969L104.425 2.92969C105.55 2.92969 106.675 2.92969 107.8 2.92969C107.875 2.25469 107.95 1.60469 108 1.00469L112.125 1.27969C112.05 1.77969 112 2.30469 111.925 2.85469C112.975 2.82969 114 2.77969 115.025 2.70469L115.125 6.42969C114.05 6.52969 112.775 6.60469 111.425 6.65469C111.325 7.35469 111.25 8.00469 111.175 8.62969C111.475 8.75469 111.7 8.85469 111.925 8.95469C113.125 8.32969 114.25 7.85469 115.4 7.45469L116.35 11.0547C115.95 11.1797 115.55 11.3297 115.125 11.4797C115.65 12.1547 116 12.6297 116.3 13.0797L113.375 15.3297C112.825 14.5297 112.25 13.8297 111.675 13.2547C110.45 14.0297 109.75 14.8297 109.775 15.4297C109.825 16.5547 112.05 16.8297 116.2 16.3547L116.275 20.0797C115.325 20.1797 114.425 20.2297 113.575 20.2297ZM137.45 19.7797C133.375 19.7547 131.2 17.6047 131.025 13.1047C130.075 13.2047 129.275 13.2797 128.8 13.3547L128.75 9.52969C129.375 9.45469 130.175 9.40469 131.075 9.32969C131.1 8.62969 131.125 7.90469 131.175 7.15469C129.9 7.17969 129.125 7.20469 128.85 7.22969V3.47969C129.45 3.45469 130.55 3.42969 131.45 3.42969C131.5 2.80469 131.55 2.15469 131.625 1.52969L135.7 1.70469C135.625 2.27969 135.575 2.85469 135.525 3.40469C137.45 3.40469 138.8 3.42969 139.35 3.47969V7.20469C138.875 7.15469 137.4 7.12969 135.3 7.12969C135.275 7.80469 135.25 8.45469 135.225 9.07969C136.85 8.97969 137.7 8.95469 138.275 8.95469L138.425 12.6797C137.525 12.7047 136.4 12.7547 135.225 12.8047C135.3 15.0297 135.825 15.8297 137.225 15.8297C139.175 15.8297 140.025 14.8297 140.125 12.1047L144.225 12.3547C144.175 16.9797 141.625 19.7797 137.5 19.7797H137.45ZM160.025 19.9297L158.225 16.7547C161.3 15.4547 163.25 14.6547 163.15 13.5797C163 11.8797 160.125 11.6047 154.5 12.7047L153.9 9.10469C156.225 8.55469 158.375 8.27969 160.275 8.27969C164.6 8.27969 167.225 9.85469 167.55 12.6297C167.575 12.8047 167.575 12.9297 167.575 13.1047C167.575 15.8047 164.975 18.1547 160.025 19.9297ZM187.925 19.9047C182.95 19.9047 180.375 17.9547 180.375 14.1797C180.375 12.9547 180.8 11.7297 181.65 10.3547C180.775 8.17969 180.025 4.77969 179.875 2.37969L183.85 1.65469C184.025 3.45469 184.35 5.72969 184.65 7.00469C186.05 5.80469 187.75 4.62969 189.325 3.77969L191.025 7.72969C187.65 9.45469 184.85 12.1797 184.85 13.7297C184.85 15.6297 186.325 16.0297 191.5 15.4797L191.475 19.6297C190 19.8297 188.875 19.9047 187.925 19.9047ZM204.45 20.4047L201.275 18.4797C202.225 17.0047 203.025 15.6797 203.625 14.1047C202.9 14.1297 202.225 14.1547 201.575 14.1797L201.5 10.4547C202.4 10.4047 203.45 10.3797 204.575 10.3297C204.7 9.50469 204.775 8.60469 204.825 7.57969C204.35 7.60469 203.85 7.62969 203.35 7.65469C203.125 8.27969 202.85 8.92969 202.575 9.55469L199.375 8.35469C200.325 6.02969 201.25 3.35469 202.025 0.754687L205.375 1.65469C205.15 2.40469 204.925 3.15469 204.675 3.90469C206.75 3.80469 208.775 3.70469 210.875 3.65469L211 7.37969C210.175 7.40469 209.35 7.42969 208.5 7.45469C208.425 8.47969 208.35 9.37969 208.25 10.2047C209.45 10.1797 210.6 10.1547 211.55 10.1297L211.675 13.8297C210.575 13.8797 209.1 13.9297 207.55 13.9797C206.9 16.2797 205.925 17.9547 204.45 20.4047ZM212.675 16.5047C212.575 12.6797 212.475 9.97969 212.425 6.45469H214.475C217.625 6.37969 219.125 6.40469 222.025 6.40469C222 7.80469 221.875 12.8797 221.85 16.5047H212.675ZM216.025 9.70469C216.05 10.8297 216.1 12.0297 216.125 13.2797C216.95 13.2797 217.625 13.2797 218.425 13.2797C218.5 11.7297 218.55 10.5547 218.575 9.65469C217.675 9.65469 217.05 9.67969 216.025 9.70469ZM210.825 20.2297C209.5 19.2297 208.5 18.4547 207.25 17.2297L209.725 14.6797C210.75 15.8047 211.95 16.7297 213 17.4797L210.825 20.2297ZM238.775 20.4797L235.625 17.9547C238.075 15.3547 239.35 7.50469 238.3 2.70469L242.525 2.45469C242.8 3.55469 242.95 5.02969 242.95 6.67969C242.95 12.3797 241.3 17.8297 238.775 20.4797ZM229.275 13.5047C228.725 11.2297 228.3 6.82969 228.275 3.15469L232.4 3.05469C232.375 4.20469 232.5 7.55469 232.6 8.57969C232.95 8.55469 233.6 8.40469 234.125 8.32969L234.85 11.2797C233.125 11.9797 231.6 12.6547 229.275 13.5047ZM258.05 20.2047C255.625 20.2047 253.95 18.7047 253.95 16.4047C253.95 13.6547 256.1 12.3297 259.675 12.9047C259.725 11.9297 259.725 11.4547 259.725 11.1547C258.2 11.2547 256.75 11.3547 255.15 11.5047L254.85 7.97969C256.35 7.80469 257.95 7.67969 259.625 7.60469C259.6 6.87969 259.575 6.52969 259.525 6.17969C258.15 6.30469 256.9 6.42969 255.725 6.55469L255.325 3.02969C256.475 2.90469 257.7 2.77969 259.1 2.65469C259.05 2.20469 258.95 1.75469 258.825 1.07969L262.825 0.704686C262.95 1.17969 263.05 1.72969 263.125 2.35469C264.375 2.27969 265.575 2.25469 266.525 2.27969L266.375 5.90469C265.525 5.90469 264.55 5.92969 263.525 5.95469C263.55 6.45469 263.575 6.95469 263.6 7.45469C264.825 7.42969 265.925 7.42969 266.8 7.45469L266.725 11.0547C265.8 10.9797 264.75 10.9797 263.65 10.9797C263.625 11.7297 263.6 12.5547 263.525 13.4797C265.1 13.9047 266.675 14.3047 267.775 14.7047L266.65 18.3297C265.5 17.9047 264.425 17.4547 262.9 17.1047C262.45 19.0797 260.675 20.2047 258.05 20.2047ZM257.175 17.0797C257.375 17.3797 257.675 17.5297 258 17.5297C258.625 17.5297 259.275 17.0047 259.325 16.2297C258.875 15.9797 258.4 15.8797 258.025 15.8797C257.225 15.9047 256.725 16.4047 257.175 17.0797ZM289.125 19.3547C281.575 19.3547 279.3 17.0547 279.475 9.55469C278.35 9.55469 277.3 9.57969 276.375 9.57969L276.425 5.37969C277.025 5.40469 277.525 5.40469 279.725 5.40469C279.825 4.27969 279.95 3.07969 280.1 1.80469L284.225 2.30469C284.125 3.40469 284.025 4.40469 283.95 5.32969C285.025 5.30469 286.25 5.27969 288.1 5.20469C288.1 4.10469 288.1 3.05469 288.1 2.00469H292.225C292.225 2.97969 292.225 3.97969 292.225 5.02969C293.6 4.95469 294.775 4.90469 295.6 4.82969L295.475 9.02969C294.85 9.10469 293.925 9.15469 292.2 9.20469C292.175 10.7297 292.15 11.5297 292.125 12.3547H288C288.025 11.2797 288.05 10.2797 288.075 9.35469C286.1 9.42969 284.825 9.45469 283.65 9.47969C283.525 14.6297 284.8 15.5797 291.375 15.2047L291.325 19.3047C290.75 19.3297 290.2 19.3547 289.125 19.3547ZM306.2 19.8047L302.2 18.0797C303.75 14.8547 306.125 6.82969 306.975 2.02969L311.3 2.62969C310.9 4.97969 310.025 8.72969 309.1 11.8547C310.55 10.9797 311.35 10.5047 312.025 10.1547C313.4 15.8547 314.725 16.5797 318.775 13.7797L321.05 16.9797C316.85 20.5797 311.8 20.1547 309.875 16.0047C309.025 16.4797 308.2 17.0297 307.1 17.7547C306.85 18.4047 306.55 19.0797 306.2 19.8047ZM337.85 19.6297L334.5 17.7797C336.725 13.2297 337.05 10.1297 335.15 9.80469C334.875 9.75469 334.5 9.72969 334.125 9.70469C332.575 14.1547 331.275 18.0797 331.125 18.6047L327.65 17.4047C327.725 16.9797 328.425 14.8047 330.125 9.70469C328.75 9.80469 327.95 9.85469 327.55 9.92969L327.375 5.97969C328.325 5.85469 329.725 5.77969 331.45 5.75469C331.9 4.45469 332.5 2.65469 332.825 1.75469L336.45 3.00469C336.35 3.30469 335.975 4.35469 335.475 5.80469C336.4 5.85469 337.25 5.92969 337.9 6.05469C341.625 6.75469 341.6 13.5547 337.85 19.6297ZM343.45 11.0797C342.875 9.72969 341.525 6.55469 340.5 4.67969L343.95 3.17969C344.7 4.30469 346.375 8.15469 346.75 9.60469L343.45 11.0797ZM358.675 13.9797C358.625 11.2047 359.025 10.6297 362.4 7.80469C363.475 6.90469 363.25 6.15469 363.025 5.90469C362.175 4.90469 359.325 5.67969 358.95 8.25469L355.2 6.87969C355.775 3.80469 358.3 2.55469 360.275 2.17969C360.925 2.05469 361.525 2.00469 362.075 2.00469C365.575 2.00469 367.2 4.17969 367.2 6.30469C367.2 7.55469 366.525 8.90469 365.35 9.62969C362.875 11.1297 363.15 11.5547 363.2 13.6797L358.675 13.9797ZM358.8 19.0547C358.75 17.4297 358.725 16.7797 358.65 15.1797L363.15 14.9797C363.2 16.6047 363.25 17.2797 363.325 18.9047L358.8 19.0547Z" fill="#EA4E17"/>
</svg>
