<svg width="258" height="57" viewBox="0 0 258 57" fill="none" xmlns="http://www.w3.org/2000/svg">
<path d="M78.948 20.8058C82.6162 20.6947 84.447 22.447 89.3052 23.127C92.0972 23.5194 94.5165 23.3624 96.282 23.1074C97.8055 22.9374 98.7405 22.2574 98.7143 21.7278C98.6816 21.1197 97.3935 20.7273 97.3216 20.7077C100.264 20.7535 102.173 19.23 102.147 18.1053C102.128 17.1049 100.552 15.9345 98.3417 15.6207C98.3417 7.59771 91.7376 1.00019 83.7146 0.993652C74.5867 0.993652 69.3165 9.54623 69.0876 15.6207C69.0288 17.118 69.2838 18.4323 69.6042 19.485C68.6365 19.9689 68.3815 20.9627 68.6888 21.4074C68.9438 21.7801 69.7023 21.9174 70.4281 21.5643C69.8135 22.1397 67.4465 24.3628 67.793 24.8467C68.1134 25.2979 70.6242 24.0163 71.4546 23.5847C74.6063 21.342 77.2021 20.8581 78.9414 20.7993L78.948 20.8058Z" fill="#FABF06"/>
<path d="M94.6799 25.2981C93.1956 25.4812 91.391 25.5401 89.3836 25.272C84.4862 24.6116 82.5572 22.5127 78.8171 22.8004C77.3459 22.918 75.247 23.4281 72.7819 25.3243C72.1935 26.1678 72.0888 26.4032 72.1346 26.4424C72.2196 26.5143 72.8081 25.782 73.305 25.9389C73.4554 25.9847 73.5601 26.1024 73.6124 26.1874C74.2989 25.8212 75.3059 25.37 76.5744 25.0562C77.4702 24.8339 78.2613 24.7489 78.9479 24.7293C82.6226 24.6181 84.4535 26.3705 89.3052 27.0505C90.456 27.214 91.5348 27.2793 92.5418 27.2859C92.7641 26.9459 93.1368 26.5012 93.6926 26.3705C94.8761 26.0893 96.0792 27.4232 96.21 27.2793C96.2754 27.2074 96.04 26.802 94.6799 25.3047V25.2981Z" fill="#FABF06"/>
<path d="M78.8171 26.7298C77.9016 26.8018 76.7378 27.0306 75.3973 27.6518C74.2923 28.5149 74.1158 28.8614 74.1877 29.0053C74.3381 29.2995 75.4366 28.7437 77.0386 28.8811C78.0847 28.9726 78.1109 29.2538 79.7128 29.6918C81.7268 30.2411 83.3418 30.2476 83.7145 30.2476C85.3361 30.2411 85.2773 29.9272 86.7223 29.9338C89.0893 29.9469 90.6193 30.7903 90.7501 30.5157C90.809 30.398 90.5801 30.0776 89.2201 29.1688C84.0807 27.3772 80.1117 26.6252 78.8105 26.7233L78.8171 26.7298Z" fill="#FABF06"/>
<path d="M16.9743 1.53662C16.5624 6.85909 15.5816 13.1231 13.4827 19.9168C12.6588 22.5715 11.7565 25.0431 10.8083 27.312C11.8218 27.5801 12.8419 27.8482 13.8554 28.1228C14.8558 26.3116 15.902 24.0035 16.6539 21.2245C17.0005 19.943 17.2358 18.7333 17.3993 17.6217H25.2326C25.2719 18.6156 25.2653 19.7206 25.1673 20.9172C25.0365 22.5584 24.7815 24.0231 24.4807 25.2654C23.4476 24.9777 22.4079 24.6835 21.3748 24.3958C20.9629 25.8278 20.5444 27.2532 20.1325 28.6852C22.4929 28.829 24.8599 28.9729 27.2204 29.1232C27.8023 25.9716 28.3058 22.5846 28.672 18.9752C29.267 13.097 29.3912 7.67643 29.2474 2.82474L16.9809 1.54317L16.9743 1.53662ZM25.4746 15.0651L18.7332 15.3267C18.9032 14.0647 19.0798 12.8027 19.2498 11.5408C21.3814 11.4754 23.513 11.41 25.638 11.3381C25.5857 12.5804 25.5269 13.8228 25.4746 15.0651ZM25.8931 8.80762C23.7745 8.8207 21.656 8.83377 19.544 8.84031C19.5832 7.65027 19.629 6.46677 19.6682 5.27674C21.7998 5.21135 23.9315 5.14597 26.0565 5.07404C26.0042 6.31639 25.9454 7.55873 25.8931 8.80108V8.80762Z" fill="white"/>
<path d="M1.79813 2.93604C1.19658 8.70314 0.601557 14.4768 0 20.2439C4.0082 20.6427 8.01639 21.0351 12.0246 21.4339C12.7046 15.693 13.3847 9.95857 14.0647 4.21762C9.97801 3.7926 5.8848 3.36105 1.79813 2.93604ZM9.05606 17.55L4.40705 17.3996C4.44629 15.8172 4.47899 14.2349 4.51822 12.659C6.23135 12.8421 7.93795 13.0187 9.65108 13.2017C9.45492 14.6533 9.25222 16.1049 9.05606 17.55ZM10.2396 10.9851L4.79283 10.0043L4.93668 5.93074C6.89828 6.17921 8.85336 6.42769 10.815 6.66962C10.6253 8.10812 10.4357 9.54662 10.2461 10.9851H10.2396Z" fill="white"/>
<path d="M35.2565 8.2909C35.4853 7.09433 35.7142 5.89775 35.9365 4.70117L42.874 6.96355C42.8348 7.57165 42.8021 8.18629 42.7629 8.79438C40.2586 8.62438 37.7608 8.46091 35.2565 8.2909Z" fill="white"/>
<path d="M43.4233 10.8476C46.6011 7.42137 49.7789 3.99511 52.9567 0.568848C53.9768 1.39926 54.9968 2.22313 56.0234 3.05354C53.7741 5.08053 51.5248 7.10097 49.2755 9.12796C53.0025 8.8468 56.7361 8.56563 60.4631 8.29101L59.5543 6.30326C60.7508 6.00248 61.9474 5.7017 63.1374 5.40092C64.3405 8.04254 65.5437 10.6907 66.7468 13.3323C65.9229 13.8816 65.099 14.4308 64.2752 14.9801L62.0258 11.0046C56.553 12.0311 51.0736 13.0577 45.6007 14.0777C44.8749 13.0054 44.1491 11.9265 43.4233 10.8542V10.8476Z" fill="white"/>
<path d="M34.668 14.3194L37.8131 11.6582C39.3824 12.5213 40.9582 13.3909 42.5275 14.254C42.2594 14.9079 41.9913 15.5618 41.7167 16.2156C39.3628 15.5814 37.0154 14.9471 34.6615 14.3129L34.668 14.3194Z" fill="white"/>
<path d="M35.6423 27.456C34.7399 26.5341 33.831 25.6121 32.9287 24.6902C35.6226 23.1143 38.3231 21.5451 41.017 19.9692C41.4159 20.5512 41.8148 21.1266 42.2136 21.7085C40.0232 23.6244 37.8327 25.5467 35.6488 27.4626L35.6423 27.456Z" fill="white"/>
<path d="M45.9603 16.1372L45.1495 27.4426L61.8755 26.4552L62.6862 15.1499L45.9603 16.1372ZM58.8807 23.5063L48.7197 24.1079C48.9224 22.2378 49.1316 20.3677 49.3343 18.5042C52.5775 18.295 55.8272 18.0858 59.0703 17.8765C59.005 19.7531 58.9396 21.6297 58.8807 23.5128V23.5063Z" fill="white"/>
<path d="M116.768 1.69336C117.735 2.22299 118.696 2.74608 119.664 3.27571C118.938 4.66191 118.206 6.04157 117.48 7.42777C121.606 7.48662 125.726 7.53892 129.851 7.59777C129.237 13.1556 128.616 18.7135 128.001 24.2714C127.236 25.0952 126.478 25.9191 125.712 26.743C123.797 25.5333 121.881 24.3302 119.965 23.1206C120.39 22.2705 120.815 21.4205 121.233 20.5639C122.391 21.2113 123.555 21.8521 124.712 22.4994C125.131 18.6743 125.556 14.8492 125.974 11.024C123.424 10.9783 120.874 10.926 118.324 10.8802C119.638 11.8218 120.959 12.7699 122.273 13.7114L119.514 15.3526C118.213 14.1887 116.911 13.0183 115.61 11.8544C114.734 13.4172 113.864 14.9799 112.995 16.5427C111.981 16.1765 110.968 15.8103 109.954 15.4442C110.811 13.9599 111.674 12.4756 112.531 10.9979C110.929 11.1286 109.327 11.2529 107.725 11.3837C108.208 16.0457 108.692 20.7078 109.183 25.3699C108.189 25.5268 107.202 25.6772 106.208 25.8341C105.351 19.9166 104.495 13.9926 103.638 8.07509C107.064 7.81355 110.49 7.552 113.917 7.29045C114.865 5.42693 115.813 3.56342 116.768 1.69336Z" fill="white"/>
<path d="M134.723 7.70215C135.292 14.0054 135.854 20.3021 136.423 26.6054C142.654 26.2981 148.885 25.9908 155.117 25.6835C156.333 19.6941 157.556 13.6981 158.772 7.70868H134.729L134.723 7.70215ZM144.472 23.1922C142.543 23.3426 140.621 23.493 138.692 23.6434C138.58 21.9172 138.469 20.191 138.358 18.4648C140.49 18.3863 142.615 18.3079 144.746 18.2294C144.655 19.8837 144.563 21.538 144.472 23.1922ZM144.956 15.6074C142.621 15.712 140.287 15.8166 137.946 15.9147C137.829 14.1035 137.711 12.2923 137.6 10.4811C140.13 10.4549 142.661 10.4353 145.198 10.4092C145.119 12.1419 145.041 13.8746 144.956 15.6074ZM152.854 23.0092C151.122 23.0876 149.395 23.1661 147.663 23.2445C147.793 21.4922 147.924 19.7333 148.062 17.9809C149.82 18.0529 151.579 18.1248 153.345 18.1967L152.854 23.0092ZM147.918 15.542C148.055 13.8812 148.192 12.2138 148.33 10.553C150.422 10.638 152.508 10.7165 154.6 10.8015C154.273 12.4623 153.953 14.1231 153.626 15.7905C151.723 15.7055 149.82 15.627 147.924 15.542H147.918Z" fill="white"/>
<path d="M163.133 7.01556V10.4222L167.619 10.1214V27.5208H170.13V10.1214L173.837 10.0626V7.37519H170.79L170.849 2.77196C169.77 2.67388 168.698 2.57581 167.619 2.47119V7.13325L163.133 7.01556Z" fill="white"/>
<path d="M165.977 11.3706L167.226 12.796L163.133 21.0871L160.805 18.7854L165.977 11.3706Z" fill="white"/>
<path d="M170.797 12.3577L172.34 11.0107L176.145 17.5559L174.184 19.6287L170.797 12.3577Z" fill="white"/>
<path d="M188.785 0C189 1.17042 189.223 2.34084 189.438 3.51126C188.301 3.99512 187.163 4.47898 186.025 4.96938C186.13 5.52517 186.666 8.13409 189.138 9.91261C191.897 11.8938 194.911 11.2857 195.382 11.1811L193.859 14.3001C192.963 14.287 189.811 14.1431 187.13 11.7369C185.47 10.2461 184.711 8.54603 184.384 7.61754C184.07 8.53949 183.161 10.7888 180.847 12.5346C179.212 13.7704 177.571 14.2151 176.642 14.3981C176.132 13.5154 175.616 12.6262 175.106 11.7434C175.897 11.7369 177.943 11.6061 179.997 10.2069C182.148 8.7422 183.018 6.76098 183.292 6.03519C182.148 6.51905 180.997 7.00291 179.853 7.48677C179.474 6.50597 179.094 5.53171 178.722 4.55091C182.076 3.03394 185.437 1.52351 188.791 0.00653507L188.785 0Z" fill="white"/>
<path d="M174.484 7.55859L175.838 10.4487L194.813 9.9779V7.10742L174.484 7.55859Z" fill="white"/>
<path d="M181.239 11.8609C181.213 13.064 181.187 14.2671 181.16 15.4637H187.398V11.8413C185.345 11.8413 183.292 11.8544 181.239 11.8609ZM185.391 14.4698H182.867V12.9398L185.391 13.0575V14.4698Z" fill="white"/>
<path d="M181.415 19.3347C181.33 20.7405 181.252 22.1463 181.167 23.5521C183.312 23.5913 185.463 23.6371 187.608 23.6763L188.36 19.5047C186.045 19.4458 183.73 19.387 181.415 19.3281V19.3347ZM185.731 22.2771L182.939 22.5059C183.03 21.9174 183.122 21.3355 183.207 20.747C184.175 20.747 185.142 20.7405 186.11 20.7339C185.986 21.2505 185.855 21.767 185.731 22.2771Z" fill="white"/>
<path d="M176.42 17.118C176.381 20.4134 176.335 23.7089 176.296 27.0044C177.139 26.9586 177.983 26.9063 178.826 26.8606C178.852 24.0163 178.872 21.1785 178.898 18.3341C183.207 18.2688 187.516 18.2099 191.818 18.1445V24.8467L188.366 24.984L188.791 27.0567C190.635 27.2071 192.485 27.3575 194.329 27.5079C194.303 24.0359 194.284 20.5638 194.257 17.0853C193.754 16.7453 193.25 16.4118 192.747 16.0718C187.712 16.0914 182.677 16.111 177.643 16.1306C177.237 16.4576 176.832 16.7845 176.426 17.1114L176.42 17.118Z" fill="white"/>
<path d="M198.651 8.5655L199.043 12.4887L202.993 11.861L202.489 16.425L198.546 18.3473L199.625 21.1132L209.25 16.7192L208.57 14.1037L205.425 15.5292L205.798 12.1683L209.466 11.3706L209.1 7.89202L205.83 8.44781L206.229 4.81885L202.98 5.1327L202.855 9.02975L198.651 8.5655Z" fill="white"/>
<path d="M216.6 12.6719L218.999 12.5542C218.875 13.6396 218.751 14.725 218.627 15.8105C219.287 15.7581 219.947 15.6993 220.601 15.647V12.5542H223.119C223.021 13.62 222.922 14.6858 222.824 15.7516C223.498 15.6797 224.165 15.6078 224.838 15.5358V12.5542H227.585C227.447 14.4831 227.303 16.4186 227.166 18.3475C225.701 18.3605 224.243 18.3801 222.779 18.3932L222.55 22.5518H224.838V19.7271H227.127L226.669 25.7165H215.573V19.7271H217.92V22.5518H219.692C219.797 21.1787 219.902 19.799 220 18.4259C218.522 18.4128 217.044 18.4063 215.573 18.3932C215.913 16.4839 216.26 14.5812 216.6 12.6719Z" fill="white"/>
<path d="M212.022 2.60242C211.924 6.04176 211.591 9.97804 210.846 14.2805C209.924 19.5572 208.583 24.1342 207.217 27.9136C208.524 28.0967 209.839 28.2732 211.146 28.4563C212.532 22.6565 213.919 16.8567 215.298 11.0635C219.509 10.8738 223.714 10.6842 227.925 10.4946L228.611 1.68701L212.022 2.60242ZM224.838 8.28452C221.857 8.3826 218.875 8.48068 215.893 8.57876C215.991 7.43449 216.09 6.29676 216.181 5.1525C219.137 5.04788 222.085 4.93673 225.041 4.83211C224.969 5.98291 224.904 7.13372 224.832 8.28452H224.838Z" fill="white"/>
<path d="M233.626 3.89062V20.1915H237.203L238.347 4.67526L233.626 3.89062Z" fill="white"/>
<path d="M243.35 4.67529L247.495 5.45993L245.422 18.2888H241.63L243.35 4.67529Z" fill="white"/>
<path d="M253.21 5.45947L257.787 6.75414L255.498 28.9137H250.496L253.21 5.45947Z" fill="white"/>
<path d="M49.5304 44.0117L50.0142 44.0248H50.5308C51.0146 44.0248 51.5312 44.0117 52.0739 43.9921C52.172 43.9921 52.2504 43.9594 52.3093 43.894C52.3681 43.8286 52.3943 43.7567 52.3943 43.6847V43.1028L52.3812 42.717C52.3812 42.5274 52.4401 42.377 52.5578 42.2855C52.6558 42.207 52.7801 42.1743 52.9305 42.1743H54.1205C54.3036 42.1743 54.454 42.2332 54.5717 42.3509C54.6894 42.4686 54.7482 42.619 54.7482 42.802V43.5082C54.7482 43.6128 54.7744 43.6978 54.8332 43.7501C54.8921 43.8024 54.9575 43.8286 55.0163 43.8286C55.0294 43.8286 55.1602 43.8221 55.4217 43.8025C55.6767 43.7894 55.9448 43.7567 56.2129 43.724C56.4809 43.6913 56.664 43.6651 56.7621 43.6586C56.8602 43.6586 56.9517 43.6455 57.0367 43.6259C57.1217 43.6063 57.1871 43.5998 57.2264 43.5998C57.3572 43.5998 57.4748 43.6455 57.5795 43.7305C57.7298 43.8482 57.8018 44.0182 57.8018 44.2471V45.1952C57.8018 45.3456 57.756 45.4764 57.6579 45.581C57.5598 45.6856 57.4356 45.7575 57.2852 45.7902C56.5136 45.8883 55.7421 45.9537 54.9705 45.9994C54.8986 46.0125 54.8463 46.0321 54.8201 46.0648C54.794 46.0975 54.7809 46.1433 54.7809 46.2087L54.8005 46.516V46.8233C54.8136 46.8756 54.8267 46.9148 54.8397 46.9345C54.8594 46.9541 54.879 46.9672 54.9117 46.9672H54.9901C55.7617 46.8952 56.3175 46.8102 56.664 46.7252C56.8471 46.6795 57.0106 46.6599 57.1479 46.6599C57.2852 46.6599 57.3964 46.6925 57.4683 46.7579C57.6056 46.8625 57.6775 47.0391 57.6775 47.2745V48.3534C57.6775 48.4907 57.6448 48.6084 57.5795 48.7065C57.5075 48.8372 57.3833 48.9157 57.2067 48.9484C56.6183 49.0792 55.9317 49.1707 55.1601 49.223C55.0621 49.2361 54.9901 49.2688 54.9444 49.3276C54.8986 49.3865 54.8724 49.4519 54.8724 49.5303L54.8855 50.5438C54.8986 50.7138 54.9771 50.825 55.1275 50.8642C56.1671 51.1977 57.2656 51.7077 58.4099 52.3943C58.5603 52.4793 58.6322 52.5904 58.6322 52.7343C58.6322 52.865 58.5799 52.9762 58.4687 53.0743C58.2856 53.2247 58.0437 53.5385 57.7429 54.0093C57.7102 54.0551 57.6841 54.0943 57.6579 54.1466C57.6318 54.1924 57.5925 54.2643 57.5337 54.3493C57.4683 54.467 57.3702 54.5259 57.2329 54.5259C57.0956 54.5259 56.991 54.4997 56.919 54.4474C56.5333 54.1466 56.226 53.9243 56.0037 53.7739C55.7225 53.6039 55.5132 53.4862 55.3759 53.4208C55.2386 53.3554 55.1471 53.3228 55.1013 53.3228C54.964 53.3228 54.8594 53.4339 54.794 53.6628C54.4278 54.8463 53.4601 55.4413 51.8843 55.4478C50.6811 55.4478 49.7919 55.1863 49.2165 54.6566C48.6803 54.1662 48.4122 53.5451 48.4122 52.8062V52.7604C48.4318 52.2046 48.6149 51.7404 48.9615 51.3742C49.308 51.0081 49.6676 50.7531 50.0404 50.6027C50.5634 50.4 51.1127 50.2953 51.6816 50.2953C51.7339 50.2953 51.9562 50.3084 52.342 50.328L52.5185 50.3411H52.5381L52.5054 49.4584C52.5054 49.4584 52.5054 49.4061 52.4989 49.3996C52.4989 49.3996 52.4793 49.393 52.4597 49.393L52.2635 49.4061H51.8581C51.2762 49.4061 50.8577 49.3734 50.5896 49.308C50.0338 49.1903 49.6154 48.9811 49.3342 48.6803C48.968 48.2945 48.7849 47.9741 48.7849 47.7126C48.7849 47.4968 48.9027 47.3399 49.1381 47.2287L50.1711 46.6991C50.2365 46.6795 50.2954 46.6664 50.3477 46.6664C50.485 46.6664 50.5962 46.7252 50.6877 46.8429C50.7531 46.9279 50.825 46.9999 50.8969 47.0522C50.9296 47.0849 51.0212 47.111 51.1716 47.1306C51.322 47.1503 51.5639 47.1633 51.8974 47.1633H52.2504L52.427 47.1503H52.4597V47.1175L52.4401 46.5225C52.4401 46.4179 52.4204 46.3329 52.3747 46.2806C52.3289 46.2283 52.2504 46.2021 52.1327 46.2021L51.5377 46.2218C50.8839 46.2544 50.3869 46.2675 50.0404 46.2675H49.5761C49.4061 46.2675 49.2623 46.2152 49.1511 46.1041C49.0399 45.9994 48.9811 45.8556 48.9811 45.6856C48.9615 44.9859 48.9484 44.6329 48.9484 44.6263C48.9484 44.4432 49.0007 44.2994 49.1119 44.1817C49.2165 44.0705 49.3604 44.0117 49.5304 44.0117ZM50.7073 52.78C50.7073 53.0939 51.0212 53.2443 51.6423 53.2443C51.93 53.2443 52.1589 53.1985 52.3289 53.1004C52.4924 53.0024 52.5774 52.8389 52.5774 52.6035V52.427H52.5578L52.1524 52.3616C51.9889 52.3485 51.7927 52.3485 51.5508 52.3485C51.3089 52.3485 51.1062 52.3943 50.9492 52.4793C50.7858 52.5643 50.7073 52.6689 50.7073 52.7866V52.78Z" fill="white"/>
<path d="M71.8991 46.9733C71.8991 46.8033 71.788 46.7183 71.5591 46.7183C70.9445 46.7314 70.5914 46.7314 70.4998 46.7314C70.0356 46.7314 69.6498 46.7314 69.3229 46.7183C69.1594 46.7183 69.0221 46.666 68.9109 46.5549C68.7998 46.4503 68.7344 46.3129 68.7278 46.1495L68.6625 44.9594C68.6625 44.7764 68.7213 44.6325 68.839 44.5344C68.9567 44.4298 69.1202 44.384 69.3229 44.384H69.4536C69.7675 44.4167 70.1925 44.4298 70.7418 44.4298H72.141C72.2391 44.4167 72.311 44.3971 72.3568 44.3579C72.4026 44.3186 72.4353 44.2402 72.4549 44.1159C72.4745 43.9917 72.481 43.8609 72.4876 43.7236C72.4876 43.5863 72.5072 43.4425 72.5268 43.3052L72.5464 42.6971C72.5595 42.5271 72.6053 42.3832 72.6903 42.2786C72.7949 42.1413 72.9649 42.0693 73.1872 42.0693H74.4426C74.6257 42.0693 74.7761 42.1282 74.8938 42.2459C74.9984 42.3505 75.0573 42.5532 75.0573 42.8474C75.0573 43.1417 75.0246 43.5013 74.9592 43.9198V43.9852C74.9592 44.0702 74.9854 44.1421 75.0377 44.1944C75.09 44.2467 75.175 44.2729 75.2927 44.2729C75.3123 44.2729 75.3842 44.2729 75.4954 44.2598C75.6065 44.2467 75.7831 44.2336 76.0185 44.214C76.8423 44.1486 77.4701 44.0832 77.8951 44.0113C78.3201 43.9394 78.5816 43.9002 78.6862 43.8806C78.7908 43.8675 78.8824 43.8479 78.9739 43.8217C79.0655 43.8021 79.1374 43.789 79.1897 43.789C79.3074 43.789 79.4186 43.8282 79.5297 43.9002C79.6474 43.9983 79.7063 44.1421 79.7063 44.3317C79.7063 44.3513 79.6736 44.7633 79.6082 45.5545C79.5951 45.6918 79.5624 45.8095 79.497 45.8945C79.412 46.0122 79.2813 46.0841 79.1112 46.1037C77.7904 46.2999 76.3454 46.4568 74.7696 46.5876C74.6976 46.5876 74.6257 46.6137 74.5669 46.6595C74.508 46.7053 74.4688 46.7903 74.4492 46.908C74.3184 47.3984 74.2269 47.7253 74.1746 47.8888C74.1223 48.0522 74.0961 48.1438 74.0961 48.1699V48.2288H74.1549C74.1549 48.2288 74.2726 48.1961 74.4361 48.1307C74.9396 47.9411 75.4496 47.843 75.9727 47.843C76.4958 47.843 76.9927 47.9149 77.4766 48.0522C77.9604 48.2026 78.3789 48.4119 78.732 48.6799C79.5036 49.2946 79.8894 50.138 79.8894 51.2235C79.8894 52.6424 79.3139 53.7212 78.1697 54.4732C77.1104 55.1271 75.7242 55.454 74.0176 55.454H73.7103C73.4226 55.4213 73.2395 55.2709 73.1611 55.0028C73.0826 54.7543 72.9845 54.4797 72.8537 54.1855C72.651 53.7866 72.5268 53.5512 72.4745 53.4662C72.4222 53.3812 72.4026 53.3158 72.4026 53.2505C72.4026 53.0805 72.5137 52.9955 72.7426 52.9955H72.7884C73.0761 53.0085 73.3638 53.0085 73.6384 53.0085C74.6584 53.0085 75.4954 52.8778 76.1493 52.6228C76.9339 52.322 77.3262 51.8381 77.3262 51.1777C77.3262 50.8115 77.1627 50.5369 76.8293 50.3408C76.5416 50.1708 76.1427 50.0857 75.6392 50.0857C75.1357 50.0857 74.6061 50.1838 74.0569 50.3734C73.5011 50.5696 73.0172 50.8769 72.5987 51.3085L72.2457 51.74C72.1606 51.8185 72.0822 51.8512 72.0037 51.8512C71.9253 51.8512 71.8599 51.8316 71.7945 51.7858L70.6502 51.0142C70.4475 50.8639 70.3429 50.7004 70.3429 50.5173C70.3429 50.3669 70.4083 50.2165 70.5325 50.0661C70.866 49.628 71.1341 49.1573 71.3368 48.6603C71.5395 48.1634 71.7226 47.6534 71.886 47.1368C71.8991 47.0649 71.9056 47.006 71.9056 46.9733H71.8991Z" fill="white"/>
<path d="M99.5903 48.569C99.5903 48.569 99.5903 48.5101 99.5707 48.4905V48.4774C99.5576 47.8759 99.3222 47.4443 98.8449 47.1762C98.4591 46.9539 97.9164 46.8362 97.2233 46.8362H96.9683C95.4121 46.9212 93.6009 47.2939 91.5281 47.9478C91.3974 48.0001 91.2797 48.0459 91.1685 48.0786C91.0574 48.1113 90.9528 48.1505 90.8612 48.1897C90.7697 48.2355 90.6716 48.2551 90.5604 48.2551C90.3054 48.2551 90.1158 48.1178 89.9981 47.8497L89.4685 46.5158C89.4227 46.4178 89.4031 46.3262 89.4031 46.2412V46.2281C89.4031 46.13 89.4227 46.045 89.4685 45.9731C89.5535 45.8096 89.7039 45.7116 89.9197 45.6658L92.1428 45.2343C94.4052 44.77 95.9875 44.5346 96.8899 44.5085C97.1122 44.4954 97.2626 44.4954 97.341 44.4954C98.3414 44.4954 99.1718 44.6392 99.8323 44.9269C101.421 45.6004 102.212 46.8231 102.212 48.5951C102.212 49.3667 102.049 50.0336 101.728 50.596C101.408 51.1583 100.99 51.6225 100.473 51.9887C99.9565 52.3549 99.4007 52.6556 98.7991 52.891C97.8314 53.2768 96.6283 53.5711 95.1767 53.7738H95.0983C94.8171 53.7738 94.6079 53.5841 94.4705 53.2114C94.2482 52.6229 93.9998 52.1522 93.7317 51.7925C93.6597 51.6879 93.6205 51.5964 93.6205 51.5179C93.6205 51.3479 93.7382 51.2498 93.9736 51.2302C95.0459 51.1452 95.8698 51.0406 96.4387 50.9229C97.6091 50.6417 98.4395 50.3017 98.9299 49.8898C99.368 49.5236 99.5903 49.0855 99.5903 48.569ZM101.748 43.9658C101.833 44.0769 101.879 44.1881 101.879 44.3188C101.879 44.4496 101.807 44.5738 101.67 44.6915L101.415 44.9008C101.297 45.0185 101.153 45.0773 100.977 45.0773C100.8 45.0773 100.656 45.0054 100.525 44.855C100.427 44.7373 100.349 44.6392 100.29 44.5673C100.231 44.4954 100.166 44.4169 100.087 44.345C100.009 44.2731 99.9434 44.2011 99.8846 44.1357C99.8257 44.0704 99.7669 44.005 99.7015 43.9461C99.5642 43.8088 99.4922 43.6454 99.4922 43.4688C99.4922 43.2923 99.5707 43.1353 99.7342 42.9915L99.963 42.8019C100.081 42.7038 100.198 42.658 100.316 42.658C100.434 42.658 100.538 42.7038 100.636 42.7888C100.787 42.9196 100.885 43.0111 100.924 43.0634L101.5 43.6911C101.552 43.7434 101.598 43.7957 101.637 43.8415C101.676 43.8873 101.709 43.9331 101.742 43.9788L101.748 43.9658ZM103.102 42.8084C103.174 42.913 103.213 43.0307 103.213 43.1615C103.213 43.2923 103.147 43.4165 103.023 43.5342L102.768 43.7434C102.637 43.8611 102.493 43.92 102.323 43.92C102.153 43.92 102.01 43.8415 101.879 43.6977C101.781 43.58 101.702 43.4819 101.637 43.41C101.572 43.338 101.506 43.2596 101.434 43.1877C101.362 43.1092 101.297 43.0438 101.245 42.9784C101.186 42.913 101.127 42.8476 101.062 42.7888C100.911 42.6515 100.839 42.488 100.839 42.3115C100.839 42.1349 100.924 41.978 101.094 41.8341L101.317 41.638C101.434 41.5399 101.552 41.4941 101.67 41.4941C101.787 41.4941 101.892 41.5399 101.977 41.6249C102.14 41.7557 102.238 41.8472 102.284 41.8995L102.866 42.5272C102.919 42.5796 102.964 42.6319 102.997 42.6776C103.03 42.7234 103.069 42.7692 103.108 42.8149L103.102 42.8084Z" fill="white"/>
<path d="M118.853 55.3562C118.768 55.4216 118.651 55.4543 118.507 55.4543C118.363 55.4543 118.245 55.3758 118.16 55.2124C117.291 53.7019 116.055 52.0411 114.459 50.243C114.178 49.9422 113.897 49.661 113.609 49.393C113.289 49.0922 113.125 48.7914 113.125 48.4841C113.125 48.1768 113.289 47.8891 113.622 47.621C114.021 47.2875 114.499 46.8298 115.054 46.2544C116.395 44.8486 117.369 43.6324 117.964 42.5993C118.101 42.377 118.271 42.2593 118.461 42.2593C118.624 42.2593 118.762 42.2985 118.88 42.3704L120.056 43.1616C120.24 43.2924 120.331 43.4624 120.331 43.6782C120.331 43.8089 120.292 43.9201 120.213 44.0182C120.135 44.1163 120.063 44.1947 120.004 44.2601C119.945 44.3255 119.867 44.417 119.762 44.5347C119.658 44.6524 119.533 44.7963 119.376 44.9597C119.22 45.1232 119.063 45.2998 118.899 45.4828L117.899 46.5421C117.735 46.7252 117.578 46.8952 117.415 47.0587L116.179 48.2945C116.127 48.3599 116.101 48.4252 116.101 48.4906C116.101 48.556 116.146 48.641 116.244 48.7456C116.342 48.8306 116.454 48.9353 116.584 49.066C116.983 49.4976 117.264 49.818 117.448 50.0338C117.624 50.2495 117.859 50.5307 118.16 50.8838C118.664 51.4723 119.429 52.44 120.462 53.7804C120.54 53.885 120.573 53.9896 120.573 54.0877C120.573 54.2577 120.475 54.395 120.285 54.4931C119.599 54.8397 119.121 55.1274 118.853 55.3628V55.3562Z" fill="white"/>
<path d="M135.945 53.7998C135.945 53.6298 136.07 53.486 136.318 53.3814C137.521 52.8452 138.404 52.0998 138.979 51.1386C139.555 50.1774 139.842 49.0462 139.842 47.7319C139.842 46.9473 139.705 46.3981 139.437 46.0777C139.189 45.7965 138.901 45.6592 138.567 45.6592H138.469C138.097 45.6788 137.77 45.9142 137.502 46.3654C137.188 46.9211 137.037 47.66 137.037 48.5689C137.037 48.9874 137.07 49.4451 137.135 49.9355V50.0336C137.135 50.1709 137.09 50.282 136.992 50.354C136.907 50.4324 136.763 50.4717 136.56 50.4847C136.39 50.5043 136.109 50.5697 135.723 50.6743C135.625 50.694 135.56 50.707 135.514 50.7136C135.468 50.7136 135.435 50.7267 135.403 50.7397C135.337 50.7593 135.278 50.7724 135.226 50.7724C135.121 50.7724 135.036 50.7332 134.971 50.6613C134.925 50.609 134.899 50.537 134.893 50.452C134.71 49.3928 134.611 48.0785 134.585 46.5092V46.4961C134.585 46.1757 134.585 45.8488 134.566 45.5153C134.533 44.528 134.553 43.6257 134.611 42.8149C134.625 42.6449 134.683 42.5076 134.795 42.4095C134.906 42.3114 135.03 42.2656 135.154 42.2656C135.167 42.2656 135.592 42.3048 136.442 42.3768C136.645 42.3964 136.802 42.4814 136.907 42.6187C136.972 42.7037 137.005 42.8214 137.005 42.9718C137.005 43.0372 137.005 43.1091 136.992 43.181C136.939 43.4687 136.9 43.7761 136.874 44.0899C136.848 44.4038 136.835 44.613 136.835 44.7111C136.88 44.6588 136.926 44.5934 136.978 44.5149C137.162 44.2468 137.423 43.9984 137.77 43.7761C138.11 43.5537 138.554 43.4361 139.097 43.4361C139.64 43.4361 140.124 43.5668 140.555 43.8218C140.987 44.0768 141.333 44.4103 141.601 44.8222C142.105 45.5938 142.36 46.5681 142.36 47.7319C142.36 49.4908 141.994 51.0013 141.268 52.2698C140.535 53.5383 139.411 54.5779 137.887 55.3887C137.789 55.441 137.665 55.4672 137.515 55.4672C137.364 55.4672 137.22 55.3756 137.083 55.1926H137.063C136.959 55.0226 136.808 54.8329 136.612 54.6302H136.599C136.462 54.4602 136.318 54.3164 136.181 54.2118C136.03 54.0614 135.958 53.9241 135.958 53.7933L135.945 53.7998Z" fill="white"/>
<path d="M166.9 50.099L166.88 50.8248C166.86 51.2629 166.841 51.6945 166.821 52.1195C166.808 52.5445 166.775 52.9695 166.743 53.4076C166.703 53.8391 166.645 54.2249 166.566 54.5519C166.488 54.8788 166.357 55.1469 166.187 55.3626C165.821 55.8138 165.206 56.0361 164.336 56.0361H164.029C163.826 56.0361 163.709 55.9315 163.676 55.7288C163.663 55.6765 163.656 55.6177 163.65 55.5523C163.65 55.4869 163.637 55.4215 163.624 55.3561L163.545 54.9834C163.493 54.7349 163.408 54.7219 163.29 54.9376L163.068 55.3103C163.022 55.3626 162.983 55.4215 162.944 55.4803C162.904 55.5392 162.859 55.6176 162.8 55.7026C162.741 55.7876 162.656 55.84 162.545 55.84C162.434 55.84 162.322 55.8138 162.218 55.7615C162.1 55.6438 161.937 55.5392 161.734 55.4542C161.368 55.2907 161.132 55.2122 161.015 55.2122C160.897 55.2122 160.779 55.2907 160.655 55.4542C160.309 55.84 159.72 56.0361 158.883 56.0361H158.576C158.373 56.0361 158.255 55.9315 158.223 55.7288C158.21 55.6765 158.203 55.6242 158.197 55.5653C158.197 55.513 158.184 55.4607 158.17 55.4019L158.105 55.0292C158.053 54.7938 157.955 54.7938 157.824 55.0226C157.687 55.2515 157.569 55.4476 157.451 55.6046C157.34 55.7615 157.229 55.84 157.131 55.84C157.033 55.84 156.935 55.8204 156.85 55.7746C156.719 55.6961 156.608 55.6307 156.503 55.5719C156.398 55.513 156.313 55.4673 156.248 55.428C156.176 55.3888 156.111 55.3496 156.039 55.3169C155.967 55.2776 155.902 55.258 155.836 55.258C155.666 55.258 155.581 55.3692 155.581 55.598V55.6176C155.581 55.768 155.535 55.8857 155.444 55.9773C155.352 56.0688 155.235 56.1146 155.084 56.1146H153.861C153.698 56.1146 153.574 56.0688 153.476 55.9707C153.378 55.8727 153.332 55.7484 153.332 55.585V47.4443C153.332 47.2808 153.286 47.1566 153.188 47.0585C153.09 46.9605 152.966 46.9147 152.802 46.9147H152.495C152.331 46.9147 152.207 46.8689 152.109 46.7708C152.011 46.6727 151.965 46.5485 151.965 46.385V45.2408C151.965 45.0773 152.011 44.9531 152.109 44.855C152.207 44.7569 152.331 44.7112 152.495 44.7112H152.802C152.966 44.7112 153.09 44.6654 153.188 44.5673C153.286 44.4692 153.332 44.345 153.332 44.1815V42.0238C153.332 41.8603 153.378 41.7361 153.476 41.638C153.574 41.5399 153.698 41.4941 153.861 41.4941H155.051C155.215 41.4941 155.339 41.5399 155.437 41.638C155.535 41.7361 155.581 41.8603 155.581 42.0238V44.1815C155.581 44.345 155.627 44.4692 155.725 44.5673C155.823 44.6654 155.947 44.7112 156.111 44.7112H156.333C156.497 44.7112 156.621 44.7569 156.719 44.855C156.817 44.9531 156.863 45.0773 156.863 45.2408V46.385C156.863 46.5485 156.817 46.6727 156.719 46.7708C156.621 46.8689 156.497 46.9147 156.333 46.9147H156.111C155.947 46.9147 155.823 46.9605 155.725 47.0585C155.627 47.1566 155.581 47.2808 155.581 47.4443V53.7999C155.581 54.1137 155.646 54.2642 155.771 54.2642C155.895 54.2642 156.019 54.1726 156.143 53.983C156.261 53.7934 156.372 53.5776 156.483 53.3291C156.588 53.0806 156.68 52.8387 156.758 52.5903L156.935 52.0933C156.98 51.9233 156.954 51.786 156.869 51.6814C156.784 51.5768 156.653 51.531 156.483 51.531H156.438C156.274 51.531 156.15 51.4852 156.052 51.3871C155.954 51.289 155.908 51.1648 155.908 51.0013V50.099C155.908 49.9355 155.954 49.8113 156.052 49.7132C156.15 49.6151 156.274 49.5694 156.438 49.5694H156.922C157.118 49.5694 157.209 49.4713 157.209 49.2817V48.994L157.196 48.6867C157.177 48.4971 157.268 48.399 157.484 48.399C157.569 48.399 157.628 48.3793 157.654 48.3336C157.68 48.2878 157.667 48.229 157.615 48.1505C157.562 48.072 157.503 47.9936 157.438 47.9282C157.373 47.8563 157.307 47.7843 157.242 47.7124C157.124 47.5751 157.033 47.477 156.967 47.4247C156.797 47.2743 156.81 47.1435 157.013 47.0389C157.955 46.5747 158.641 46.032 159.06 45.3977C159.21 45.2081 159.243 45.0446 159.158 44.9073C159.073 44.7766 158.903 44.7046 158.661 44.7046H157.922C157.758 44.7046 157.634 44.6589 157.536 44.5608C157.438 44.4627 157.392 44.3384 157.392 44.175V43.3053C157.392 43.1419 157.438 43.0176 157.536 42.9196C157.634 42.8215 157.765 42.7757 157.922 42.7757H159.629C159.844 42.7757 159.962 42.6711 159.982 42.4553L160.014 41.8145C160.014 41.5988 160.125 41.4941 160.354 41.4941H161.917C162.139 41.4941 162.257 41.5988 162.257 41.8145L162.224 42.4553C162.205 42.6711 162.303 42.7757 162.512 42.7757H165.245C165.409 42.7757 165.533 42.8215 165.631 42.9196C165.729 43.0176 165.775 43.1746 165.768 43.3969C165.768 43.6192 165.755 43.9069 165.736 44.2665C165.723 44.6262 165.69 44.9923 165.651 45.3716C165.533 46.2412 165.35 46.882 165.095 47.2939C164.846 47.7059 164.533 47.9739 164.16 48.0982C163.787 48.2224 163.382 48.2813 162.931 48.2813H162.414C162.192 48.2813 162.061 48.1636 162.028 47.9282C162.015 47.8301 162.002 47.7189 161.982 47.5882L161.819 46.797C161.799 46.7447 161.78 46.6924 161.773 46.6335C161.76 46.5812 161.747 46.5289 161.727 46.4701C161.675 46.2674 161.747 46.1627 161.95 46.1627H162.499C162.833 46.1627 163.061 46.0843 163.192 45.9404C163.323 45.7966 163.408 45.5939 163.447 45.3585C163.486 45.1231 163.46 44.9531 163.369 44.8485C163.271 44.7438 163.14 44.6981 162.963 44.6981H162.139C161.891 44.6981 161.727 44.8158 161.642 45.0512C161.087 46.457 160.224 47.5555 159.053 48.3466C159.007 48.3793 159.02 48.3924 159.079 48.3924C159.138 48.3924 159.164 48.4251 159.164 48.4905L159.177 48.9874V49.2751C159.177 49.4648 159.275 49.5628 159.465 49.5628H160.91C161.074 49.5628 161.198 49.6086 161.296 49.7067C161.394 49.8048 161.44 49.929 161.44 50.0925L161.427 50.8183C161.407 51.2564 161.387 51.6879 161.368 52.1129C161.355 52.5379 161.329 52.9041 161.296 53.218C161.244 53.7868 161.191 54.1857 161.152 54.408C161.132 54.4734 161.139 54.4799 161.185 54.4211C161.773 53.7476 162.179 52.9041 162.394 51.8971C162.434 51.6487 162.336 51.5245 162.087 51.5245C161.839 51.5245 161.714 51.4002 161.714 51.1517V50.0075C161.714 49.7067 161.865 49.5563 162.166 49.5563C162.466 49.5563 162.617 49.4059 162.617 49.1051C162.538 48.8828 162.564 48.6997 162.689 48.5755C162.813 48.4447 162.957 48.3859 163.133 48.3859H164.258C164.454 48.3859 164.559 48.484 164.578 48.6736V49.2686C164.578 49.4582 164.676 49.5563 164.866 49.5563H166.363C166.527 49.5563 166.651 49.6021 166.749 49.7002C166.847 49.7982 166.893 49.9225 166.893 50.0859L166.9 50.099ZM158.406 54.1334H158.504C158.752 54.1334 158.935 54.1007 159.066 54.0353C159.289 53.9372 159.413 53.571 159.439 52.9433L159.485 51.7533C159.485 51.6029 159.406 51.531 159.262 51.531C159.119 51.531 159.027 51.6029 159.007 51.7533C158.857 52.5576 158.635 53.3226 158.347 54.0353C158.314 54.1007 158.334 54.1334 158.412 54.1334H158.406ZM163.826 54.1334H163.957C164.206 54.1334 164.389 54.1007 164.519 54.0353C164.742 53.9372 164.866 53.571 164.892 52.9433L164.938 51.7664C164.938 51.6029 164.853 51.5245 164.689 51.5245C164.526 51.5245 164.428 51.6029 164.408 51.7664C164.271 52.6164 164.049 53.3618 163.748 54.0222C163.715 54.1007 163.748 54.1334 163.826 54.1334Z" fill="white"/>
<path d="M173.242 45.3321V44.6259C173.242 44.4624 173.288 44.3382 173.386 44.2401C173.484 44.142 173.608 44.0962 173.772 44.0962H178.662C178.826 44.0962 178.95 44.142 179.048 44.2401C179.146 44.3382 179.192 44.4624 179.192 44.6259V45.3321C179.192 45.4955 179.146 45.6198 179.048 45.7178C178.95 45.8159 178.826 45.8617 178.662 45.8617H173.772C173.608 45.8617 173.484 45.8159 173.386 45.7178C173.288 45.6198 173.242 45.4955 173.242 45.3321ZM173.883 55.2577V51.5699C173.883 51.4065 173.929 51.2822 174.027 51.1842C174.125 51.0861 174.249 51.0403 174.412 51.0403H178.192C178.355 51.0403 178.479 51.0861 178.577 51.1842C178.676 51.2822 178.721 51.4065 178.721 51.5699V55.2577C178.721 55.4212 178.676 55.5454 178.577 55.6435C178.479 55.7416 178.355 55.7874 178.192 55.7874H174.412C174.249 55.7874 174.125 55.7416 174.027 55.6435C173.929 55.5454 173.883 55.4212 173.883 55.2577ZM174.014 47.6467V46.9079C174.014 46.7444 174.059 46.6202 174.157 46.5221C174.255 46.424 174.386 46.3782 174.543 46.3782H177.969C178.133 46.3782 178.257 46.424 178.355 46.5221C178.453 46.6202 178.499 46.7444 178.499 46.9079V47.6467C178.499 47.8102 178.453 47.9344 178.355 48.0325C178.257 48.1306 178.133 48.1764 177.969 48.1764H174.543C174.38 48.1764 174.255 48.1306 174.157 48.0325C174.059 47.9344 174.014 47.8102 174.014 47.6467ZM174.014 49.9484V49.2226C174.014 49.0591 174.059 48.9349 174.157 48.8368C174.255 48.7387 174.386 48.6929 174.543 48.6929H177.969C178.133 48.6929 178.257 48.7387 178.355 48.8368C178.453 48.9349 178.499 49.0591 178.499 49.2226V49.9484C178.499 50.1118 178.453 50.2361 178.355 50.3341C178.257 50.4322 178.133 50.478 177.969 50.478H174.543C174.38 50.478 174.255 50.4322 174.157 50.3341C174.059 50.2361 174.014 50.1118 174.014 49.9484ZM174.033 43.05V42.2785C174.033 42.115 174.079 41.9908 174.177 41.8927C174.275 41.7946 174.399 41.7489 174.563 41.7489H177.976C178.139 41.7489 178.264 41.7946 178.362 41.8927C178.46 41.9908 178.506 42.115 178.506 42.2785V43.05C178.506 43.2135 178.46 43.3378 178.362 43.4358C178.264 43.5339 178.139 43.5797 177.976 43.5797H174.563C174.399 43.5797 174.275 43.5339 174.177 43.4358C174.079 43.3378 174.033 43.2135 174.033 43.05ZM176.001 53.9042C176.08 53.9827 176.184 54.0219 176.309 54.0219C176.433 54.0219 176.531 53.9827 176.616 53.9042C176.701 53.8258 176.734 53.7212 176.734 53.5904V53.2504C176.734 53.1327 176.694 53.0346 176.616 52.9496C176.537 52.8646 176.433 52.8319 176.309 52.8319C176.184 52.8319 176.086 52.8711 176.001 52.9496C175.916 53.0281 175.884 53.1327 175.884 53.2504V53.5904C175.884 53.7212 175.923 53.8258 176.001 53.9042ZM180.291 56.0816C180.009 56.0816 179.846 55.9378 179.794 55.6501C179.761 55.4474 179.735 55.3035 179.715 55.2185C179.696 55.1335 179.676 55.0551 179.656 54.9766C179.643 54.8981 179.624 54.8327 179.598 54.7673C179.519 54.5189 179.611 54.3946 179.853 54.3946H180.238C180.402 54.3946 180.519 54.3685 180.598 54.3227C180.676 54.277 180.716 54.1658 180.716 53.9958V53.9304C180.716 53.8846 180.703 53.8781 180.67 53.8977L179.722 54.0612C179.637 54.0808 179.558 54.0677 179.486 54.0219C179.414 53.9762 179.369 53.9042 179.349 53.8062L179.159 52.8384C179.107 52.603 179.199 52.4657 179.434 52.433L180.382 52.335C180.604 52.3023 180.722 52.1715 180.722 51.9492C180.722 51.7269 180.611 51.6092 180.382 51.6092H179.768C179.604 51.6092 179.48 51.5634 179.382 51.4653C179.284 51.3672 179.238 51.243 179.238 51.0795V50.563C179.238 50.3995 179.284 50.2753 179.382 50.1772C179.48 50.0791 179.604 50.0334 179.768 50.0334H180.526C180.657 50.0334 180.716 49.968 180.716 49.8437C180.716 49.7195 180.65 49.6476 180.526 49.6476L179.866 49.6803C179.715 49.6999 179.617 49.6345 179.578 49.4841C179.532 49.3337 179.499 49.2029 179.467 49.0787C179.434 48.961 179.388 48.8302 179.329 48.6733C179.271 48.5229 179.336 48.4379 179.532 48.4183C180.317 48.366 180.846 48.3202 181.114 48.281C181.383 48.2417 181.566 48.2221 181.644 48.2156C181.723 48.2156 181.821 48.196 181.932 48.1764C182.043 48.1568 182.102 48.1371 182.102 48.1175C182.102 48.0979 182.023 48.0914 181.879 48.0914H179.513C179.349 48.0914 179.225 48.0456 179.127 47.9475C179.029 47.8494 178.983 47.7252 178.983 47.5617V47.1106C178.983 46.9471 179.029 46.8229 179.127 46.7248C179.225 46.6267 179.349 46.5809 179.513 46.5809H182.233C182.363 46.5809 182.422 46.5156 182.422 46.3782C182.422 46.2409 182.357 46.1755 182.233 46.1755H180.572C180.408 46.1755 180.284 46.1298 180.186 46.0317C180.088 45.9336 180.042 45.8094 180.042 45.6459V45.2732C180.042 45.1097 180.088 44.9855 180.186 44.8874C180.284 44.7894 180.408 44.7436 180.572 44.7436H182.233C182.363 44.7436 182.422 44.6782 182.422 44.5409C182.422 44.4036 182.357 44.3382 182.233 44.3382H179.833C179.669 44.3382 179.545 44.2924 179.447 44.1943C179.349 44.0962 179.303 43.972 179.303 43.8085V43.4031C179.303 43.2397 179.349 43.1154 179.447 43.0174C179.545 42.9193 179.669 42.8735 179.833 42.8735H180.559C180.663 42.8735 180.742 42.8474 180.774 42.782C180.814 42.7231 180.807 42.6512 180.768 42.5662L180.624 42.2458C180.578 42.1608 180.539 42.0823 180.493 42.0235C180.428 41.86 180.467 41.7619 180.604 41.7162L181.84 41.2781C182.056 41.1931 182.239 41.3238 182.39 41.6639L182.697 42.2916C182.716 42.3439 182.743 42.3962 182.762 42.4354C182.782 42.4812 182.808 42.527 182.828 42.5793C182.913 42.7754 183.063 42.867 183.279 42.867H183.743C183.959 42.867 184.109 42.7689 184.194 42.5793L184.338 42.272L184.678 41.4219C184.73 41.2846 184.842 41.2323 184.998 41.2585L186.025 41.5331C186.195 41.5789 186.313 41.6639 186.378 41.7881C186.443 41.9189 186.437 42.0562 186.365 42.2066C186.365 42.2262 186.352 42.2524 186.332 42.272C186.162 42.6708 186.287 42.867 186.718 42.867H187.346C187.509 42.867 187.634 42.9127 187.732 43.0108C187.83 43.1089 187.875 43.2331 187.875 43.3966V43.802C187.875 43.9655 187.83 44.0897 187.732 44.1878C187.634 44.2859 187.509 44.3316 187.346 44.3316H184.835C184.698 44.3316 184.626 44.397 184.626 44.5343C184.626 44.6717 184.698 44.737 184.835 44.737H186.476C186.64 44.737 186.764 44.7828 186.862 44.8809C186.96 44.979 187.006 45.1032 187.006 45.2667V45.6394C187.006 45.8028 186.96 45.9271 186.862 46.0252C186.764 46.1232 186.64 46.169 186.476 46.169H184.835C184.698 46.169 184.626 46.2344 184.626 46.3717C184.626 46.509 184.698 46.5744 184.835 46.5744H187.666C187.83 46.5744 187.954 46.6202 188.052 46.7183C188.15 46.8163 188.196 46.9406 188.196 47.104V47.5552C188.196 47.7187 188.15 47.8429 188.052 47.941C187.954 48.0391 187.83 48.0848 187.666 48.0848H187.248C186.967 48.0848 186.934 48.1894 187.137 48.3921C187.156 48.4052 187.169 48.4118 187.176 48.4248C187.176 48.4379 187.195 48.451 187.215 48.4706L187.359 48.6145C187.359 48.6145 187.379 48.6472 187.392 48.6537C187.405 48.6537 187.424 48.6864 187.464 48.7387C187.503 48.791 187.549 48.8564 187.607 48.9218C187.666 48.9937 187.725 49.0591 187.777 49.1245C187.882 49.2749 187.856 49.3926 187.699 49.4776C187.634 49.5233 187.562 49.5756 187.477 49.641L187.202 49.8176C187.039 49.9483 187.065 50.0072 187.267 50.0072H187.673C187.836 50.0072 187.96 50.053 188.059 50.151C188.157 50.2491 188.202 50.3734 188.202 50.5368V51.0534C188.202 51.2169 188.157 51.3411 188.059 51.4392C187.96 51.5372 187.836 51.583 187.673 51.583H187.418C187.215 51.583 187.104 51.6157 187.078 51.6876C187.058 51.7596 187.124 51.8511 187.287 51.9688L187.496 52.1323C187.732 52.3023 187.777 52.4723 187.627 52.6488C187.261 53.0542 186.986 53.3485 186.79 53.5185C186.738 53.5708 186.712 53.6231 186.712 53.6819C186.712 53.7408 186.738 53.7865 186.79 53.8454C186.888 53.9631 186.973 53.95 187.045 53.7996L187.222 53.3484C187.261 53.1981 187.352 53.1588 187.477 53.2373L187.666 53.3158V53.3288H187.699V53.3484L188.261 53.5381L188.516 53.6035C188.686 53.6558 188.745 53.7669 188.693 53.9435C188.595 54.1985 188.484 54.4993 188.366 54.8458C188.242 55.1924 188.111 55.4866 187.974 55.7285C187.836 55.977 187.62 56.1078 187.339 56.1209C187.058 56.1339 186.803 56.0816 186.594 55.9508C186.188 55.7155 185.835 55.4539 185.548 55.1597C185.417 55.0289 185.286 54.97 185.142 54.97C184.998 54.97 184.868 55.0158 184.73 55.1139C184.593 55.212 184.443 55.31 184.266 55.4147C184.09 55.5193 183.933 55.6108 183.789 55.6958C183.534 55.8332 183.338 55.7874 183.207 55.552C183.187 55.4997 183.155 55.4474 183.122 55.4016C183.083 55.3558 183.05 55.3035 183.017 55.2512C182.985 55.1989 182.952 55.1466 182.913 55.1073C182.873 55.0616 182.841 55.0158 182.808 54.9635C182.671 54.7935 182.586 54.8197 182.553 55.042C182.488 55.3558 182.35 55.5912 182.135 55.7481C181.821 55.9639 181.383 56.0685 180.814 56.0685H180.284L180.291 56.0816ZM182.867 50.0334H183.22C183.488 50.0334 183.625 49.896 183.625 49.6149L183.593 49.1964V48.7583C183.58 48.6275 183.619 48.5229 183.697 48.4444C183.776 48.366 183.88 48.3268 184.011 48.3268H184.894C185.175 48.3268 185.325 48.4771 185.345 48.7779V48.9872C185.345 49.0656 185.345 49.1376 185.358 49.2095L185.378 49.628C185.397 49.8961 185.541 50.0334 185.796 50.0334H186.038C186.169 50.0334 186.247 50.0006 186.28 49.9353C186.332 49.8633 186.293 49.7522 186.149 49.6149L186.038 49.4514C186.038 49.4514 186.018 49.4187 186.005 49.4122C185.992 49.4122 185.973 49.386 185.94 49.3403C185.842 49.2356 185.77 49.1506 185.711 49.0983C185.548 48.9152 185.567 48.7649 185.757 48.6472L186.032 48.4706C186.215 48.3529 186.293 48.2614 186.273 48.196C186.254 48.1306 186.136 48.0979 185.92 48.0979H183.429C183.207 48.0979 183.063 48.1568 183.004 48.2745C182.945 48.3922 182.978 48.5425 183.109 48.7256L183.396 49.1768C183.481 49.2945 183.455 49.3664 183.318 49.386L183.109 49.3991L182.854 49.4449C182.684 49.4645 182.599 49.5626 182.599 49.7326V49.7522C182.599 49.9353 182.69 50.0268 182.873 50.0268L182.867 50.0334ZM184.005 53.6361C184.24 53.5054 184.312 53.3027 184.214 53.0215L184.07 52.5573C184.05 52.4723 184.024 52.3873 184.005 52.3023C183.985 52.2173 183.959 52.1192 183.933 52.0146C183.906 51.91 183.848 51.8119 183.75 51.7334C183.652 51.6549 183.54 51.6157 183.41 51.6157H182.782C182.651 51.6157 182.592 51.6746 182.592 51.7988C182.592 51.923 182.651 51.9753 182.769 51.9492L183.495 51.8053C183.665 51.753 183.75 51.8184 183.75 52.0015V52.9496C183.75 53.1327 183.658 53.2373 183.475 53.27L182.893 53.4008C182.69 53.4531 182.586 53.5904 182.586 53.8062V53.9369C182.586 54.1527 182.664 54.2573 182.828 54.2573C182.9 54.2573 183.05 54.1985 183.279 54.0808C183.599 53.9108 183.841 53.7669 184.005 53.6492V53.6361ZM185.888 52.0734L186.175 51.753C186.247 51.655 186.221 51.6092 186.097 51.6092H185.79C185.685 51.6092 185.639 51.655 185.659 51.753L185.737 52.0407C185.77 52.1257 185.816 52.1388 185.881 52.0734H185.888Z" fill="white"/>
<path d="M195.369 47.8562C195.179 47.5358 194.905 47.1762 194.565 46.7773C194.296 46.4766 194.342 46.2477 194.708 46.0842C196.533 45.2473 198.161 44.1684 199.599 42.8476C200.083 42.3964 200.495 41.9387 200.842 41.4614C200.992 41.2783 201.162 41.2064 201.358 41.2391L203.078 41.4614C203.215 41.481 203.385 41.6118 203.575 41.8472C203.764 42.0826 204.059 42.3703 204.451 42.7168C204.843 43.0634 205.255 43.3903 205.68 43.6976C206.622 44.3515 207.74 44.9727 209.028 45.5612C209.244 45.6723 209.473 45.7704 209.715 45.8685C209.957 45.9665 209.976 46.1169 209.773 46.3196L209.532 46.5746C209.532 46.5746 209.499 46.5942 209.492 46.6073C209.492 46.6204 209.44 46.6793 209.355 46.7839C209.041 47.15 208.799 47.4966 208.616 47.8301C208.466 48.0785 208.27 48.1439 208.034 48.0197C207.465 47.7385 207.06 47.5293 206.818 47.3789C206.576 47.2285 206.413 47.1566 206.328 47.1566C206.145 47.1566 206.053 47.2939 206.053 47.5751V47.6862C206.053 47.8497 206.007 47.9739 205.909 48.072C205.811 48.1701 205.687 48.2158 205.523 48.2158H198.671C198.507 48.2158 198.383 48.1701 198.285 48.072C198.187 47.9739 198.141 47.8497 198.141 47.6862V47.5424C198.141 47.2743 198.05 47.137 197.867 47.137C197.788 47.137 197.697 47.1697 197.579 47.235C196.578 47.8366 195.997 48.1374 195.833 48.1374C195.67 48.1374 195.513 48.0393 195.375 47.8497L195.369 47.8562ZM207.544 55.7092C207.42 55.8268 207.335 55.9053 207.289 55.9445C207.243 55.9838 207.184 56.0295 207.119 56.0884C207.053 56.1472 206.981 56.1799 206.896 56.1799C206.811 56.1799 206.72 56.1015 206.622 55.9576C206.419 55.6045 206.184 55.2645 205.916 54.9441C205.811 54.7807 205.654 54.7218 205.451 54.7676L203.987 54.9768C203.653 55.0226 203.313 55.0618 202.967 55.1076C202.62 55.1534 202.261 55.1991 201.894 55.2449C201.528 55.2907 201.169 55.3364 200.809 55.3757C200.449 55.4149 200.057 55.4541 199.625 55.4934C198.265 55.6568 197.304 55.7484 196.748 55.768C196.448 55.7876 196.271 55.6503 196.219 55.3495L195.931 53.8718C195.912 53.7541 195.931 53.656 195.997 53.5841C196.062 53.5122 196.14 53.4664 196.238 53.4664C196.337 53.4664 196.415 53.4599 196.487 53.4599C196.559 53.4599 196.631 53.4599 196.722 53.4402L197.638 53.4075C197.827 53.3879 197.971 53.3029 198.056 53.1656C198.141 53.0283 198.22 52.8845 198.298 52.7341C198.377 52.5837 198.455 52.4333 198.54 52.2829L198.828 51.6879C198.913 51.5048 198.919 51.3609 198.854 51.2498C198.782 51.1452 198.645 51.0863 198.442 51.0863H196.062C195.898 51.0863 195.774 51.0405 195.676 50.9425C195.578 50.8444 195.532 50.7201 195.532 50.5567V49.4974C195.532 49.334 195.578 49.2097 195.676 49.1116C195.774 49.0136 195.898 48.9678 196.062 48.9678H208.23C208.394 48.9678 208.518 49.0136 208.616 49.1116C208.714 49.2097 208.76 49.334 208.76 49.4974V50.5567C208.76 50.7201 208.714 50.8444 208.616 50.9425C208.518 51.0405 208.394 51.0863 208.23 51.0863H206.315C206.06 51.0863 205.909 51.1386 205.883 51.2367C205.85 51.3413 205.903 51.459 206.046 51.5963C206.334 51.8644 206.563 52.0802 206.74 52.2371C207.263 52.7864 207.903 53.5056 208.655 54.408C208.806 54.5976 208.767 54.7872 208.544 54.9703C208.492 55.0161 208.44 55.0553 208.381 55.088C208.328 55.1272 208.25 55.1795 208.158 55.258C207.89 55.4411 207.694 55.5915 207.57 55.7092H207.544ZM200.305 46.1039H203.863C204.144 46.1039 204.301 46.0515 204.327 45.9535C204.353 45.8554 204.268 45.7115 204.052 45.5284C203.588 45.1754 203.078 44.7177 202.522 44.1619C202.391 44.0115 202.254 43.9396 202.104 43.9396C201.953 43.9396 201.783 44.0376 201.587 44.2273C201.299 44.528 200.796 44.9531 200.09 45.4958C199.854 45.6919 199.75 45.8423 199.782 45.9469C199.815 46.0515 199.985 46.1104 200.299 46.1104L200.305 46.1039ZM201.371 53.1068L202.463 53.0087L203.653 52.8779C203.902 52.8583 203.934 52.7668 203.751 52.6033L203.477 52.3483L203.254 52.1717C203.104 52.054 203.098 51.9298 203.235 51.799L203.555 51.5244C203.719 51.3871 203.784 51.2759 203.758 51.1975C203.732 51.119 203.608 51.0798 203.398 51.0798H202.189C201.973 51.0798 201.816 51.1844 201.705 51.3871C201.515 51.8186 201.299 52.2371 201.064 52.6425C200.979 52.806 200.959 52.9237 201.018 53.0152C201.071 53.1002 201.188 53.1329 201.371 53.1133V53.1068Z" fill="white"/>
</svg>
