<svg width="458" height="100" viewBox="0 0 458 100" fill="none" xmlns="http://www.w3.org/2000/svg">
<path d="M140.061 36.9113C146.568 36.7141 149.816 39.8229 158.435 41.0293C163.389 41.7253 167.681 41.4469 170.813 40.9945C173.516 40.6929 175.174 39.4865 175.128 38.5469C175.07 37.4681 172.785 36.7721 172.657 36.7373C177.877 36.8185 181.265 34.1156 181.218 32.1204C181.183 30.3456 178.388 28.2691 174.467 27.7123C174.467 13.4789 162.751 1.7743 148.517 1.7627C132.323 1.7627 122.974 16.9358 122.568 27.7123C122.463 30.3688 122.916 32.7004 123.484 34.568C121.767 35.4264 121.315 37.1897 121.86 37.9785C122.312 38.6397 123.658 38.8833 124.946 38.2569C123.855 39.2777 119.656 43.2218 120.271 44.0802C120.839 44.8806 125.294 42.607 126.767 41.8413C132.358 37.8625 136.963 37.0041 140.049 36.8997L140.061 36.9113Z" fill="#FABF06"/>
<path d="M167.971 44.8814C165.337 45.2062 162.136 45.3106 158.575 44.835C149.886 43.6633 146.464 39.9397 139.829 40.4501C137.219 40.6589 133.495 41.5637 129.122 44.9278C128.078 46.4242 127.892 46.8418 127.973 46.9114C128.124 47.039 129.168 45.7398 130.05 46.0182C130.316 46.0994 130.502 46.3082 130.595 46.459C131.813 45.8094 133.599 45.009 135.85 44.4522C137.439 44.0578 138.843 43.9069 140.061 43.8721C146.58 43.6749 149.828 46.7838 158.435 47.9902C160.477 48.2802 162.391 48.3962 164.177 48.4078C164.572 47.8046 165.233 47.0158 166.219 46.7838C168.319 46.285 170.453 48.6514 170.685 48.3962C170.801 48.2686 170.384 47.5494 167.971 44.893V44.8814Z" fill="#FABF06"/>
<path d="M139.829 47.4211C138.205 47.5487 136.14 47.9547 133.762 49.0567C131.801 50.588 131.488 51.2028 131.616 51.458C131.883 51.98 133.831 50.994 136.673 51.2376C138.529 51.4 138.576 51.8988 141.418 52.676C144.991 53.6504 147.856 53.662 148.517 53.662C151.394 53.6504 151.29 53.0936 153.853 53.1052C158.053 53.1284 160.767 54.6248 160.999 54.1376C161.103 53.9288 160.697 53.3604 158.285 51.748C149.167 48.5696 142.125 47.2355 139.817 47.4095L139.829 47.4211Z" fill="#FABF06"/>
<path d="M30.1141 2.72607C29.3833 12.1686 27.6432 23.2816 23.9196 35.3342C22.458 40.0439 20.8571 44.4287 19.1751 48.454C20.9731 48.9296 22.7828 49.4052 24.5808 49.8924C26.3556 46.6792 28.2117 42.5843 29.5457 37.6542C30.1605 35.3806 30.5781 33.2346 30.8681 31.2625H44.7651C44.8347 33.0258 44.8231 34.9862 44.6491 37.109C44.4171 40.0207 43.9647 42.6191 43.4311 44.8232C41.5983 44.3128 39.7538 43.7907 37.921 43.2803C37.1902 45.8208 36.4478 48.3496 35.717 50.8901C39.9047 51.1453 44.1039 51.4005 48.2916 51.6673C49.324 46.076 50.2172 40.0671 50.8668 33.6638C51.9225 23.2352 52.1428 13.6187 51.8876 5.01131L30.1257 2.73769L30.1141 2.72607ZM45.1943 26.7269L33.2345 27.1909C33.5361 24.952 33.8494 22.7132 34.151 20.4744C37.9326 20.3584 41.7143 20.2424 45.4843 20.1148C45.3915 22.3188 45.2871 24.5228 45.1943 26.7269ZM45.9368 15.6255C42.1783 15.6487 38.4198 15.6719 34.6729 15.6835C34.7425 13.5722 34.8237 11.4726 34.8934 9.36138C38.675 9.24538 42.4567 9.12938 46.2268 9.00178C46.134 11.2058 46.0296 13.4098 45.9368 15.6139V15.6255Z" fill="black"/>
<path d="M3.19011 5.20898C2.1229 15.4403 1.06728 25.6833 6.10352e-05 35.9147C7.11098 36.6223 14.2219 37.3183 21.3328 38.0259C22.5392 27.841 23.7457 17.6676 24.9521 7.48263C17.702 6.72862 10.4402 5.963 3.19011 5.20898ZM16.0663 31.1354L7.81858 30.8686C7.88818 28.0614 7.94619 25.2541 8.01579 22.4585C11.055 22.7833 14.0827 23.0965 17.122 23.4213C16.7739 25.9965 16.4143 28.5718 16.0663 31.1354ZM18.166 19.4888L8.50298 17.7488L8.75819 10.5219C12.2382 10.9627 15.7067 11.4035 19.1868 11.8327C18.8504 14.3847 18.5139 16.9368 18.1775 19.4888H18.166Z" fill="black"/>
<path d="M62.5483 14.7088C62.9543 12.586 63.3603 10.4632 63.7547 8.34033L76.0625 12.354C75.9929 13.4328 75.9349 14.5232 75.8653 15.6021C71.4225 15.3005 66.9912 15.0104 62.5483 14.7088Z" fill="black"/>
<path d="M77.0369 19.2443C82.6746 13.1658 88.3123 7.08729 93.95 1.00879C95.7596 2.48201 97.5692 3.94364 99.3904 5.41686C95.4 9.01292 91.4095 12.5974 87.419 16.1934C94.0312 15.6946 100.655 15.1958 107.267 14.7086L105.655 11.1822C107.777 10.6485 109.9 10.1149 112.011 9.58133C114.146 14.2678 116.28 18.9659 118.415 23.6524C116.953 24.6268 115.492 25.6012 114.03 26.5756L110.039 19.5227C100.33 21.3439 90.6091 23.1651 80.8997 24.9748C79.6121 23.0723 78.3245 21.1583 77.0369 19.2559V19.2443Z" fill="black"/>
<path d="M61.5042 25.4044L67.0839 20.6831C69.868 22.2143 72.6636 23.7571 75.4476 25.2884C74.972 26.4484 74.4964 27.6084 74.0092 28.7684C69.8331 27.6432 65.6687 26.518 61.4926 25.3928L61.5042 25.4044Z" fill="black"/>
<path d="M63.2326 48.7095C61.6318 47.0738 60.0193 45.4382 58.4185 43.8026C63.1978 41.0069 67.9887 38.2229 72.7679 35.4272C73.4756 36.4597 74.1832 37.4805 74.8908 38.5129C71.0047 41.9118 67.1187 45.3222 63.2442 48.7211L63.2326 48.7095Z" fill="black"/>
<path d="M81.5377 28.6291L80.0993 48.6858L109.773 46.9342L111.211 26.8774L81.5377 28.6291ZM104.46 41.7025L86.433 42.7697C86.7926 39.452 87.1638 36.1344 87.5235 32.8283C93.2771 32.4571 99.0424 32.0859 104.796 31.7147C104.68 35.044 104.564 38.3732 104.46 41.7141V41.7025Z" fill="black"/>
<path d="M207.156 3.00391C208.873 3.94352 210.578 4.87153 212.295 5.81115C211.007 8.27039 209.708 10.718 208.421 13.1773C215.74 13.2817 223.048 13.3745 230.368 13.4789C229.278 23.339 228.176 33.1992 227.085 43.0594C225.728 44.521 224.382 45.9826 223.025 47.4442C219.626 45.2982 216.227 43.1638 212.829 41.0177C213.583 39.5097 214.337 38.0017 215.079 36.482C217.132 37.6305 219.197 38.7673 221.25 39.9157C221.993 33.1296 222.747 26.3435 223.489 19.5574C218.965 19.4762 214.441 19.3834 209.917 19.3022C212.249 20.9726 214.592 22.6546 216.924 24.3251L212.028 27.2367C209.72 25.1719 207.411 23.0954 205.103 21.0306C203.548 23.803 202.006 26.5755 200.463 29.3479C198.665 28.6983 196.867 28.0487 195.069 27.3991C196.588 24.7659 198.12 22.1326 199.639 19.511C196.797 19.743 193.955 19.9634 191.113 20.1954C191.972 28.4663 192.83 36.7372 193.7 45.0082C191.937 45.2866 190.185 45.5534 188.422 45.8318C186.902 35.3336 185.383 24.8239 183.863 14.3257C189.941 13.8617 196.02 13.3977 202.098 12.9337C203.78 9.62761 205.463 6.32156 207.156 3.00391Z" fill="black"/>
<path d="M239.01 13.6641C240.019 24.8466 241.017 36.0176 242.026 47.2002C253.081 46.655 264.136 46.1098 275.191 45.5646C277.349 34.9388 279.518 24.3014 281.676 13.6757H239.022L239.01 13.6641ZM256.306 41.1449C252.884 41.4117 249.474 41.6785 246.052 41.9453C245.854 38.8829 245.657 35.8204 245.46 32.758C249.242 32.6188 253.012 32.4796 256.793 32.3404C256.631 35.2752 256.469 38.2101 256.306 41.1449ZM257.165 27.6887C253.023 27.8743 248.882 28.0599 244.729 28.2339C244.52 25.0206 244.312 21.8074 244.114 18.5941C248.604 18.5477 253.093 18.5129 257.594 18.4665C257.455 21.5406 257.315 24.6146 257.165 27.6887ZM271.178 40.8201C268.104 40.9593 265.041 41.0985 261.967 41.2377C262.199 38.1288 262.431 35.0084 262.675 31.8996C265.795 32.0272 268.916 32.1548 272.048 32.2824L271.178 40.8201ZM262.419 27.5727C262.663 24.6262 262.907 21.6682 263.15 18.7217C266.862 18.8725 270.563 19.0117 274.275 19.1625C273.695 22.109 273.126 25.0554 272.546 28.0135C269.171 27.8627 265.795 27.7235 262.431 27.5727H262.419Z" fill="black"/>
<path d="M289.413 12.4464V18.4901L297.371 17.9565V48.8246H301.825V17.9565L308.403 17.8521V13.0844H302.997L303.101 4.91788C301.187 4.74387 299.285 4.56988 297.371 4.38428V12.6552L289.413 12.4464Z" fill="black"/>
<path d="M294.459 20.1724L296.675 22.7012L289.413 37.4102L285.283 33.327L294.459 20.1724Z" fill="black"/>
<path d="M303.009 21.9238L305.746 19.5342L312.497 31.146L309.017 34.8232L303.009 21.9238Z" fill="black"/>
<path d="M334.921 0C335.303 2.07643 335.698 4.15286 336.081 6.2293C334.062 7.08771 332.044 7.94612 330.025 8.81613C330.211 9.80215 331.162 14.4306 335.547 17.5859C340.442 21.1007 345.79 20.0219 346.625 19.8363L343.922 25.3696C342.333 25.3464 336.742 25.0912 331.986 20.8223C329.039 18.1775 327.694 15.1614 327.114 13.5142C326.557 15.1498 324.945 19.1403 320.838 22.2376C317.938 24.43 315.026 25.2188 313.379 25.5436C312.474 23.9776 311.558 22.4 310.653 20.8339C312.057 20.8223 315.688 20.5903 319.33 18.1079C323.146 15.5095 324.689 11.9946 325.177 10.707C323.146 11.5654 321.105 12.4238 319.075 13.2822C318.402 11.5422 317.729 9.81375 317.068 8.07372C323.019 5.38248 328.981 2.70284 334.932 0.0115938L334.921 0Z" fill="black"/>
<path d="M309.551 13.4093L311.952 18.5366L345.616 17.7014V12.6089L309.551 13.4093Z" fill="black"/>
<path d="M321.534 21.0421C321.488 23.1766 321.441 25.311 321.395 27.4338H332.461V21.0073C328.819 21.0073 325.176 21.0305 321.534 21.0421ZM328.9 25.6706H324.422V22.9561L328.9 23.165V25.6706Z" fill="black"/>
<path d="M321.847 34.3016C321.696 36.7957 321.557 39.2897 321.406 41.7838C325.211 41.8534 329.028 41.9346 332.833 42.0042L334.167 34.6032C330.06 34.4988 325.954 34.3944 321.847 34.29V34.3016ZM329.503 39.5217L324.55 39.9277C324.712 38.8837 324.875 37.8513 325.026 36.8073C326.743 36.8073 328.459 36.7957 330.176 36.7841C329.956 37.7005 329.724 38.6169 329.503 39.5217Z" fill="black"/>
<path d="M312.985 30.3692C312.915 36.2157 312.834 42.0622 312.764 47.9087C314.261 47.8275 315.757 47.7347 317.254 47.6535C317.3 42.6074 317.335 37.5729 317.381 32.5268C325.026 32.4108 332.67 32.3064 340.303 32.1904V44.0806L334.178 44.3242L334.932 48.0015C338.203 48.2683 341.486 48.5351 344.758 48.8019C344.711 42.6422 344.676 36.4825 344.63 30.3112C343.737 29.708 342.844 29.1164 341.95 28.5132C333.018 28.548 324.086 28.5828 315.154 28.6176C314.435 29.1976 313.716 29.7776 312.996 30.3576L312.985 30.3692Z" fill="black"/>
<path d="M352.425 15.1962L353.121 22.1563L360.128 21.0427L359.235 29.1397L352.24 32.5501L354.154 37.457L371.229 29.6617L370.023 25.0216L364.443 27.5504L365.104 21.5879L371.612 20.1727L370.962 14.0014L365.162 14.9874L365.87 8.54932L360.105 9.10612L359.884 16.0198L352.425 15.1962Z" fill="black"/>
<path d="M384.268 22.4808L388.525 22.272C388.305 24.1976 388.084 26.1232 387.864 28.0489C389.035 27.9561 390.207 27.8517 391.367 27.7589V22.272H395.833C395.659 24.1628 395.485 26.0536 395.311 27.9445C396.506 27.8169 397.689 27.6893 398.884 27.5617V22.272H403.756C403.513 25.694 403.257 29.1277 403.014 32.5497C400.415 32.5729 397.828 32.6077 395.23 32.6309L394.824 40.0086H398.884V34.9974H402.944L402.132 45.6232H382.447V34.9974H386.611V40.0086H389.755C389.94 37.5726 390.126 35.125 390.3 32.6889C387.678 32.6657 385.057 32.6541 382.447 32.6309C383.05 29.2437 383.665 25.868 384.268 22.4808Z" fill="black"/>
<path d="M376.148 4.6167C375.974 10.7184 375.382 17.7017 374.06 25.3346C372.424 34.696 370.046 42.8161 367.622 49.521C369.942 49.8458 372.273 50.159 374.593 50.4838C377.052 40.1945 379.512 29.9051 381.959 19.6273C389.43 19.2909 396.889 18.9545 404.359 18.6181L405.577 2.99268L376.148 4.6167ZM398.884 14.6973C393.594 14.8713 388.305 15.0453 383.015 15.2193C383.189 13.1892 383.363 11.1708 383.525 9.14076C388.769 8.95516 394 8.75797 399.244 8.57236C399.116 10.614 399 12.6556 398.872 14.6973H398.884Z" fill="black"/>
<path d="M414.475 6.90234V35.8216H420.82L422.85 8.29436L414.475 6.90234Z" fill="black"/>
<path d="M431.724 8.29443L439.079 9.68645L435.401 32.446H428.673L431.724 8.29443Z" fill="black"/>
<path d="M449.217 9.68604L457.337 11.9829L453.277 51.2959H444.403L449.217 9.68604Z" fill="black"/>
<path d="M87.8714 78.0805L88.7298 78.1037H89.6462C90.5046 78.1037 91.4211 78.0805 92.3839 78.0457C92.5579 78.0457 92.6971 77.9877 92.8015 77.8717C92.9059 77.7557 92.9523 77.628 92.9523 77.5004V76.468L92.9291 75.7836C92.9291 75.4472 93.0335 75.1804 93.2423 75.018C93.4163 74.8788 93.6367 74.8208 93.9035 74.8208H96.0148C96.3396 74.8208 96.6064 74.9252 96.8152 75.134C97.024 75.3428 97.1283 75.6096 97.1283 75.9344V77.1872C97.1283 77.3729 97.1747 77.5236 97.2791 77.6165C97.3835 77.7093 97.4996 77.7556 97.604 77.7556C97.6272 77.7556 97.8592 77.7441 98.3232 77.7093C98.7756 77.6861 99.2512 77.628 99.7268 77.57C100.202 77.512 100.527 77.4657 100.701 77.4541C100.875 77.4541 101.038 77.4308 101.188 77.396C101.339 77.3612 101.455 77.3497 101.525 77.3497C101.757 77.3497 101.966 77.4308 102.151 77.5817C102.418 77.7905 102.546 78.0921 102.546 78.4981V80.1801C102.546 80.4469 102.464 80.6789 102.29 80.8645C102.116 81.0501 101.896 81.1777 101.629 81.2357C100.26 81.4097 98.8916 81.5257 97.5228 81.6069C97.3952 81.6301 97.3023 81.6649 97.2559 81.7229C97.2095 81.7809 97.1863 81.8621 97.1863 81.9781L97.2212 82.5233V83.0686C97.2444 83.1614 97.2676 83.2309 97.2908 83.2657C97.3256 83.3005 97.3603 83.3238 97.4183 83.3238H97.5575C98.9264 83.1962 99.9124 83.0454 100.527 82.8946C100.852 82.8134 101.142 82.7785 101.386 82.7785C101.629 82.7785 101.826 82.8365 101.954 82.9525C102.198 83.1381 102.325 83.4514 102.325 83.869V85.783C102.325 86.0266 102.267 86.2354 102.151 86.4094C102.024 86.6414 101.803 86.7806 101.49 86.8386C100.446 87.0706 99.228 87.233 97.8592 87.3258C97.6852 87.349 97.5575 87.407 97.4763 87.5114C97.3951 87.6158 97.3487 87.7318 97.3487 87.871L97.372 89.6691C97.3952 89.9707 97.5344 90.1679 97.8012 90.2375C99.6456 90.8291 101.594 91.7339 103.624 92.9519C103.891 93.1027 104.019 93.2999 104.019 93.5551C104.019 93.7871 103.926 93.9843 103.729 94.1583C103.404 94.4251 102.975 94.9819 102.441 95.8171C102.383 95.8983 102.337 95.9679 102.29 96.0607C102.244 96.1419 102.174 96.2695 102.07 96.4203C101.954 96.6291 101.78 96.7336 101.536 96.7336C101.293 96.7336 101.107 96.6872 100.98 96.5944C100.295 96.0608 99.75 95.6664 99.3556 95.3996C98.8568 95.098 98.4856 94.8891 98.242 94.7731C97.9984 94.6571 97.836 94.5991 97.7548 94.5991C97.5112 94.5991 97.3256 94.7963 97.2095 95.2023C96.5599 97.302 94.8431 98.3576 92.0475 98.3692C89.913 98.3692 88.3354 97.9052 87.3146 96.9656C86.3634 96.0955 85.8878 94.9935 85.8878 93.6827V93.6015C85.9226 92.6155 86.2474 91.7919 86.8622 91.1423C87.477 90.4927 88.115 90.0403 88.7762 89.7735C89.7042 89.4139 90.6786 89.2282 91.6878 89.2282C91.7807 89.2282 92.1751 89.2514 92.8595 89.2862L93.1727 89.3095H93.2075L93.1495 87.7434C93.1495 87.7434 93.1495 87.6506 93.1379 87.639C93.1379 87.639 93.1031 87.6274 93.0683 87.6274L92.7203 87.6506H92.0011C90.9687 87.6506 90.2262 87.5926 89.7506 87.4766C88.7646 87.2678 88.0222 86.8966 87.5234 86.363C86.8738 85.6786 86.549 85.1102 86.549 84.6462C86.549 84.2634 86.7578 83.985 87.1754 83.7878L89.0082 82.8481C89.1242 82.8133 89.2286 82.7901 89.3214 82.7901C89.565 82.7901 89.7623 82.8945 89.9247 83.1034C90.0407 83.2542 90.1682 83.3818 90.2958 83.4746C90.3538 83.5326 90.5163 83.579 90.7831 83.6138C91.0499 83.6486 91.4791 83.6717 92.0707 83.6717H92.6971L93.0103 83.6486H93.0683V83.5905L93.0335 82.535C93.0335 82.3494 92.9987 82.1985 92.9175 82.1057C92.8363 82.0129 92.6971 81.9665 92.4883 81.9665L91.4327 82.0013C90.2727 82.0593 89.391 82.0825 88.7762 82.0825H87.9526C87.651 82.0825 87.3958 81.9897 87.1986 81.7925C87.0014 81.6069 86.897 81.3517 86.897 81.0501C86.8622 79.8089 86.839 79.1825 86.839 79.1709C86.839 78.8461 86.9318 78.5909 87.129 78.3821C87.3146 78.1849 87.5698 78.0805 87.8714 78.0805ZM89.9594 93.6363C89.9594 94.1931 90.5162 94.4599 91.6183 94.4599C92.1287 94.4599 92.5347 94.3787 92.8363 94.2047C93.1263 94.0307 93.2771 93.7407 93.2771 93.3231V93.0099H93.2423L92.5231 92.8939C92.2331 92.8707 91.885 92.8707 91.4558 92.8707C91.0266 92.8707 90.667 92.9519 90.3886 93.1027C90.0986 93.2535 89.9594 93.4391 89.9594 93.6479V93.6363Z" fill="black"/>
<path d="M127.556 83.3354C127.556 83.0338 127.358 82.883 126.952 82.883C125.862 82.9062 125.236 82.9062 125.073 82.9062C124.25 82.9062 123.565 82.9062 122.985 82.883C122.695 82.883 122.452 82.7902 122.254 82.593C122.057 82.4074 121.941 82.1638 121.93 81.8738L121.814 79.7626C121.814 79.4377 121.918 79.1825 122.127 79.0085C122.336 78.8229 122.626 78.7417 122.985 78.7417H123.217C123.774 78.7997 124.528 78.8229 125.502 78.8229H127.985C128.159 78.7997 128.286 78.7649 128.368 78.6953C128.449 78.6257 128.507 78.4865 128.542 78.2661C128.576 78.0457 128.588 77.8137 128.6 77.5701C128.6 77.3265 128.634 77.0713 128.669 76.8277L128.704 75.7489C128.727 75.4473 128.808 75.1921 128.959 75.0065C129.145 74.7629 129.447 74.6353 129.841 74.6353H132.068C132.393 74.6353 132.66 74.7397 132.869 74.9485C133.054 75.1341 133.159 75.4937 133.159 76.0157C133.159 76.5377 133.101 77.1757 132.985 77.9181V78.0341C132.985 78.1849 133.031 78.3125 133.124 78.4053C133.217 78.4981 133.367 78.5445 133.576 78.5445C133.611 78.5445 133.739 78.5445 133.936 78.5213C134.133 78.4981 134.446 78.4749 134.864 78.4401C136.325 78.3241 137.439 78.2081 138.193 78.0805C138.947 77.9529 139.411 77.8833 139.597 77.8485C139.782 77.8253 139.945 77.7905 140.107 77.7441C140.269 77.7093 140.397 77.6861 140.49 77.6861C140.699 77.6861 140.896 77.7557 141.093 77.8833C141.302 78.0573 141.406 78.3125 141.406 78.6489C141.406 78.6837 141.348 79.4146 141.232 80.8182C141.209 81.0618 141.151 81.2706 141.035 81.4214C140.884 81.6302 140.652 81.7578 140.351 81.7926C138.007 82.1406 135.444 82.419 132.648 82.651C132.521 82.651 132.393 82.6974 132.289 82.7786C132.184 82.8598 132.115 83.0106 132.08 83.2194C131.848 84.0894 131.685 84.6694 131.593 84.9594C131.5 85.2495 131.453 85.4118 131.453 85.4582V85.5626H131.558C131.558 85.5626 131.767 85.5047 132.057 85.3886C132.95 85.0522 133.855 84.8782 134.783 84.8782C135.711 84.8782 136.592 85.0058 137.451 85.2495C138.309 85.5163 139.051 85.8875 139.678 86.3631C141.047 87.4535 141.731 88.9499 141.731 90.8755C141.731 93.3928 140.71 95.3068 138.68 96.6408C136.801 97.8008 134.342 98.3808 131.314 98.3808H130.769C130.259 98.3228 129.934 98.056 129.795 97.5804C129.655 97.1396 129.481 96.6524 129.249 96.1304C128.89 95.4228 128.669 95.0052 128.576 94.8544C128.484 94.7036 128.449 94.5876 128.449 94.4716C128.449 94.17 128.646 94.0192 129.052 94.0192H129.133C129.644 94.0424 130.154 94.0424 130.641 94.0424C132.451 94.0424 133.936 93.8104 135.096 93.358C136.488 92.8244 137.184 91.966 137.184 90.7943C137.184 90.1447 136.894 89.6575 136.302 89.3095C135.792 89.0079 135.084 88.8571 134.191 88.8571C133.298 88.8571 132.358 89.0311 131.384 89.3675C130.398 89.7155 129.539 90.2607 128.797 91.0263L128.17 91.7919C128.02 91.9311 127.88 91.9892 127.741 91.9892C127.602 91.9892 127.486 91.9544 127.37 91.8731L125.34 90.5043C124.98 90.2375 124.795 89.9475 124.795 89.6227C124.795 89.3559 124.911 89.0891 125.131 88.8223C125.723 88.0451 126.198 87.2099 126.558 86.3283C126.918 85.4466 127.242 84.5418 127.532 83.6254C127.556 83.4978 127.567 83.3934 127.567 83.3354H127.556Z" fill="black"/>
<path d="M176.682 86.1656C176.682 86.1656 176.682 86.0612 176.648 86.0264V86.0032C176.624 84.936 176.207 84.1704 175.36 83.6948C174.676 83.3004 173.713 83.0916 172.483 83.0916H172.031C169.27 83.2424 166.057 83.9036 162.379 85.0636C162.147 85.1564 161.939 85.2376 161.741 85.2956C161.544 85.3536 161.359 85.4232 161.196 85.4928C161.034 85.574 160.86 85.6088 160.663 85.6088C160.21 85.6088 159.874 85.3652 159.665 84.8896L158.725 82.5232C158.644 82.3492 158.609 82.1868 158.609 82.036V82.0128C158.609 81.8388 158.644 81.688 158.725 81.5604C158.876 81.2704 159.143 81.0963 159.526 81.0151L163.47 80.2496C167.483 79.426 170.291 79.0083 171.892 78.9619C172.286 78.9387 172.553 78.9387 172.692 78.9387C174.467 78.9387 175.94 79.1939 177.112 79.7044C179.93 80.8992 181.334 83.0684 181.334 86.212C181.334 87.5809 181.044 88.7641 180.476 89.7617C179.907 90.7593 179.165 91.5829 178.248 92.2325C177.332 92.8822 176.346 93.4158 175.279 93.8334C173.562 94.5178 171.428 95.0398 168.852 95.3994H168.713C168.214 95.3994 167.843 95.063 167.599 94.4018C167.205 93.3578 166.764 92.5226 166.289 91.8846C166.161 91.6989 166.091 91.5365 166.091 91.3973C166.091 91.0957 166.3 90.9217 166.718 90.8869C168.62 90.7361 170.082 90.5505 171.091 90.3417C173.168 89.8429 174.641 89.2397 175.511 88.5089C176.288 87.8593 176.682 87.082 176.682 86.1656ZM180.51 77.9991C180.661 78.1963 180.742 78.3935 180.742 78.6255C180.742 78.8575 180.615 79.0779 180.371 79.2867L179.919 79.6579C179.71 79.8667 179.455 79.9711 179.142 79.9711C178.828 79.9711 178.573 79.8435 178.341 79.5767C178.167 79.3679 178.028 79.1939 177.924 79.0663C177.819 78.9387 177.703 78.7995 177.564 78.6719C177.425 78.5443 177.309 78.4167 177.204 78.3007C177.1 78.1847 176.996 78.0687 176.88 77.9643C176.636 77.7207 176.508 77.4307 176.508 77.1175C176.508 76.8043 176.648 76.5259 176.938 76.2707L177.344 75.9343C177.552 75.7603 177.761 75.6791 177.97 75.6791C178.179 75.6791 178.364 75.7603 178.538 75.9111C178.805 76.1431 178.979 76.3055 179.049 76.3983L180.07 77.5119C180.162 77.6047 180.244 77.6975 180.313 77.7787C180.383 77.8599 180.441 77.9411 180.499 78.0223L180.51 77.9991ZM182.912 75.9459C183.039 76.1315 183.109 76.3403 183.109 76.5723C183.109 76.8043 182.993 77.0247 182.773 77.2335L182.32 77.6047C182.088 77.8135 181.833 77.9179 181.531 77.9179C181.23 77.9179 180.974 77.7787 180.742 77.5235C180.568 77.3147 180.429 77.1407 180.313 77.0131C180.197 76.8855 180.081 76.7463 179.954 76.6187C179.826 76.4795 179.71 76.3635 179.617 76.2475C179.513 76.1315 179.408 76.0155 179.292 75.9111C179.026 75.6675 178.898 75.3775 178.898 75.0643C178.898 74.7511 179.049 74.4727 179.35 74.2175L179.745 73.8695C179.954 73.6955 180.162 73.6143 180.371 73.6143C180.58 73.6143 180.766 73.6954 180.917 73.8462C181.207 74.0782 181.38 74.2407 181.462 74.3335L182.494 75.4471C182.587 75.5399 182.668 75.6327 182.726 75.7139C182.784 75.7951 182.854 75.8763 182.923 75.9575L182.912 75.9459Z" fill="black"/>
<path d="M210.857 98.2069C210.706 98.3229 210.497 98.3808 210.242 98.3808C209.987 98.3808 209.778 98.2417 209.627 97.9516C208.084 95.272 205.892 92.3256 203.061 89.1355C202.562 88.6019 202.064 88.1031 201.553 87.6275C200.985 87.0939 200.695 86.5603 200.695 86.0151C200.695 85.4699 200.985 84.9595 201.577 84.4838C202.284 83.8922 203.131 83.0802 204.117 82.0594C206.495 79.5654 208.223 77.4077 209.279 75.5749C209.523 75.1805 209.824 74.9717 210.161 74.9717C210.451 74.9717 210.694 75.0413 210.903 75.1689L212.991 76.5725C213.316 76.8045 213.478 77.1061 213.478 77.4889C213.478 77.7209 213.409 77.9181 213.269 78.0921C213.13 78.2661 213.003 78.4053 212.898 78.5213C212.794 78.6373 212.655 78.7998 212.469 79.0086C212.283 79.2174 212.063 79.4726 211.785 79.7626C211.506 80.0526 211.228 80.3658 210.938 80.6906L209.163 82.5698C208.873 82.8946 208.595 83.1962 208.305 83.4862L206.112 85.6787C206.019 85.7947 205.973 85.9107 205.973 86.0267C205.973 86.1427 206.054 86.2935 206.228 86.4791C206.402 86.6299 206.599 86.8155 206.831 87.0475C207.539 87.8131 208.038 88.3815 208.363 88.7643C208.676 89.1471 209.093 89.6459 209.627 90.2723C210.52 91.3163 211.877 93.0332 213.71 95.4112C213.849 95.5968 213.908 95.7824 213.908 95.9564C213.908 96.258 213.734 96.5016 213.397 96.6756C212.179 97.2904 211.332 97.8009 210.857 98.2185V98.2069Z" fill="black"/>
<path d="M241.179 95.4456C241.179 95.144 241.4 94.8888 241.841 94.7032C243.975 93.752 245.541 92.4296 246.562 90.7244C247.583 89.0191 248.093 87.0123 248.093 84.6807C248.093 83.2886 247.85 82.3142 247.374 81.7458C246.933 81.247 246.423 81.0034 245.831 81.0034H245.657C244.996 81.0382 244.416 81.4558 243.94 82.2562C243.384 83.2422 243.117 84.553 243.117 86.1655C243.117 86.9079 243.175 87.7199 243.291 88.5899V88.7639C243.291 89.0075 243.21 89.2047 243.036 89.3323C242.885 89.4715 242.63 89.5412 242.27 89.5644C241.968 89.5992 241.47 89.7151 240.785 89.9007C240.611 89.9355 240.495 89.9587 240.414 89.9703C240.333 89.9703 240.275 89.9935 240.217 90.0167C240.101 90.0515 239.996 90.0748 239.903 90.0748C239.718 90.0748 239.567 90.0051 239.451 89.8775C239.37 89.7847 239.323 89.6571 239.312 89.5063C238.987 87.6271 238.813 85.2955 238.767 82.5114V82.4882C238.767 81.9198 238.767 81.3398 238.732 80.7482C238.674 78.9966 238.709 77.3957 238.813 75.9573C238.836 75.6557 238.941 75.4121 239.138 75.2381C239.335 75.0641 239.555 74.9829 239.776 74.9829C239.799 74.9829 240.553 75.0525 242.061 75.1801C242.421 75.2149 242.699 75.3657 242.885 75.6093C243.001 75.7601 243.059 75.9689 243.059 76.2357C243.059 76.3517 243.059 76.4793 243.036 76.6069C242.943 77.1173 242.873 77.6626 242.827 78.2194C242.78 78.7762 242.757 79.1474 242.757 79.3214C242.838 79.2286 242.92 79.1126 243.012 78.9734C243.337 78.4978 243.801 78.057 244.416 77.6626C245.019 77.2681 245.808 77.0594 246.771 77.0594C247.734 77.0594 248.592 77.2914 249.358 77.7438C250.123 78.1962 250.738 78.7878 251.214 79.5186C252.107 80.8874 252.559 82.6158 252.559 84.6807C252.559 87.8011 251.91 90.4807 250.622 92.7312C249.323 94.9816 247.328 96.8261 244.625 98.2645C244.451 98.3573 244.23 98.4037 243.964 98.4037C243.697 98.4037 243.442 98.2413 243.198 97.9165H243.163C242.978 97.6149 242.711 97.2785 242.363 96.9189H242.339C242.096 96.6173 241.841 96.362 241.597 96.1764C241.33 95.9096 241.203 95.6661 241.203 95.434L241.179 95.4456Z" fill="black"/>
<path d="M296.095 88.8801L296.06 90.1677C296.025 90.9449 295.99 91.7106 295.956 92.4646C295.932 93.2186 295.874 93.9726 295.816 94.7498C295.747 95.5154 295.642 96.1998 295.503 96.7798C295.364 97.3598 295.132 97.8354 294.83 98.2182C294.181 99.0187 293.09 99.4131 291.548 99.4131H291.002C290.643 99.4131 290.434 99.2275 290.376 98.8679C290.353 98.7751 290.341 98.6707 290.329 98.5547C290.329 98.4387 290.306 98.3226 290.283 98.2066L290.144 97.5454C290.051 97.1046 289.9 97.0814 289.691 97.4642L289.297 98.1254C289.216 98.2182 289.146 98.3226 289.077 98.427C289.007 98.5314 288.926 98.6706 288.821 98.8214C288.717 98.9722 288.566 99.0651 288.369 99.0651C288.172 99.0651 287.975 99.0186 287.789 98.9258C287.58 98.717 287.29 98.5314 286.931 98.3806C286.281 98.0906 285.863 97.9514 285.655 97.9514C285.446 97.9514 285.237 98.0906 285.017 98.3806C284.402 99.065 283.358 99.4131 281.873 99.4131H281.328C280.968 99.4131 280.759 99.2275 280.701 98.8679C280.678 98.7751 280.667 98.6823 280.655 98.5779C280.655 98.485 280.632 98.3922 280.609 98.2878L280.493 97.6266C280.4 97.209 280.226 97.209 279.994 97.615C279.75 98.0211 279.541 98.369 279.332 98.6474C279.135 98.9259 278.938 99.0651 278.764 99.0651C278.59 99.0651 278.416 99.0303 278.265 98.9491C278.033 98.8099 277.836 98.6939 277.65 98.5895C277.465 98.4851 277.314 98.4039 277.198 98.3343C277.07 98.2647 276.954 98.195 276.827 98.137C276.699 98.0674 276.583 98.0326 276.467 98.0326C276.166 98.0326 276.015 98.2298 276.015 98.6358V98.6706C276.015 98.9374 275.934 99.1463 275.771 99.3087C275.609 99.4711 275.4 99.5523 275.133 99.5523H272.964C272.674 99.5523 272.454 99.4711 272.28 99.2971C272.106 99.1231 272.024 98.9027 272.024 98.6126V84.1704C272.024 83.8804 271.943 83.66 271.769 83.486C271.595 83.312 271.375 83.2308 271.085 83.2308H270.54C270.25 83.2308 270.029 83.1496 269.855 82.9756C269.681 82.8016 269.6 82.5812 269.6 82.2912V80.2611C269.6 79.9711 269.681 79.7507 269.855 79.5767C270.029 79.4027 270.25 79.3215 270.54 79.3215H271.085C271.375 79.3215 271.595 79.2403 271.769 79.0663C271.943 78.8923 272.024 78.6719 272.024 78.3819V74.5539C272.024 74.2639 272.106 74.0435 272.28 73.8695C272.454 73.6955 272.674 73.6143 272.964 73.6143H275.075C275.365 73.6143 275.586 73.6955 275.76 73.8695C275.934 74.0435 276.015 74.2639 276.015 74.5539V78.3819C276.015 78.6719 276.096 78.8923 276.27 79.0663C276.444 79.2403 276.664 79.3215 276.954 79.3215H277.349C277.639 79.3215 277.859 79.4027 278.033 79.5767C278.207 79.7507 278.289 79.9711 278.289 80.2611V82.2912C278.289 82.5812 278.207 82.8016 278.033 82.9756C277.859 83.1496 277.639 83.2308 277.349 83.2308H276.954C276.664 83.2308 276.444 83.312 276.27 83.486C276.096 83.66 276.015 83.8804 276.015 84.1704V95.4458C276.015 96.0026 276.131 96.2694 276.351 96.2694C276.572 96.2694 276.792 96.107 277.012 95.7706C277.221 95.4342 277.418 95.0514 277.616 94.6106C277.801 94.1698 277.964 93.7406 278.103 93.2998L278.416 92.4182C278.497 92.1165 278.451 91.8729 278.3 91.6873C278.149 91.5017 277.917 91.4205 277.616 91.4205H277.534C277.244 91.4205 277.024 91.3393 276.85 91.1653C276.676 90.9913 276.595 90.7709 276.595 90.4809V88.8801C276.595 88.5901 276.676 88.3697 276.85 88.1957C277.024 88.0217 277.244 87.9405 277.534 87.9405H278.393C278.741 87.9405 278.903 87.7665 278.903 87.4301V86.9197L278.88 86.3745C278.845 86.0381 279.008 85.8641 279.39 85.8641C279.541 85.8641 279.646 85.8292 279.692 85.748C279.738 85.6668 279.715 85.5624 279.622 85.4232C279.53 85.284 279.425 85.1448 279.309 85.0288C279.193 84.9012 279.077 84.7736 278.961 84.646C278.752 84.4024 278.59 84.2284 278.474 84.1356C278.172 83.8688 278.196 83.6368 278.555 83.4512C280.226 82.6276 281.444 81.6648 282.186 80.5396C282.453 80.2032 282.511 79.9132 282.36 79.6696C282.209 79.4376 281.908 79.3099 281.479 79.3099H280.168C279.878 79.3099 279.657 79.2288 279.483 79.0547C279.309 78.8807 279.228 78.6603 279.228 78.3703V76.8275C279.228 76.5375 279.309 76.3171 279.483 76.1431C279.657 75.9691 279.889 75.8879 280.168 75.8879H283.195C283.578 75.8879 283.787 75.7023 283.822 75.3195L283.88 74.1827C283.88 73.7998 284.077 73.6143 284.483 73.6143H287.255C287.65 73.6143 287.859 73.7998 287.859 74.1827L287.801 75.3195C287.766 75.7023 287.94 75.8879 288.311 75.8879H293.16C293.45 75.8879 293.67 75.9691 293.844 76.1431C294.018 76.3171 294.1 76.5955 294.088 76.9899C294.088 77.3843 294.065 77.8947 294.03 78.5327C294.007 79.1707 293.949 79.8203 293.879 80.4932C293.67 82.036 293.346 83.1728 292.893 83.9036C292.452 84.6344 291.896 85.11 291.234 85.3304C290.573 85.5508 289.854 85.6552 289.053 85.6552H288.137C287.743 85.6552 287.511 85.4464 287.453 85.0288C287.429 84.8548 287.406 84.6576 287.371 84.4256L287.081 83.022C287.047 82.9292 287.012 82.8364 287 82.732C286.977 82.6392 286.954 82.5464 286.919 82.442C286.826 82.0824 286.954 81.8968 287.313 81.8968H288.288C288.879 81.8968 289.285 81.7576 289.517 81.5024C289.749 81.2472 289.9 80.8875 289.97 80.4699C290.039 80.0523 289.993 79.7507 289.831 79.5651C289.657 79.3795 289.425 79.2983 289.111 79.2983H287.65C287.209 79.2983 286.919 79.5072 286.768 79.9248C285.782 82.4188 284.251 84.3676 282.175 85.7712C282.093 85.8292 282.117 85.8524 282.221 85.8524C282.325 85.8524 282.372 85.9104 282.372 86.0264L282.395 86.9081V87.4185C282.395 87.7549 282.569 87.9289 282.905 87.9289H285.469C285.759 87.9289 285.979 88.0101 286.153 88.1841C286.327 88.3581 286.409 88.5785 286.409 88.8685L286.385 90.1561C286.351 90.9333 286.316 91.6989 286.281 92.453C286.258 93.207 286.211 93.8566 286.153 94.4134C286.061 95.4226 285.968 96.1302 285.898 96.5246C285.863 96.6406 285.875 96.6522 285.956 96.5478C287 95.353 287.719 93.8566 288.102 92.0701C288.172 91.6293 287.998 91.4089 287.557 91.4089C287.116 91.4089 286.896 91.1885 286.896 90.7477V88.7177C286.896 88.1841 287.163 87.9173 287.696 87.9173C288.23 87.9173 288.497 87.6505 288.497 87.1169C288.357 86.7225 288.404 86.3976 288.624 86.1772C288.845 85.9452 289.1 85.8408 289.413 85.8408H291.408C291.756 85.8408 291.942 86.0148 291.977 86.3512V87.4069C291.977 87.7433 292.151 87.9173 292.487 87.9173H295.144C295.434 87.9173 295.654 87.9985 295.828 88.1725C296.002 88.3465 296.083 88.5669 296.083 88.8569L296.095 88.8801ZM281.026 96.0374H281.2C281.641 96.0374 281.966 95.9794 282.198 95.8634C282.592 95.6894 282.813 95.0398 282.859 93.9262L282.94 91.815C282.94 91.5482 282.801 91.4205 282.546 91.4205C282.291 91.4205 282.128 91.5482 282.093 91.815C281.827 93.2418 281.432 94.599 280.922 95.8634C280.864 95.9794 280.899 96.0374 281.038 96.0374H281.026ZM290.643 96.0374H290.875C291.315 96.0374 291.64 95.9794 291.872 95.8634C292.267 95.6894 292.487 95.0398 292.534 93.9262L292.615 91.8381C292.615 91.5481 292.464 91.4089 292.174 91.4089C291.884 91.4089 291.71 91.5481 291.675 91.8381C291.432 93.3462 291.037 94.6686 290.503 95.8402C290.445 95.9794 290.503 96.0374 290.643 96.0374Z" fill="black"/>
<path d="M307.347 80.423V79.1702C307.347 78.8802 307.428 78.6598 307.602 78.4858C307.776 78.3118 307.997 78.2306 308.287 78.2306H316.963C317.253 78.2306 317.474 78.3118 317.648 78.4858C317.822 78.6598 317.903 78.8802 317.903 79.1702V80.423C317.903 80.7131 317.822 80.9335 317.648 81.1075C317.474 81.2815 317.253 81.3627 316.963 81.3627H308.287C307.997 81.3627 307.776 81.2815 307.602 81.1075C307.428 80.9335 307.347 80.7131 307.347 80.423ZM308.484 98.0321V91.4896C308.484 91.1996 308.565 90.9792 308.739 90.8052C308.913 90.6312 309.133 90.55 309.423 90.55H316.128C316.418 90.55 316.639 90.6312 316.813 90.8052C316.987 90.9792 317.068 91.1996 317.068 91.4896V98.0321C317.068 98.3221 316.987 98.5425 316.813 98.7165C316.639 98.8905 316.418 98.9717 316.128 98.9717H309.423C309.133 98.9717 308.913 98.8905 308.739 98.7165C308.565 98.5425 308.484 98.3221 308.484 98.0321ZM308.716 84.5295V83.2187C308.716 82.9287 308.797 82.7083 308.971 82.5343C309.145 82.3603 309.377 82.2791 309.655 82.2791H315.734C316.024 82.2791 316.244 82.3603 316.418 82.5343C316.592 82.7083 316.673 82.9287 316.673 83.2187V84.5295C316.673 84.8195 316.592 85.0399 316.418 85.2139C316.244 85.3879 316.024 85.4691 315.734 85.4691H309.655C309.365 85.4691 309.145 85.3879 308.971 85.2139C308.797 85.0399 308.716 84.8195 308.716 84.5295ZM308.716 88.6128V87.3251C308.716 87.0351 308.797 86.8147 308.971 86.6407C309.145 86.4667 309.377 86.3855 309.655 86.3855H315.734C316.024 86.3855 316.244 86.4667 316.418 86.6407C316.592 86.8147 316.673 87.0351 316.673 87.3251V88.6128C316.673 88.9028 316.592 89.1232 316.418 89.2972C316.244 89.4712 316.024 89.5524 315.734 89.5524H309.655C309.365 89.5524 309.145 89.4712 308.971 89.2972C308.797 89.1232 308.716 88.9028 308.716 88.6128ZM308.751 76.3746V75.0057C308.751 74.7157 308.832 74.4953 309.006 74.3213C309.18 74.1473 309.4 74.0661 309.69 74.0661H315.745C316.035 74.0661 316.256 74.1473 316.43 74.3213C316.604 74.4953 316.685 74.7157 316.685 75.0057V76.3746C316.685 76.6646 316.604 76.885 316.43 77.059C316.256 77.233 316.035 77.3142 315.745 77.3142H309.69C309.4 77.3142 309.18 77.233 309.006 77.059C308.832 76.885 308.751 76.6646 308.751 76.3746ZM312.242 95.6309C312.381 95.7701 312.567 95.8397 312.787 95.8397C313.008 95.8397 313.182 95.7701 313.333 95.6309C313.483 95.4917 313.541 95.3061 313.541 95.0741V94.4709C313.541 94.2621 313.472 94.0881 313.333 93.9373C313.193 93.7865 313.008 93.7285 312.787 93.7285C312.567 93.7285 312.393 93.7981 312.242 93.9373C312.091 94.0765 312.033 94.2621 312.033 94.4709V95.0741C312.033 95.3061 312.103 95.4917 312.242 95.6309ZM319.852 99.4938C319.353 99.4938 319.063 99.2386 318.97 98.7281C318.912 98.3685 318.866 98.1133 318.831 97.9625C318.796 97.8117 318.762 97.6725 318.727 97.5333C318.704 97.3941 318.669 97.2781 318.622 97.1621C318.483 96.7213 318.645 96.5009 319.075 96.5009H319.759C320.049 96.5009 320.258 96.4545 320.397 96.3733C320.536 96.2921 320.606 96.0949 320.606 95.7933V95.6773C320.606 95.5961 320.583 95.5845 320.525 95.6193L318.843 95.9093C318.692 95.9441 318.553 95.9209 318.425 95.8397C318.297 95.7585 318.216 95.6309 318.181 95.4569L317.845 93.74C317.752 93.3224 317.915 93.0788 318.332 93.0208L320.014 92.8468C320.409 92.7888 320.618 92.5568 320.618 92.1624C320.618 91.768 320.42 91.5592 320.014 91.5592H318.924C318.634 91.5592 318.413 91.478 318.239 91.304C318.065 91.13 317.984 90.9096 317.984 90.6196V89.7032C317.984 89.4132 318.065 89.1928 318.239 89.0188C318.413 88.8448 318.634 88.7636 318.924 88.7636H320.269C320.501 88.7636 320.606 88.6476 320.606 88.4272C320.606 88.2068 320.49 88.0792 320.269 88.0792L319.098 88.1372C318.831 88.172 318.657 88.056 318.588 87.7892C318.506 87.5224 318.448 87.2903 318.39 87.0699C318.332 86.8611 318.251 86.6291 318.147 86.3507C318.042 86.0839 318.158 85.9331 318.506 85.8983C319.898 85.8055 320.838 85.7243 321.314 85.6547C321.789 85.5851 322.114 85.5503 322.253 85.5387C322.392 85.5387 322.566 85.5039 322.764 85.4691C322.961 85.4343 323.065 85.3995 323.065 85.3647C323.065 85.3299 322.926 85.3183 322.671 85.3183H318.471C318.181 85.3183 317.961 85.2371 317.787 85.0631C317.613 84.8891 317.532 84.6687 317.532 84.3787V83.5783C317.532 83.2883 317.613 83.0679 317.787 82.8939C317.961 82.7199 318.181 82.6387 318.471 82.6387H323.297C323.529 82.6387 323.634 82.5227 323.634 82.2791C323.634 82.0355 323.518 81.9194 323.297 81.9194H320.351C320.061 81.9194 319.84 81.8383 319.666 81.6643C319.492 81.4903 319.411 81.2698 319.411 80.9798V80.3186C319.411 80.0286 319.492 79.8082 319.666 79.6342C319.84 79.4602 320.061 79.379 320.351 79.379H323.297C323.529 79.379 323.634 79.263 323.634 79.0194C323.634 78.7758 323.518 78.6598 323.297 78.6598H319.04C318.75 78.6598 318.529 78.5786 318.355 78.4046C318.181 78.2306 318.1 78.0102 318.1 77.7202V77.001C318.1 76.711 318.181 76.4906 318.355 76.3166C318.529 76.1426 318.75 76.0614 319.04 76.0614H320.328C320.513 76.0614 320.652 76.015 320.71 75.899C320.78 75.7946 320.768 75.667 320.699 75.5162L320.444 74.9478C320.362 74.797 320.293 74.6578 320.211 74.5534C320.095 74.2634 320.165 74.0893 320.409 74.0081L322.601 73.2309C322.984 73.0801 323.309 73.3121 323.576 73.9153L324.121 75.029C324.156 75.1218 324.202 75.2146 324.237 75.2842C324.272 75.3654 324.318 75.4465 324.353 75.5393C324.504 75.8873 324.77 76.0498 325.153 76.0498H325.977C326.36 76.0498 326.626 75.8757 326.777 75.5393L327.032 74.9942L327.636 73.4861C327.728 73.2425 327.926 73.1497 328.204 73.1961L330.025 73.6833C330.327 73.7645 330.536 73.9153 330.652 74.1357C330.768 74.3677 330.756 74.6114 330.629 74.8782C330.629 74.913 330.605 74.9594 330.57 74.9942C330.269 75.7018 330.489 76.0498 331.255 76.0498H332.369C332.659 76.0498 332.879 76.131 333.053 76.305C333.227 76.479 333.308 76.6994 333.308 76.9894V77.7086C333.308 77.9986 333.227 78.219 333.053 78.393C332.879 78.567 332.659 78.6482 332.369 78.6482H327.914C327.67 78.6482 327.543 78.7642 327.543 79.0078C327.543 79.2514 327.67 79.3674 327.914 79.3674H330.826C331.116 79.3674 331.336 79.4486 331.51 79.6226C331.684 79.7966 331.765 80.017 331.765 80.307V80.9683C331.765 81.2583 331.684 81.4787 331.51 81.6527C331.336 81.8267 331.116 81.9079 330.826 81.9079H327.914C327.67 81.9079 327.543 82.0239 327.543 82.2675C327.543 82.5111 327.67 82.6271 327.914 82.6271H332.937C333.227 82.6271 333.447 82.7083 333.621 82.8823C333.795 83.0563 333.877 83.2767 333.877 83.5667V84.3671C333.877 84.6571 333.795 84.8775 333.621 85.0515C333.447 85.2255 333.227 85.3067 332.937 85.3067H332.195C331.696 85.3067 331.638 85.4923 331.997 85.8519C332.032 85.8751 332.055 85.8867 332.067 85.9099C332.067 85.9331 332.102 85.9563 332.137 85.9911L332.392 86.2463C332.392 86.2463 332.426 86.3043 332.45 86.3159C332.473 86.3159 332.508 86.3739 332.577 86.4667C332.647 86.5595 332.728 86.6755 332.833 86.7915C332.937 86.9191 333.041 87.0351 333.134 87.1511C333.32 87.4179 333.273 87.6268 332.995 87.7776C332.879 87.8588 332.751 87.9516 332.6 88.0676L332.113 88.3808C331.823 88.6128 331.87 88.7172 332.229 88.7172H332.949C333.239 88.7172 333.459 88.7984 333.633 88.9724C333.807 89.1464 333.888 89.3668 333.888 89.6568V90.5732C333.888 90.8632 333.807 91.0836 333.633 91.2576C333.459 91.4316 333.239 91.5128 332.949 91.5128H332.496C332.137 91.5128 331.939 91.5708 331.893 91.6984C331.858 91.826 331.974 91.9884 332.264 92.1972L332.635 92.4872C333.053 92.7888 333.134 93.0905 332.867 93.4037C332.218 94.1229 331.73 94.6449 331.382 94.9465C331.29 95.0393 331.243 95.1321 331.243 95.2365C331.243 95.3409 331.29 95.4221 331.382 95.5265C331.556 95.7353 331.707 95.7121 331.835 95.4453L332.148 94.6449C332.218 94.378 332.38 94.3085 332.6 94.4477L332.937 94.5869V94.6101H332.995V94.6449L333.993 94.9813L334.445 95.0973C334.747 95.1901 334.851 95.3873 334.758 95.7005C334.584 96.1529 334.387 96.6865 334.178 97.3013C333.958 97.9161 333.726 98.4381 333.482 98.8673C333.239 99.3081 332.856 99.5402 332.357 99.5634C331.858 99.5866 331.406 99.4937 331.034 99.2617C330.315 98.8441 329.689 98.3801 329.178 97.8581C328.946 97.6261 328.714 97.5217 328.459 97.5217C328.204 97.5217 327.972 97.6029 327.728 97.7769C327.485 97.9509 327.218 98.1249 326.905 98.3105C326.592 98.4961 326.313 98.6586 326.058 98.8094C325.606 99.053 325.258 98.9718 325.026 98.5541C324.991 98.4613 324.933 98.3685 324.875 98.2873C324.805 98.2061 324.747 98.1133 324.689 98.0205C324.631 97.9277 324.573 97.8349 324.504 97.7653C324.434 97.6841 324.376 97.6029 324.318 97.5101C324.074 97.2085 323.924 97.2549 323.866 97.6493C323.75 98.2061 323.506 98.6237 323.123 98.9021C322.566 99.2849 321.789 99.4705 320.78 99.4705H319.84L319.852 99.4938ZM324.422 88.7636H325.049C325.524 88.7636 325.768 88.52 325.768 88.0212L325.71 87.2788V86.5015C325.687 86.2695 325.756 86.0839 325.896 85.9447C326.035 85.8055 326.22 85.7359 326.452 85.7359H328.018C328.517 85.7359 328.784 86.0027 328.819 86.5363V86.9075C328.819 87.0468 328.819 87.1743 328.842 87.302L328.877 88.0444C328.912 88.52 329.167 88.7636 329.619 88.7636H330.049C330.281 88.7636 330.42 88.7056 330.478 88.5896C330.571 88.462 330.501 88.2648 330.246 88.0212L330.049 87.7312C330.049 87.7312 330.014 87.6732 329.99 87.6616C329.967 87.6616 329.932 87.6152 329.874 87.534C329.7 87.3484 329.573 87.1975 329.468 87.1047C329.178 86.7799 329.213 86.5132 329.55 86.3044L330.037 85.9911C330.362 85.7823 330.501 85.6199 330.466 85.5039C330.431 85.3879 330.222 85.3299 329.84 85.3299H325.42C325.026 85.3299 324.77 85.4343 324.666 85.6431C324.562 85.8519 324.62 86.1187 324.852 86.4435L325.362 87.244C325.513 87.4528 325.466 87.5803 325.223 87.6151L324.852 87.6384L324.399 87.7195C324.098 87.7543 323.947 87.9283 323.947 88.23V88.2648C323.947 88.5896 324.109 88.752 324.434 88.752L324.422 88.7636ZM326.441 95.1553C326.858 94.9233 326.986 94.5637 326.812 94.0648L326.557 93.2412C326.522 93.0904 326.476 92.9397 326.441 92.7889C326.406 92.6381 326.36 92.464 326.313 92.2784C326.267 92.0928 326.162 91.9188 325.988 91.7796C325.814 91.6404 325.617 91.5708 325.385 91.5708H324.272C324.04 91.5708 323.935 91.6752 323.935 91.8956C323.935 92.116 324.04 92.2088 324.248 92.1624L325.536 91.9072C325.838 91.8144 325.988 91.9304 325.988 92.2552V93.9373C325.988 94.2621 325.826 94.4477 325.501 94.5057L324.469 94.7377C324.109 94.8305 323.924 95.0741 323.924 95.4569V95.6889C323.924 96.0717 324.063 96.2573 324.353 96.2573C324.48 96.2573 324.747 96.1529 325.153 95.9441C325.722 95.6425 326.151 95.3873 326.441 95.1785V95.1553ZM329.782 92.3828L330.292 91.8144C330.42 91.6404 330.373 91.5592 330.153 91.5592H329.608C329.422 91.5592 329.341 91.6404 329.376 91.8144L329.515 92.3248C329.573 92.4756 329.654 92.4988 329.77 92.3828H329.782Z" fill="black"/>
<path d="M346.602 84.9009C346.266 84.3325 345.778 83.6945 345.175 82.9869C344.7 82.4533 344.781 82.0472 345.43 81.7572C348.667 80.2724 351.555 78.3584 354.107 76.0151C354.966 75.2147 355.696 74.4027 356.311 73.5559C356.578 73.2311 356.88 73.1035 357.228 73.1615L360.279 73.5559C360.522 73.5907 360.824 73.8227 361.16 74.2403C361.497 74.6579 362.019 75.1683 362.715 75.7832C363.411 76.398 364.141 76.978 364.895 77.5232C366.566 78.6832 368.55 79.7852 370.835 80.8292C371.218 81.0264 371.624 81.2004 372.053 81.3745C372.482 81.5485 372.517 81.8152 372.157 82.1748L371.728 82.6273C371.728 82.6273 371.67 82.662 371.658 82.6852C371.658 82.7084 371.566 82.8129 371.415 82.9985C370.858 83.6481 370.429 84.2629 370.104 84.8545C369.837 85.2953 369.489 85.4113 369.071 85.1909C368.062 84.6921 367.343 84.3209 366.914 84.0541C366.485 83.7873 366.195 83.6597 366.044 83.6597C365.719 83.6597 365.557 83.9033 365.557 84.4021V84.5993C365.557 84.8893 365.475 85.1097 365.301 85.2837C365.127 85.4577 364.907 85.5389 364.617 85.5389H352.46C352.17 85.5389 351.95 85.4577 351.776 85.2837C351.602 85.1097 351.52 84.8893 351.52 84.5993V84.3441C351.52 83.8685 351.358 83.6249 351.033 83.6249C350.894 83.6249 350.732 83.6829 350.523 83.7989C348.748 84.8661 347.716 85.3997 347.426 85.3997C347.136 85.3997 346.857 85.2257 346.614 84.8893L346.602 84.9009ZM368.201 98.8327C367.981 99.0415 367.83 99.1807 367.749 99.2503C367.668 99.3199 367.564 99.4011 367.448 99.5055C367.332 99.6099 367.204 99.6679 367.053 99.6679C366.902 99.6679 366.74 99.5287 366.566 99.2735C366.206 98.6471 365.789 98.0439 365.313 97.4755C365.127 97.1855 364.849 97.0811 364.489 97.1623L361.891 97.5335C361.299 97.6147 360.696 97.6843 360.081 97.7655C359.467 97.8467 358.829 97.9279 358.179 98.0091C357.529 98.0903 356.891 98.1715 356.253 98.2411C355.615 98.3107 354.919 98.3803 354.154 98.4499C351.741 98.7399 350.036 98.9023 349.05 98.9371C348.516 98.9719 348.203 98.7283 348.11 98.1947L347.6 95.5731C347.565 95.3643 347.6 95.1903 347.716 95.0627C347.832 94.9351 347.971 94.8539 348.145 94.8539C348.319 94.8539 348.458 94.8423 348.586 94.8423C348.713 94.8423 348.841 94.8423 349.003 94.8075L350.627 94.7495C350.964 94.7147 351.219 94.5638 351.37 94.3202C351.52 94.0766 351.66 93.8215 351.799 93.5546C351.938 93.2878 352.077 93.021 352.228 92.7542L352.738 91.6986C352.889 91.3738 352.901 91.1186 352.785 90.9214C352.657 90.7358 352.414 90.6314 352.054 90.6314H347.832C347.542 90.6314 347.321 90.5502 347.147 90.3762C346.973 90.2022 346.892 89.9818 346.892 89.6918V87.8125C346.892 87.5225 346.973 87.3021 347.147 87.1281C347.321 86.9541 347.542 86.8729 347.832 86.8729H369.42C369.71 86.8729 369.93 86.9541 370.104 87.1281C370.278 87.3021 370.359 87.5225 370.359 87.8125V89.6918C370.359 89.9818 370.278 90.2022 370.104 90.3762C369.93 90.5502 369.71 90.6314 369.42 90.6314H366.021C365.568 90.6314 365.301 90.7242 365.255 90.8982C365.197 91.0838 365.29 91.2926 365.545 91.5362C366.055 92.0118 366.461 92.3946 366.775 92.673C367.703 93.6474 368.84 94.9235 370.174 96.5243C370.44 96.8607 370.371 97.1971 369.976 97.5219C369.884 97.6031 369.791 97.6727 369.686 97.7307C369.594 97.8003 369.454 97.8931 369.292 98.0323C368.816 98.3571 368.468 98.6239 368.248 98.8327H368.201ZM355.36 81.792H361.671C362.169 81.792 362.448 81.6992 362.494 81.5252C362.541 81.3512 362.39 81.096 362.007 80.7712C361.183 80.1448 360.279 79.3328 359.293 78.3468C359.061 78.08 358.817 77.9524 358.55 77.9524C358.283 77.9524 357.982 78.1264 357.634 78.4628C357.123 78.9964 356.23 79.7504 354.977 80.7132C354.56 81.0612 354.374 81.328 354.432 81.5136C354.49 81.6993 354.792 81.8037 355.349 81.8037L355.36 81.792ZM357.251 94.2158L359.188 94.0418L361.299 93.8098C361.74 93.775 361.798 93.6126 361.473 93.3226L360.986 92.8702L360.592 92.557C360.325 92.3482 360.313 92.1278 360.557 91.8958L361.125 91.4086C361.415 91.165 361.531 90.9678 361.485 90.8286C361.439 90.6894 361.218 90.6198 360.847 90.6198H358.701C358.318 90.6198 358.04 90.8054 357.843 91.165C357.506 91.9306 357.123 92.673 356.706 93.3922C356.555 93.6822 356.52 93.891 356.625 94.0534C356.717 94.2043 356.926 94.2622 357.251 94.2274V94.2158Z" fill="black"/>
</svg>
