<svg width="1036" height="968" viewBox="0 0 1036 968" fill="none" xmlns="http://www.w3.org/2000/svg">
<path d="M122.494 227.912C101.853 145.906 175.509 71.219 257.794 90.7183L269.271 93.4381C307.236 102.435 347.204 92.3932 376.409 66.5206L400.329 45.3299C468.42 -14.9924 570.826 -14.9923 638.917 45.33L663.019 66.6817C692.081 92.4284 731.921 102.29 769.638 93.0729L774.466 91.893C857.42 71.6218 932.859 145.413 914.424 228.794C905.088 271.025 920.169 314.929 953.486 342.508L976.46 361.526C1055.39 426.865 1055.39 547.897 976.46 613.236L953.299 632.409C920.119 659.874 905.18 703.65 914.647 745.669C933.114 827.632 859.874 900.872 777.911 882.405L767.319 880.019C730.79 871.789 692.507 880.897 663.599 904.696L638.652 925.234C569.508 982.158 469.738 982.158 400.594 925.234L375.8 904.822C346.771 880.924 308.385 871.659 271.65 879.685L254.349 883.465C173.066 901.224 101.572 827.111 122.244 746.519C133.085 704.255 118.337 659.547 84.4772 632.028L60.0771 612.197C-19.1207 547.831 -19.1207 426.931 60.0772 362.565L84.276 342.898C118.285 315.258 133.191 270.411 122.494 227.912Z" fill="#FFFAE2"/>
</svg>
