<svg width="1440" height="381" viewBox="0 0 1440 381" fill="none" xmlns="http://www.w3.org/2000/svg">
<g clip-path="url(#clip0_791_4014)">
<path d="M339.609 165.597C331.953 168.073 323.615 169.315 315.491 169.193C306.691 166.838 299.062 162.705 293.429 157.241C287.829 151.809 284.726 145.576 284.456 139.219C283.838 124.67 298.609 114.581 304.916 110.273C309.67 107.025 314.987 104.439 320.724 102.584C326.46 100.729 332.641 99.5968 338.928 99.2766C338.953 99.2754 338.977 99.2721 339.004 99.2681C340.78 98.9751 356.666 96.676 367.708 106.164C378.556 115.485 380.009 131.555 371.166 144.381C366.726 149.844 358.865 157.488 346.618 162.921C344.348 163.928 341.991 164.829 339.612 165.599L339.609 165.597Z" fill="#FA4B06"/>
<path d="M320.519 102.078L320.929 103.089C326.665 101.234 332.733 100.132 338.961 99.8123C339.011 99.8098 339.063 99.8046 339.111 99.796C340.274 99.6027 344.48 99.02 349.779 99.5591C356.833 100.276 362.723 102.63 367.287 106.554C372.347 110.9 375.505 117.028 376.18 123.803C376.869 130.713 374.91 137.915 370.661 144.084C366.257 149.497 358.472 157.062 346.345 162.442C344.096 163.439 341.759 164.332 339.4 165.095C331.837 167.541 323.604 168.772 315.58 168.659C306.917 166.328 299.41 162.256 293.865 156.877C291.168 154.26 289.04 151.424 287.542 148.441C286.02 145.414 285.182 142.305 285.049 139.198C284.444 124.927 299.041 114.958 305.273 110.699C309.977 107.486 315.243 104.925 320.921 103.089L320.511 102.078M320.519 102.078C315.425 103.725 309.916 106.179 304.55 109.845C298.211 114.174 283.226 124.411 283.854 139.237C284.413 152.422 297.129 164.865 315.399 169.728C320.342 169.808 329.382 169.476 339.814 166.103C342.112 165.36 344.48 164.468 346.883 163.403C360.293 157.454 368.118 149.046 371.664 144.682C380.856 131.365 378.893 115.033 368.122 105.778C356.771 96.0245 340.666 98.4469 338.892 98.7392C335.019 98.9374 328.245 99.5796 320.519 102.078Z" fill="white"/>
<path d="M314.562 113.964C314.533 113.973 314.5 113.982 314.469 113.987C313.932 114.083 311.874 113.738 307.57 105.591L319.491 105.088C319.552 105.087 319.611 105.075 319.668 105.056C319.724 105.038 319.778 105.012 319.828 104.979L331.498 97.048C331.932 100.962 332.021 103.923 331.764 105.858C331.499 107.844 330.938 108.231 330.71 108.305C330.483 108.372 330.164 108.26 329.401 107.976C328.938 107.806 328.362 107.592 327.576 107.34C325.693 106.737 323.748 106.278 321.796 105.974C321.692 105.957 321.586 105.966 321.488 105.998C321.391 106.029 321.297 106.087 321.226 106.165C320.319 107.162 319.414 108.201 318.539 109.252C317.455 110.552 316.699 111.535 316.147 112.251C315.328 113.314 314.918 113.849 314.567 113.962L314.562 113.964Z" fill="white"/>
<path d="M330.997 98.0598C331.818 106.281 330.726 107.606 330.518 107.781C330.35 107.746 329.983 107.611 329.625 107.48C329.179 107.315 328.571 107.091 327.774 106.836C325.859 106.223 323.879 105.756 321.893 105.447C321.682 105.415 321.47 105.433 321.277 105.495C321.085 105.558 320.894 105.674 320.751 105.828C319.839 106.832 318.929 107.876 318.049 108.934C316.959 110.242 316.199 111.229 315.644 111.951C315.078 112.685 314.545 113.378 314.348 113.46C314.331 113.463 312.611 113.665 308.501 106.091L312.878 105.906L319.515 105.626C319.636 105.621 319.755 105.599 319.868 105.562C319.981 105.526 320.09 105.472 320.186 105.407L326.526 101.097L330.994 98.0606M331.983 96.0395C327.809 98.8756 323.634 101.715 319.46 104.551C315.188 104.732 310.915 104.91 306.643 105.091C311.253 114.031 313.568 114.694 314.586 114.513C314.648 114.502 314.708 114.487 314.767 114.468C315.611 114.195 316.112 113.061 319.018 109.574C320.144 108.222 321.098 107.157 321.689 106.506C323.009 106.71 325.013 107.093 327.37 107.848C329.647 108.577 330.225 109.01 330.875 108.82C330.887 108.817 330.898 108.813 330.909 108.809C332.168 108.402 333.154 105.769 331.983 96.0395Z" fill="#FA4B06"/>
<path d="M320.903 105.629C309.609 109.281 296.966 103.732 292.721 93.261C288.476 82.7897 294.211 71.3 305.506 67.6478C316.8 63.9955 329.443 69.5443 333.688 80.0156C337.933 90.487 332.198 101.979 320.904 105.631L320.903 105.629Z" fill="white"/>
<path d="M305.71 68.1534C316.692 64.6022 328.99 70.0065 333.122 80.1988C337.253 90.3912 331.68 101.574 320.699 105.126C309.717 108.677 297.419 103.273 293.287 93.0802C289.155 82.8879 294.729 71.7047 305.71 68.1534ZM305.3 67.1425C293.676 70.9016 287.79 82.6777 292.155 93.4463C296.521 104.215 309.484 109.896 321.108 106.137C332.733 102.377 338.619 90.6014 334.253 79.8328C329.888 69.0642 316.925 63.3833 305.3 67.1425Z" fill="#FA4B06"/>
<path d="M332.408 76.309C331.926 76.6431 327.521 79.6043 322.071 78.2177C318.185 77.2285 316.163 74.6417 315.625 73.901C315.659 74.439 315.637 75.1755 315.402 76.0155C315.057 77.2566 314.41 78.1496 313.969 78.6651C313.364 78.6068 312.108 78.4071 310.903 77.5776C310.217 77.1042 309.774 76.5845 309.5 76.1996C309.68 76.5669 309.935 77.2277 309.903 78.0725C309.858 79.2742 309.255 80.1253 308.986 80.4641C308.422 80.3172 307.503 80.0083 306.589 79.3273C305.882 78.8013 305.432 78.2423 305.159 77.8411C305.124 79.1629 305.089 80.4847 305.054 81.8065C304.454 81.6481 303.802 81.3787 303.222 80.9192C300.884 79.075 301.648 75.7727 301.706 75.5367C301.894 76.0453 303.87 81.7479 299.744 86.5447C296.637 90.1564 292.149 90.8394 291.149 90.9705C289.02 82.1179 292.829 73.1837 300.633 68.54C306.515 65.0396 315.049 63.7456 322.488 67.0484C328.696 69.8047 331.513 74.5949 332.41 76.3082L332.408 76.309Z" fill="#FA4B06"/>
<path d="M309.09 87.1703C308.916 87.9035 308.912 88.6709 309.086 89.4036C309.175 89.775 309.294 90.1368 309.466 90.4859C309.656 90.8659 309.902 91.3031 310.424 91.3585C310.844 91.4033 311.117 91.1481 311.133 90.7886C311.188 89.4833 311.026 88.1885 310.686 86.9195C310.61 86.6376 310.196 86.5063 309.915 86.597C309.58 86.7054 309.477 87.0016 309.554 87.2855C309.859 88.422 309.983 89.6714 309.933 90.8725L310.641 90.3026C310.54 90.2872 310.57 90.3028 310.73 90.3515C310.772 90.3975 310.771 90.3955 310.728 90.3455C310.707 90.3181 310.687 90.2899 310.668 90.2618C310.692 90.3001 310.692 90.3001 310.669 90.2638C310.592 90.1241 310.524 89.9815 310.465 89.8359C310.355 89.5718 310.274 89.3077 310.232 89.0787C310.119 88.4773 310.132 87.9539 310.271 87.3671C310.337 87.0826 310.102 86.7927 309.787 86.7415C309.471 86.6902 309.155 86.8886 309.086 87.1738L309.09 87.1703Z" fill="#FA4B06"/>
<path d="M320.093 83.109C319.918 84.3456 320.075 85.6167 320.594 86.7775C320.743 87.1135 320.914 87.4769 321.353 87.5614C321.791 87.6459 322.236 87.3786 322.377 87.006C322.491 86.7062 322.439 86.3754 322.411 86.0666C322.381 85.7401 322.34 85.4125 322.288 85.0865C322.169 84.3403 321.992 83.5995 321.767 82.8741C321.679 82.5938 321.286 82.4579 320.996 82.5516C320.67 82.657 320.547 82.9598 320.635 83.2401C320.824 83.8514 320.973 84.4711 321.076 85.0986C321.129 85.4246 321.172 85.7514 321.204 86.0772C321.219 86.2347 321.232 86.3929 321.242 86.5498C321.245 86.5878 321.247 86.6258 321.247 86.6626C321.25 86.6271 321.248 86.6279 321.242 86.664C321.227 86.7283 321.243 86.7028 321.291 86.5888C321.445 86.4567 321.624 86.4696 321.826 86.6262C321.858 86.6799 321.854 86.6698 321.815 86.5979L321.785 86.5367C321.746 86.4532 321.709 86.369 321.672 86.2848C321.621 86.1575 321.569 86.0301 321.527 85.8998C321.424 85.6035 321.36 85.3567 321.308 85.0511C321.209 84.4657 321.197 83.8816 321.28 83.3015C321.32 83.0143 321.128 82.7309 320.796 82.6759C320.489 82.6265 320.136 82.8182 320.095 83.1083L320.093 83.109Z" fill="#FA4B06"/>
<path d="M317.396 92.012C317.498 92.5096 317.65 92.9932 317.882 93.4559C317.943 93.5824 318.044 93.7052 318.192 93.7603C318.316 93.8071 318.441 93.8192 318.574 93.7944C318.847 93.7405 319.094 93.4961 319.048 93.2319C318.988 92.8945 318.93 92.5544 318.87 92.217C318.844 92.072 318.784 91.9428 318.655 91.8451C318.544 91.7619 318.368 91.7068 318.223 91.7217C318.066 91.7382 317.906 91.799 317.807 91.9135C317.717 92.0203 317.644 92.1628 317.669 92.2989C317.729 92.6363 317.787 92.9764 317.847 93.3138L319.013 93.0878C318.833 92.7273 318.696 92.3509 318.601 91.9654L318.635 92.1054C318.621 92.0459 318.607 91.9863 318.595 91.924C318.564 91.7785 318.512 91.6511 318.38 91.5521C318.269 91.4689 318.093 91.4138 317.948 91.4287C317.791 91.4452 317.631 91.506 317.532 91.6205C317.443 91.7246 317.367 91.8705 317.394 92.0059L317.396 92.012Z" fill="#FA4B06"/>
<path d="M313.953 97.5806C314.457 97.7629 314.963 97.9425 315.471 98.1165C315.979 98.2906 316.472 98.4562 317.015 98.4519C318.168 98.4405 319.04 97.6784 319.774 96.9766C319.996 96.7654 319.937 96.3981 319.698 96.2192C319.437 96.0245 319.074 96.0757 318.85 96.2876C318.351 96.7643 317.714 97.4094 316.911 97.3789C316.516 97.3648 316.125 97.1914 315.765 97.0657C315.33 96.9158 314.896 96.7611 314.463 96.6037C314.163 96.4949 313.805 96.5902 313.662 96.8628C313.529 97.1162 313.649 97.4685 313.952 97.5786L313.953 97.5806Z" fill="#FA4B06"/>
<path d="M354.614 248.738C353.061 249.24 351.316 249.775 349.471 250.339C341.04 252.919 334.949 254.784 333.146 252.913C332.537 252.282 332.345 251.196 332.59 249.774C333.011 247.326 334.662 244.173 337.121 241.124C339.83 237.764 343.301 234.816 346.891 232.828C348.442 231.967 350.569 230.79 352.903 230.035C356.011 229.03 358.61 229.043 360.852 230.069C365.055 231.997 367.419 237.38 365.917 241.591C364.725 244.928 361.177 246.616 354.614 248.738Z" fill="#FA4B06"/>
<path d="M352.698 229.53L353.108 230.541C356.049 229.59 358.492 229.591 360.577 230.547C362.506 231.433 364.071 233.109 364.985 235.267C365.866 237.352 365.998 239.598 365.344 241.426C364.806 242.931 363.774 244.079 361.993 245.144C360.362 246.123 358.166 247.016 354.408 248.231C352.862 248.731 351.119 249.265 349.274 249.829C341.376 252.246 335.137 254.156 333.602 252.56C333.12 252.06 332.97 251.097 333.185 249.852C333.99 245.174 339.58 237.507 347.208 233.281C348.739 232.434 350.834 231.274 353.109 230.538L352.7 229.527M352.698 229.53C350.305 230.304 348.143 231.501 346.573 232.371C336.201 238.117 329.487 249.939 332.688 253.263C334.756 255.409 340.59 253.623 349.664 250.847C351.545 250.27 353.26 249.745 354.815 249.242C361.455 247.095 365.207 245.34 366.487 241.752C367.993 237.535 365.757 231.715 361.123 229.589C358.364 228.322 355.384 228.657 352.694 229.527L352.698 229.53Z" fill="white"/>
<path d="M405.307 232.344C398.747 234.466 394.809 235.2 391.5 233.317C387.327 230.943 385.286 225.454 387.133 221.57C388.118 219.498 390.106 218.004 393.215 216.999C395.549 216.244 398.026 215.932 399.835 215.706C404.018 215.181 408.795 215.462 413.287 216.493C417.362 217.43 420.89 218.908 422.968 220.548C424.177 221.501 424.807 222.443 424.792 223.276C424.747 225.745 418.732 227.795 410.408 230.633C408.581 231.256 406.86 231.842 405.309 232.344L405.307 232.344Z" fill="#FA4B06"/>
<path d="M393.42 217.505C395.695 216.769 398.136 216.463 399.92 216.238C408.808 215.122 418.595 217.814 422.57 220.95C423.628 221.783 424.202 222.606 424.191 223.268C424.154 225.373 417.994 227.472 410.194 230.132C408.372 230.753 406.653 231.338 405.105 231.839C398.728 233.901 394.924 234.626 391.826 232.863C390.012 231.832 388.504 230.031 387.686 227.926C386.841 225.746 386.84 223.564 387.689 221.78C388.605 219.853 390.479 218.456 393.422 217.504M393.01 216.494C390.321 217.364 387.793 218.81 386.579 221.362C384.545 225.642 386.997 231.392 391.178 233.772C394.733 235.797 398.873 235 405.513 232.853C407.071 232.349 408.765 231.772 410.621 231.139C419.581 228.084 425.343 226.12 425.393 223.289C425.47 218.905 411.836 213.661 399.751 215.179C397.922 215.409 395.402 215.725 393.009 216.499L393.01 216.494Z" fill="white"/>
<path d="M387.008 221.858C373.45 208.318 364.68 199.071 360.204 193.601L360.122 193.499C357.973 190.869 355.753 188.509 354.076 189.051L354.031 189.066C352.984 189.441 352.577 190.805 352.747 193.364C352.749 193.389 352.752 193.415 352.757 193.441L361.075 229.888L343.52 234.709C340.932 229.708 338.512 224.567 336.322 219.423C332.096 209.497 328.58 199.208 325.867 188.833L375.509 168.897C381.874 177.455 387.984 186.312 393.676 195.229C397.745 201.604 401.693 208.152 405.412 214.699L387.006 221.859L387.008 221.858Z" fill="#FA4B06"/>
<path d="M375.291 169.572C381.546 178.003 387.554 186.72 393.157 195.494C397.115 201.697 400.958 208.063 404.588 214.433L396.064 217.75L387.168 221.21C373.788 207.841 365.125 198.702 360.691 193.284L360.609 193.182C357.965 189.946 355.808 187.92 353.872 188.546C353.852 188.553 353.829 188.56 353.809 188.566C352.094 189.181 352.02 191.468 352.147 193.394C352.15 193.446 352.158 193.496 352.17 193.544L356.348 211.854L360.379 229.514L352.133 231.78L343.85 234.056C341.351 229.2 339.011 224.216 336.888 219.231C332.731 209.463 329.261 199.345 326.568 189.14L350.943 179.351L375.291 169.572ZM375.728 168.218C358.876 174.986 342.024 181.755 325.168 188.522C327.641 198.058 331.042 208.532 335.759 219.612C338.139 225.205 340.644 230.455 343.195 235.359C349.389 233.658 355.58 231.958 361.772 230.255C358.964 217.947 356.156 205.639 353.348 193.33C353.253 191.884 353.281 189.912 354.256 189.563C354.265 189.56 354.274 189.557 354.281 189.555C355.805 189.062 358.743 192.723 359.718 193.916C363.555 198.606 371.291 206.974 386.851 222.504C393.314 219.991 399.776 217.476 406.24 214.963C402.565 208.476 398.563 201.794 394.2 194.96C388.076 185.368 381.87 176.457 375.728 168.216L375.728 168.218Z" fill="white"/>
<path d="M352.391 204.133C347.486 205.719 342.306 206.585 336.991 206.707C330.305 201.295 325.002 194.541 321.638 187.161C316.283 175.402 316.777 164.576 318.154 157.519C319.089 156.535 320.276 155.792 321.593 155.366C323.85 154.636 326.263 154.903 327.89 156.061C329.714 157.36 330.51 159.753 329.92 162.155C329.882 162.309 329.921 162.468 330.025 162.592C330.13 162.718 330.292 162.794 330.466 162.807C336.388 163.167 340.915 162.856 343.917 161.885C345.963 161.223 347.372 160.232 348.105 158.941C349.124 157.146 348.577 155.296 348.048 153.507C347.481 151.582 346.944 149.766 348.146 147.93C348.975 146.665 350.464 145.632 352.34 145.025C354.217 144.418 356.331 144.32 358.032 144.79C360.162 145.377 361.417 146.703 363.88 150.139C368.097 156.019 370.888 161.11 372.557 164.152C372.803 164.601 373.027 165.008 373.229 165.375C375.575 169.588 378.338 173.751 381.444 177.749C378.965 183.787 372.828 194.629 359.147 201.388C356.988 202.454 354.715 203.377 352.388 204.13L352.391 204.133Z" fill="white"/>
<path d="M352.545 145.535C354.34 144.955 356.274 144.874 357.856 145.309C359.808 145.849 361 147.121 363.375 150.435C367.574 156.288 370.355 161.362 372.017 164.393C372.263 164.842 372.488 165.251 372.693 165.619C375.005 169.775 377.723 173.882 380.773 177.831C379.344 181.241 377.358 184.643 375.008 187.701C370.704 193.306 365.272 197.754 358.859 200.923C356.728 201.976 354.483 202.887 352.187 203.63C347.418 205.172 342.381 206.025 337.218 206.167C330.685 200.834 325.496 194.201 322.198 186.961C316.933 175.402 317.378 164.752 318.721 157.761C319.571 156.903 320.629 156.254 321.8 155.876C323.862 155.209 326.052 155.443 327.514 156.486C329.16 157.66 329.873 159.842 329.333 162.045C329.257 162.351 329.335 162.671 329.547 162.921C329.756 163.171 330.078 163.328 330.429 163.349C336.522 163.718 341 163.407 344.126 162.396C346.322 161.686 347.841 160.607 348.647 159.189C349.172 158.262 349.768 157.212 348.635 153.375C348.076 151.484 347.592 149.849 348.67 148.206C349.427 147.049 350.805 146.1 352.55 145.536M352.135 144.524C350.24 145.137 348.567 146.222 347.626 147.664C345.107 151.513 349.503 155.294 347.569 158.703C346.997 159.711 345.873 160.685 343.713 161.383C341.105 162.227 336.987 162.667 330.508 162.274C331.14 159.702 330.29 157.086 328.265 155.642C326.461 154.357 323.826 154.072 321.388 154.861C319.992 155.312 318.66 156.115 317.59 157.283C316.59 162.326 315.05 174.117 321.082 187.361C325.671 197.435 332.622 203.921 336.765 207.249C340.359 207.183 346.108 206.735 352.596 204.636C354.81 203.921 357.112 203.011 359.441 201.86C374.864 194.238 380.616 181.399 382.117 177.673C378.176 172.633 375.502 168.253 373.768 165.137C372.146 162.222 369.228 156.604 364.386 149.852C361.973 146.489 360.585 144.936 358.209 144.28C356.323 143.758 354.106 143.885 352.134 144.522L352.135 144.524Z" fill="#FA4B06"/>
<path d="M353.629 149.453C352.785 149.708 351.089 150.048 349.225 149.455C346.526 148.594 345.41 146.336 345.131 145.665C344.636 144.471 344.312 142.552 345.564 140.183C345.836 139.667 347.337 137.048 350.133 136.144C350.699 135.961 351.292 135.858 351.896 135.837C355.475 135.716 358.357 138.415 359.077 141.096C360.053 144.728 357.114 148.329 353.754 149.415C353.711 149.429 353.67 149.442 353.629 149.455L353.629 149.453Z" fill="white"/>
<path d="M350.338 136.65C350.845 136.486 351.376 136.394 351.919 136.374C353.368 136.324 354.845 136.814 356.075 137.752C357.26 138.654 358.142 139.919 358.493 141.221C359.393 144.573 356.664 147.903 353.551 148.909C353.513 148.922 353.474 148.934 353.438 148.946C352.667 149.179 351.124 149.491 349.43 148.95C346.977 148.167 345.953 146.097 345.698 145.48C345.243 144.383 344.946 142.615 346.11 140.414C346.365 139.931 347.767 137.483 350.341 136.651M349.928 135.639C346.831 136.64 345.246 139.52 345.018 139.955C344.704 140.551 343.395 143.027 344.566 145.853C344.802 146.421 345.956 148.984 349.021 149.962C351.2 150.657 353.146 150.17 353.821 149.965C353.866 149.951 353.911 149.936 353.957 149.922C357.461 148.788 360.744 145.005 359.659 140.972C358.831 137.894 355.596 135.176 351.868 135.302C351.164 135.326 350.517 135.448 349.924 135.64L349.928 135.639Z" fill="#FA4B06"/>
<path d="M325.94 161.365C323.432 162.176 321.04 161.247 320.585 161.054L318.018 159.856C317.146 158.388 316.211 156.095 316.49 153.283C316.636 151.823 317.092 150.408 317.848 149.077C318.564 148.532 319.435 148.079 320.314 147.795C321.192 147.511 322.139 147.378 323.067 147.424C324.015 147.47 327.205 147.796 328.427 150.104C329.167 151.5 328.836 152.913 328.573 153.634C328.51 153.808 328.549 153.999 328.678 154.14C329.102 154.606 330.066 155.866 329.86 157.478C329.6 159.497 327.686 160.631 326.57 161.124C326.366 161.215 326.153 161.296 325.94 161.365Z" fill="white"/>
<path d="M320.521 148.299C321.345 148.033 322.192 147.919 323.036 147.96C323.407 147.977 324.381 148.057 325.388 148.404C326.588 148.819 327.426 149.467 327.885 150.334C328.536 151.56 328.239 152.822 328.003 153.466C327.875 153.814 327.955 154.195 328.213 154.477C328.591 154.89 329.445 156.007 329.263 157.415C329.037 159.182 327.313 160.195 326.302 160.641C326.118 160.723 325.928 160.796 325.735 160.859C323.485 161.586 321.321 160.77 320.864 160.577L318.466 159.457C317.658 158.051 316.833 155.921 317.093 153.33C317.23 151.973 317.647 150.658 318.332 149.419C318.769 149.099 319.527 148.621 320.521 148.299ZM320.111 147.289C318.674 147.753 317.7 148.478 317.367 148.738C316.805 149.707 316.092 151.25 315.892 153.234C315.556 156.606 316.92 159.186 317.576 160.254L320.326 161.538C320.714 161.705 323.336 162.778 326.145 161.87C326.376 161.795 326.607 161.707 326.839 161.604C327.365 161.372 330.123 160.149 330.46 157.538C330.711 155.593 329.452 154.136 329.147 153.8C329.336 153.286 329.879 151.583 328.974 149.874C327.57 147.225 323.931 146.927 323.103 146.886C321.969 146.832 320.961 147.016 320.112 147.291L320.111 147.289Z" fill="#FA4B06"/>
<path d="M323.681 113.511C324.862 118.055 326.046 122.598 327.227 127.142C328.405 131.669 329.584 136.195 330.761 140.723C331.427 143.281 332.093 145.84 332.76 148.401C332.834 148.683 333.25 148.814 333.531 148.723C333.866 148.615 333.966 148.319 333.892 148.035C332.71 143.491 331.527 138.947 330.345 134.403C329.164 129.859 327.989 125.35 326.811 120.823C326.145 118.264 325.479 115.705 324.813 113.145C324.739 112.862 324.322 112.731 324.042 112.822C323.707 112.931 323.606 113.226 323.681 113.511Z" fill="white"/>
<path d="M333.844 119.802C333.955 119.778 333.771 119.803 333.729 119.801C333.838 119.804 333.655 119.783 333.617 119.773C333.726 119.801 333.535 119.733 333.51 119.723C333.492 119.715 333.421 119.667 333.498 119.718C333.46 119.693 333.423 119.666 333.387 119.639C333.357 119.617 333.33 119.594 333.302 119.57C333.234 119.51 333.351 119.628 333.292 119.558C333.244 119.502 333.201 119.447 333.159 119.388C333.122 119.334 333.159 119.393 333.165 119.402C333.147 119.371 333.132 119.34 333.117 119.308C333.101 119.276 333.09 119.243 333.077 119.211C333.075 119.205 333.042 119.06 333.056 119.14C332.944 118.511 333.277 117.879 333.625 117.303C333.793 117.022 334 116.744 334.284 116.566C334.316 116.544 334.352 116.525 334.387 116.505C334.401 116.496 334.492 116.46 334.408 116.494C334.483 116.463 334.563 116.439 334.641 116.416C334.641 116.416 334.74 116.395 334.682 116.405C334.618 116.417 334.741 116.4 334.756 116.397C334.795 116.394 334.838 116.391 334.878 116.39C334.919 116.39 334.919 116.388 334.874 116.386L334.933 116.392C335.056 116.412 335.128 116.432 335.206 116.492C335.3 116.564 335.338 116.632 335.384 116.766C335.416 116.856 335.374 116.703 335.394 116.797C335.402 116.835 335.406 116.877 335.412 116.917C335.418 116.981 335.423 117.083 335.42 117.125C335.412 117.264 335.37 117.459 335.324 117.615C335.247 117.88 335.055 118.272 334.88 118.498C334.629 118.819 334.421 118.982 334.029 119.077C333.715 119.153 333.564 119.509 333.668 119.765C333.786 120.057 334.124 120.164 334.439 120.088C335.513 119.825 336.139 118.88 336.448 117.988C336.758 117.097 336.693 115.869 335.584 115.446C334.475 115.022 333.416 115.614 332.829 116.407C332.242 117.201 331.701 118.229 331.854 119.188C332.02 120.228 333.061 121.059 334.259 120.805C334.574 120.737 334.721 120.367 334.62 120.116C334.498 119.817 334.167 119.725 333.849 119.794L333.844 119.802Z" fill="white"/>
<path d="M338.104 129.836C337.51 129.431 336.836 128.995 336.694 128.348C336.706 128.404 336.683 128.239 336.682 128.217C336.676 128.132 336.673 128.151 336.682 128.084C336.687 128.046 336.696 128.004 336.705 127.965C336.705 127.965 336.737 127.872 336.719 127.922C336.734 127.885 336.754 127.846 336.775 127.809C336.781 127.803 336.828 127.731 336.799 127.772C336.968 127.551 337.233 127.41 337.485 127.305C337.646 127.24 337.81 127.184 337.975 127.129C338.139 127.074 338.321 126.999 338.468 127.001C338.681 127.003 338.893 127.253 339.029 127.444C339.329 127.869 339.403 128.499 339.223 129.003C338.989 129.662 338.373 130.197 337.724 130.471C337.431 130.596 337.245 130.869 337.363 131.16C337.465 131.412 337.839 131.607 338.134 131.482C339.06 131.089 339.872 130.444 340.263 129.579C340.655 128.714 340.598 127.765 340.101 126.956C339.861 126.565 339.477 126.179 339.001 126.017C338.443 125.827 337.898 125.999 337.369 126.184C336.453 126.503 335.562 127.052 335.488 128.006C335.395 129.185 336.369 130.004 337.334 130.659C337.592 130.834 337.968 130.82 338.182 130.591C338.384 130.374 338.364 130.01 338.105 129.833L338.104 129.836Z" fill="white"/>
<path d="M341.901 138.135C341.83 138.149 341.76 138.158 341.687 138.163C341.678 138.164 341.538 138.175 341.636 138.169C341.73 138.161 341.601 138.164 341.585 138.162C341.523 138.155 341.457 138.133 341.396 138.127C341.317 138.121 341.521 138.176 341.398 138.127C341.358 138.11 341.318 138.098 341.28 138.08C341.249 138.067 341.216 138.044 341.185 138.036C341.292 138.111 341.11 138.014 341.185 138.036C341.132 138 341.08 137.967 341.031 137.928C341.008 137.91 340.964 137.883 340.952 137.859C340.988 137.93 341.003 137.916 340.971 137.874C340.917 137.811 340.869 137.749 340.82 137.685C340.775 137.624 340.799 137.691 340.833 137.71C340.813 137.701 340.797 137.642 340.789 137.622C340.77 137.575 340.727 137.507 340.732 137.455L340.748 137.52C340.743 137.495 340.74 137.468 340.738 137.444C340.735 137.417 340.731 137.391 340.732 137.366C340.729 137.348 340.725 137.306 340.73 137.286C340.687 137.414 340.735 137.285 340.741 137.251C340.751 137.192 340.768 137.134 340.786 137.078C340.742 137.214 340.818 137.024 340.836 136.991C340.85 136.968 340.863 136.946 340.876 136.921C340.939 136.805 340.798 137.006 340.887 136.904C340.932 136.85 340.975 136.798 341.027 136.749C341.054 136.722 341.086 136.686 341.12 136.664C341.106 136.673 341.018 136.74 341.106 136.68C341.165 136.64 341.222 136.599 341.287 136.564C341.302 136.557 341.359 136.532 341.363 136.523C341.335 136.574 341.267 136.564 341.358 136.53C341.433 136.501 341.51 136.481 341.587 136.456C341.723 136.419 341.492 136.463 341.58 136.458C341.617 136.455 341.656 136.449 341.693 136.446C341.725 136.443 341.756 136.444 341.786 136.442C341.933 136.433 341.702 136.43 341.792 136.439C341.862 136.447 341.932 136.454 341.998 136.467C342.043 136.475 342.088 136.486 342.134 136.498C342.036 136.473 342.109 136.493 342.162 136.512C342.229 136.536 342.291 136.564 342.352 136.595C342.384 136.61 342.468 136.665 342.364 136.598C342.389 136.615 342.415 136.629 342.44 136.646C342.503 136.688 342.562 136.733 342.619 136.78C342.643 136.8 342.663 136.819 342.687 136.839C342.581 136.742 342.699 136.857 342.718 136.879C342.762 136.929 342.797 136.984 342.838 137.034C342.925 137.148 342.794 136.927 342.851 137.055C342.862 137.082 342.877 137.106 342.888 137.133C342.918 137.201 342.944 137.27 342.962 137.34C342.956 137.314 342.948 137.244 342.959 137.347C342.965 137.398 342.969 137.447 342.974 137.498C342.991 137.639 342.999 137.419 342.973 137.558C342.964 137.604 342.954 137.651 342.945 137.697C342.941 137.726 342.907 137.787 342.953 137.686C342.935 137.723 342.92 137.762 342.902 137.798C342.883 137.834 342.859 137.871 342.838 137.906C342.886 137.829 342.855 137.88 342.817 137.924C342.77 137.978 342.718 138.027 342.664 138.076C342.77 137.98 342.663 138.074 342.639 138.091C342.603 138.117 342.564 138.141 342.525 138.165C342.498 138.18 342.474 138.195 342.446 138.209C342.419 138.224 342.391 138.238 342.365 138.251C342.432 138.22 342.445 138.213 342.404 138.231C342.322 138.258 342.246 138.291 342.162 138.317C342.132 138.326 342.101 138.332 342.072 138.341C342.004 138.356 342.011 138.356 342.094 138.339C342.063 138.344 342.034 138.349 342.002 138.352C341.692 138.395 341.407 138.627 341.448 138.931C341.486 139.203 341.761 139.471 342.097 139.426C343.038 139.298 343.903 138.753 344.132 137.897C344.361 137.04 343.776 136.102 342.929 135.656C342.147 135.243 341.119 135.29 340.413 135.808C339.706 136.327 339.322 137.186 339.652 137.98C339.981 138.775 341.019 139.407 341.997 139.218C342.303 139.158 342.594 138.954 342.551 138.639C342.516 138.383 342.233 138.081 341.902 138.144L341.901 138.135Z" fill="white"/>
</g>
<g clip-path="url(#clip1_791_4014)">
<path d="M388.186 148.758C388.429 151.746 388.673 154.733 388.919 157.721C387.389 158.677 384.783 160.584 383.042 163.75C380.853 167.732 380.228 173.341 382.349 174.346C382.98 174.645 384.234 174.717 386.945 172.859C386.961 173.211 387.07 174.431 388.137 175.357C389.346 176.406 391.295 176.653 393.044 175.962C393.15 176.525 393.404 177.261 394.066 177.602C395.76 178.476 398.702 176.162 398.821 176.065C401.28 174.086 401.523 171.312 402.139 165.245C402.355 163.131 402.75 159.296 403.312 154.129L388.186 148.758Z" fill="white" stroke="#FA4B06" stroke-width="1.18289" stroke-linecap="round" stroke-linejoin="round"/>
<path d="M387.618 214.316L391.326 173.26C391.347 173.028 391.183 172.814 390.932 172.749C390.817 172.719 390.698 172.724 390.592 172.758C390.466 172.799 390.359 172.88 390.292 172.991L368.998 209.201L364.547 207.601L389.869 162.324L396.767 163.745L393.022 216.777L387.615 214.314L387.618 214.316Z" fill="#FA4B06"/>
<path d="M390.17 162.889L396.191 164.13L392.527 216L388.194 214.025L391.873 173.296C391.916 172.831 391.584 172.404 391.083 172.274C390.853 172.215 390.616 172.224 390.403 172.293C390.153 172.374 389.936 172.536 389.805 172.76L368.743 208.578L365.307 207.343L390.17 162.889ZM389.574 161.76L363.793 207.858L369.256 209.821L390.781 173.219L387.043 214.604L393.522 217.556L397.35 163.362L389.577 161.761L389.574 161.76Z" fill="white"/>
<path d="M381.496 220.921C381.039 221.069 380.57 221.198 380.103 221.307L360.631 205.502C360.475 204.014 360.539 201.303 362.395 198.656C364.186 196.103 366.817 194.838 368.71 194.226C369.888 193.845 370.88 193.681 371.414 193.613L391.459 209.738C391.207 211.543 390.332 214.743 387.344 217.531C385.316 219.425 383.045 220.418 381.495 220.92L381.496 220.921Z" fill="white"/>
<path d="M368.894 194.687C369.863 194.373 370.697 194.215 371.237 194.134L381.077 202.051L390.873 209.931C390.585 211.707 389.69 214.631 386.943 217.196C384.99 219.019 382.798 219.979 381.304 220.462C380.957 220.574 380.601 220.677 380.247 220.764L361.156 205.27C361.034 203.815 361.16 201.336 362.857 198.919C364.564 196.484 367.083 195.275 368.893 194.689M368.52 193.764C366.439 194.437 363.77 195.77 361.927 198.397C359.735 201.523 359.974 204.69 360.105 205.739L379.949 221.846C380.37 221.755 380.97 221.614 381.681 221.384C383.356 220.842 385.657 219.818 387.739 217.873C391.268 214.578 391.89 210.769 392.035 209.545C385.22 204.065 378.406 198.581 371.591 193.101C371.266 193.133 370.052 193.271 368.521 193.766L368.52 193.764Z" fill="#FA4B06"/>
<path d="M360.106 205.739C358.637 204.723 360.04 200.291 362.716 197.4C365.553 194.337 370.472 192.31 371.849 193.466C373.224 194.618 371.092 198.932 368.454 201.649C365.915 204.265 361.584 206.764 360.103 205.74L360.106 205.739Z" fill="#FA4B06"/>
<mask id="mask0_791_4014" style="mask-type:luminance" maskUnits="userSpaceOnUse" x="386" y="205" width="7" height="11">
<path d="M392.183 209.397L387.954 205.994L387.588 206.125L386.823 214.587L386.943 214.778L389.494 215.941L389.779 215.871C391.584 213.352 392.105 210.838 392.255 209.564L392.183 209.397Z" fill="white"/>
</mask>
<g mask="url(#mask0_791_4014)">
<path d="M381.496 220.921C381.039 221.069 380.57 221.198 380.103 221.307L360.631 205.502C360.475 204.014 360.539 201.303 362.395 198.656C364.186 196.103 366.817 194.838 368.71 194.226C369.888 193.845 370.88 193.681 371.414 193.613L391.459 209.738C391.207 211.543 390.332 214.743 387.344 217.531C385.316 219.425 383.045 220.418 381.495 220.92L381.496 220.921Z" fill="white"/>
<path d="M368.894 194.687C369.863 194.373 370.697 194.215 371.237 194.134L381.077 202.051L390.873 209.931C390.585 211.707 389.69 214.631 386.943 217.196C384.99 219.019 382.798 219.979 381.304 220.462C380.957 220.574 380.601 220.677 380.247 220.764L361.156 205.27C361.034 203.815 361.16 201.336 362.857 198.919C364.564 196.484 367.083 195.275 368.893 194.689M368.52 193.764C366.439 194.437 363.77 195.77 361.927 198.397C359.735 201.523 359.974 204.69 360.105 205.739L379.949 221.846C380.37 221.755 380.97 221.614 381.681 221.384C383.356 220.842 385.657 219.818 387.739 217.873C391.268 214.578 391.89 210.769 392.035 209.545C385.22 204.065 378.406 198.581 371.591 193.101C371.266 193.133 370.052 193.271 368.521 193.766L368.52 193.764Z" fill="#FA4B06"/>
<path d="M387.618 214.316L391.326 173.26C391.347 173.028 391.183 172.814 390.932 172.749C390.817 172.719 390.698 172.724 390.592 172.758C390.466 172.799 390.359 172.88 390.292 172.991L368.998 209.201L364.547 207.601L389.869 162.324L396.767 163.745L393.022 216.777L387.615 214.314L387.618 214.316Z" fill="#FA4B06"/>
<path d="M390.17 162.889L396.191 164.13L392.527 216L388.194 214.025L391.873 173.296C391.916 172.831 391.584 172.404 391.083 172.274C390.853 172.215 390.616 172.224 390.403 172.293C390.153 172.374 389.936 172.536 389.805 172.76L368.743 208.578L365.307 207.343L390.17 162.889ZM389.574 161.76L363.793 207.858L369.256 209.821L390.781 173.219L387.043 214.604L393.522 217.556L397.35 163.362L389.577 161.761L389.574 161.76Z" fill="white"/>
</g>
<path d="M453.287 216.315C452.442 216.588 451.579 216.853 450.724 217.1C445.366 218.649 439.808 219.684 434.198 220.179C432.223 216.829 432.427 212.813 434.752 209.863C435.989 208.291 437.752 207.104 439.849 206.425C442.529 205.559 445.487 205.613 448.179 206.579C448.307 206.625 448.446 206.626 448.572 206.586C448.642 206.563 448.705 206.528 448.763 206.48C448.92 206.348 448.974 206.149 448.905 205.966C448.245 204.222 448.141 202.443 448.605 200.821C449.447 197.875 452.222 195.249 455.678 194.132C456.979 193.711 458.261 193.557 459.383 193.689C461.482 193.937 463.613 195.261 465.229 197.322C467.891 200.716 468.766 205.377 467.643 210.143C463.109 212.623 458.282 214.7 453.289 216.314L453.287 216.315Z" fill="#FA4B06"/>
<path d="M455.863 194.595C457.082 194.2 458.274 194.057 459.308 194.178C461.255 194.408 463.247 195.657 464.777 197.607C467.312 200.841 468.169 205.278 467.149 209.838C462.706 212.254 457.982 214.276 453.099 215.855C452.26 216.126 451.403 216.389 450.553 216.634C445.352 218.137 439.96 219.154 434.517 219.657C432.816 216.529 433.061 212.859 435.2 210.145C436.373 208.657 438.043 207.53 440.036 206.886C442.588 206.06 445.407 206.113 447.973 207.035C448.228 207.128 448.508 207.127 448.756 207.047C448.895 207.002 449.025 206.931 449.137 206.838C449.448 206.574 449.559 206.173 449.424 205.81C448.797 204.155 448.699 202.472 449.136 200.943C449.934 198.149 452.575 195.658 455.863 194.595ZM455.489 193.672C452.219 194.729 449.037 197.326 448.072 200.7C447.413 203.012 447.976 205.042 448.384 206.123C445.477 205.08 442.367 205.088 439.664 205.962C437.521 206.655 435.633 207.892 434.304 209.578C431.789 212.772 431.63 217.125 433.891 220.697C438.557 220.305 444.403 219.441 450.894 217.566C451.775 217.312 452.635 217.047 453.474 216.775C459.481 214.833 464.388 212.511 468.129 210.45C470.432 201.14 464.945 193.849 459.452 193.202C458.217 193.057 456.846 193.231 455.488 193.67L455.489 193.672Z" fill="white"/>
<path d="M505.964 197.355C500.99 198.964 495.782 200.045 490.476 200.57C481.617 193.352 480.557 183.628 483.75 180.059C484.472 179.252 485.533 178.604 486.814 178.19C490.236 177.083 494.337 177.79 497.261 179.991C498.889 181.216 500.212 182.946 501.092 184.996C501.178 185.198 501.394 185.332 501.635 185.338C501.71 185.339 501.783 185.328 501.851 185.306C502.002 185.257 502.128 185.153 502.195 185.017C503.443 182.459 505.591 180.579 508.243 179.721C510.315 179.051 512.538 179.057 514.671 179.734C518.742 181.029 522.058 184.671 523.2 189.063C518.633 192.091 513.685 194.587 508.487 196.485C507.656 196.789 506.807 197.081 505.964 197.353L505.964 197.355Z" fill="#FA4B06"/>
<path d="M487.016 178.69C490.242 177.647 494.114 178.318 496.876 180.397C498.426 181.564 499.691 183.219 500.533 185.187C500.706 185.59 501.137 185.862 501.621 185.871C501.772 185.874 501.918 185.852 502.054 185.808C502.356 185.71 502.609 185.505 502.741 185.231C503.924 182.809 505.949 181.031 508.446 180.223C510.386 179.596 512.469 179.601 514.47 180.238C518.249 181.441 521.351 184.78 522.526 188.847C518.087 191.754 513.292 194.157 508.259 195.993C507.436 196.293 506.595 196.583 505.758 196.854C500.913 198.421 495.841 199.483 490.677 200.013C486.952 196.917 484.309 193.016 483.214 188.984C482.253 185.447 482.636 182.154 484.213 180.39C484.868 179.658 485.836 179.07 487.014 178.689M486.61 177.688C485.252 178.127 484.092 178.822 483.283 179.726C479.683 183.75 481.28 193.929 490.273 201.127C494.679 200.706 500.158 199.801 506.168 197.857C507.007 197.586 507.854 197.295 508.713 196.982C515.031 194.676 520.073 191.832 523.866 189.289C522.766 184.567 519.245 180.629 514.87 179.236C512.56 178.501 510.183 178.53 508.04 179.223C505.335 180.098 503.004 182.027 501.649 184.808C501.109 183.55 499.943 181.315 497.645 179.585C494.288 177.057 489.88 176.632 486.611 177.69L486.61 177.688Z" fill="white"/>
<path d="M402.646 106.635C407.419 102.518 412.189 98.4013 416.962 94.2839C426.302 103.428 440.766 117.473 458.832 134.523C486.002 160.164 500.248 172.713 496.097 181.076C493.494 186.318 486.733 183.726 469.274 193.175C455.794 200.472 451.665 206.438 445.734 205.005C440.699 203.79 438.167 198.16 435.202 189.111C428.275 167.959 428.105 155.597 425.485 144.793C423.158 135.195 417.577 121.694 402.645 106.638L402.646 106.635Z" fill="white" stroke="#FA4B06" stroke-width="1.18289" stroke-linecap="round" stroke-linejoin="round"/>
<path d="M448.096 131.529C448.986 134.019 449.986 137.546 450.33 141.843C450.73 146.854 450.081 150.903 451.381 151.257C451.82 151.376 452.566 151.083 453.909 149.381C454.215 150.988 455.201 152.157 456.089 152.185C457.116 152.216 458.519 150.725 458.472 148.4C459.186 150.161 460.351 151.335 461.123 151.209C461.956 151.073 462.685 149.366 462.333 147.005C464.347 148.675 465.147 148.774 465.511 148.581C466.612 147.995 465.571 144.503 464.903 142.198C463.775 138.31 462.27 132.682 460.708 125.325C456.505 127.392 452.301 129.459 448.095 131.527L448.096 131.529Z" fill="white" stroke="#FA4B06" stroke-width="1.18289" stroke-linecap="round" stroke-linejoin="round"/>
<path d="M388.723 154.62C386.975 144.78 387.666 134.549 390.725 125.017C393.51 116.342 398.124 108.356 404.438 101.272L415.093 102.986C415.19 103.002 415.29 102.993 415.376 102.965C415.546 102.91 415.682 102.78 415.724 102.612L417.941 93.9709C424.441 93.5389 430.577 94.4086 436.184 96.5534C445.052 99.9486 451.983 106.281 456.786 115.379C460.199 121.843 461.379 127.597 461.671 129.291L449.388 136.436C448.738 134.421 447.975 132.426 447.116 130.495C447.006 130.249 446.697 130.125 446.418 130.216C446.414 130.217 446.407 130.219 446.403 130.22C446.193 130.295 446.062 130.473 446.055 130.665L424.773 142.213C423.769 139.022 422.215 136.019 420.148 133.283C417.393 129.635 413.692 126.486 409.446 124.17C409.302 124.091 409.127 124.077 408.972 124.127C408.958 124.131 408.944 124.136 408.927 124.142C408.761 124.21 408.644 124.348 408.614 124.512C407.783 129.248 406.953 134.026 406.144 138.713C404.919 145.817 403.691 153.028 402.493 160.156L388.715 154.618L388.723 154.62ZM439.061 117.856C439.017 117.87 438.976 117.89 438.936 117.913C438.685 118.065 438.622 118.372 438.794 118.594C439.077 118.964 439.36 119.34 439.633 119.713C439.775 119.907 440.046 119.98 440.279 119.905C440.318 119.892 440.356 119.876 440.394 119.853C440.647 119.704 440.718 119.402 440.553 119.173C440.467 119.055 440.38 118.937 440.292 118.819C440.096 118.553 439.899 118.293 439.702 118.037C439.557 117.848 439.291 117.78 439.062 117.854L439.061 117.856Z" fill="#FA4B06"/>
<path d="M418.387 94.4361C424.648 94.0729 430.559 94.936 435.97 97.0064C440.748 98.8349 445.017 101.586 448.661 105.184C451.627 108.112 454.194 111.614 456.292 115.591C459.491 121.648 460.706 127.067 461.075 129.056L455.655 132.209L449.71 135.666C449.101 133.853 448.405 132.061 447.632 130.322C446.178 127.024 444.395 123.813 442.334 120.783C441.913 120.165 441.472 119.538 441.018 118.918C440.929 118.797 440.84 118.675 440.749 118.554C440.553 118.292 440.352 118.025 440.15 117.763C438.486 115.591 436.937 113.835 435.931 112.747C435.334 112.101 434.872 111.628 434.59 111.344C434.425 111.178 434.296 111.05 434.206 110.967C434.023 110.792 433.595 110.382 432.92 110.585C432.912 110.588 432.904 110.591 432.895 110.593C432.492 110.724 432.211 111.05 432.175 111.434C432.134 111.858 432.362 112.085 432.623 112.349C434.665 114.399 436.588 116.595 438.338 118.875C438.622 119.248 438.906 119.624 439.178 119.997C441.59 123.293 443.66 126.821 445.337 130.49L434.999 136.1L425.103 141.469C424.082 138.457 422.572 135.62 420.606 133.018C417.807 129.313 414.048 126.112 409.736 123.761C409.45 123.605 409.102 123.575 408.79 123.676C408.761 123.686 408.73 123.696 408.703 123.709C408.37 123.845 408.135 124.124 408.079 124.447C407.25 129.172 406.419 133.95 405.609 138.65C404.418 145.549 403.227 152.541 402.066 159.455L389.221 154.292C387.544 144.603 388.243 134.542 391.254 125.163C393.988 116.645 398.5 108.794 404.667 101.818L409.51 102.597L414.998 103.479C415.196 103.511 415.39 103.495 415.566 103.438C415.907 103.327 416.177 103.071 416.264 102.734L417.417 98.2379L418.389 94.4479M417.497 93.5108C416.728 96.5089 415.961 99.5063 415.192 102.504C411.534 101.915 407.874 101.328 404.215 100.739C400.087 105.328 393.873 113.436 390.197 124.883C386.028 137.87 387.127 148.925 388.227 154.96C393.131 156.931 398.032 158.901 402.935 160.873C404.172 153.511 405.424 146.15 406.695 138.792C407.511 134.058 408.333 129.325 409.164 124.593C411.789 126.024 416.099 128.801 419.695 133.561C422.413 137.158 423.748 140.594 424.436 142.973C431.858 138.944 439.281 134.918 446.703 130.889C446.674 130.819 446.642 130.75 446.611 130.679C445.073 127.214 442.978 123.384 440.099 119.453C439.812 119.064 439.527 118.682 439.244 118.314C436.101 114.216 433.254 111.523 433.27 111.512C433.293 111.504 436.094 114.204 439.244 118.314C439.441 118.57 439.638 118.83 439.835 119.096C439.923 119.216 440.011 119.336 440.099 119.455C440.532 120.044 440.966 120.659 441.398 121.292C443.94 125.031 445.589 128.362 446.611 130.681C447.667 133.06 448.463 135.266 449.067 137.212C453.468 134.651 457.87 132.092 462.269 129.532C461.962 127.575 457.91 104.337 436.404 96.1042C429.158 93.3307 422.269 93.1556 417.497 93.5108Z" fill="white"/>
<path d="M398.84 66.7689C405.006 80.0293 414.25 89.1837 423.058 89.832C424.899 89.9674 428.785 90.2535 432.315 88.0472C436.528 85.4154 437.39 81.0076 437.574 79.8602C427.786 80.4619 424.602 78.7528 423.588 76.9741C422.67 75.3589 423.658 73.8933 423.023 70.8001C422.355 67.5424 420.428 65.1134 418.884 63.5586C418.267 62.5786 416.831 60.617 414.104 59.1651C412.077 58.0857 410.162 57.7278 408.995 57.5937C408.765 57.5264 404.521 56.3538 401.184 58.8984C398.715 60.7805 397.776 63.9066 398.842 66.7683L398.84 66.7689Z" fill="#FA4B06"/>
<path d="M407.603 102.351C396.98 105.786 385.089 100.567 381.096 90.7187C377.104 80.8703 382.497 70.0618 393.121 66.6263C403.745 63.1908 415.636 68.41 419.628 78.2584C423.621 88.1068 418.227 98.9153 407.603 102.351Z" fill="white"/>
<path d="M393.307 67.0852C403.646 63.7419 415.221 68.8274 419.111 78.4229C423.001 88.0185 417.754 98.5435 407.416 101.887C397.077 105.23 385.502 100.145 381.612 90.5491C377.722 80.9535 382.968 70.4285 393.307 67.0852ZM392.933 66.1624C382.007 69.6954 376.476 80.7635 380.579 90.8832C384.681 101.003 396.864 106.343 407.79 102.81C418.715 99.2766 424.246 88.2085 420.144 78.0888C416.041 67.9691 403.859 62.6293 392.933 66.1624Z" fill="#FA4B06"/>
<path d="M380.34 90.2244C381.92 89.5275 384.962 87.949 387.452 84.8432C390.422 81.1396 390.902 77.3956 391.004 75.818C392.488 76.9936 395.318 78.8611 399.306 79.4149C409.186 80.7875 416.281 72.7337 416.575 72.3879C415.242 70.7022 412.695 67.9645 408.509 65.9299C405.984 64.7005 403.876 64.2279 403.378 64.1132C401.802 63.7482 396.004 62.5876 389.802 65.2885C383.555 68.0078 381.065 72.8317 380.298 74.3804C376.586 81.875 379.707 88.8821 380.338 90.2269L380.34 90.2244Z" fill="#FA4B06"/>
<path d="M392.858 91.6644C392.125 91.077 390.179 89.7375 390.505 88.6844L389.992 89.0966C390.047 89.0873 390.559 89.6021 390.586 89.6288C390.841 89.8639 391.079 90.1124 391.307 90.3686C391.5 90.5859 391.687 90.8095 391.864 91.0383C392.09 91.3324 392.063 91.5311 392.512 91.4276C391.807 91.591 392.199 92.5395 392.898 92.3782C394.195 92.0796 393 90.7105 392.608 90.2277C392.097 89.5973 390.901 87.9364 389.902 88.0903C389.631 88.1319 389.462 88.268 389.389 88.5026C388.922 90.0103 391.056 91.5833 392.131 92.4423C392.674 92.8763 393.397 92.0997 392.856 91.665L392.858 91.6644Z" fill="#FA4B06"/>
<path d="M400.97 86.8447C400.57 86.5564 400.168 86.2688 399.805 85.9437C399.63 85.7875 399.469 85.6205 399.32 85.445C399.192 85.2903 399.044 84.8727 398.897 84.7885C398.849 84.5828 398.727 84.6222 398.53 84.9093L398.853 85.0888C399.071 85.2167 399.289 85.3507 399.489 85.5033C399.941 85.8518 400.469 86.4221 400.283 87.002L400.513 86.6813C400.513 86.6813 399.812 85.9541 399.743 85.8719C399.476 85.547 399.262 85.1968 399.086 84.8258L398.191 85.3865C398.753 85.7182 399.235 86.099 399.654 86.5731C400.103 87.0813 401.03 86.5018 400.576 85.9888C400.1 85.4495 399.558 84.9882 398.914 84.6099C398.49 84.3607 397.778 84.662 398.019 85.1706C398.431 86.0311 399.366 87.6576 400.613 87.67C401.265 87.6762 401.504 87.1585 401.454 86.6486C401.39 86.0012 401.001 85.4215 400.499 84.9679C399.997 84.5143 397.878 83.0409 397.718 84.5479C397.585 85.7828 399.317 86.9534 400.248 87.6231C400.813 88.0312 401.541 87.257 400.973 86.8459L400.97 86.8447Z" fill="#FA4B06"/>
<path d="M395.661 94.6161L396.303 96.2015C396.551 96.8124 397.616 96.4701 397.368 95.8574L396.725 94.272C396.477 93.661 395.412 94.0033 395.661 94.6161Z" fill="#FA4B06"/>
<path d="M403.012 97.3828C404.985 97.2122 406.689 96.0748 407.371 94.4013C407.618 93.7952 406.596 93.3597 406.346 93.9727C405.799 95.3147 404.524 96.2361 402.923 96.374C402.198 96.4372 402.286 97.4442 403.011 97.381L403.012 97.3828Z" fill="#FA4B06"/>
<path d="M385.972 159.695C385.719 159.793 380.688 161.808 380.676 165.098C380.675 165.27 380.694 167.138 381.995 167.747C383.341 168.376 385.163 167.232 385.869 166.786C388.374 165.21 389.19 162.704 389.475 161.516" fill="white"/>
<path d="M385.789 159.244C384.884 159.595 384.015 160.068 383.228 160.596C381.894 161.49 380.673 162.668 380.267 164.154C380.103 164.757 380.109 165.389 380.238 165.997C380.429 166.887 380.877 167.821 381.861 168.217C382.844 168.613 383.879 168.347 384.761 167.951C385.643 167.556 386.417 167.072 387.115 166.487C388.65 165.199 389.567 163.42 390.004 161.603C390.149 160.998 389.094 160.828 388.95 161.43C388.625 162.779 388.016 164.108 386.989 165.212C386.412 165.831 385.72 166.326 384.962 166.757C384.329 167.116 383.541 167.494 382.79 167.453C381.35 167.372 381.079 165.562 381.264 164.59C381.501 163.346 382.528 162.31 383.613 161.544C384.159 161.157 384.745 160.813 385.353 160.51C385.464 160.455 385.576 160.402 385.685 160.348C385.523 160.426 385.709 160.338 385.746 160.32C385.783 160.302 385.823 160.285 385.863 160.268C385.961 160.226 386.058 160.184 386.157 160.145C386.424 160.042 386.582 159.787 386.479 159.532C386.384 159.299 386.059 159.142 385.792 159.245L385.789 159.244Z" fill="#FA4B06"/>
</g>
<g clip-path="url(#clip2_791_4014)">
<path d="M1146.43 219.374C1148.84 221.39 1148.12 225.525 1146.9 232.468C1145.92 238.094 1145.38 241.12 1142.86 244.206C1139.96 247.746 1136.16 249.208 1133.98 249.839C1130.19 247.759 1129.35 246.205 1129.45 245.1C1129.65 242.761 1134.07 242.058 1134.68 238.82C1134.94 237.414 1134.39 236.103 1133.82 235.157C1134.98 229.945 1136.15 224.736 1137.32 219.525C1138.76 218.942 1143.73 217.105 1146.43 219.373L1146.43 219.374Z" fill="#FA4B06" stroke="white" stroke-width="0.930696" stroke-linecap="round" stroke-linejoin="round"/>
<path d="M1078.4 224.619C1076.04 226.976 1071.24 225.802 1061.75 223.356C1050.09 220.352 1049.22 218.356 1048.98 217.443C1048.33 214.948 1050.07 211.43 1052.57 210.428C1055.99 209.058 1059.07 213.129 1064.1 211.851C1065.72 211.439 1066.94 210.646 1067.72 210.023L1079.64 215.536C1081 221.749 1078.97 224.054 1078.4 224.619Z" fill="#FA4B06" stroke="white" stroke-width="0.803672" stroke-linecap="round" stroke-linejoin="round"/>
<path d="M1088.56 195.185C1100.11 199.116 1111.67 203.047 1123.22 206.978C1120.9 212.133 1122.86 217.958 1127.13 220.283C1130.47 222.097 1134.85 221.584 1138.11 218.968L1133.29 237.464C1119.29 238.532 1112.8 234.883 1109.46 231.252C1105.43 226.867 1104.67 222.256 1096.96 215.077C1090.83 209.369 1088.05 209.472 1086.73 209.749C1082.47 210.651 1080.49 216.1 1080.13 217.138C1074.06 215.643 1067.98 214.145 1061.91 212.65C1059.93 200.946 1066.54 191.181 1074.43 189.726C1081.68 188.391 1087.84 194.458 1088.56 195.182L1088.56 195.185Z" fill="white" stroke="#FA4B06" stroke-width="1.22139" stroke-linecap="round" stroke-linejoin="round"/>
<path d="M1128.55 185.113C1114.8 182.158 1101.05 179.202 1087.3 176.246C1085.97 172.211 1083.01 161.293 1087.85 149.776C1089.64 145.511 1093.9 135.382 1103.37 133.667C1109.69 132.522 1115.05 135.716 1117.05 137.051C1119.25 137.052 1125.37 137.356 1130.61 141.744C1136.57 146.722 1137.51 153.691 1137.98 157.23C1139.89 171.489 1130.73 182.607 1128.55 185.113Z" fill="#FA4B06" stroke="white" stroke-width="1.22139" stroke-linecap="round" stroke-linejoin="round"/>
<path d="M1088.91 176.601C1089.61 179.825 1090.16 184.234 1089.61 189.385C1089.35 191.817 1088.9 193.99 1088.37 195.864C1091.95 198.939 1096.8 202.53 1102.99 205.728C1110.6 209.653 1117.61 211.626 1122.86 212.67C1123.35 204.985 1123.84 197.3 1124.33 189.615C1128.39 190.584 1134.81 191.569 1142.51 190.423C1153.79 188.743 1161.6 183.412 1165.24 180.545L1156.38 171.438C1151.77 173.437 1147.74 174.415 1144.83 174.929C1140 175.787 1136.37 176.43 1132.06 175.148C1127.5 173.792 1124.4 170.945 1122.62 168.917C1115.05 167.411 1107.47 165.903 1099.89 164.398C1096.79 163.835 1088.36 161.869 1082.09 154.409C1079.7 151.562 1078.26 148.678 1077.38 146.375C1073.58 148.072 1069.78 149.77 1065.97 151.466C1066.29 153.967 1067.8 163.516 1076.13 170.498C1080.99 174.573 1086.09 176.028 1088.91 176.6L1088.91 176.601Z" fill="#FA4B06" stroke="white" stroke-width="1.22139" stroke-linecap="round" stroke-linejoin="round"/>
<path d="M1108.15 172.601C1116.97 174.9 1125.99 169.613 1128.29 160.792C1130.59 151.971 1125.3 142.956 1116.48 140.656C1107.66 138.357 1098.64 143.644 1096.34 152.465C1094.04 161.286 1099.33 170.301 1108.15 172.601Z" fill="white" stroke="#FA4B06" stroke-width="1.22139" stroke-linecap="round" stroke-linejoin="round"/>
<path d="M1115.77 163.754C1115.79 163.612 1115.83 163.469 1115.87 163.331C1115.88 163.269 1115.9 163.207 1115.93 163.147C1115.94 163.117 1115.95 163.088 1115.96 163.058C1116.02 162.905 1115.9 163.179 1115.97 163.03C1116.09 162.763 1116.23 162.513 1116.4 162.273C1116.43 162.233 1116.42 162.197 1116.39 162.283C1116.39 162.267 1116.43 162.233 1116.44 162.216C1116.46 162.198 1116.48 162.181 1116.49 162.162C1116.58 162.07 1116.41 162.208 1116.48 162.173C1116.61 162.106 1116.37 162.187 1116.5 162.159L1116.52 162.155C1116.46 162.177 1116.39 162.178 1116.33 162.161C1116.22 162.128 1116.11 162.048 1116.06 161.947C1116.04 161.907 1116.04 161.769 1116.02 161.867C1116.02 161.884 1116.02 161.928 1116.02 161.944C1116.01 161.925 1116.04 161.808 1116.02 161.923C1116.01 161.955 1116.01 161.986 1116 162.018C1115.97 162.167 1115.93 162.314 1115.89 162.458C1115.87 162.526 1115.84 162.595 1115.82 162.662C1115.8 162.699 1115.8 162.763 1115.83 162.644C1115.82 162.67 1115.8 162.709 1115.79 162.732C1115.73 162.863 1115.66 162.989 1115.58 163.113C1115.54 163.174 1115.51 163.234 1115.46 163.294C1115.45 163.311 1115.39 163.394 1115.44 163.328C1115.49 163.255 1115.41 163.361 1115.4 163.37C1115.37 163.408 1115.33 163.444 1115.3 163.48C1115.22 163.553 1115.31 163.459 1115.32 163.457C1115.31 163.46 1115.24 163.508 1115.22 163.519C1115.14 163.572 1115.25 163.505 1115.26 163.504C1115.25 163.504 1115.21 163.52 1115.19 163.527C1115.08 163.568 1115.31 163.516 1115.23 163.519C1115.16 163.522 1115.37 163.543 1115.3 163.526L1115.28 163.522C1115.35 163.536 1115.4 163.565 1115.45 163.61C1115.45 163.619 1115.52 163.736 1115.48 163.651C1115.48 163.663 1115.52 163.792 1115.5 163.698C1115.54 163.859 1115.51 163.766 1115.51 163.715C1115.51 163.669 1115.51 163.625 1115.52 163.58C1115.52 163.755 1115.5 163.695 1115.51 163.642C1115.52 163.607 1115.52 163.57 1115.53 163.534C1115.55 163.478 1115.56 163.421 1115.58 163.365C1115.59 163.333 1115.6 163.292 1115.62 163.261C1115.58 163.32 1115.58 163.348 1115.62 163.272C1115.68 163.137 1115.76 163.008 1115.84 162.885C1115.86 162.855 1115.88 162.823 1115.91 162.793C1115.92 162.779 1116 162.678 1115.94 162.751C1115.87 162.828 1115.97 162.718 1115.97 162.712C1115.99 162.685 1116.02 162.656 1116.04 162.629C1116.21 162.431 1116.4 162.248 1116.59 162.074C1116.83 161.861 1116.82 161.422 1116.59 161.21C1116.33 160.974 1115.98 160.986 1115.73 161.212C1115.19 161.685 1114.72 162.245 1114.45 162.912C1114.32 163.255 1114.23 163.663 1114.32 164.027C1114.47 164.562 1115 164.828 1115.52 164.7C1115.95 164.594 1116.25 164.265 1116.5 163.92C1116.75 163.576 1116.91 163.217 1117.04 162.832C1117.17 162.447 1117.28 162.006 1117.21 161.611C1117.16 161.312 1116.93 161.082 1116.65 160.986C1116.4 160.901 1116.13 160.962 1115.9 161.085C1115.67 161.208 1115.51 161.406 1115.36 161.615C1115.23 161.785 1115.12 161.962 1115.02 162.147C1114.81 162.551 1114.66 162.99 1114.57 163.44C1114.51 163.753 1114.67 164.112 1115.01 164.185C1115.31 164.249 1115.69 164.085 1115.75 163.748L1115.77 163.754Z" fill="#FA4B06"/>
<path d="M1107.65 164.613C1107.65 164.613 1107.67 164.594 1107.67 164.586L1107.58 164.712C1107.68 164.58 1107.79 164.458 1107.92 164.353C1107.98 164.295 1108.03 164.228 1108.05 164.152C1108.09 164.078 1108.11 163.999 1108.1 163.913C1108.1 163.83 1108.09 163.754 1108.05 163.684C1108.02 163.609 1107.98 163.543 1107.92 163.49L1107.8 163.394C1107.7 163.338 1107.59 163.31 1107.48 163.312L1107.33 163.334C1107.22 163.362 1107.13 163.415 1107.06 163.491C1106.88 163.641 1106.74 163.816 1106.6 164.004C1106.55 164.076 1106.53 164.153 1106.52 164.238C1106.51 164.317 1106.51 164.396 1106.54 164.476C1106.56 164.555 1106.59 164.625 1106.65 164.681C1106.69 164.748 1106.75 164.801 1106.82 164.84L1106.97 164.902C1107.08 164.93 1107.18 164.927 1107.29 164.899L1107.43 164.839C1107.53 164.784 1107.6 164.71 1107.65 164.618L1107.65 164.613Z" fill="#FA4B06"/>
<path d="M1109.14 168.935C1110.33 169.6 1111.93 169.375 1112.86 168.377C1113.08 168.143 1113.11 167.739 1112.86 167.513C1112.61 167.286 1112.23 167.265 1111.99 167.515C1111.95 167.561 1111.9 167.608 1111.86 167.651C1111.83 167.673 1111.81 167.694 1111.79 167.715C1111.7 167.787 1111.79 167.697 1111.8 167.703C1111.79 167.694 1111.51 167.889 1111.48 167.905C1111.45 167.916 1111.43 167.928 1111.41 167.94C1111.29 167.998 1111.5 167.906 1111.43 167.932C1111.36 167.954 1111.31 167.979 1111.24 167.999C1111.12 168.037 1111 168.065 1110.87 168.09C1110.79 168.105 1111.02 168.074 1110.89 168.085C1110.86 168.088 1110.84 168.089 1110.81 168.093C1110.75 168.098 1110.68 168.1 1110.62 168.1C1110.55 168.101 1110.49 168.099 1110.43 168.093C1110.4 168.092 1110.29 168.077 1110.39 168.091C1110.49 168.106 1110.37 168.086 1110.36 168.083C1110.23 168.062 1110.11 168.03 1109.99 167.988C1109.96 167.982 1109.94 167.971 1109.91 167.962C1109.79 167.917 1110.01 168.008 1109.94 167.972C1109.88 167.94 1109.81 167.911 1109.75 167.875C1109.47 167.719 1109.07 167.803 1108.92 168.098C1108.76 168.394 1108.84 168.765 1109.14 168.934L1109.14 168.935Z" fill="#FA4B06"/>
<path d="M1105.06 160.355C1105.04 160.554 1105.06 160.375 1105.07 160.335C1105.08 160.299 1105.08 160.263 1105.09 160.225C1105.11 160.178 1105.12 160.128 1105.14 160.083L1105.15 160.047C1105.17 159.986 1105.17 160.002 1105.13 160.096C1105.18 160.035 1105.21 159.932 1105.25 159.864C1105.27 159.831 1105.29 159.801 1105.31 159.769C1105.32 159.747 1105.34 159.728 1105.35 159.707C1105.29 159.782 1105.28 159.795 1105.33 159.745C1105.38 159.684 1105.43 159.624 1105.49 159.568C1105.52 159.539 1105.56 159.51 1105.59 159.48C1105.68 159.396 1105.49 159.547 1105.58 159.483C1105.62 159.456 1105.66 159.429 1105.7 159.404L1105.73 159.387C1105.79 159.359 1105.78 159.363 1105.69 159.403C1105.71 159.408 1105.86 159.345 1105.75 159.381C1105.69 159.387 1105.69 159.391 1105.74 159.388C1105.67 159.388 1105.61 159.372 1105.55 159.334C1105.36 159.2 1105.28 159.041 1105.31 158.856L1105.3 158.898C1105.29 158.927 1105.29 158.955 1105.28 158.986C1105.25 159.05 1105.26 159.041 1105.29 158.959C1105.27 158.974 1105.25 159.058 1105.24 159.081C1105.21 159.127 1105.19 159.174 1105.16 159.22C1105.07 159.397 1104.97 159.577 1104.87 159.749C1104.81 159.839 1104.76 159.929 1104.7 160.017C1104.65 160.099 1104.58 160.181 1104.53 160.266C1104.6 160.138 1104.59 160.199 1104.54 160.246C1104.53 160.262 1104.51 160.278 1104.5 160.294C1104.45 160.337 1104.46 160.326 1104.54 160.263C1104.52 160.27 1104.47 160.3 1104.46 160.314C1104.55 160.276 1104.57 160.268 1104.51 160.285C1104.66 160.246 1104.8 160.287 1104.93 160.405L1105.09 160.673C1105.07 160.615 1105.07 160.638 1105.1 160.741C1105.08 160.845 1105.08 160.86 1105.09 160.79C1105.1 160.741 1105.11 160.693 1105.12 160.647C1105.13 160.546 1105.16 160.444 1105.19 160.343C1105.2 160.303 1105.22 160.264 1105.23 160.225C1105.24 160.194 1105.26 160.086 1105.29 160.068C1105.25 160.155 1105.25 160.169 1105.27 160.105L1105.29 160.067C1105.31 160.017 1105.34 159.966 1105.36 159.917C1105.41 159.83 1105.46 159.747 1105.51 159.665C1105.54 159.617 1105.57 159.572 1105.6 159.528C1105.67 159.429 1105.53 159.612 1105.6 159.528C1105.64 159.493 1105.67 159.458 1105.7 159.423C1105.72 159.403 1105.76 159.376 1105.77 159.352C1105.7 159.41 1105.68 159.422 1105.73 159.387C1105.75 159.374 1105.77 159.365 1105.79 159.355C1105.7 159.391 1105.68 159.399 1105.74 159.38C1105.81 159.365 1105.79 159.368 1105.69 159.387C1106 159.364 1106.31 159.11 1106.29 158.767C1106.27 158.454 1106.01 158.139 1105.67 158.164C1105.28 158.194 1104.96 158.39 1104.72 158.688C1104.5 158.96 1104.31 159.244 1104.18 159.565C1104.05 159.886 1103.94 160.21 1103.9 160.56C1103.88 160.716 1103.86 160.846 1103.92 160.998C1103.97 161.17 1104.09 161.313 1104.25 161.4C1104.51 161.544 1104.82 161.495 1105.08 161.363C1105.4 161.2 1105.61 160.874 1105.79 160.584C1105.98 160.294 1106.13 160.016 1106.28 159.724C1106.51 159.286 1106.74 158.6 1106.19 158.283C1105.81 158.062 1105.35 158.166 1105 158.404C1104.68 158.624 1104.4 158.906 1104.2 159.245C1104 159.584 1103.89 159.968 1103.85 160.365C1103.83 160.507 1103.93 160.695 1104.03 160.788C1104.14 160.895 1104.32 160.976 1104.47 160.966C1104.62 160.956 1104.79 160.905 1104.89 160.786C1105.01 160.656 1105.05 160.519 1105.07 160.345L1105.06 160.355Z" fill="#FA4B06"/>
<path d="M1096.08 153.668C1098.38 151.653 1100.68 149.637 1102.98 147.625C1104.87 154.14 1108.14 157.935 1110.51 157.546C1112.45 157.227 1113.51 154.14 1113.81 153.241C1114.07 157.303 1116.83 159.667 1118.6 159.384C1120.14 159.134 1121.69 156.713 1121.6 153.574C1123.66 156.526 1125.71 159.48 1127.77 162.431C1128.15 161.296 1130.38 154.311 1126.43 147.465C1125.71 146.226 1122.85 141.432 1116.76 139.594C1115.71 139.278 1109.18 137.424 1103.05 141.557C1096.77 145.796 1096.14 152.804 1096.08 153.669L1096.08 153.668Z" fill="#FA4B06"/>
<path d="M1248.73 255.9C1241.78 260.548 1235.46 262.935 1231.14 264.222C1224.96 266.066 1220.44 267.349 1214.92 265.955C1209.1 264.482 1205.24 260.775 1203.27 258.531C1203.64 252.868 1205.02 250.996 1206.39 250.492C1209.28 249.429 1212.58 254.295 1216.78 253.218C1218.59 252.75 1219.85 251.357 1220.66 250.152C1227.51 248.636 1234.36 247.119 1241.21 245.606C1243.72 249.037 1246.23 252.468 1248.74 255.899L1248.73 255.9Z" fill="#FA4B06" stroke="white" stroke-width="1.22139" stroke-linecap="round" stroke-linejoin="round"/>
<path d="M1182.24 269.821C1175.39 270.201 1167.8 270.292 1159.59 269.877C1150.61 269.424 1142.41 268.445 1135.11 267.226C1134.77 258.248 1136.85 254.928 1139.06 253.685C1143.44 251.218 1149.35 256.358 1156.69 253.325C1159.03 252.358 1160.68 250.901 1161.73 249.794C1168.31 252.226 1174.9 254.658 1181.48 257.091C1181.73 261.335 1181.99 265.58 1182.24 269.821Z" fill="#FA4B06" stroke="white" stroke-width="1.22139" stroke-linecap="round" stroke-linejoin="round"/>
<path d="M1060.61 197.314C1056.64 204.678 1052.18 209.746 1048.97 212.906C1044.37 217.428 1040.98 220.683 1035.45 222.038C1029.62 223.465 1024.47 221.999 1021.68 220.938C1019.35 215.763 1019.69 213.466 1020.66 212.377C1022.72 210.081 1027.92 212.834 1031.12 209.92C1032.51 208.656 1032.96 206.838 1033.11 205.395C1038.45 200.847 1043.79 196.297 1049.13 191.75C1052.96 193.605 1056.78 195.46 1060.61 197.313L1060.61 197.314Z" fill="#FA4B06" stroke="white" stroke-width="1.22139" stroke-linecap="round" stroke-linejoin="round"/>
<path d="M975.146 203.604C968.311 202.961 960.791 201.923 952.738 200.296C943.923 198.513 935.956 196.325 928.919 194.037C929.921 185.109 932.473 182.134 934.839 181.233C939.538 179.444 944.619 185.406 952.326 183.497C954.784 182.888 956.638 181.693 957.842 180.754C963.988 184.139 970.137 187.521 976.283 190.903C975.904 195.136 975.525 199.371 975.146 203.604Z" fill="#FA4B06" stroke="white" stroke-width="1.22139" stroke-linecap="round" stroke-linejoin="round"/>
<path d="M1004.99 123.269L955.191 178.343L980.395 193.703C994.176 179.998 1007.96 166.293 1021.74 152.587C1024.84 151.18 1031.29 147.75 1036.5 140.556C1042.56 132.178 1043.35 123.635 1043.49 120.26L1001.54 109.325C998.334 111.777 992.809 116.686 988.737 124.705C984.037 133.961 983.751 142.484 983.882 146.611" fill="#FA4B06"/>
<path d="M1004.99 123.269L955.191 178.343L980.395 193.703C994.176 179.998 1007.96 166.293 1021.74 152.587C1024.84 151.18 1031.29 147.75 1036.5 140.556C1042.56 132.178 1043.35 123.635 1043.49 120.26L1001.54 109.325C998.334 111.777 992.809 116.686 988.737 124.705C984.037 133.961 983.751 142.484 983.882 146.611" stroke="white" stroke-width="1.22139" stroke-linecap="round" stroke-linejoin="round"/>
<path d="M1022.73 152.355L1049.22 192.226L1033.33 205.727L1002.57 172.405" fill="#FA4B06"/>
<path d="M1022.73 152.355L1049.22 192.226L1033.33 205.727L1002.57 172.405" stroke="white" stroke-width="1.22139" stroke-linecap="round" stroke-linejoin="round"/>
<path d="M997.286 115.719C996.69 118.422 996.096 122.223 996.192 126.782C996.304 132.094 997.312 136.305 996.123 136.79C995.721 136.956 994.99 136.71 993.559 135.034C993.429 136.752 992.616 138.072 991.783 138.178C990.819 138.301 989.354 136.851 989.171 134.398C988.671 136.315 987.688 137.654 986.951 137.588C986.153 137.519 985.301 135.782 985.401 133.266C983.67 135.203 982.928 135.376 982.567 135.203C981.558 134.723 981.992 131.481 982.516 128.425C983.231 124.259 984.449 118.374 986.634 111.077C990.186 112.624 993.736 114.171 997.288 115.72L997.286 115.719Z" fill="white" stroke="#FA4B06" stroke-width="1.03818" stroke-linecap="round" stroke-linejoin="round"/>
<path d="M1067.17 130.054C1068.13 132.649 1069.68 136.167 1072.23 139.948C1075.2 144.355 1078.32 147.353 1077.59 148.405C1077.34 148.762 1076.59 148.949 1074.48 148.316C1075.3 149.832 1075.33 151.382 1074.69 151.921C1073.95 152.545 1071.93 152.12 1070.45 150.154C1071.06 152.038 1070.96 153.694 1070.3 154.04C1069.6 154.413 1067.94 153.414 1066.66 151.243C1066.26 153.807 1065.72 154.355 1065.33 154.406C1064.22 154.548 1062.83 151.586 1061.62 148.734C1059.97 144.845 1057.81 139.236 1055.7 131.915C1059.52 131.296 1063.34 130.675 1067.17 130.056L1067.17 130.054Z" fill="white" stroke="#FA4B06" stroke-width="1.03818" stroke-linecap="round" stroke-linejoin="round"/>
<path d="M1060.95 64.9083C1066.94 69.8071 1067.63 77.8322 1063.95 82.1544C1061.42 85.1294 1056.91 86.2372 1052.51 85.2209C1037.8 82.8382 1023.08 80.4573 1008.37 78.0747C1001.37 81.7456 994.064 79.424 991.953 75.0191C990.009 70.9654 992.945 66.1316 993.248 65.6452C993.167 65.2806 992.407 61.6091 995.046 58.6238C997.641 55.688 1001.3 55.9343 1001.69 55.9678C1001.42 55.1262 1000.37 51.4742 1002.26 47.6722C1004.91 42.3254 1010.94 41.6119 1011.35 41.5711C1012.66 39.1922 1014.84 35.6716 1018.21 31.9809C1022.5 27.2816 1031.16 17.8113 1040.37 19.7112C1042.04 20.0537 1046.08 21.2513 1050 26.7331C1051.6 24.0426 1053.2 23.3826 1054.15 23.1931C1059.42 22.1391 1067.45 30.9911 1066.09 38.6539C1065.61 41.403 1064.02 43.4027 1062.85 44.5873C1063.2 44.8461 1068.1 48.6604 1067.64 55.0327C1067.15 61.7241 1061.21 64.7789 1060.95 64.9089L1060.95 64.9083Z" fill="#FA4B06" stroke="white" stroke-width="1.22139" stroke-linecap="round" stroke-linejoin="round"/>
<path d="M1009.48 86.5509C1006.97 90.5789 1004.26 95.7823 1002.14 102.124C1001.01 105.526 1000.22 108.726 999.666 111.627C1014.48 115.071 1029.29 118.517 1044.1 121.961C1044.51 118.758 1044.93 115.554 1045.34 112.35C1048.78 122.81 1052.21 133.271 1055.65 143.731C1057.76 143.118 1061.43 141.754 1065.02 138.634C1068.11 135.948 1069.88 133.06 1070.84 131.198C1067.74 120.753 1065.66 112.218 1064.36 106.518C1061.33 93.2149 1060.33 85.5695 1055.97 74.4049C1053.68 68.5204 1051.34 63.9295 1049.81 61.1153C1042.23 59.6098 1034.66 58.102 1027.08 56.5965C1020.37 60.3829 1010.13 67.2849 1000.91 78.941C988.805 94.2276 984.709 109.778 983.162 117.97C988.215 119.57 993.271 121.171 998.324 122.771C999.195 119.156 1000.07 115.543 1000.94 111.928" fill="white"/>
<path d="M1009.48 86.5509C1006.97 90.5789 1004.26 95.7823 1002.14 102.124C1001.01 105.526 1000.22 108.726 999.666 111.627C1014.48 115.071 1029.29 118.517 1044.1 121.961C1044.51 118.758 1044.93 115.554 1045.34 112.35C1048.78 122.81 1052.21 133.271 1055.65 143.731C1057.76 143.118 1061.43 141.754 1065.02 138.634C1068.11 135.948 1069.88 133.06 1070.84 131.198C1067.74 120.753 1065.66 112.218 1064.36 106.518C1061.33 93.2149 1060.33 85.5695 1055.97 74.4049C1053.68 68.5204 1051.34 63.9295 1049.81 61.1153C1042.23 59.6098 1034.66 58.102 1027.08 56.5965C1020.37 60.3829 1010.13 67.2849 1000.91 78.941C988.805 94.2276 984.709 109.778 983.162 117.97C988.215 119.57 993.271 121.171 998.324 122.771C999.195 119.156 1000.07 115.543 1000.94 111.928" stroke="#FA4B06" stroke-width="1.22139" stroke-linecap="round" stroke-linejoin="round"/>
<path d="M1036.65 65.2384C1045.48 67.5377 1054.49 62.2507 1056.79 53.4295C1059.09 44.6083 1053.8 35.5934 1044.98 33.2941C1036.16 30.9948 1027.15 36.2818 1024.85 45.103C1022.55 53.9242 1027.83 62.9391 1036.65 65.2384Z" fill="white" stroke="#FA4B06" stroke-width="1.22139" stroke-linecap="round" stroke-linejoin="round"/>
<path d="M1036.86 46.7495C1036.39 48.0401 1035.81 49.2874 1035.14 50.4863L1036.26 50.9449C1036.62 49.6634 1036.98 48.3795 1037.34 47.0974L1036.14 46.9509C1036.05 48.0592 1035.7 49.147 1035.15 50.1138L1036.27 50.5723C1036.34 50.0185 1036.49 49.4133 1036.69 48.933C1036.8 48.6639 1036.94 48.4034 1037.08 48.1542C1037.16 48.0229 1037.24 47.8951 1037.33 47.7686C1037.37 47.7174 1037.4 47.6632 1037.44 47.6127C1037.47 47.5744 1037.47 47.5727 1037.44 47.6015C1037.54 47.5018 1037.48 47.5254 1037.25 47.6742L1036.93 47.5922C1036.87 47.5661 1036.75 47.4096 1036.78 47.3407C1036.78 47.3768 1036.78 47.4118 1036.78 47.4467C1036.79 47.4 1036.78 47.4017 1036.78 47.4532C1036.75 47.6105 1036.72 47.7667 1036.69 47.9221C1036.62 48.2473 1036.53 48.5688 1036.44 48.8836C1036.24 49.4973 1036 50.0642 1035.69 50.6346C1035.53 50.9245 1035.62 51.3011 1035.91 51.4705C1036.2 51.6399 1036.59 51.5383 1036.75 51.2466C1037.14 50.5235 1037.46 49.7559 1037.69 48.9648C1037.8 48.582 1037.89 48.1942 1037.95 47.8003C1038.03 47.3751 1038.05 46.8805 1037.65 46.5998C1036.77 45.9832 1036.1 47.3528 1035.8 47.9748C1035.44 48.6953 1035.2 49.4649 1035.09 50.2631C1035.05 50.5631 1035.15 50.8579 1035.45 50.9783C1035.73 51.0866 1036.06 50.9921 1036.21 50.724C1036.88 49.5576 1037.26 48.2709 1037.37 46.9324C1037.39 46.6328 1037.1 46.3692 1036.83 46.3404C1036.53 46.3095 1036.25 46.4875 1036.16 46.7882C1035.8 48.0697 1035.44 49.3535 1035.08 50.6357C1034.89 51.2985 1035.86 51.6945 1036.2 51.0942C1036.93 49.8034 1037.54 48.4509 1038.04 47.0565C1038.16 46.7447 1037.91 46.3891 1037.61 46.3115C1037.27 46.2221 1036.97 46.4367 1036.86 46.7484L1036.86 46.7495Z" fill="#FA4B06"/>
<path d="M1048.91 53.5561C1048.94 52.372 1049.48 51.2576 1050.38 50.4638L1049.34 50.0404C1049.2 51.5013 1048.47 52.8845 1047.35 53.874L1048.4 54.2974C1048.36 53.6626 1048.5 53.1153 1048.81 52.5739C1049.13 52.0326 1049.55 51.6422 1050.12 51.357C1050.42 51.2095 1050.5 50.7914 1050.34 50.5202C1050.16 50.2193 1049.8 50.1552 1049.5 50.3021C1048.03 51.0345 1047.09 52.674 1047.17 54.3119C1047.2 54.8543 1047.82 55.0845 1048.22 54.7353C1049.58 53.5278 1050.39 51.8266 1050.56 50.023C1050.59 49.7892 1050.38 49.5496 1050.18 49.4717C1049.94 49.3793 1049.71 49.4344 1049.52 49.5996C1048.38 50.5978 1047.72 52.0647 1047.69 53.5705C1047.68 53.8993 1047.99 54.1761 1048.31 54.1739C1048.65 54.169 1048.9 53.8848 1048.91 53.5537L1048.91 53.5561Z" fill="#FA4B06"/>
<path d="M1041.64 55.2008L1041.07 57.3991C1040.99 57.7088 1041.18 58.0751 1041.5 58.1441C1041.83 58.2131 1042.16 58.0381 1042.25 57.7072L1042.82 55.5089C1042.9 55.1992 1042.71 54.8329 1042.38 54.7639C1042.06 54.6949 1041.73 54.8699 1041.64 55.2008Z" fill="#FA4B06"/>
<path d="M1033.38 57.728C1032.97 58.8615 1033.55 60.1293 1034.45 60.844C1035.6 61.7573 1037.12 61.8293 1038.53 61.8558C1039.32 61.8714 1039.3 60.6501 1038.51 60.6346C1037.44 60.6138 1036.22 60.6182 1035.31 59.9721C1034.68 59.5214 1034.3 58.7451 1034.56 58.036C1034.67 57.7243 1034.42 57.3687 1034.12 57.291C1033.78 57.2017 1033.49 57.4162 1033.38 57.728Z" fill="#FA4B06"/>
<path d="M1025.58 42.3281C1026.94 42.9212 1030.59 44.2878 1035.1 43.3328C1041.51 41.975 1044.72 36.9716 1045.31 36.0277C1045.24 37.0567 1045.04 41.5974 1048.33 45.6734C1051.93 50.1342 1056.99 50.6713 1057.89 50.749C1058.12 49.3222 1058.81 43.9724 1055.55 38.5102C1052.28 33.045 1047.24 31.1128 1045.88 30.6388C1044.99 30.3663 1038.33 28.4498 1032.17 32.6021C1027.17 35.9842 1025.85 41.1275 1025.58 42.3264L1025.58 42.3281Z" fill="#FA4B06"/>
<path d="M1184.67 187.365C1189.76 183.372 1196.41 178.152 1206.38 175.994C1219.81 173.089 1231.15 177.486 1236.18 179.848C1234.04 185.368 1229.44 199.385 1233.11 216.813C1236.29 231.905 1244.05 241.933 1248 246.402C1237.2 248.588 1226.4 250.774 1215.6 252.96C1212.25 248.019 1207.5 239.684 1204.96 228.367C1202.67 218.141 1203.07 209.428 1203.78 203.753C1199.89 206.834 1187.16 217.727 1183.99 236.229C1182.48 245.077 1183.69 252.57 1184.91 257.371C1174.84 255.823 1164.77 254.275 1154.69 252.727C1154.76 243.02 1156.31 224.573 1167.59 206.632C1174.64 195.427 1182.61 188.99 1184.67 187.37L1184.67 187.365Z" fill="white" stroke="#FA4B06" stroke-width="1.22139" stroke-linecap="round" stroke-linejoin="round"/>
<path d="M1237.59 181.62C1236.79 184.269 1235.46 187.877 1233.15 191.808C1230.46 196.39 1227.52 199.574 1228.32 200.578C1228.59 200.918 1229.35 201.06 1231.42 200.296C1230.69 201.859 1230.76 203.409 1231.43 203.908C1232.21 204.485 1234.2 203.935 1235.56 201.883C1235.06 203.8 1235.26 205.449 1235.94 205.751C1236.67 206.08 1238.26 204.98 1239.4 202.735C1239.97 205.271 1240.53 205.784 1240.93 205.81C1242.04 205.883 1243.25 202.842 1244.28 199.918C1245.69 195.934 1247.5 190.203 1249.16 182.768C1245.3 182.384 1241.45 182.001 1237.59 181.619L1237.59 181.62Z" fill="white" stroke="#FA4B06" stroke-width="1.03818" stroke-linecap="round" stroke-linejoin="round"/>
<path d="M1170.09 161.697C1168.09 163.596 1165.13 166.064 1161.17 168.325C1156.56 170.959 1152.43 172.264 1152.63 173.534C1152.69 173.962 1153.28 174.463 1155.45 174.828C1154.04 175.824 1153.33 177.201 1153.67 177.968C1154.06 178.857 1156.05 179.37 1158.25 178.264C1156.86 179.68 1156.22 181.209 1156.66 181.809C1157.13 182.457 1159.05 182.295 1161.16 180.916C1160.39 183.397 1160.62 184.123 1160.96 184.344C1161.89 184.963 1164.44 182.923 1166.79 180.902C1170 178.148 1174.42 174.077 1179.55 168.448C1176.4 166.197 1173.24 163.949 1170.09 161.698L1170.09 161.697Z" fill="white" stroke="#FA4B06" stroke-width="1.03818" stroke-linecap="round" stroke-linejoin="round"/>
<path d="M1197.35 150.516C1195.73 153.553 1194.04 157.41 1192.8 162.03C1190.45 170.766 1190.76 178.373 1191.39 183.351C1199.6 182.147 1208.93 181.332 1219.2 181.373C1224.55 181.394 1229.61 181.645 1234.35 182.053C1236.58 176.512 1238.89 169.3 1240.23 160.682C1241.33 153.645 1241.52 147.358 1241.34 142.166C1241.46 148.871 1240.98 157.53 1238.77 167.349C1236.83 175.994 1234.09 183.207 1231.49 188.807C1237.85 188.03 1244.2 187.25 1250.55 186.472C1255.48 178.991 1261.01 167.977 1262.88 153.935C1264.3 143.211 1265.93 131.007 1258.31 120.454C1251.21 110.613 1240.07 107.756 1235.77 106.894C1226.99 107.233 1218.21 107.571 1209.43 107.91C1203.85 115.592 1197.73 123.534 1191.02 131.633C1181.98 142.549 1172.99 152.389 1164.32 161.214C1167.19 167.219 1170.06 173.227 1172.94 179.231C1179.56 173.498 1186.18 167.767 1192.8 162.033" fill="#FA4B06"/>
<path d="M1197.35 150.516C1195.73 153.553 1194.04 157.41 1192.8 162.03C1190.45 170.766 1190.76 178.373 1191.39 183.351C1199.6 182.147 1208.93 181.332 1219.2 181.373C1224.55 181.394 1229.61 181.645 1234.35 182.053C1236.58 176.512 1238.89 169.3 1240.23 160.682C1241.33 153.645 1241.52 147.358 1241.34 142.166C1241.46 148.871 1240.98 157.53 1238.77 167.349C1236.83 175.994 1234.09 183.207 1231.49 188.807C1237.85 188.03 1244.2 187.25 1250.55 186.472C1255.48 178.991 1261.01 167.977 1262.88 153.935C1264.3 143.211 1265.93 131.007 1258.31 120.454C1251.21 110.613 1240.07 107.756 1235.77 106.894C1226.99 107.233 1218.21 107.571 1209.43 107.91C1203.85 115.592 1197.73 123.534 1191.02 131.633C1181.98 142.549 1172.99 152.389 1164.32 161.214C1167.19 167.219 1170.06 173.227 1172.94 179.231C1179.56 173.498 1186.18 167.767 1192.8 162.033" stroke="white" stroke-width="1.22139" stroke-linecap="round" stroke-linejoin="round"/>
<path d="M1196.47 88.7615C1198.9 89.0371 1201.33 89.315 1203.76 89.5899L1198.73 94.0722C1199.37 94.434 1204.04 97.0101 1209.16 94.984C1213.66 93.2007 1216.69 88.5734 1216.7 83.3371C1221.83 88.0578 1226.52 89.9818 1228.29 88.5337C1229.88 87.2336 1228.86 83.406 1228.41 81.9411C1228.39 81.8644 1228.38 81.8246 1228.39 81.82C1228.72 81.6515 1235.74 94.5816 1240.63 93.5932C1242.36 93.242 1243.3 91.2476 1243.57 90.685C1246.93 83.5217 1239.72 67.995 1228.23 65.7839C1218.87 63.9814 1210.5 71.7707 1209.39 72.8065C1207.43 74.6307 1206.07 76.4669 1205.18 77.8705C1204.78 79.1871 1204.13 80.8242 1203.03 82.5373C1200.87 85.9006 1198.12 87.807 1196.47 88.7669L1196.47 88.7615Z" fill="#FA4B06" stroke="white" stroke-width="1.22139" stroke-linecap="round" stroke-linejoin="round"/>
<path d="M1219.97 110.834C1230.08 113.469 1240.41 107.411 1243.04 97.3024C1245.68 87.194 1239.62 76.8636 1229.51 74.2288C1219.4 71.594 1209.07 77.6525 1206.44 87.7608C1203.8 97.8692 1209.86 108.2 1219.97 110.834Z" fill="white" stroke="#FA4B06" stroke-width="1.22139" stroke-linecap="round" stroke-linejoin="round"/>
<path d="M1210.17 95.3802C1210.17 98.2176 1212.37 100.62 1215.29 100.499C1217.85 100.393 1219.73 98.094 1219.6 95.5771L1218.91 96.2859C1220.03 96.2894 1221.15 96.2928 1222.27 96.2969L1221.58 95.7853C1222.33 98.4116 1224.64 100.288 1227.37 100.432C1231.26 100.637 1233.73 97.0835 1233.03 93.4493C1232.85 92.5642 1231.51 92.9476 1231.68 93.8274C1232.28 96.9505 1229.8 99.57 1226.65 98.9389C1224.84 98.5759 1223.43 97.1629 1222.93 95.4065C1222.84 95.1041 1222.56 94.898 1222.24 94.8949C1221.13 94.8914 1220.01 94.8879 1218.89 94.8838C1218.52 94.8837 1218.18 95.2192 1218.2 95.5927C1218.29 97.3503 1217.09 98.9872 1215.27 99.0946C1213.1 99.221 1211.56 97.4252 1211.57 95.3557C1211.57 94.4545 1210.17 94.4731 1210.17 95.3742L1210.17 95.3802Z" fill="#FA4B06"/>
<path d="M1215.89 95.1094L1216.35 93.5049L1214.98 93.3377C1215 93.7218 1214.98 94.0914 1214.89 94.4661C1214.85 94.6298 1214.8 94.7946 1214.74 94.9522C1214.7 95.0525 1214.65 95.1492 1214.6 95.2417C1214.42 95.5107 1214.65 95.5793 1215.28 95.4475C1215.4 95.2841 1215.4 94.6934 1215.46 94.4753C1215.56 94.0722 1215.69 93.6765 1215.83 93.2875L1214.55 93.4661C1214.7 93.7798 1214.68 94.0866 1214.59 94.4121C1214.33 95.2763 1215.68 95.627 1215.94 94.7651C1216.15 94.0699 1216.06 93.4083 1215.76 92.7589C1215.47 92.1493 1214.67 92.431 1214.48 92.9375C1214.17 93.7775 1213.17 96.3431 1214.7 96.6078C1216.14 96.8574 1216.43 94.2587 1216.38 93.3221C1216.34 92.536 1215.23 92.3857 1215 93.1548L1214.53 94.7593C1214.28 95.6248 1215.63 95.9778 1215.89 95.1124L1215.89 95.1094Z" fill="#FA4B06"/>
<path d="M1228.44 95.771C1228.28 95.3026 1228.18 94.8412 1228.17 94.3416C1228.17 94.1158 1228.18 93.8937 1228.21 93.6695C1228.23 93.5257 1228.42 93.0732 1228.23 93.1584L1227.7 93.2319C1227.53 92.9737 1227.47 92.9434 1227.5 93.1452C1227.51 93.2608 1227.52 93.3782 1227.52 93.4925C1227.53 93.7243 1227.53 93.9578 1227.53 94.1871C1227.53 94.4163 1227.53 94.6503 1227.52 94.8831L1227.51 95.1153C1227.5 95.3528 1227.49 95.4019 1227.49 95.2609L1227.98 95.0542L1227.83 95.048L1228.34 95.2527C1228.11 95.0757 1228.17 94.4477 1228.19 94.1841C1228.21 93.7892 1228.32 93.4081 1228.45 93.0368C1228.76 92.1896 1227.4 91.8407 1227.1 92.6837C1226.76 93.6419 1226.39 95.6119 1227.42 96.2988C1227.93 96.6386 1228.57 96.382 1228.79 95.8355C1229.02 95.243 1228.94 94.4459 1228.93 93.8195C1228.92 93.2619 1228.99 92.5373 1228.55 92.1194C1228.14 91.7391 1227.48 91.7858 1227.17 92.2519C1226.85 92.718 1226.8 93.4771 1226.78 94.0284C1226.74 94.7468 1226.87 95.4685 1227.1 96.1451C1227.39 96.9935 1228.74 96.6207 1228.45 95.7669L1228.44 95.771Z" fill="#FA4B06"/>
<path d="M1218.98 99.9365C1217.95 100.799 1216.93 101.66 1215.9 102.522C1215.2 103.102 1216.2 104.083 1216.89 103.51C1217.92 102.648 1218.94 101.787 1219.97 100.925C1220.67 100.345 1219.67 99.3633 1218.98 99.9365Z" fill="#FA4B06"/>
<path d="M1222.47 105.49C1224.9 106.381 1227.68 105.624 1229.32 103.633C1229.89 102.943 1228.9 101.948 1228.33 102.645C1226.97 104.295 1224.83 104.876 1222.83 104.138C1221.98 103.827 1221.64 105.183 1222.47 105.493L1222.47 105.49Z" fill="#FA4B06"/>
<path d="M1205.9 90.8884C1207.72 90.1329 1209.91 88.856 1211.34 86.5869C1213.1 83.802 1213.03 80.6528 1213.42 80.6763C1213.83 80.7012 1213.1 84.2085 1214.51 86.849C1217.43 92.344 1229.32 93.5377 1231.15 90.2666C1231.65 89.3763 1232.08 86.9609 1225.69 80.1858C1227.8 88.5225 1234.43 92.3191 1238.19 90.9609C1240.99 89.9526 1242.8 85.8986 1242.88 81.3491C1241.3 79.874 1238.92 77.8913 1235.7 76.0521C1231.62 73.7154 1228.11 71.6503 1223.35 71.8344C1216.11 72.1157 1211.56 76.8628 1210.8 77.6864C1205.76 83.1177 1205.85 89.6248 1205.9 90.8884Z" fill="#FA4B06"/>
</g>
<g clip-path="url(#clip3_791_4014)">
<path d="M154.258 319.801L155.831 318.475C155.831 318.475 150.716 306.494 136.6 293.293L133.932 295.198C133.932 295.198 142.259 299.349 154.258 319.801Z" fill="#FA4B06" stroke="white" stroke-width="1.12" stroke-linejoin="round"/>
<path d="M162.687 295.2C162.687 295.2 166.001 301.447 155.778 318.42L154.343 315.456C154.343 315.456 161.894 307.509 160.299 293.429C160.299 293.429 160.479 290.29 162.694 295.194L162.687 295.2Z" fill="#FA4B06" stroke="white" stroke-width="1.12" stroke-linejoin="round"/>
<path d="M154.346 319.784C154.346 319.784 121.593 278.021 101.352 318.581C101.352 318.581 133.644 330.863 154.34 319.777L154.346 319.784Z" fill="#FA4B06" stroke="white" stroke-width="1.12" stroke-linejoin="round"/>
<path d="M151.47 318.834C151.47 318.834 131.718 306.897 110.799 314.384Z" fill="#FA4B06"/>
<path d="M151.47 318.834C151.47 318.834 131.718 306.897 110.799 314.384" stroke="white" stroke-width="1.12" stroke-linejoin="round"/>
<path d="M86.1605 283.29C91.8386 290.401 93.9611 287.62 97.6341 285.587C101.307 283.554 99.9683 292.185 99.9683 292.185C99.9683 292.185 100.194 298.949 107.414 299.032C114.634 299.115 119.124 295.899 119.868 291.292C120.611 286.684 124.911 289.745 125.181 291.756C125.452 293.767 127.744 301.217 137.345 292.649C143.189 283.981 135.484 282.232 135.132 280.218C134.781 278.204 133.025 278.145 139.175 275.04C145.333 271.928 141.304 262.032 136.112 260.761C130.92 259.489 127.874 264.6 126.242 263.05C124.611 261.5 126.992 260.072 128.058 255.32C129.124 250.568 114.642 247.433 109.995 256.317C105.347 265.201 104.035 268.024 99.7917 263.484C95.5487 258.944 80.4758 276.172 86.1605 283.29Z" fill="#FA4B06" stroke="white" stroke-width="1.12" stroke-linejoin="round"/>
<path d="M117.751 277.829C117.751 277.829 119.777 272.886 115.582 274.151C111.387 275.415 115.267 279.889 117.751 277.829Z" fill="white" stroke="#FA4B06" stroke-width="1.12" stroke-linejoin="round"/>
<path d="M144.79 291.658C144.306 284.743 148.847 287.264 142.134 284.98C135.421 282.697 133.669 264.418 147.269 266.834C151.825 272.128 153.305 270.954 152.527 263.516C151.75 256.077 166.635 257.096 167.628 264.333C168.622 271.569 170.864 269.068 174.147 269.389C177.429 269.71 187.439 271.896 185.878 281.521C181.933 288.597 177.239 284.413 177.239 284.413C177.239 284.413 170.723 285.322 175.096 290.001C178.932 292.187 179.24 295.288 177.32 297.279C175.4 299.27 168.5 302.539 164.495 296.127C160.491 289.715 161.736 292.53 158.266 297.762C154.796 302.994 145.275 298.559 144.791 291.644L144.79 291.658Z" fill="#FA4B06" stroke="white" stroke-width="1.12" stroke-linejoin="round"/>
<path d="M159.903 279.274C159.903 279.274 163.923 282.792 164.084 278.415C164.245 274.038 158.76 276.259 159.903 279.274Z" fill="white" stroke="#FA4B06" stroke-width="1.12" stroke-linejoin="round"/>
</g>
<g clip-path="url(#clip4_791_4014)">
<path d="M1318.24 259.078C1318.24 259.078 1320.56 254.332 1326.74 252.821" stroke="#FA4B06" stroke-width="1.6" stroke-miterlimit="10"/>
<path d="M1317.44 258.999L1318.07 247.959" stroke="#FA4B06" stroke-width="1.6" stroke-miterlimit="10"/>
<path d="M1322.83 254.495C1322.83 254.495 1329.7 254.02 1329.35 251.812C1329.01 249.604 1324.76 250.908 1322.83 254.495Z" fill="#FA4B06"/>
<path d="M1317.75 252.426C1317.75 252.426 1315.26 245.986 1317.39 245.359C1319.53 244.733 1320.16 249.141 1317.75 252.426Z" fill="#FA4B06"/>
<path d="M1317.69 260.827L1309.61 280.652C1309.61 280.652 1311.7 292.34 1320.64 289.525C1329.57 286.711 1324.12 275.92 1324.12 275.92C1324.12 275.92 1340 280.413 1339.84 267.908C1339.68 255.403 1325.5 258.725 1317.69 260.822L1317.69 260.827Z" fill="white" stroke="#FA4B06" stroke-width="1.6" stroke-miterlimit="10"/>
<path d="M1341.16 299.223L1345.48 311.265C1345.48 311.265 1353.22 322.05 1359.69 314.491C1366.17 306.932 1356.37 303.499 1354.23 304.665C1354.23 304.665 1368.5 298.433 1360.56 288.555C1352.62 278.678 1342.41 293.733 1341.16 299.223Z" fill="white" stroke="#FA4B06" stroke-width="1.6" stroke-miterlimit="10"/>
<path d="M1340.27 299.691C1340.27 299.691 1329.91 287.713 1323.39 294.907C1316.88 302.101 1322.06 307.316 1326.57 309.135C1331.08 310.955 1334.85 310.024 1334.85 310.024C1334.85 310.024 1327.89 315.478 1335.2 321.977C1342.51 328.476 1346.1 317.255 1344.77 312.242L1340.27 299.695L1340.27 299.691Z" fill="white" stroke="#FA4B06" stroke-width="1.6" stroke-linecap="round" stroke-linejoin="round"/>
<path d="M1339.32 299.687C1339.32 299.687 1338.24 295.934 1339.44 295.335C1340.64 294.737 1342.72 298.645 1342.72 298.645C1342.72 298.645 1349.23 313.415 1347.3 314.54C1345.36 315.665 1342.08 311.367 1339.33 299.683L1339.32 299.687Z" fill="#FA4B06"/>
<path d="M1339.8 295.729C1339.8 295.729 1338.5 288.669 1342.28 284.877" stroke="#FA4B06" stroke-width="1.6" stroke-miterlimit="10"/>
<path d="M1339.41 295.867C1339.41 295.867 1334.13 292.423 1333.95 287.715" stroke="#FA4B06" stroke-width="1.6" stroke-miterlimit="10"/>
<path d="M1341.85 284.391C1341.74 284.828 1341.59 286.258 1343.24 284.97C1344.88 283.683 1344.33 282.549 1344.33 282.549C1344.33 282.549 1343.02 280.6 1341.85 284.392L1341.85 284.391Z" fill="#FA4B06"/>
<path d="M1332.9 289C1332.9 289 1334.41 291.17 1334.78 288.452C1335.14 285.733 1333.53 285.738 1333.53 285.738C1333.53 285.738 1331.27 285.84 1332.9 289.004L1332.9 289Z" fill="#FA4B06"/>
<path d="M1317.69 260.826L1309.61 280.652C1309.61 280.652 1301.48 287.836 1296.57 283.242C1291.67 278.648 1296.82 272.27 1302.2 269.21C1302.2 269.21 1291.11 260.965 1295.27 254.732C1299.76 248.007 1310.03 246.139 1317.69 260.822L1317.69 260.826Z" fill="white" stroke="#FA4B06" stroke-width="1.6" stroke-miterlimit="10"/>
<path d="M1316.12 259.81C1317.04 258.139 1319.29 256.937 1319.44 260.429C1318.36 266.656 1311.78 282.597 1310.78 283.889C1309.69 286.259 1306.68 286.38 1307.68 282.427C1308.68 278.473 1315.21 261.482 1316.12 259.81Z" fill="#FA4B06"/>
</g>
<path d="M714.5 127L1439.25 380.256L0.00012207 379.178L714.5 127Z" fill="#FA4B06"/>
<defs>
<clipPath id="clip0_791_4014">
<rect width="101.346" height="189.682" fill="white" transform="matrix(0.951487 -0.307688 0.375696 0.926743 259 81.3975)"/>
</clipPath>
<clipPath id="clip1_791_4014">
<rect width="158.722" height="167.179" fill="white" transform="matrix(0.951487 -0.307688 0.375696 0.926743 311.896 87.3184)"/>
</clipPath>
<clipPath id="clip2_791_4014">
<rect width="326.74" height="219.674" fill="white" transform="translate(978.408) rotate(14.6095)"/>
</clipPath>
<clipPath id="clip3_791_4014">
<rect width="92" height="83" fill="white" transform="translate(70 285.819) rotate(-43.0641)"/>
</clipPath>
<clipPath id="clip4_791_4014">
<rect width="74.6155" height="78.3462" fill="white" transform="translate(1295.34 240) rotate(6.84515)"/>
</clipPath>
</defs>
</svg>
