<svg width="1300" height="347" viewBox="0 0 1300 347" fill="none" xmlns="http://www.w3.org/2000/svg">
<g clip-path="url(#clip0_541_5113)">
<path d="M269.609 165.597C261.953 168.073 253.615 169.315 245.492 169.193C236.691 166.838 229.063 162.705 223.429 157.241C217.829 151.809 214.726 145.576 214.456 139.219C213.838 124.67 228.609 114.581 234.916 110.273C239.67 107.025 244.988 104.439 250.724 102.584C256.461 100.729 262.641 99.5968 268.928 99.2766C268.953 99.2754 268.978 99.2721 269.004 99.2681C270.78 98.9751 286.666 96.676 297.708 106.164C308.557 115.485 310.009 131.555 301.166 144.381C296.726 149.844 288.865 157.488 276.619 162.921C274.348 163.928 271.992 164.829 269.612 165.599L269.609 165.597Z" fill="#FA4B06"/>
<path d="M250.519 102.078L250.929 103.089C256.665 101.234 262.733 100.132 268.961 99.8123C269.011 99.8098 269.063 99.8046 269.111 99.796C270.274 99.6027 274.481 99.02 279.779 99.5591C286.833 100.276 292.724 102.63 297.287 106.554C302.347 110.9 305.505 117.028 306.18 123.803C306.869 130.713 304.91 137.915 300.662 144.084C296.257 149.497 288.472 157.062 276.345 162.442C274.096 163.439 271.76 164.332 269.401 165.095C261.837 167.541 253.604 168.772 245.58 168.659C236.917 166.328 229.411 162.256 223.865 156.877C221.168 154.26 219.04 151.424 217.542 148.441C216.02 145.414 215.182 142.305 215.049 139.198C214.444 124.927 229.041 114.958 235.273 110.699C239.977 107.486 245.244 104.925 250.921 103.089L250.511 102.078M250.519 102.078C245.425 103.725 239.916 106.179 234.55 109.845C228.211 114.174 213.226 124.411 213.854 139.237C214.413 152.422 227.129 164.865 245.399 169.728C250.343 169.808 259.382 169.476 269.814 166.103C272.112 165.36 274.48 164.468 276.883 163.403C290.293 157.454 298.118 149.046 301.664 144.682C310.856 131.365 308.893 115.033 298.122 105.778C286.771 96.0245 270.666 98.4469 268.892 98.7392C265.019 98.9374 258.245 99.5796 250.519 102.078Z" fill="white"/>
<path d="M244.562 113.964C244.533 113.973 244.5 113.982 244.469 113.987C243.932 114.083 241.874 113.738 237.57 105.591L249.491 105.088C249.552 105.087 249.611 105.075 249.668 105.056C249.724 105.038 249.778 105.012 249.828 104.979L261.498 97.048C261.932 100.962 262.021 103.923 261.764 105.858C261.499 107.844 260.938 108.231 260.71 108.305C260.483 108.372 260.164 108.26 259.401 107.976C258.938 107.806 258.362 107.592 257.576 107.34C255.693 106.737 253.748 106.278 251.796 105.974C251.692 105.957 251.586 105.966 251.488 105.998C251.391 106.029 251.297 106.087 251.226 106.165C250.319 107.162 249.414 108.201 248.539 109.252C247.455 110.552 246.699 111.535 246.147 112.251C245.328 113.314 244.918 113.849 244.567 113.962L244.562 113.964Z" fill="white"/>
<path d="M260.997 98.0598C261.818 106.281 260.726 107.606 260.518 107.781C260.35 107.746 259.983 107.611 259.625 107.48C259.179 107.315 258.571 107.091 257.774 106.836C255.859 106.223 253.879 105.756 251.893 105.447C251.682 105.415 251.47 105.433 251.277 105.495C251.085 105.558 250.894 105.674 250.751 105.828C249.839 106.832 248.929 107.876 248.049 108.934C246.959 110.242 246.199 111.229 245.644 111.951C245.078 112.685 244.545 113.378 244.348 113.46C244.331 113.463 242.611 113.665 238.501 106.091L242.878 105.906L249.515 105.626C249.636 105.621 249.755 105.599 249.868 105.562C249.981 105.526 250.09 105.472 250.186 105.407L256.526 101.097L260.994 98.0606M261.983 96.0395C257.809 98.8756 253.634 101.715 249.46 104.551C245.188 104.732 240.915 104.91 236.643 105.091C241.253 114.031 243.568 114.694 244.586 114.513C244.648 114.502 244.708 114.487 244.767 114.468C245.611 114.195 246.112 113.061 249.018 109.574C250.144 108.222 251.098 107.157 251.689 106.506C253.009 106.71 255.013 107.093 257.37 107.848C259.647 108.577 260.225 109.01 260.875 108.82C260.887 108.817 260.898 108.813 260.909 108.809C262.168 108.402 263.154 105.769 261.983 96.0395Z" fill="#FA4B06"/>
<path d="M250.903 105.629C239.609 109.281 226.966 103.732 222.721 93.261C218.476 82.7897 224.212 71.3 235.506 67.6478C246.8 63.9955 259.443 69.5443 263.688 80.0156C267.933 90.487 262.198 101.979 250.904 105.631L250.903 105.629Z" fill="white"/>
<path d="M235.711 68.1534C246.693 64.6022 258.99 70.0065 263.122 80.1988C267.254 90.3912 261.681 101.574 250.699 105.126C239.717 108.677 227.42 103.273 223.288 93.0802C219.156 82.8879 224.729 71.7047 235.711 68.1534ZM235.301 67.1425C223.676 70.9016 217.79 82.6777 222.156 93.4463C226.521 104.215 239.484 109.896 251.109 106.137C262.734 102.377 268.619 90.6014 264.254 79.8328C259.888 69.0642 246.926 63.3833 235.301 67.1425Z" fill="#FA4B06"/>
<path d="M262.408 76.309C261.926 76.6431 257.522 79.6043 252.071 78.2177C248.185 77.2285 246.164 74.6417 245.625 73.901C245.659 74.439 245.638 75.1755 245.402 76.0155C245.058 77.2566 244.411 78.1496 243.969 78.6651C243.364 78.6068 242.108 78.4071 240.904 77.5776C240.218 77.1042 239.774 76.5845 239.5 76.1996C239.68 76.5669 239.935 77.2277 239.903 78.0725C239.858 79.2742 239.256 80.1253 238.986 80.4641C238.422 80.3172 237.503 80.0083 236.589 79.3273C235.882 78.8013 235.432 78.2423 235.16 77.8411C235.124 79.1629 235.089 80.4847 235.054 81.8065C234.455 81.6481 233.803 81.3787 233.222 80.9192C230.884 79.075 231.648 75.7727 231.706 75.5367C231.894 76.0453 233.87 81.7479 229.744 86.5447C226.637 90.1564 222.149 90.8394 221.15 90.9705C219.02 82.1179 222.829 73.1837 230.634 68.54C236.515 65.0396 245.05 63.7456 252.488 67.0484C258.696 69.8047 261.513 74.5949 262.41 76.3082L262.408 76.309Z" fill="#FA4B06"/>
<path d="M239.09 87.1703C238.916 87.9035 238.912 88.6709 239.086 89.4036C239.176 89.775 239.294 90.1368 239.466 90.4859C239.656 90.8659 239.903 91.3031 240.424 91.3585C240.845 91.4033 241.118 91.1481 241.133 90.7886C241.188 89.4833 241.026 88.1885 240.686 86.9195C240.61 86.6376 240.196 86.5063 239.915 86.597C239.58 86.7054 239.478 87.0016 239.554 87.2855C239.859 88.422 239.984 89.6714 239.933 90.8725L240.642 90.3026C240.541 90.2872 240.57 90.3028 240.731 90.3515C240.772 90.3975 240.771 90.3955 240.728 90.3455C240.707 90.3181 240.688 90.2899 240.669 90.2618C240.692 90.3001 240.692 90.3001 240.669 90.2638C240.592 90.1241 240.524 89.9815 240.465 89.8359C240.356 89.5718 240.274 89.3077 240.233 89.0787C240.119 88.4773 240.132 87.9539 240.271 87.3671C240.337 87.0826 240.102 86.7927 239.787 86.7415C239.472 86.6902 239.155 86.8886 239.086 87.1738L239.09 87.1703Z" fill="#FA4B06"/>
<path d="M250.093 83.109C249.919 84.3456 250.075 85.6167 250.595 86.7775C250.744 87.1135 250.914 87.4769 251.353 87.5614C251.792 87.6459 252.236 87.3786 252.377 87.006C252.491 86.7062 252.439 86.3754 252.411 86.0666C252.381 85.7401 252.341 85.4125 252.288 85.0865C252.17 84.3403 251.992 83.5995 251.767 82.8741C251.679 82.5938 251.286 82.4579 250.997 82.5516C250.671 82.657 250.547 82.9598 250.635 83.2401C250.824 83.8514 250.973 84.4711 251.076 85.0986C251.129 85.4246 251.172 85.7514 251.204 86.0772C251.22 86.2347 251.232 86.3929 251.242 86.5498C251.245 86.5878 251.248 86.6258 251.247 86.6626C251.251 86.6271 251.248 86.6279 251.243 86.664C251.228 86.7283 251.243 86.7028 251.291 86.5888C251.445 86.4567 251.625 86.4696 251.826 86.6262C251.858 86.6799 251.854 86.6698 251.815 86.5979L251.785 86.5367C251.746 86.4532 251.709 86.369 251.673 86.2848C251.621 86.1575 251.569 86.0301 251.527 85.8998C251.425 85.6035 251.36 85.3567 251.308 85.0511C251.209 84.4657 251.198 83.8816 251.28 83.3015C251.32 83.0143 251.128 82.7309 250.796 82.6759C250.489 82.6265 250.137 82.8182 250.096 83.1083L250.093 83.109Z" fill="#FA4B06"/>
<path d="M247.396 92.012C247.498 92.5096 247.651 92.9932 247.882 93.4559C247.943 93.5824 248.044 93.7052 248.192 93.7603C248.316 93.8071 248.441 93.8192 248.575 93.7944C248.847 93.7405 249.094 93.4961 249.048 93.2319C248.988 92.8945 248.93 92.5544 248.87 92.217C248.844 92.072 248.784 91.9428 248.655 91.8451C248.545 91.7619 248.369 91.7068 248.223 91.7217C248.066 91.7382 247.907 91.799 247.807 91.9135C247.717 92.0203 247.644 92.1628 247.669 92.2989C247.729 92.6363 247.787 92.9764 247.847 93.3138L249.013 93.0878C248.833 92.7273 248.696 92.3509 248.601 91.9654L248.635 92.1054C248.621 92.0459 248.607 91.9863 248.595 91.924C248.564 91.7785 248.512 91.6511 248.38 91.5521C248.27 91.4689 248.094 91.4138 247.949 91.4287C247.791 91.4452 247.632 91.506 247.532 91.6205C247.444 91.7246 247.367 91.8705 247.394 92.0059L247.396 92.012Z" fill="#FA4B06"/>
<path d="M243.953 97.5806C244.457 97.7629 244.963 97.9425 245.471 98.1165C245.98 98.2906 246.472 98.4562 247.016 98.4519C248.168 98.4405 249.04 97.6784 249.774 96.9766C249.996 96.7654 249.937 96.3981 249.698 96.2192C249.437 96.0245 249.074 96.0757 248.85 96.2876C248.352 96.7643 247.714 97.4094 246.911 97.3789C246.516 97.3648 246.126 97.1914 245.765 97.0657C245.33 96.9158 244.896 96.7611 244.464 96.6037C244.163 96.4949 243.805 96.5902 243.662 96.8628C243.529 97.1162 243.649 97.4685 243.952 97.5786L243.953 97.5806Z" fill="#FA4B06"/>
<path d="M284.614 248.738C283.061 249.24 281.316 249.775 279.471 250.339C271.04 252.919 264.949 254.784 263.146 252.913C262.537 252.282 262.345 251.196 262.59 249.774C263.011 247.326 264.662 244.173 267.121 241.124C269.83 237.764 273.301 234.816 276.891 232.828C278.442 231.967 280.569 230.79 282.903 230.035C286.011 229.03 288.61 229.043 290.852 230.069C295.055 231.997 297.419 237.38 295.917 241.591C294.725 244.928 291.177 246.616 284.614 248.738Z" fill="#FA4B06"/>
<path d="M282.698 229.53L283.108 230.541C286.049 229.59 288.492 229.591 290.577 230.547C292.506 231.433 294.071 233.109 294.985 235.267C295.866 237.352 295.998 239.598 295.344 241.426C294.806 242.931 293.774 244.079 291.993 245.144C290.362 246.123 288.166 247.016 284.408 248.231C282.862 248.731 281.119 249.265 279.274 249.829C271.376 252.246 265.137 254.156 263.602 252.56C263.12 252.06 262.97 251.097 263.185 249.852C263.99 245.174 269.58 237.507 277.208 233.281C278.739 232.434 280.834 231.274 283.109 230.538L282.7 229.527M282.698 229.53C280.305 230.304 278.143 231.501 276.573 232.371C266.201 238.117 259.487 249.939 262.688 253.263C264.756 255.409 270.59 253.623 279.664 250.847C281.545 250.27 283.26 249.745 284.815 249.242C291.455 247.095 295.207 245.34 296.487 241.752C297.993 237.535 295.757 231.715 291.123 229.589C288.364 228.322 285.384 228.657 282.694 229.527L282.698 229.53Z" fill="white"/>
<path d="M335.307 232.344C328.747 234.466 324.809 235.2 321.501 233.317C317.327 230.943 315.286 225.454 317.133 221.57C318.118 219.498 320.107 218.004 323.215 216.999C325.549 216.244 328.027 215.932 329.835 215.706C334.019 215.181 338.795 215.462 343.287 216.493C347.362 217.43 350.89 218.908 352.969 220.548C354.177 221.501 354.807 222.443 354.792 223.276C354.748 225.745 348.732 227.795 340.408 230.633C338.581 231.256 336.86 231.842 335.31 232.344L335.307 232.344Z" fill="#FA4B06"/>
<path d="M323.42 217.505C325.695 216.769 328.136 216.463 329.92 216.238C338.808 215.122 348.595 217.814 352.57 220.95C353.628 221.783 354.202 222.606 354.191 223.268C354.154 225.373 347.994 227.472 340.194 230.132C338.372 230.753 336.653 231.338 335.105 231.839C328.728 233.901 324.924 234.626 321.826 232.863C320.012 231.832 318.504 230.031 317.686 227.926C316.841 225.746 316.84 223.564 317.689 221.78C318.605 219.853 320.479 218.456 323.422 217.504M323.01 216.494C320.321 217.364 317.793 218.81 316.579 221.362C314.545 225.642 316.997 231.392 321.178 233.772C324.733 235.797 328.873 235 335.513 232.853C337.071 232.349 338.765 231.772 340.621 231.139C349.581 228.084 355.343 226.12 355.393 223.289C355.47 218.905 341.836 213.661 329.751 215.179C327.922 215.409 325.402 215.725 323.009 216.499L323.01 216.494Z" fill="white"/>
<path d="M317.008 221.858C303.45 208.318 294.681 199.071 290.205 193.601L290.123 193.499C287.973 190.869 285.754 188.509 284.076 189.051L284.031 189.066C282.985 189.441 282.578 190.805 282.747 193.364C282.749 193.389 282.752 193.415 282.758 193.441L291.075 229.888L273.521 234.709C270.932 229.708 268.513 224.567 266.322 219.423C262.096 209.497 258.581 199.208 255.868 188.833L305.509 168.897C311.874 177.455 317.985 186.312 323.676 195.229C327.746 201.604 331.693 208.152 335.413 214.699L317.006 221.859L317.008 221.858Z" fill="#FA4B06"/>
<path d="M305.291 169.572C311.546 178.003 317.554 186.72 323.157 195.494C327.115 201.697 330.958 208.063 334.588 214.433L326.064 217.75L317.168 221.21C303.788 207.841 295.125 198.702 290.691 193.284L290.609 193.182C287.965 189.946 285.808 187.92 283.872 188.546C283.852 188.553 283.829 188.56 283.809 188.566C282.094 189.181 282.02 191.468 282.147 193.394C282.15 193.446 282.158 193.496 282.17 193.544L286.348 211.854L290.379 229.514L282.133 231.78L273.85 234.056C271.351 229.2 269.011 224.216 266.888 219.231C262.731 209.463 259.261 199.345 256.568 189.14L280.943 179.351L305.291 169.572ZM305.728 168.218C288.876 174.986 272.024 181.755 255.168 188.522C257.641 198.058 261.042 208.532 265.759 219.612C268.139 225.205 270.644 230.455 273.195 235.359C279.389 233.658 285.58 231.958 291.772 230.255C288.964 217.947 286.156 205.639 283.348 193.33C283.253 191.884 283.281 189.912 284.256 189.563C284.265 189.56 284.274 189.557 284.281 189.555C285.805 189.062 288.743 192.723 289.718 193.916C293.555 198.606 301.291 206.974 316.851 222.504C323.314 219.991 329.776 217.476 336.24 214.963C332.565 208.476 328.563 201.794 324.2 194.96C318.076 185.368 311.87 176.457 305.728 168.216L305.728 168.218Z" fill="white"/>
<path d="M282.391 204.133C277.486 205.719 272.306 206.585 266.991 206.707C260.305 201.295 255.002 194.541 251.638 187.161C246.283 175.402 246.777 164.576 248.154 157.519C249.089 156.535 250.276 155.792 251.593 155.366C253.85 154.636 256.263 154.903 257.89 156.061C259.714 157.36 260.51 159.753 259.92 162.155C259.882 162.309 259.921 162.468 260.025 162.592C260.13 162.718 260.292 162.794 260.466 162.807C266.388 163.167 270.915 162.856 273.917 161.885C275.963 161.223 277.372 160.232 278.105 158.941C279.124 157.146 278.577 155.296 278.048 153.507C277.481 151.582 276.944 149.766 278.146 147.93C278.975 146.665 280.464 145.632 282.34 145.025C284.217 144.418 286.331 144.32 288.032 144.79C290.162 145.377 291.417 146.703 293.88 150.139C298.097 156.019 300.888 161.11 302.557 164.152C302.803 164.601 303.027 165.008 303.229 165.375C305.575 169.588 308.338 173.751 311.444 177.749C308.965 183.787 302.828 194.629 289.147 201.388C286.988 202.454 284.715 203.377 282.388 204.13L282.391 204.133Z" fill="white"/>
<path d="M282.545 145.535C284.34 144.955 286.274 144.874 287.856 145.309C289.808 145.849 291 147.121 293.375 150.435C297.574 156.288 300.355 161.362 302.017 164.393C302.263 164.842 302.488 165.251 302.693 165.619C305.005 169.775 307.723 173.882 310.773 177.831C309.344 181.241 307.358 184.643 305.008 187.701C300.704 193.306 295.272 197.754 288.859 200.923C286.728 201.976 284.483 202.887 282.187 203.63C277.418 205.172 272.381 206.025 267.218 206.167C260.685 200.834 255.496 194.201 252.198 186.961C246.933 175.402 247.378 164.752 248.721 157.761C249.571 156.903 250.629 156.254 251.8 155.876C253.862 155.209 256.052 155.443 257.514 156.486C259.16 157.66 259.873 159.842 259.333 162.045C259.257 162.351 259.335 162.671 259.547 162.921C259.756 163.171 260.078 163.328 260.429 163.349C266.522 163.718 271 163.407 274.126 162.396C276.322 161.686 277.841 160.607 278.647 159.189C279.172 158.262 279.768 157.212 278.635 153.375C278.076 151.484 277.592 149.849 278.67 148.206C279.427 147.049 280.805 146.1 282.55 145.536M282.135 144.524C280.24 145.137 278.567 146.222 277.626 147.664C275.107 151.513 279.503 155.294 277.569 158.703C276.997 159.711 275.873 160.685 273.713 161.383C271.105 162.227 266.987 162.667 260.508 162.274C261.14 159.702 260.29 157.086 258.265 155.642C256.461 154.357 253.826 154.072 251.388 154.861C249.992 155.312 248.66 156.115 247.59 157.283C246.59 162.326 245.05 174.117 251.082 187.361C255.671 197.435 262.622 203.921 266.765 207.249C270.359 207.183 276.108 206.735 282.596 204.636C284.81 203.921 287.112 203.011 289.441 201.86C304.864 194.238 310.616 181.399 312.117 177.673C308.176 172.633 305.502 168.253 303.768 165.137C302.146 162.222 299.228 156.604 294.386 149.852C291.973 146.489 290.585 144.936 288.209 144.28C286.323 143.758 284.106 143.885 282.134 144.522L282.135 144.524Z" fill="#FA4B06"/>
<path d="M283.628 149.453C282.784 149.708 281.089 150.048 279.225 149.455C276.525 148.594 275.41 146.336 275.13 145.665C274.636 144.471 274.311 142.552 275.563 140.183C275.835 139.667 277.337 137.048 280.133 136.144C280.699 135.961 281.292 135.858 281.895 135.837C285.474 135.716 288.356 138.415 289.077 141.096C290.052 144.728 287.113 148.329 283.754 149.415C283.71 149.429 283.67 149.442 283.629 149.455L283.628 149.453Z" fill="white"/>
<path d="M280.338 136.65C280.845 136.486 281.376 136.394 281.918 136.374C283.368 136.324 284.844 136.814 286.075 137.752C287.26 138.654 288.141 139.919 288.493 141.221C289.393 144.573 286.664 147.903 283.551 148.909C283.513 148.922 283.474 148.934 283.438 148.946C282.667 149.179 281.124 149.491 279.43 148.95C276.977 148.167 275.953 146.097 275.698 145.48C275.243 144.383 274.946 142.615 276.11 140.414C276.365 139.931 277.767 137.483 280.341 136.651M279.928 135.639C276.831 136.64 275.246 139.52 275.017 139.955C274.703 140.551 273.395 143.027 274.566 145.853C274.802 146.421 275.956 148.984 279.021 149.962C281.2 150.657 283.145 150.17 283.82 149.965C283.866 149.951 283.911 149.936 283.956 149.922C287.461 148.788 290.744 145.005 289.659 140.972C288.831 137.894 285.596 135.176 281.868 135.302C281.163 135.326 280.516 135.448 279.923 135.64L279.928 135.639Z" fill="#FA4B06"/>
<path d="M255.94 161.365C253.432 162.176 251.04 161.247 250.585 161.054L248.018 159.856C247.146 158.388 246.211 156.095 246.49 153.283C246.635 151.823 247.091 150.408 247.848 149.077C248.564 148.532 249.435 148.079 250.313 147.795C251.192 147.511 252.139 147.378 253.067 147.424C254.015 147.47 257.205 147.796 258.427 150.104C259.167 151.5 258.836 152.913 258.572 153.634C258.51 153.808 258.549 153.999 258.678 154.14C259.102 154.606 260.066 155.866 259.859 157.478C259.6 159.497 257.686 160.631 256.57 161.124C256.366 161.215 256.153 161.296 255.94 161.365Z" fill="white"/>
<path d="M250.521 148.299C251.345 148.033 252.192 147.919 253.036 147.96C253.407 147.977 254.381 148.057 255.388 148.404C256.588 148.819 257.426 149.467 257.885 150.334C258.536 151.56 258.239 152.822 258.003 153.466C257.875 153.814 257.955 154.195 258.213 154.477C258.591 154.89 259.445 156.007 259.263 157.415C259.037 159.182 257.313 160.195 256.302 160.641C256.118 160.723 255.928 160.796 255.735 160.859C253.485 161.586 251.321 160.77 250.864 160.577L248.466 159.457C247.658 158.051 246.833 155.921 247.093 153.33C247.23 151.973 247.647 150.658 248.332 149.419C248.769 149.099 249.527 148.621 250.521 148.299ZM250.111 147.289C248.674 147.753 247.7 148.478 247.367 148.738C246.805 149.707 246.092 151.25 245.892 153.234C245.556 156.606 246.92 159.186 247.576 160.254L250.326 161.538C250.714 161.705 253.336 162.778 256.145 161.87C256.376 161.795 256.607 161.707 256.839 161.604C257.365 161.372 260.123 160.149 260.46 157.538C260.711 155.593 259.452 154.136 259.147 153.8C259.336 153.286 259.879 151.583 258.974 149.874C257.57 147.225 253.931 146.927 253.103 146.886C251.969 146.832 250.961 147.016 250.112 147.291L250.111 147.289Z" fill="#FA4B06"/>
<path d="M253.681 113.511C254.862 118.055 256.046 122.598 257.228 127.142C258.405 131.669 259.584 136.195 260.761 140.723C261.427 143.281 262.093 145.84 262.76 148.401C262.834 148.683 263.25 148.814 263.531 148.723C263.866 148.615 263.967 148.319 263.892 148.035C262.711 143.491 261.527 138.947 260.345 134.403C259.164 129.859 257.989 125.35 256.812 120.823C256.146 118.264 255.48 115.705 254.813 113.145C254.739 112.862 254.323 112.731 254.042 112.822C253.707 112.931 253.606 113.226 253.681 113.511Z" fill="white"/>
<path d="M263.844 119.802C263.955 119.778 263.77 119.803 263.728 119.801C263.837 119.804 263.655 119.783 263.617 119.773C263.726 119.801 263.535 119.733 263.51 119.723C263.491 119.715 263.421 119.667 263.498 119.718C263.459 119.693 263.423 119.666 263.386 119.639C263.357 119.617 263.329 119.594 263.302 119.57C263.234 119.51 263.351 119.628 263.292 119.558C263.244 119.502 263.201 119.447 263.159 119.388C263.122 119.334 263.158 119.393 263.165 119.402C263.147 119.371 263.132 119.34 263.116 119.308C263.101 119.276 263.09 119.243 263.077 119.211C263.075 119.205 263.041 119.06 263.056 119.14C262.944 118.511 263.277 117.879 263.625 117.303C263.793 117.022 264 116.744 264.284 116.566C264.316 116.544 264.352 116.525 264.387 116.505C264.401 116.496 264.492 116.46 264.408 116.494C264.483 116.463 264.563 116.439 264.64 116.416C264.64 116.416 264.74 116.395 264.682 116.405C264.618 116.417 264.741 116.4 264.756 116.397C264.795 116.394 264.838 116.391 264.878 116.39C264.919 116.39 264.918 116.388 264.874 116.386L264.933 116.392C265.056 116.412 265.128 116.432 265.206 116.492C265.3 116.564 265.337 116.632 265.384 116.766C265.415 116.856 265.374 116.703 265.394 116.797C265.402 116.835 265.406 116.877 265.412 116.917C265.417 116.981 265.423 117.083 265.419 117.125C265.412 117.264 265.37 117.459 265.324 117.615C265.247 117.88 265.055 118.272 264.88 118.498C264.629 118.819 264.421 118.982 264.029 119.077C263.714 119.153 263.564 119.509 263.668 119.765C263.786 120.057 264.124 120.164 264.439 120.088C265.513 119.825 266.138 118.88 266.448 117.988C266.757 117.097 266.692 115.869 265.584 115.446C264.475 115.022 263.416 115.614 262.829 116.407C262.242 117.201 261.701 118.229 261.854 119.188C262.019 120.228 263.061 121.059 264.258 120.805C264.574 120.737 264.721 120.367 264.619 120.116C264.498 119.817 264.166 119.725 263.849 119.794L263.844 119.802Z" fill="white"/>
<path d="M268.104 129.836C267.51 129.431 266.836 128.995 266.694 128.348C266.706 128.404 266.683 128.239 266.682 128.217C266.676 128.132 266.673 128.151 266.682 128.084C266.687 128.046 266.696 128.004 266.705 127.965C266.705 127.965 266.737 127.872 266.718 127.922C266.734 127.885 266.754 127.846 266.775 127.809C266.78 127.803 266.828 127.731 266.799 127.772C266.967 127.551 267.233 127.41 267.485 127.305C267.645 127.24 267.81 127.184 267.974 127.129C268.139 127.074 268.321 126.999 268.468 127.001C268.681 127.003 268.893 127.253 269.029 127.444C269.329 127.869 269.403 128.499 269.223 129.003C268.988 129.662 268.373 130.197 267.724 130.471C267.431 130.596 267.245 130.869 267.363 131.16C267.465 131.412 267.839 131.607 268.134 131.482C269.06 131.089 269.871 130.444 270.263 129.579C270.655 128.714 270.598 127.765 270.101 126.956C269.861 126.565 269.476 126.179 269.001 126.017C268.443 125.827 267.898 125.999 267.368 126.184C266.453 126.503 265.562 127.052 265.488 128.006C265.394 129.185 266.369 130.004 267.334 130.659C267.592 130.834 267.968 130.82 268.182 130.591C268.384 130.374 268.364 130.01 268.105 129.833L268.104 129.836Z" fill="white"/>
<path d="M271.901 138.135C271.83 138.149 271.76 138.158 271.687 138.163C271.678 138.164 271.538 138.175 271.636 138.169C271.73 138.161 271.601 138.164 271.585 138.162C271.523 138.155 271.457 138.133 271.396 138.127C271.317 138.121 271.521 138.176 271.398 138.127C271.358 138.11 271.318 138.098 271.28 138.08C271.249 138.067 271.216 138.044 271.185 138.036C271.11 138.014 271.292 138.111 271.185 138.036C271.132 138 271.08 137.967 271.031 137.928C271.008 137.91 270.964 137.883 270.952 137.859C270.988 137.93 271.003 137.916 270.971 137.874C270.917 137.811 270.869 137.749 270.82 137.685C270.775 137.624 270.799 137.691 270.833 137.71C270.813 137.701 270.797 137.642 270.789 137.622C270.77 137.575 270.727 137.507 270.732 137.455L270.748 137.52C270.743 137.495 270.74 137.468 270.738 137.444C270.735 137.417 270.731 137.391 270.732 137.366C270.729 137.348 270.725 137.306 270.73 137.286C270.687 137.414 270.735 137.285 270.741 137.251C270.751 137.192 270.768 137.134 270.786 137.078C270.742 137.214 270.818 137.024 270.836 136.991C270.85 136.968 270.863 136.946 270.876 136.921C270.939 136.805 270.798 137.006 270.887 136.904C270.932 136.85 270.975 136.798 271.027 136.749C271.054 136.722 271.086 136.686 271.12 136.664C271.106 136.673 271.018 136.74 271.106 136.68C271.165 136.64 271.222 136.599 271.287 136.564C271.302 136.557 271.359 136.532 271.363 136.523C271.335 136.574 271.267 136.564 271.358 136.53C271.433 136.501 271.51 136.481 271.587 136.456C271.723 136.419 271.492 136.463 271.58 136.458C271.617 136.455 271.656 136.449 271.693 136.446C271.725 136.443 271.756 136.444 271.786 136.442C271.933 136.433 271.702 136.43 271.792 136.439C271.862 136.447 271.932 136.454 271.998 136.467C272.043 136.475 272.088 136.486 272.134 136.498C272.036 136.473 272.109 136.493 272.162 136.512C272.229 136.536 272.291 136.564 272.352 136.595C272.384 136.61 272.468 136.665 272.364 136.598C272.389 136.615 272.415 136.629 272.44 136.646C272.503 136.688 272.562 136.733 272.619 136.78C272.643 136.8 272.663 136.819 272.687 136.839C272.581 136.742 272.699 136.857 272.718 136.879C272.762 136.929 272.797 136.984 272.838 137.034C272.925 137.148 272.794 136.927 272.851 137.055C272.862 137.082 272.877 137.106 272.888 137.133C272.918 137.201 272.944 137.27 272.962 137.34C272.956 137.314 272.948 137.244 272.959 137.347C272.965 137.398 272.969 137.447 272.974 137.498C272.991 137.639 272.999 137.419 272.973 137.558C272.964 137.604 272.954 137.651 272.945 137.697C272.941 137.726 272.907 137.787 272.953 137.686C272.935 137.723 272.92 137.762 272.902 137.798C272.883 137.834 272.859 137.871 272.838 137.906C272.886 137.829 272.855 137.88 272.817 137.924C272.77 137.978 272.718 138.027 272.664 138.076C272.77 137.98 272.663 138.074 272.639 138.091C272.603 138.117 272.564 138.141 272.525 138.165C272.498 138.18 272.474 138.195 272.446 138.209C272.419 138.224 272.391 138.238 272.365 138.251C272.432 138.22 272.445 138.213 272.404 138.231C272.322 138.258 272.246 138.291 272.162 138.317C272.132 138.326 272.101 138.332 272.072 138.341C272.004 138.356 272.011 138.356 272.094 138.339C272.063 138.344 272.034 138.349 272.002 138.352C271.692 138.395 271.407 138.627 271.448 138.931C271.486 139.203 271.761 139.471 272.097 139.426C273.038 139.298 273.903 138.753 274.132 137.897C274.361 137.04 273.776 136.102 272.929 135.656C272.147 135.243 271.119 135.29 270.413 135.808C269.706 136.327 269.322 137.186 269.652 137.98C269.981 138.775 271.019 139.407 271.997 139.218C272.303 139.158 272.594 138.954 272.551 138.639C272.516 138.383 272.233 138.081 271.902 138.144L271.901 138.135Z" fill="white"/>
</g>
<g clip-path="url(#clip1_541_5113)">
<path d="M318.185 148.758C318.429 151.746 318.673 154.733 318.918 157.721C317.389 158.677 314.783 160.584 313.042 163.75C310.853 167.732 310.228 173.341 312.349 174.346C312.98 174.645 314.234 174.717 316.945 172.859C316.961 173.211 317.07 174.431 318.137 175.357C319.346 176.406 321.295 176.653 323.043 175.962C323.15 176.525 323.404 177.261 324.066 177.602C325.759 178.476 328.701 176.162 328.821 176.065C331.279 174.086 331.522 171.312 332.139 165.245C332.355 163.131 332.749 159.296 333.312 154.129L318.185 148.758Z" fill="white" stroke="#FA4B06" stroke-width="1.18289" stroke-linecap="round" stroke-linejoin="round"/>
<path d="M317.618 214.315L321.326 173.259C321.346 173.027 321.182 172.813 320.932 172.748C320.817 172.718 320.697 172.723 320.592 172.757C320.466 172.798 320.358 172.879 320.291 172.99L298.998 209.2L294.547 207.6L319.868 162.324L326.767 163.744L323.022 216.776L317.615 214.313L317.618 214.315Z" fill="#FA4B06"/>
<path d="M320.169 162.888L326.191 164.129L322.526 215.999L318.194 214.024L321.873 173.295C321.916 172.83 321.584 172.403 321.083 172.273C320.853 172.214 320.616 172.223 320.403 172.292C320.153 172.373 319.936 172.535 319.805 172.759L298.743 208.577L295.306 207.342L320.169 162.888ZM319.574 161.759L293.792 207.857L299.256 209.821L320.781 173.218L317.043 214.603L323.522 217.555L327.35 163.361L319.577 161.76L319.574 161.759Z" fill="white"/>
<path d="M311.495 220.92C311.039 221.068 310.57 221.197 310.102 221.306L290.631 205.501C290.474 204.013 290.539 201.302 292.395 198.655C294.186 196.102 296.817 194.837 298.71 194.225C299.888 193.844 300.88 193.68 301.413 193.612L321.458 209.737C321.206 211.542 320.332 214.742 317.344 217.53C315.316 219.424 313.044 220.417 311.495 220.919L311.495 220.92Z" fill="white"/>
<path d="M298.894 194.686C299.863 194.372 300.696 194.214 301.236 194.133L311.077 202.05L320.873 209.93C320.585 211.706 319.69 214.63 316.943 217.195C314.99 219.018 312.798 219.978 311.304 220.461C310.957 220.573 310.601 220.676 310.246 220.763L291.156 205.269C291.034 203.814 291.16 201.335 292.856 198.918C294.564 196.483 297.082 195.274 298.893 194.688M298.52 193.763C296.439 194.436 293.77 195.769 291.927 198.396C289.735 201.522 289.974 204.689 290.105 205.738L309.949 221.845C310.37 221.754 310.969 221.613 311.68 221.383C313.356 220.841 315.657 219.817 317.739 217.873C321.267 214.577 321.89 210.768 322.034 209.544C315.22 204.064 308.406 198.58 301.591 193.1C301.265 193.132 300.052 193.27 298.521 193.765L298.52 193.763Z" fill="#FA4B06"/>
<path d="M290.105 205.738C288.637 204.722 290.04 200.29 292.716 197.399C295.552 194.336 300.471 192.309 301.849 193.465C303.223 194.617 301.092 198.931 298.454 201.648C295.915 204.264 291.584 206.763 290.103 205.739L290.105 205.738Z" fill="#FA4B06"/>
<mask id="mask0_541_5113" style="mask-type:luminance" maskUnits="userSpaceOnUse" x="316" y="205" width="7" height="11">
<path d="M322.183 209.396L317.954 205.993L317.588 206.124L316.823 214.586L316.943 214.777L319.494 215.94L319.779 215.87C321.584 213.351 322.105 210.837 322.255 209.563L322.183 209.396Z" fill="white"/>
</mask>
<g mask="url(#mask0_541_5113)">
<path d="M311.495 220.92C311.039 221.068 310.57 221.197 310.102 221.306L290.631 205.501C290.474 204.013 290.539 201.302 292.395 198.655C294.186 196.102 296.817 194.837 298.71 194.225C299.888 193.844 300.88 193.68 301.413 193.612L321.458 209.737C321.206 211.542 320.332 214.742 317.344 217.53C315.316 219.424 313.044 220.417 311.495 220.919L311.495 220.92Z" fill="white"/>
<path d="M298.894 194.686C299.863 194.372 300.696 194.214 301.236 194.133L311.077 202.05L320.873 209.93C320.585 211.706 319.69 214.63 316.943 217.195C314.99 219.018 312.798 219.978 311.304 220.461C310.957 220.573 310.601 220.676 310.246 220.763L291.156 205.269C291.034 203.814 291.16 201.335 292.856 198.918C294.564 196.483 297.082 195.274 298.893 194.688M298.52 193.763C296.439 194.436 293.77 195.769 291.927 198.396C289.735 201.522 289.974 204.689 290.105 205.738L309.949 221.845C310.37 221.754 310.969 221.613 311.68 221.383C313.356 220.841 315.657 219.817 317.739 217.873C321.267 214.577 321.89 210.768 322.034 209.544C315.22 204.064 308.406 198.58 301.591 193.1C301.265 193.132 300.052 193.27 298.521 193.765L298.52 193.763Z" fill="#FA4B06"/>
<path d="M317.618 214.315L321.326 173.259C321.346 173.027 321.182 172.813 320.932 172.748C320.817 172.718 320.697 172.723 320.592 172.757C320.466 172.798 320.358 172.879 320.291 172.99L298.998 209.2L294.547 207.6L319.868 162.324L326.767 163.744L323.022 216.776L317.615 214.313L317.618 214.315Z" fill="#FA4B06"/>
<path d="M320.169 162.888L326.191 164.129L322.526 215.999L318.194 214.024L321.873 173.295C321.916 172.83 321.584 172.403 321.083 172.273C320.853 172.214 320.616 172.223 320.403 172.292C320.153 172.373 319.936 172.535 319.805 172.759L298.743 208.577L295.306 207.342L320.169 162.888ZM319.574 161.759L293.792 207.857L299.256 209.821L320.781 173.218L317.043 214.603L323.522 217.555L327.35 163.361L319.577 161.76L319.574 161.759Z" fill="white"/>
</g>
<path d="M383.287 216.315C382.442 216.588 381.579 216.853 380.723 217.1C375.365 218.649 369.808 219.684 364.198 220.179C362.223 216.829 362.427 212.813 364.751 209.863C365.989 208.291 367.751 207.104 369.849 206.425C372.529 205.559 375.487 205.613 378.179 206.579C378.307 206.625 378.446 206.626 378.572 206.586C378.642 206.563 378.705 206.528 378.763 206.48C378.919 206.348 378.974 206.149 378.905 205.966C378.244 204.222 378.14 202.443 378.605 200.821C379.446 197.875 382.222 195.249 385.677 194.132C386.979 193.711 388.261 193.557 389.383 193.689C391.482 193.937 393.612 195.261 395.229 197.322C397.89 200.716 398.765 205.377 397.642 210.143C393.108 212.623 388.282 214.7 383.289 216.314L383.287 216.315Z" fill="#FA4B06"/>
<path d="M385.863 194.595C387.082 194.2 388.274 194.057 389.307 194.178C391.254 194.408 393.247 195.657 394.776 197.607C397.312 200.841 398.169 205.278 397.149 209.838C392.706 212.254 387.981 214.276 383.098 215.855C382.259 216.126 381.403 216.389 380.553 216.634C375.352 218.137 369.96 219.154 364.517 219.657C362.816 216.529 363.061 212.859 365.2 210.145C366.373 208.657 368.043 207.53 370.035 206.886C372.587 206.06 375.407 206.113 377.973 207.035C378.228 207.128 378.508 207.127 378.756 207.047C378.895 207.002 379.025 206.931 379.137 206.838C379.448 206.574 379.559 206.173 379.423 205.81C378.797 204.155 378.699 202.472 379.136 200.943C379.933 198.149 382.575 195.658 385.863 194.595ZM385.488 193.672C382.219 194.729 379.037 197.326 378.072 200.7C377.412 203.012 377.976 205.042 378.384 206.123C375.477 205.08 372.366 205.088 369.663 205.962C367.52 206.655 365.633 207.892 364.304 209.578C361.789 212.772 361.63 217.125 363.891 220.697C368.557 220.305 374.403 219.441 380.893 217.566C381.775 217.312 382.635 217.047 383.474 216.775C389.481 214.833 394.388 212.511 398.129 210.45C400.432 201.14 394.945 193.849 389.452 193.202C388.217 193.057 386.845 193.231 385.488 193.67L385.488 193.672Z" fill="white"/>
<path d="M435.965 197.355C430.991 198.964 425.782 200.045 420.476 200.57C411.618 193.352 410.558 183.628 413.751 180.059C414.473 179.252 415.533 178.604 416.814 178.19C420.236 177.083 424.338 177.79 427.261 179.991C428.889 181.216 430.212 182.946 431.092 184.996C431.179 185.198 431.395 185.332 431.635 185.338C431.71 185.339 431.783 185.328 431.851 185.306C432.002 185.257 432.129 185.153 432.195 185.017C433.444 182.459 435.592 180.579 438.243 179.721C440.316 179.051 442.538 179.057 444.671 179.734C448.742 181.029 452.058 184.671 453.201 189.063C448.634 192.091 443.685 194.587 438.487 196.485C437.657 196.789 436.807 197.081 435.964 197.353L435.965 197.355Z" fill="#FA4B06"/>
<path d="M417.016 178.69C420.242 177.647 424.114 178.318 426.876 180.397C428.426 181.564 429.691 183.219 430.533 185.187C430.706 185.59 431.137 185.862 431.621 185.871C431.772 185.874 431.918 185.852 432.054 185.808C432.356 185.71 432.609 185.505 432.741 185.231C433.924 182.809 435.949 181.031 438.446 180.223C440.386 179.596 442.469 179.601 444.47 180.238C448.249 181.441 451.351 184.78 452.526 188.847C448.087 191.754 443.292 194.157 438.259 195.993C437.436 196.293 436.595 196.583 435.758 196.854C430.913 198.421 425.841 199.483 420.677 200.013C416.952 196.917 414.309 193.016 413.214 188.984C412.253 185.447 412.636 182.154 414.213 180.39C414.868 179.658 415.836 179.07 417.014 178.689M416.61 177.688C415.252 178.127 414.092 178.822 413.283 179.726C409.683 183.75 411.28 193.929 420.273 201.127C424.679 200.706 430.158 199.801 436.168 197.857C437.007 197.586 437.854 197.295 438.713 196.982C445.031 194.676 450.073 191.832 453.866 189.289C452.766 184.567 449.245 180.629 444.87 179.236C442.56 178.501 440.183 178.53 438.04 179.223C435.335 180.098 433.004 182.027 431.649 184.808C431.109 183.55 429.943 181.315 427.645 179.585C424.288 177.057 419.88 176.632 416.611 177.69L416.61 177.688Z" fill="white"/>
<path d="M332.646 106.635C337.419 102.518 342.189 98.4013 346.962 94.2839C356.302 103.428 370.766 117.473 388.832 134.523C416.002 160.164 430.248 172.713 426.097 181.076C423.494 186.318 416.733 183.726 399.274 193.175C385.794 200.472 381.665 206.438 375.734 205.005C370.699 203.79 368.167 198.16 365.202 189.111C358.275 167.959 358.105 155.597 355.485 144.793C353.158 135.195 347.577 121.694 332.645 106.638L332.646 106.635Z" fill="white" stroke="#FA4B06" stroke-width="1.18289" stroke-linecap="round" stroke-linejoin="round"/>
<path d="M378.095 131.529C378.986 134.019 379.985 137.546 380.33 141.843C380.729 146.854 380.08 150.903 381.381 151.257C381.819 151.376 382.565 151.083 383.909 149.381C384.214 150.988 385.2 152.157 386.088 152.185C387.115 152.216 388.519 150.725 388.471 148.4C389.185 150.161 390.351 151.335 391.122 151.209C391.955 151.073 392.684 149.366 392.333 147.005C394.347 148.675 395.147 148.774 395.51 148.581C396.612 147.995 395.57 144.503 394.902 142.198C393.775 138.31 392.269 132.682 390.708 125.325C386.504 127.392 382.3 129.459 378.095 131.527L378.095 131.529Z" fill="white" stroke="#FA4B06" stroke-width="1.18289" stroke-linecap="round" stroke-linejoin="round"/>
<path d="M318.722 154.62C316.975 144.78 317.666 134.549 320.725 125.017C323.51 116.342 328.124 108.356 334.438 101.272L345.092 102.986C345.19 103.002 345.289 102.993 345.376 102.965C345.546 102.91 345.682 102.78 345.724 102.612L347.94 93.9709C354.441 93.5389 360.576 94.4086 366.184 96.5534C375.052 99.9486 381.983 106.281 386.786 115.379C390.199 121.843 391.379 127.597 391.671 129.291L379.388 136.436C378.737 134.421 377.975 132.426 377.115 130.495C377.006 130.249 376.697 130.125 376.418 130.216C376.413 130.217 376.407 130.219 376.403 130.22C376.193 130.295 376.061 130.473 376.055 130.665L354.773 142.213C353.769 139.022 352.215 136.019 350.147 133.283C347.392 129.635 343.692 126.486 339.446 124.17C339.301 124.091 339.127 124.077 338.972 124.127C338.958 124.131 338.943 124.136 338.927 124.142C338.76 124.21 338.643 124.348 338.614 124.512C337.783 129.248 336.952 134.026 336.144 138.713C334.919 145.817 333.691 153.028 332.493 160.156L318.715 154.618L318.722 154.62ZM369.06 117.856C369.017 117.87 368.976 117.89 368.936 117.913C368.685 118.065 368.622 118.372 368.794 118.594C369.077 118.964 369.36 119.34 369.633 119.713C369.775 119.907 370.045 119.98 370.279 119.905C370.318 119.892 370.356 119.876 370.393 119.853C370.646 119.704 370.718 119.402 370.553 119.173C370.467 119.055 370.38 118.937 370.292 118.819C370.095 118.553 369.899 118.293 369.702 118.037C369.557 117.848 369.291 117.78 369.062 117.854L369.06 117.856Z" fill="#FA4B06"/>
<path d="M348.386 94.4361C354.648 94.0729 360.559 94.936 365.97 97.0064C370.748 98.8349 375.017 101.586 378.661 105.184C381.626 108.112 384.194 111.614 386.292 115.591C389.491 121.648 390.706 127.067 391.075 129.056L385.655 132.209L379.71 135.666C379.101 133.853 378.405 132.061 377.632 130.322C376.178 127.024 374.395 123.813 372.334 120.783C371.913 120.165 371.472 119.538 371.017 118.918C370.928 118.797 370.839 118.675 370.748 118.554C370.553 118.292 370.351 118.025 370.149 117.763C368.486 115.591 366.937 113.835 365.931 112.747C365.334 112.101 364.872 111.628 364.59 111.344C364.425 111.178 364.296 111.05 364.206 110.967C364.023 110.792 363.595 110.382 362.92 110.585C362.912 110.588 362.903 110.591 362.895 110.593C362.492 110.724 362.211 111.05 362.175 111.434C362.134 111.858 362.362 112.085 362.623 112.349C364.665 114.399 366.588 116.595 368.337 118.875C368.622 119.248 368.905 119.624 369.178 119.997C371.589 123.293 373.66 126.821 375.337 130.49L364.998 136.1L355.102 141.469C354.082 138.457 352.572 135.62 350.606 133.018C347.807 129.313 344.047 126.112 339.736 123.761C339.45 123.605 339.102 123.575 338.79 123.676C338.761 123.686 338.73 123.696 338.702 123.709C338.37 123.845 338.134 124.124 338.078 124.447C337.25 129.172 336.419 133.95 335.609 138.65C334.418 145.549 333.227 152.541 332.066 159.455L319.221 154.292C317.544 144.603 318.243 134.542 321.254 125.163C323.988 116.645 328.5 108.794 334.667 101.818L339.51 102.597L344.998 103.479C345.196 103.511 345.39 103.495 345.566 103.438C345.907 103.327 346.177 103.071 346.264 102.734L347.417 98.2379L348.389 94.4479M347.497 93.5108C346.728 96.5089 345.961 99.5063 345.192 102.504C341.533 101.915 337.873 101.328 334.215 100.739C330.087 105.328 323.872 113.436 320.196 124.883C316.027 137.87 317.127 148.925 318.227 154.96C323.131 156.931 328.031 158.901 332.935 160.873C334.172 153.511 335.423 146.15 336.694 138.792C337.51 134.058 338.333 129.325 339.164 124.593C341.789 126.024 346.098 128.801 349.695 133.561C352.413 137.158 353.747 140.594 354.436 142.973C361.858 138.944 369.281 134.918 376.703 130.889C376.674 130.819 376.642 130.75 376.61 130.679C375.072 127.214 372.978 123.384 370.098 119.453C369.812 119.064 369.526 118.682 369.244 118.314C366.101 114.216 363.254 111.523 363.27 111.512C363.293 111.504 366.093 114.204 369.244 118.314C369.441 118.57 369.638 118.83 369.834 119.096C369.923 119.216 370.011 119.336 370.099 119.455C370.532 120.044 370.966 120.659 371.398 121.292C373.94 125.031 375.589 128.362 376.611 130.681C377.667 133.06 378.463 135.266 379.067 137.212C383.468 134.651 387.87 132.092 392.269 129.532C391.962 127.575 387.91 104.337 366.404 96.1042C359.158 93.3307 352.269 93.1556 347.497 93.5108Z" fill="white"/>
<path d="M328.84 66.768C335.005 80.0283 344.249 89.1827 353.057 89.831C354.898 89.9664 358.784 90.2525 362.315 88.0462C366.528 85.4145 367.389 81.0066 367.574 79.8593C357.786 80.4609 354.601 78.7518 353.588 76.9731C352.669 75.358 353.657 73.8923 353.023 70.7991C352.354 67.5415 350.428 65.1124 348.883 63.5576C348.266 62.5776 346.831 60.6161 344.103 59.1641C342.076 58.0848 340.162 57.7269 338.995 57.5928C338.764 57.5254 334.521 56.3528 331.184 58.8974C328.714 60.7795 327.775 63.9056 328.842 66.7673L328.84 66.768Z" fill="#FA4B06"/>
<path d="M337.603 102.351C326.979 105.786 315.088 100.567 311.096 90.7187C307.103 80.8703 312.497 70.0618 323.12 66.6263C333.744 63.1908 345.635 68.41 349.628 78.2584C353.62 88.1068 348.227 98.9153 337.603 102.351Z" fill="white"/>
<path d="M323.307 67.0852C333.645 63.7419 345.22 68.8274 349.11 78.4229C353 88.0185 347.754 98.5435 337.415 101.887C327.076 105.23 315.501 100.145 311.611 90.5491C307.721 80.9535 312.968 70.4285 323.307 67.0852ZM322.933 66.1624C312.007 69.6954 306.476 80.7635 310.578 90.8832C314.681 101.003 326.864 106.343 337.789 102.81C348.715 99.2766 354.246 88.2085 350.143 78.0888C346.041 67.9691 333.858 62.6293 322.933 66.1624Z" fill="#FA4B06"/>
<path d="M310.339 90.2244C311.92 89.5275 314.961 87.949 317.451 84.8432C320.421 81.1396 320.902 77.3956 321.003 75.818C322.487 76.9936 325.318 78.8611 329.305 79.4149C339.186 80.7875 346.28 72.7337 346.575 72.3879C345.242 70.7022 342.694 67.9645 338.508 65.9299C335.983 64.7005 333.875 64.2279 333.377 64.1132C331.801 63.7482 326.004 62.5876 319.801 65.2885C313.555 68.0078 311.065 72.8317 310.297 74.3805C306.585 81.875 309.706 88.8821 310.338 90.2269L310.339 90.2244Z" fill="#FA4B06"/>
<path d="M322.858 91.6644C322.124 91.077 320.179 89.7375 320.504 88.6844L319.991 89.0966C320.046 89.0873 320.559 89.6021 320.586 89.6288C320.84 89.8639 321.079 90.1124 321.306 90.3686C321.5 90.5859 321.686 90.8095 321.863 91.0383C322.09 91.3324 322.063 91.5311 322.512 91.4276C321.807 91.591 322.198 92.5395 322.897 92.3782C324.195 92.0796 322.999 90.7105 322.607 90.2277C322.097 89.5973 320.9 87.9364 319.901 88.0903C319.631 88.1319 319.461 88.268 319.388 88.5026C318.922 90.0103 321.056 91.5833 322.131 92.4423C322.674 92.8763 323.397 92.0997 322.856 91.665L322.858 91.6644Z" fill="#FA4B06"/>
<path d="M330.969 86.8447C330.569 86.5564 330.168 86.2688 329.805 85.9437C329.629 85.7875 329.468 85.6205 329.32 85.445C329.191 85.2903 329.043 84.8727 328.897 84.7885C328.848 84.5828 328.727 84.6222 328.53 84.9093L328.853 85.0888C329.07 85.2167 329.288 85.3507 329.488 85.5033C329.94 85.8518 330.468 86.4221 330.283 87.002L330.513 86.6813C330.513 86.6813 329.811 85.9541 329.743 85.8719C329.475 85.547 329.261 85.1968 329.085 84.8258L328.19 85.3865C328.752 85.7182 329.234 86.099 329.653 86.5731C330.102 87.0813 331.029 86.5018 330.575 85.9888C330.1 85.4495 329.557 84.9882 328.913 84.6099C328.49 84.3607 327.777 84.662 328.019 85.1706C328.43 86.0311 329.366 87.6576 330.612 87.67C331.264 87.6762 331.503 87.1585 331.453 86.6486C331.389 86.0012 331 85.4215 330.498 84.9679C329.996 84.5143 327.877 83.0409 327.717 84.5479C327.584 85.7828 329.316 86.9534 330.247 87.6231C330.812 88.0312 331.541 87.257 330.972 86.8459L330.969 86.8447Z" fill="#FA4B06"/>
<path d="M325.66 94.6161L326.303 96.2015C326.551 96.8124 327.616 96.4701 327.367 95.8574L326.724 94.272C326.477 93.661 325.412 94.0033 325.66 94.6161Z" fill="#FA4B06"/>
<path d="M333.011 97.3828C334.985 97.2122 336.688 96.0748 337.37 94.4013C337.617 93.7952 336.595 93.3597 336.345 93.9727C335.798 95.3147 334.524 96.2361 332.922 96.374C332.198 96.4372 332.286 97.4442 333.01 97.381L333.011 97.3828Z" fill="#FA4B06"/>
<path d="M315.972 159.695C315.72 159.793 310.688 161.808 310.676 165.098C310.675 165.27 310.694 167.138 311.995 167.747C313.342 168.376 315.164 167.232 315.869 166.786C318.374 165.21 319.19 162.704 319.475 161.516" fill="white"/>
<path d="M315.789 159.244C314.884 159.595 314.015 160.068 313.228 160.596C311.894 161.49 310.673 162.668 310.267 164.154C310.103 164.757 310.109 165.389 310.238 165.997C310.429 166.887 310.877 167.821 311.861 168.217C312.844 168.613 313.879 168.347 314.761 167.951C315.643 167.556 316.417 167.072 317.115 166.487C318.65 165.199 319.567 163.42 320.004 161.603C320.149 160.998 319.094 160.828 318.95 161.43C318.625 162.779 318.016 164.108 316.989 165.212C316.412 165.831 315.72 166.326 314.962 166.757C314.329 167.116 313.541 167.494 312.79 167.453C311.35 167.372 311.079 165.562 311.264 164.59C311.501 163.346 312.528 162.31 313.613 161.544C314.159 161.157 314.745 160.813 315.353 160.51C315.464 160.455 315.576 160.402 315.685 160.348C315.523 160.426 315.709 160.338 315.746 160.32C315.783 160.302 315.823 160.285 315.863 160.268C315.961 160.226 316.058 160.184 316.157 160.145C316.424 160.042 316.582 159.787 316.479 159.532C316.384 159.299 316.059 159.142 315.792 159.245L315.789 159.244Z" fill="#FA4B06"/>
</g>
<g clip-path="url(#clip2_541_5113)">
<path d="M1076.43 219.374C1078.84 221.39 1078.12 225.525 1076.9 232.468C1075.92 238.094 1075.38 241.12 1072.86 244.206C1069.96 247.746 1066.16 249.208 1063.98 249.839C1060.19 247.759 1059.35 246.205 1059.45 245.1C1059.65 242.761 1064.07 242.058 1064.68 238.82C1064.94 237.414 1064.39 236.103 1063.82 235.157C1064.98 229.945 1066.15 224.736 1067.32 219.525C1068.76 218.942 1073.72 217.105 1076.43 219.373L1076.43 219.374Z" fill="#FA4B06" stroke="white" stroke-width="0.930696" stroke-linecap="round" stroke-linejoin="round"/>
<path d="M1008.4 224.619C1006.04 226.976 1001.24 225.802 991.754 223.356C980.095 220.352 979.216 218.356 978.977 217.443C978.325 214.948 980.073 211.43 982.573 210.428C985.992 209.058 989.068 213.129 994.102 211.851C995.719 211.439 996.936 210.646 997.724 210.023L1009.64 215.536C1011 221.749 1008.97 224.054 1008.4 224.619Z" fill="#FA4B06" stroke="white" stroke-width="0.803672" stroke-linecap="round" stroke-linejoin="round"/>
<path d="M1018.56 195.186C1030.11 199.117 1041.67 203.048 1053.22 206.979C1050.9 212.134 1052.86 217.959 1057.13 220.284C1060.47 222.098 1064.85 221.585 1068.11 218.969L1063.29 237.465C1049.29 238.533 1042.8 234.884 1039.46 231.253C1035.43 226.868 1034.67 222.257 1026.96 215.078C1020.83 209.37 1018.05 209.473 1016.73 209.75C1012.47 210.652 1010.49 216.101 1010.13 217.139C1004.06 215.644 997.982 214.146 991.907 212.65C989.931 200.947 996.543 191.182 1004.43 189.727C1011.68 188.392 1017.84 194.459 1018.56 195.183L1018.56 195.186Z" fill="white" stroke="#FA4B06" stroke-width="1.22139" stroke-linecap="round" stroke-linejoin="round"/>
<path d="M1058.55 185.113C1044.8 182.158 1031.05 179.202 1017.3 176.246C1015.97 172.211 1013.01 161.293 1017.85 149.776C1019.64 145.511 1023.9 135.382 1033.37 133.667C1039.69 132.522 1045.05 135.716 1047.05 137.051C1049.25 137.052 1055.37 137.356 1060.61 141.744C1066.57 146.722 1067.51 153.691 1067.98 157.23C1069.89 171.489 1060.73 182.607 1058.55 185.113Z" fill="#FA4B06" stroke="white" stroke-width="1.22139" stroke-linecap="round" stroke-linejoin="round"/>
<path d="M1018.91 176.601C1019.61 179.825 1020.16 184.234 1019.61 189.385C1019.35 191.817 1018.9 193.99 1018.37 195.864C1021.95 198.939 1026.8 202.53 1032.99 205.728C1040.6 209.653 1047.61 211.626 1052.86 212.67C1053.35 204.985 1053.84 197.3 1054.33 189.615C1058.39 190.584 1064.81 191.569 1072.51 190.423C1083.79 188.743 1091.6 183.412 1095.24 180.545L1086.38 171.438C1081.77 173.437 1077.74 174.415 1074.83 174.929C1070 175.787 1066.37 176.43 1062.06 175.148C1057.5 173.792 1054.4 170.945 1052.62 168.917C1045.05 167.411 1037.47 165.903 1029.89 164.398C1026.79 163.835 1018.36 161.869 1012.09 154.409C1009.7 151.562 1008.26 148.678 1007.38 146.375C1003.58 148.072 999.775 149.77 995.971 151.466C996.288 153.967 997.803 163.516 1006.13 170.498C1010.99 174.573 1016.09 176.028 1018.91 176.6L1018.91 176.601Z" fill="#FA4B06" stroke="white" stroke-width="1.22139" stroke-linecap="round" stroke-linejoin="round"/>
<path d="M1038.15 172.601C1046.97 174.9 1055.99 169.613 1058.29 160.792C1060.59 151.971 1055.3 142.956 1046.48 140.656C1037.66 138.357 1028.64 143.644 1026.34 152.465C1024.04 161.286 1029.33 170.301 1038.15 172.601Z" fill="white" stroke="#FA4B06" stroke-width="1.22139" stroke-linecap="round" stroke-linejoin="round"/>
<path d="M1045.77 163.754C1045.79 163.612 1045.83 163.469 1045.87 163.331C1045.88 163.269 1045.9 163.207 1045.93 163.147C1045.94 163.117 1045.95 163.088 1045.96 163.058C1046.01 162.905 1045.9 163.179 1045.97 163.03C1046.09 162.763 1046.23 162.513 1046.4 162.273C1046.43 162.233 1046.42 162.197 1046.39 162.283C1046.39 162.267 1046.43 162.233 1046.44 162.216C1046.46 162.198 1046.48 162.181 1046.49 162.162C1046.58 162.07 1046.41 162.208 1046.48 162.173C1046.61 162.106 1046.37 162.187 1046.5 162.159L1046.52 162.155C1046.45 162.177 1046.39 162.178 1046.33 162.161C1046.22 162.128 1046.1 162.048 1046.06 161.947C1046.04 161.907 1046.04 161.769 1046.02 161.867C1046.02 161.884 1046.01 161.928 1046.02 161.944C1046.01 161.925 1046.04 161.808 1046.02 161.923C1046.01 161.955 1046 161.986 1046 162.018C1045.97 162.167 1045.93 162.314 1045.89 162.458C1045.87 162.526 1045.84 162.595 1045.82 162.662C1045.8 162.699 1045.8 162.763 1045.83 162.644C1045.82 162.67 1045.8 162.709 1045.79 162.732C1045.73 162.863 1045.66 162.989 1045.58 163.113C1045.54 163.174 1045.51 163.234 1045.46 163.294C1045.45 163.311 1045.39 163.394 1045.44 163.328C1045.49 163.255 1045.41 163.361 1045.4 163.37C1045.37 163.408 1045.33 163.444 1045.29 163.48C1045.22 163.553 1045.31 163.459 1045.32 163.457C1045.3 163.46 1045.24 163.508 1045.22 163.519C1045.14 163.572 1045.25 163.505 1045.26 163.504C1045.25 163.504 1045.21 163.52 1045.19 163.527C1045.08 163.568 1045.31 163.516 1045.23 163.519C1045.15 163.522 1045.37 163.543 1045.3 163.526L1045.28 163.522C1045.35 163.536 1045.4 163.565 1045.44 163.61C1045.45 163.619 1045.52 163.736 1045.48 163.651C1045.48 163.663 1045.52 163.792 1045.5 163.698C1045.54 163.859 1045.51 163.766 1045.51 163.715C1045.51 163.669 1045.51 163.625 1045.52 163.58C1045.52 163.755 1045.5 163.695 1045.51 163.642C1045.52 163.607 1045.52 163.57 1045.53 163.534C1045.55 163.478 1045.56 163.421 1045.58 163.365C1045.59 163.333 1045.6 163.292 1045.62 163.261C1045.58 163.32 1045.58 163.348 1045.62 163.272C1045.68 163.137 1045.76 163.008 1045.84 162.885C1045.86 162.855 1045.88 162.823 1045.91 162.793C1045.92 162.779 1046 162.678 1045.94 162.751C1045.87 162.828 1045.97 162.718 1045.97 162.712C1045.99 162.685 1046.02 162.656 1046.04 162.629C1046.21 162.431 1046.4 162.248 1046.59 162.074C1046.83 161.861 1046.82 161.422 1046.59 161.21C1046.33 160.974 1045.98 160.986 1045.73 161.212C1045.19 161.685 1044.72 162.245 1044.45 162.912C1044.32 163.255 1044.22 163.663 1044.32 164.027C1044.47 164.562 1045 164.828 1045.52 164.7C1045.95 164.594 1046.25 164.265 1046.5 163.92C1046.75 163.576 1046.91 163.217 1047.04 162.832C1047.17 162.447 1047.28 162.006 1047.21 161.611C1047.16 161.312 1046.93 161.082 1046.65 160.986C1046.4 160.901 1046.13 160.962 1045.9 161.085C1045.67 161.208 1045.51 161.406 1045.36 161.615C1045.23 161.785 1045.12 161.962 1045.02 162.147C1044.81 162.551 1044.65 162.99 1044.57 163.44C1044.51 163.753 1044.67 164.112 1045.01 164.185C1045.31 164.249 1045.69 164.085 1045.75 163.748L1045.77 163.754Z" fill="#FA4B06"/>
<path d="M1037.65 164.613C1037.65 164.613 1037.67 164.594 1037.67 164.586L1037.58 164.712C1037.68 164.58 1037.79 164.458 1037.92 164.353C1037.98 164.295 1038.03 164.228 1038.05 164.152C1038.09 164.078 1038.11 163.999 1038.1 163.913C1038.1 163.83 1038.09 163.754 1038.05 163.684C1038.02 163.609 1037.98 163.543 1037.92 163.49L1037.8 163.394C1037.7 163.338 1037.59 163.31 1037.48 163.312L1037.33 163.334C1037.22 163.362 1037.13 163.415 1037.06 163.491C1036.88 163.641 1036.73 163.816 1036.6 164.004C1036.55 164.076 1036.53 164.153 1036.52 164.238C1036.51 164.317 1036.51 164.396 1036.54 164.476C1036.56 164.555 1036.59 164.625 1036.65 164.681C1036.69 164.748 1036.75 164.801 1036.82 164.84L1036.97 164.902C1037.08 164.93 1037.18 164.927 1037.29 164.899L1037.43 164.839C1037.53 164.784 1037.6 164.71 1037.65 164.618L1037.65 164.613Z" fill="#FA4B06"/>
<path d="M1039.14 168.935C1040.33 169.6 1041.93 169.375 1042.86 168.377C1043.08 168.143 1043.11 167.739 1042.86 167.513C1042.61 167.286 1042.23 167.265 1041.99 167.515C1041.95 167.561 1041.9 167.608 1041.86 167.651C1041.83 167.673 1041.81 167.694 1041.79 167.715C1041.7 167.787 1041.79 167.697 1041.8 167.703C1041.79 167.694 1041.51 167.889 1041.48 167.905C1041.45 167.916 1041.43 167.928 1041.41 167.94C1041.29 167.998 1041.5 167.906 1041.43 167.932C1041.36 167.954 1041.3 167.979 1041.24 167.999C1041.12 168.037 1040.99 168.065 1040.87 168.09C1040.79 168.105 1041.02 168.074 1040.89 168.085C1040.86 168.088 1040.84 168.089 1040.81 168.093C1040.75 168.098 1040.68 168.1 1040.62 168.1C1040.55 168.101 1040.49 168.099 1040.42 168.093C1040.4 168.092 1040.28 168.077 1040.39 168.091C1040.49 168.106 1040.37 168.086 1040.36 168.083C1040.23 168.062 1040.11 168.03 1039.98 167.988C1039.96 167.982 1039.94 167.971 1039.91 167.962C1039.79 167.917 1040.01 168.008 1039.94 167.972C1039.88 167.94 1039.81 167.911 1039.75 167.875C1039.47 167.719 1039.07 167.803 1038.92 168.098C1038.76 168.394 1038.84 168.765 1039.14 168.934L1039.14 168.935Z" fill="#FA4B06"/>
<path d="M1035.06 160.355C1035.04 160.554 1035.06 160.375 1035.07 160.335C1035.08 160.299 1035.08 160.263 1035.09 160.225C1035.11 160.178 1035.12 160.128 1035.14 160.083L1035.15 160.047C1035.17 159.986 1035.17 160.002 1035.13 160.096C1035.18 160.035 1035.21 159.932 1035.25 159.864C1035.27 159.831 1035.29 159.801 1035.31 159.769C1035.32 159.747 1035.34 159.728 1035.35 159.707C1035.29 159.782 1035.28 159.795 1035.32 159.745C1035.38 159.684 1035.43 159.624 1035.49 159.568C1035.52 159.539 1035.56 159.51 1035.59 159.48C1035.68 159.396 1035.48 159.547 1035.58 159.483C1035.62 159.456 1035.66 159.429 1035.7 159.404L1035.73 159.387C1035.79 159.359 1035.78 159.363 1035.69 159.403C1035.71 159.408 1035.86 159.345 1035.75 159.381C1035.69 159.387 1035.69 159.391 1035.74 159.388C1035.67 159.388 1035.61 159.372 1035.55 159.334C1035.36 159.2 1035.28 159.041 1035.31 158.856L1035.3 158.898C1035.29 158.927 1035.29 158.955 1035.28 158.986C1035.25 159.05 1035.26 159.041 1035.29 158.959C1035.27 158.974 1035.25 159.058 1035.24 159.081C1035.21 159.127 1035.19 159.174 1035.16 159.22C1035.06 159.397 1034.97 159.577 1034.87 159.749C1034.81 159.839 1034.76 159.929 1034.7 160.017C1034.65 160.099 1034.57 160.181 1034.53 160.266C1034.6 160.138 1034.59 160.199 1034.54 160.246C1034.53 160.262 1034.51 160.278 1034.49 160.294C1034.45 160.337 1034.46 160.326 1034.54 160.263C1034.52 160.27 1034.47 160.3 1034.46 160.314C1034.55 160.276 1034.57 160.268 1034.51 160.285C1034.66 160.246 1034.8 160.287 1034.93 160.405L1035.09 160.673C1035.07 160.615 1035.07 160.638 1035.1 160.741C1035.08 160.845 1035.08 160.86 1035.09 160.79C1035.1 160.741 1035.11 160.693 1035.11 160.647C1035.13 160.546 1035.16 160.444 1035.19 160.343C1035.2 160.303 1035.21 160.264 1035.23 160.225C1035.24 160.194 1035.26 160.086 1035.29 160.068C1035.25 160.155 1035.24 160.169 1035.27 160.105L1035.29 160.067C1035.31 160.017 1035.34 159.966 1035.36 159.917C1035.41 159.83 1035.46 159.747 1035.51 159.665C1035.54 159.617 1035.57 159.572 1035.6 159.528C1035.53 159.612 1035.67 159.429 1035.6 159.528C1035.64 159.493 1035.66 159.458 1035.7 159.423C1035.72 159.403 1035.76 159.376 1035.77 159.352C1035.69 159.41 1035.68 159.422 1035.73 159.387C1035.75 159.374 1035.77 159.365 1035.79 159.355C1035.7 159.391 1035.68 159.399 1035.74 159.38C1035.8 159.365 1035.79 159.368 1035.69 159.387C1036 159.364 1036.31 159.11 1036.29 158.767C1036.27 158.454 1036.01 158.139 1035.67 158.164C1035.28 158.194 1034.96 158.39 1034.72 158.688C1034.5 158.96 1034.31 159.244 1034.18 159.565C1034.05 159.886 1033.94 160.21 1033.9 160.56C1033.88 160.716 1033.86 160.846 1033.91 160.998C1033.97 161.17 1034.09 161.313 1034.24 161.4C1034.51 161.544 1034.82 161.495 1035.08 161.363C1035.4 161.2 1035.61 160.874 1035.79 160.584C1035.98 160.294 1036.13 160.016 1036.28 159.724C1036.51 159.286 1036.74 158.6 1036.19 158.283C1035.81 158.062 1035.35 158.166 1035 158.404C1034.68 158.624 1034.4 158.906 1034.2 159.245C1034 159.584 1033.89 159.968 1033.85 160.365C1033.83 160.507 1033.93 160.695 1034.03 160.788C1034.14 160.895 1034.31 160.976 1034.47 160.966C1034.62 160.956 1034.79 160.905 1034.89 160.786C1035.01 160.656 1035.05 160.519 1035.07 160.345L1035.06 160.355Z" fill="#FA4B06"/>
<path d="M1026.08 153.668C1028.38 151.653 1030.68 149.637 1032.98 147.625C1034.87 154.14 1038.14 157.935 1040.51 157.546C1042.45 157.227 1043.51 154.14 1043.81 153.241C1044.07 157.303 1046.83 159.667 1048.59 159.384C1050.14 159.134 1051.69 156.713 1051.6 153.574C1053.66 156.526 1055.71 159.48 1057.77 162.431C1058.15 161.296 1060.38 154.311 1056.43 147.465C1055.71 146.226 1052.84 141.432 1046.76 139.594C1045.71 139.278 1039.18 137.424 1033.05 141.557C1026.77 145.796 1026.14 152.804 1026.08 153.669L1026.08 153.668Z" fill="#FA4B06"/>
<path d="M1178.73 255.9C1171.78 260.548 1165.46 262.935 1161.14 264.222C1154.96 266.066 1150.44 267.349 1144.92 265.955C1139.1 264.482 1135.24 260.775 1133.27 258.531C1133.64 252.868 1135.02 250.996 1136.39 250.492C1139.28 249.429 1142.58 254.295 1146.78 253.218C1148.59 252.75 1149.85 251.357 1150.66 250.152C1157.51 248.636 1164.36 247.119 1171.21 245.606C1173.72 249.037 1176.23 252.468 1178.74 255.899L1178.73 255.9Z" fill="#FA4B06" stroke="white" stroke-width="1.22139" stroke-linecap="round" stroke-linejoin="round"/>
<path d="M1112.24 269.821C1105.39 270.201 1097.8 270.292 1089.59 269.877C1080.61 269.424 1072.41 268.445 1065.11 267.226C1064.77 258.248 1066.85 254.928 1069.06 253.685C1073.44 251.218 1079.35 256.358 1086.69 253.325C1089.03 252.358 1090.68 250.901 1091.73 249.794C1098.31 252.226 1104.9 254.658 1111.48 257.091C1111.73 261.335 1111.99 265.58 1112.24 269.821Z" fill="#FA4B06" stroke="white" stroke-width="1.22139" stroke-linecap="round" stroke-linejoin="round"/>
<path d="M990.61 197.314C986.643 204.678 982.182 209.746 978.968 212.906C974.371 217.428 970.975 220.683 965.45 222.038C959.615 223.465 954.466 221.999 951.681 220.938C949.349 215.763 949.688 213.466 950.663 212.377C952.721 210.081 957.918 212.834 961.119 209.92C962.506 208.656 962.959 206.838 963.108 205.395C968.449 200.847 973.792 196.297 979.133 191.75C982.959 193.605 986.784 195.46 990.608 197.313L990.61 197.314Z" fill="#FA4B06" stroke="white" stroke-width="1.22139" stroke-linecap="round" stroke-linejoin="round"/>
<path d="M905.146 203.604C898.311 202.961 890.791 201.923 882.738 200.296C873.923 198.513 865.956 196.325 858.919 194.037C859.921 185.109 862.473 182.134 864.839 181.233C869.538 179.444 874.619 185.406 882.326 183.497C884.784 182.888 886.638 181.693 887.842 180.754C893.988 184.139 900.137 187.521 906.283 190.903C905.904 195.136 905.525 199.371 905.146 203.604Z" fill="#FA4B06" stroke="white" stroke-width="1.22139" stroke-linecap="round" stroke-linejoin="round"/>
<path d="M934.992 123.269L885.191 178.343L910.395 193.703C924.176 179.998 937.957 166.293 951.735 152.587C954.841 151.18 961.294 147.75 966.496 140.556C972.558 132.178 973.353 123.635 973.488 120.26L931.535 109.325C928.334 111.777 922.809 116.686 918.737 124.705C914.037 133.961 913.751 142.484 913.882 146.611" fill="#FA4B06"/>
<path d="M934.992 123.269L885.191 178.343L910.395 193.703C924.176 179.998 937.957 166.293 951.735 152.587C954.841 151.18 961.294 147.75 966.496 140.556C972.558 132.178 973.353 123.635 973.488 120.26L931.535 109.325C928.334 111.777 922.809 116.686 918.737 124.705C914.037 133.961 913.751 142.484 913.882 146.611" stroke="white" stroke-width="1.22139" stroke-linecap="round" stroke-linejoin="round"/>
<path d="M952.735 152.355L979.216 192.226L963.335 205.727L932.574 172.405" fill="#FA4B06"/>
<path d="M952.735 152.355L979.216 192.226L963.335 205.727L932.574 172.405" stroke="white" stroke-width="1.22139" stroke-linecap="round" stroke-linejoin="round"/>
<path d="M927.286 115.719C926.69 118.422 926.096 122.223 926.192 126.782C926.305 132.094 927.312 136.305 926.123 136.79C925.721 136.956 924.99 136.71 923.559 135.034C923.429 136.752 922.616 138.072 921.783 138.178C920.819 138.301 919.354 136.851 919.171 134.398C918.671 136.315 917.689 137.654 916.951 137.588C916.154 137.519 915.301 135.782 915.402 133.266C913.67 135.203 912.928 135.376 912.567 135.203C911.558 134.723 911.992 131.481 912.516 128.425C913.231 124.259 914.449 118.374 916.634 111.077C920.186 112.624 923.737 114.171 927.288 115.72L927.286 115.719Z" fill="white" stroke="#FA4B06" stroke-width="1.03818" stroke-linecap="round" stroke-linejoin="round"/>
<path d="M997.169 130.054C998.128 132.649 999.685 136.167 1002.23 139.948C1005.2 144.355 1008.32 147.353 1007.59 148.405C1007.34 148.762 1006.59 148.949 1004.48 148.316C1005.3 149.832 1005.33 151.382 1004.69 151.921C1003.95 152.545 1001.93 152.12 1000.45 150.154C1001.06 152.038 1000.96 153.694 1000.3 154.04C999.596 154.413 997.941 153.414 996.664 151.243C996.255 153.807 995.724 154.355 995.327 154.406C994.217 154.548 992.828 151.586 991.618 148.734C989.966 144.845 987.808 139.236 985.697 131.915C989.521 131.296 993.344 130.675 997.168 130.056L997.169 130.054Z" fill="white" stroke="#FA4B06" stroke-width="1.03818" stroke-linecap="round" stroke-linejoin="round"/>
<path d="M990.945 64.9083C996.936 69.8071 997.633 77.8322 993.955 82.1544C991.422 85.1294 986.908 86.2372 982.505 85.2209C967.795 82.8382 953.083 80.4573 938.373 78.0747C931.373 81.7456 924.064 79.424 921.953 75.0191C920.008 70.9654 922.944 66.1316 923.248 65.6452C923.166 65.2806 922.407 61.6091 925.045 58.6238C927.641 55.688 931.298 55.9343 931.688 55.9678C931.422 55.1262 930.37 51.4742 932.257 47.6722C934.91 42.3254 940.938 41.6119 941.352 41.5711C942.657 39.1922 944.839 35.6716 948.209 31.9809C952.504 27.2816 961.157 17.8113 970.373 19.7112C972.036 20.0537 976.078 21.2513 979.996 26.7331C981.596 24.0426 983.199 23.3826 984.147 23.1931C989.421 22.1391 997.445 30.9911 996.094 38.6539C995.61 41.403 994.024 43.4027 992.854 44.5873C993.198 44.8461 998.098 48.6604 997.636 55.0327C997.149 61.7241 991.213 64.7789 990.947 64.9089L990.945 64.9083Z" fill="#FA4B06" stroke="white" stroke-width="1.22139" stroke-linecap="round" stroke-linejoin="round"/>
<path d="M939.481 86.5509C936.97 90.5789 934.26 95.7823 932.143 102.124C931.006 105.526 930.217 108.726 929.666 111.627C944.477 115.071 959.286 118.517 974.097 121.961C974.513 118.758 974.927 115.554 975.343 112.35C978.778 122.81 982.214 133.271 985.649 143.731C987.761 143.118 991.43 141.754 995.021 138.634C998.111 135.948 999.884 133.06 1000.84 131.198C997.743 120.753 995.661 112.218 994.362 106.518C991.332 93.2149 990.328 85.5695 985.973 74.4049C983.678 68.5204 981.338 63.9295 979.809 61.1153C972.232 59.6098 964.656 58.102 957.079 56.5965C950.366 60.3829 940.131 67.2849 930.905 78.941C918.805 94.2276 914.708 109.778 913.161 117.97C918.215 119.57 923.27 121.171 928.324 122.771C929.195 119.156 930.066 115.543 930.935 111.928" fill="white"/>
<path d="M939.481 86.5509C936.97 90.5789 934.26 95.7823 932.143 102.124C931.006 105.526 930.217 108.726 929.666 111.627C944.477 115.071 959.286 118.517 974.097 121.961C974.513 118.758 974.927 115.554 975.343 112.35C978.778 122.81 982.214 133.271 985.649 143.731C987.761 143.118 991.43 141.754 995.021 138.634C998.111 135.948 999.884 133.06 1000.84 131.198C997.743 120.753 995.661 112.218 994.362 106.518C991.332 93.2149 990.328 85.5695 985.973 74.4049C983.678 68.5204 981.338 63.9295 979.809 61.1153C972.232 59.6098 964.656 58.102 957.079 56.5965C950.366 60.3829 940.131 67.2849 930.905 78.941C918.805 94.2276 914.708 109.778 913.161 117.97C918.215 119.57 923.27 121.171 928.324 122.771C929.195 119.156 930.066 115.543 930.935 111.928" stroke="#FA4B06" stroke-width="1.22139" stroke-linecap="round" stroke-linejoin="round"/>
<path d="M966.655 65.2384C975.476 67.5377 984.491 62.2507 986.79 53.4295C989.09 44.6083 983.803 35.5934 974.981 33.2941C966.16 30.9948 957.145 36.2818 954.846 45.103C952.547 53.9242 957.834 62.9391 966.655 65.2384Z" fill="white" stroke="#FA4B06" stroke-width="1.22139" stroke-linecap="round" stroke-linejoin="round"/>
<path d="M966.857 46.7495C966.395 48.0401 965.815 49.2874 965.136 50.4863L966.256 50.9449C966.618 49.6634 966.98 48.3795 967.34 47.0974L966.138 46.9509C966.051 48.0592 965.702 49.147 965.15 50.1138L966.27 50.5723C966.343 50.0185 966.491 49.4133 966.692 48.933C966.803 48.6639 966.936 48.4034 967.084 48.1542C967.161 48.0229 967.243 47.8951 967.329 47.7686C967.365 47.7174 967.399 47.6632 967.438 47.6127C967.465 47.5744 967.468 47.5727 967.443 47.6015C967.545 47.5018 967.48 47.5254 967.247 47.6742L966.933 47.5922C966.872 47.5661 966.746 47.4096 966.781 47.3407C966.785 47.3768 966.783 47.4118 966.782 47.4467C966.786 47.4 966.783 47.4017 966.777 47.4532C966.751 47.6105 966.721 47.7667 966.688 47.9221C966.618 48.2473 966.534 48.5688 966.435 48.8836C966.242 49.4973 965.996 50.0642 965.686 50.6346C965.529 50.9245 965.618 51.3011 965.909 51.4705C966.201 51.6399 966.586 51.5383 966.745 51.2466C967.138 50.5235 967.457 49.7559 967.686 48.9648C967.796 48.582 967.887 48.1942 967.954 47.8003C968.027 47.3751 968.047 46.8805 967.649 46.5998C966.774 45.9832 966.102 47.3528 965.796 47.9748C965.441 48.6953 965.198 49.4649 965.093 50.2631C965.053 50.5631 965.148 50.8579 965.455 50.9783C965.734 51.0866 966.059 50.9921 966.213 50.724C966.88 49.5576 967.261 48.2709 967.365 46.9324C967.387 46.6328 967.103 46.3692 966.828 46.3404C966.525 46.3095 966.249 46.4875 966.163 46.7882C965.801 48.0697 965.439 49.3535 965.079 50.6357C964.891 51.2985 965.859 51.6945 966.199 51.0942C966.932 49.8034 967.545 48.4509 968.044 47.0565C968.156 46.7447 967.905 46.3891 967.608 46.3115C967.265 46.2221 966.974 46.4367 966.863 46.7484L966.857 46.7495Z" fill="#FA4B06"/>
<path d="M978.912 53.5561C978.94 52.372 979.478 51.2576 980.384 50.4638L979.341 50.0404C979.202 51.5013 978.466 52.8845 977.352 53.874L978.395 54.2974C978.361 53.6626 978.499 53.1153 978.814 52.5739C979.13 52.0326 979.549 51.6422 980.121 51.357C980.417 51.2095 980.498 50.7914 980.339 50.5202C980.163 50.2193 979.801 50.1552 979.502 50.3021C978.032 51.0345 977.087 52.674 977.172 54.3119C977.2 54.8543 977.822 55.0845 978.216 54.7353C979.578 53.5278 980.392 51.8266 980.562 50.023C980.585 49.7892 980.383 49.5496 980.181 49.4717C979.942 49.3793 979.708 49.4344 979.519 49.5996C978.38 50.5978 977.723 52.0647 977.689 53.5705C977.681 53.8993 977.988 54.1761 978.309 54.1739C978.648 54.169 978.904 53.8848 978.912 53.5537L978.912 53.5561Z" fill="#FA4B06"/>
<path d="M971.64 55.2008L971.067 57.3991C970.986 57.7088 971.181 58.0751 971.504 58.1441C971.826 58.2131 972.162 58.0381 972.249 57.7072L972.822 55.5089C972.902 55.1992 972.708 54.8329 972.385 54.7639C972.062 54.6949 971.726 54.8699 971.64 55.2008Z" fill="#FA4B06"/>
<path d="M963.375 57.728C962.968 58.8615 963.552 60.1293 964.453 60.844C965.604 61.7573 967.12 61.8293 968.529 61.8558C969.315 61.8714 969.298 60.6501 968.512 60.6346C967.444 60.6138 966.221 60.6182 965.312 59.9721C964.677 59.5214 964.304 58.7451 964.557 58.036C964.668 57.7243 964.418 57.3687 964.12 57.291C963.777 57.2017 963.486 57.4162 963.375 57.728Z" fill="#FA4B06"/>
<path d="M955.577 42.3281C956.943 42.9212 960.587 44.2878 965.098 43.3328C971.51 41.975 974.725 36.9716 975.307 36.0277C975.236 37.0567 975.039 41.5974 978.329 45.6734C981.932 50.1342 986.995 50.6713 987.893 50.749C988.124 49.3222 988.809 43.9724 985.548 38.5102C982.284 33.045 977.244 31.1128 975.881 30.6388C974.99 30.3663 968.326 28.4498 962.174 32.6021C957.165 35.9842 955.853 41.1275 955.58 42.3264L955.577 42.3281Z" fill="#FA4B06"/>
<path d="M1114.67 187.365C1119.76 183.372 1126.41 178.152 1136.38 175.994C1149.81 173.089 1161.15 177.486 1166.18 179.848C1164.04 185.368 1159.44 199.385 1163.11 216.813C1166.29 231.905 1174.05 241.933 1178 246.402C1167.2 248.588 1156.4 250.774 1145.6 252.96C1142.25 248.019 1137.5 239.684 1134.96 228.367C1132.67 218.141 1133.07 209.428 1133.78 203.753C1129.89 206.834 1117.16 217.727 1113.99 236.229C1112.48 245.077 1113.69 252.57 1114.91 257.371C1104.84 255.823 1094.77 254.275 1084.69 252.727C1084.76 243.02 1086.31 224.573 1097.59 206.632C1104.64 195.427 1112.61 188.99 1114.67 187.37L1114.67 187.365Z" fill="white" stroke="#FA4B06" stroke-width="1.22139" stroke-linecap="round" stroke-linejoin="round"/>
<path d="M1167.59 181.62C1166.79 184.269 1165.46 187.877 1163.15 191.808C1160.46 196.39 1157.52 199.574 1158.32 200.578C1158.59 200.918 1159.35 201.06 1161.42 200.296C1160.69 201.859 1160.76 203.409 1161.43 203.908C1162.21 204.485 1164.2 203.935 1165.56 201.883C1165.06 203.8 1165.26 205.449 1165.94 205.751C1166.67 206.08 1168.26 204.98 1169.4 202.735C1169.97 205.271 1170.53 205.784 1170.93 205.81C1172.04 205.883 1173.25 202.842 1174.28 199.918C1175.69 195.934 1177.5 190.203 1179.16 182.768C1175.3 182.384 1171.45 182.001 1167.59 181.619L1167.59 181.62Z" fill="white" stroke="#FA4B06" stroke-width="1.03818" stroke-linecap="round" stroke-linejoin="round"/>
<path d="M1100.09 161.697C1098.08 163.596 1095.13 166.064 1091.17 168.325C1086.56 170.959 1082.43 172.264 1082.62 173.534C1082.69 173.962 1083.28 174.463 1085.45 174.828C1084.04 175.824 1083.33 177.201 1083.67 177.968C1084.06 178.857 1086.05 179.37 1088.25 178.264C1086.86 179.68 1086.22 181.209 1086.66 181.809C1087.12 182.457 1089.05 182.295 1091.16 180.916C1090.39 183.397 1090.62 184.123 1090.95 184.344C1091.89 184.963 1094.44 182.923 1096.79 180.902C1100 178.148 1104.42 174.077 1109.55 168.448C1106.4 166.197 1103.24 163.949 1100.09 161.698L1100.09 161.697Z" fill="white" stroke="#FA4B06" stroke-width="1.03818" stroke-linecap="round" stroke-linejoin="round"/>
<path d="M1127.35 150.516C1125.73 153.553 1124.04 157.41 1122.8 162.03C1120.45 170.766 1120.76 178.373 1121.39 183.351C1129.6 182.147 1138.93 181.332 1149.2 181.373C1154.55 181.394 1159.61 181.645 1164.35 182.053C1166.58 176.512 1168.89 169.3 1170.23 160.682C1171.33 153.645 1171.52 147.358 1171.34 142.166C1171.46 148.871 1170.97 157.53 1168.77 167.349C1166.83 175.994 1164.09 183.207 1161.49 188.807C1167.85 188.03 1174.2 187.25 1180.55 186.472C1185.48 178.991 1191.01 167.977 1192.88 153.935C1194.3 143.211 1195.93 131.007 1188.31 120.454C1181.2 110.613 1170.07 107.756 1165.77 106.894C1156.99 107.233 1148.21 107.571 1139.43 107.91C1133.85 115.592 1127.73 123.534 1121.02 131.633C1111.98 142.549 1102.99 152.389 1094.32 161.214C1097.19 167.219 1100.06 173.227 1102.94 179.231C1109.56 173.498 1116.18 167.767 1122.8 162.033" fill="#FA4B06"/>
<path d="M1127.35 150.516C1125.73 153.553 1124.04 157.41 1122.8 162.03C1120.45 170.766 1120.76 178.373 1121.39 183.351C1129.6 182.147 1138.93 181.332 1149.2 181.373C1154.55 181.394 1159.61 181.645 1164.35 182.053C1166.58 176.512 1168.89 169.3 1170.23 160.682C1171.33 153.645 1171.52 147.358 1171.34 142.166C1171.46 148.871 1170.97 157.53 1168.77 167.349C1166.83 175.994 1164.09 183.207 1161.49 188.807C1167.85 188.03 1174.2 187.25 1180.55 186.472C1185.48 178.991 1191.01 167.977 1192.88 153.935C1194.3 143.211 1195.93 131.007 1188.31 120.454C1181.2 110.613 1170.07 107.756 1165.77 106.894C1156.99 107.233 1148.21 107.571 1139.43 107.91C1133.85 115.592 1127.73 123.534 1121.02 131.633C1111.98 142.549 1102.99 152.389 1094.32 161.214C1097.19 167.219 1100.06 173.227 1102.94 179.231C1109.56 173.498 1116.18 167.767 1122.8 162.033" stroke="white" stroke-width="1.22139" stroke-linecap="round" stroke-linejoin="round"/>
<path d="M1126.47 88.7615C1128.9 89.0371 1131.33 89.315 1133.76 89.5899L1128.73 94.0722C1129.37 94.434 1134.04 97.0101 1139.16 94.984C1143.67 93.2007 1146.69 88.5734 1146.7 83.3371C1151.83 88.0578 1156.53 89.9818 1158.29 88.5337C1159.88 87.2336 1158.86 83.406 1158.41 81.9411C1158.39 81.8644 1158.38 81.8246 1158.39 81.82C1158.72 81.6515 1165.74 94.5816 1170.63 93.5932C1172.36 93.242 1173.3 91.2476 1173.57 90.685C1176.93 83.5217 1169.72 67.995 1158.23 65.7839C1148.87 63.9814 1140.5 71.7707 1139.39 72.8065C1137.43 74.6307 1136.07 76.4669 1135.18 77.8705C1134.78 79.1871 1134.13 80.8242 1133.03 82.5373C1130.87 85.9006 1128.12 87.807 1126.47 88.7669L1126.47 88.7615Z" fill="#FA4B06" stroke="white" stroke-width="1.22139" stroke-linecap="round" stroke-linejoin="round"/>
<path d="M1149.97 110.834C1160.08 113.469 1170.41 107.411 1173.05 97.3024C1175.68 87.194 1169.62 76.8636 1159.51 74.2288C1149.4 71.594 1139.07 77.6525 1136.44 87.7608C1133.8 97.8692 1139.86 108.2 1149.97 110.834Z" fill="white" stroke="#FA4B06" stroke-width="1.22139" stroke-linecap="round" stroke-linejoin="round"/>
<path d="M1140.17 95.3802C1140.17 98.2176 1142.37 100.62 1145.29 100.499C1147.85 100.393 1149.73 98.094 1149.6 95.5771L1148.91 96.2859C1150.03 96.2894 1151.15 96.2928 1152.27 96.2969L1151.58 95.7853C1152.33 98.4116 1154.64 100.288 1157.37 100.432C1161.26 100.637 1163.73 97.0835 1163.03 93.4493C1162.86 92.5642 1161.51 92.9476 1161.68 93.8274C1162.28 96.9505 1159.8 99.57 1156.65 98.9389C1154.84 98.5759 1153.43 97.1629 1152.93 95.4065C1152.84 95.1041 1152.56 94.898 1152.24 94.8949C1151.13 94.8914 1150.01 94.8879 1148.89 94.8838C1148.52 94.8837 1148.18 95.2192 1148.2 95.5927C1148.29 97.3503 1147.09 98.9872 1145.27 99.0946C1143.1 99.221 1141.56 97.4252 1141.57 95.3557C1141.57 94.4545 1140.17 94.4731 1140.17 95.3742L1140.17 95.3802Z" fill="#FA4B06"/>
<path d="M1145.89 95.1094L1146.36 93.5049L1144.98 93.3377C1145 93.7218 1144.98 94.0914 1144.89 94.4661C1144.85 94.6298 1144.8 94.7946 1144.74 94.9522C1144.7 95.0525 1144.65 95.1492 1144.6 95.2417C1144.42 95.5107 1144.65 95.5793 1145.28 95.4475C1145.4 95.2841 1145.4 94.6934 1145.46 94.4753C1145.56 94.0722 1145.69 93.6765 1145.83 93.2875L1144.55 93.4661C1144.7 93.7798 1144.68 94.0866 1144.59 94.4121C1144.33 95.2763 1145.68 95.627 1145.94 94.7651C1146.15 94.0699 1146.06 93.4083 1145.76 92.7589C1145.47 92.1493 1144.67 92.431 1144.48 92.9375C1144.17 93.7775 1143.17 96.3431 1144.7 96.6078C1146.14 96.8574 1146.43 94.2587 1146.38 93.3221C1146.34 92.536 1145.23 92.3857 1145 93.1548L1144.53 94.7593C1144.28 95.6248 1145.63 95.9778 1145.89 95.1124L1145.89 95.1094Z" fill="#FA4B06"/>
<path d="M1158.44 95.771C1158.28 95.3026 1158.18 94.8412 1158.17 94.3416C1158.17 94.1158 1158.18 93.8937 1158.21 93.6695C1158.23 93.5257 1158.42 93.0732 1158.23 93.1584L1157.7 93.2319C1157.53 92.9737 1157.47 92.9434 1157.5 93.1452C1157.51 93.2608 1157.52 93.3782 1157.52 93.4925C1157.53 93.7243 1157.53 93.9578 1157.53 94.1871C1157.53 94.4163 1157.53 94.6503 1157.52 94.8831L1157.51 95.1153C1157.5 95.3528 1157.49 95.4019 1157.49 95.2609L1157.98 95.0542L1157.83 95.048L1158.34 95.2527C1158.11 95.0757 1158.17 94.4477 1158.19 94.1841C1158.21 93.7892 1158.32 93.4081 1158.45 93.0368C1158.76 92.1896 1157.4 91.8407 1157.1 92.6837C1156.76 93.6419 1156.39 95.6119 1157.42 96.2988C1157.93 96.6386 1158.57 96.382 1158.79 95.8355C1159.02 95.243 1158.94 94.4459 1158.93 93.8195C1158.92 93.2619 1158.99 92.5373 1158.55 92.1194C1158.14 91.7391 1157.48 91.7858 1157.17 92.2519C1156.85 92.718 1156.8 93.4771 1156.78 94.0284C1156.74 94.7468 1156.87 95.4685 1157.1 96.1451C1157.39 96.9935 1158.74 96.6207 1158.45 95.7669L1158.44 95.771Z" fill="#FA4B06"/>
<path d="M1148.98 99.9365C1147.95 100.799 1146.93 101.66 1145.9 102.522C1145.2 103.102 1146.2 104.083 1146.89 103.51C1147.92 102.648 1148.94 101.787 1149.98 100.925C1150.67 100.345 1149.67 99.3633 1148.98 99.9365Z" fill="#FA4B06"/>
<path d="M1152.48 105.49C1154.9 106.381 1157.68 105.624 1159.32 103.633C1159.89 102.943 1158.9 101.948 1158.33 102.645C1156.97 104.295 1154.83 104.876 1152.83 104.138C1151.98 103.827 1151.64 105.183 1152.47 105.493L1152.48 105.49Z" fill="#FA4B06"/>
<path d="M1135.9 90.8884C1137.72 90.1329 1139.91 88.856 1141.34 86.5869C1143.1 83.802 1143.03 80.6528 1143.42 80.6763C1143.83 80.7012 1143.1 84.2085 1144.51 86.849C1147.43 92.344 1159.32 93.5377 1161.15 90.2666C1161.65 89.3763 1162.08 86.9609 1155.69 80.1858C1157.8 88.5225 1164.43 92.3191 1168.19 90.9609C1170.99 89.9526 1172.8 85.8986 1172.88 81.3491C1171.3 79.874 1168.92 77.8913 1165.71 76.0521C1161.62 73.7154 1158.11 71.6503 1153.35 71.8344C1146.11 72.1157 1141.56 76.8628 1140.8 77.6864C1135.76 83.1177 1135.85 89.6248 1135.9 90.8884Z" fill="#FA4B06"/>
</g>
<g clip-path="url(#clip3_541_5113)">
<path d="M84.2575 319.801L85.8305 318.475C85.8305 318.475 80.7154 306.494 66.5993 293.293L63.9315 295.198C63.9315 295.198 72.2589 299.349 84.2575 319.801Z" fill="#FA4B06" stroke="white" stroke-width="1.12" stroke-linejoin="round"/>
<path d="M92.6871 295.2C92.6871 295.2 96.0003 301.447 85.7783 318.42L84.3429 315.456C84.3429 315.456 91.894 307.509 90.2986 293.429C90.2986 293.429 90.4787 290.29 92.6941 295.194L92.6871 295.2Z" fill="#FA4B06" stroke="white" stroke-width="1.12" stroke-linejoin="round"/>
<path d="M84.3459 319.784C84.3459 319.784 51.5927 278.021 31.352 318.581C31.352 318.581 63.6438 330.863 84.3394 319.777L84.3459 319.784Z" fill="#FA4B06" stroke="white" stroke-width="1.12" stroke-linejoin="round"/>
<path d="M81.4699 318.834C81.4699 318.834 61.7185 306.897 40.7991 314.384L81.4699 318.834Z" fill="#FA4B06"/>
<path d="M81.4699 318.834C81.4699 318.834 61.7185 306.897 40.7991 314.384" stroke="white" stroke-width="1.12" stroke-linejoin="round"/>
<path d="M16.1605 283.29C21.8386 290.401 23.9611 287.62 27.6341 285.587C31.3072 283.554 29.9683 292.185 29.9683 292.185C29.9683 292.185 30.1937 298.949 37.4137 299.032C44.6337 299.115 49.1243 295.899 49.8677 291.292C50.6112 286.684 54.9108 289.745 55.1812 291.756C55.4517 293.767 57.7437 301.217 67.3446 292.649C73.1888 283.981 65.4839 282.232 65.1324 280.218C64.7809 278.204 63.0246 278.145 69.1751 275.04C75.3326 271.928 71.3037 262.032 66.1121 260.761C60.9204 259.489 57.8741 264.6 56.2424 263.05C54.6106 261.5 56.9918 260.072 58.0581 255.32C59.1243 250.568 44.6423 247.433 39.9947 256.317C35.3471 265.201 34.0347 268.024 29.7917 263.484C25.5487 258.944 10.4758 276.172 16.1605 283.29Z" fill="#FA4B06" stroke="white" stroke-width="1.12" stroke-linejoin="round"/>
<path d="M47.751 277.829C47.751 277.829 49.7772 272.886 45.5822 274.151C41.3873 275.415 45.2673 279.889 47.751 277.829Z" fill="white" stroke="#FA4B06" stroke-width="1.12" stroke-linejoin="round"/>
<path d="M74.7902 291.658C74.3061 284.743 78.8471 287.264 72.134 284.98C65.421 282.697 63.6694 264.418 77.2693 266.834C81.8251 272.128 83.3051 270.954 82.5276 263.516C81.75 256.077 96.6346 257.096 97.6286 264.333C98.6226 271.569 100.864 269.068 104.147 269.389C107.43 269.71 117.439 271.896 115.878 281.521C111.934 288.597 107.239 284.413 107.239 284.413C107.239 284.413 100.723 285.322 105.096 290.001C108.932 292.187 109.24 295.288 107.32 297.279C105.4 299.27 98.4997 302.539 94.4955 296.127C90.4914 289.715 91.7356 292.53 88.266 297.762C84.7963 302.994 75.2747 298.559 74.7907 291.644L74.7902 291.658Z" fill="#FA4B06" stroke="white" stroke-width="1.12" stroke-linejoin="round"/>
<path d="M89.903 279.274C89.903 279.274 93.9234 282.792 94.0843 278.415C94.2452 274.038 88.7601 276.259 89.903 279.274Z" fill="white" stroke="#FA4B06" stroke-width="1.12" stroke-linejoin="round"/>
</g>
<g clip-path="url(#clip4_541_5113)">
<path d="M1248.24 259.078C1248.24 259.078 1250.56 254.332 1256.74 252.821" stroke="#FA4B06" stroke-width="1.6" stroke-miterlimit="10"/>
<path d="M1247.44 258.999L1248.07 247.959" stroke="#FA4B06" stroke-width="1.6" stroke-miterlimit="10"/>
<path d="M1252.83 254.495C1252.83 254.495 1259.7 254.02 1259.35 251.812C1259.01 249.604 1254.76 250.908 1252.83 254.495Z" fill="#FA4B06"/>
<path d="M1247.75 252.426C1247.75 252.426 1245.26 245.986 1247.39 245.359C1249.53 244.733 1250.16 249.141 1247.75 252.426Z" fill="#FA4B06"/>
<path d="M1247.69 260.827L1239.61 280.652C1239.61 280.652 1241.7 292.34 1250.64 289.525C1259.57 286.711 1254.12 275.92 1254.12 275.92C1254.12 275.92 1270 280.413 1269.84 267.908C1269.68 255.403 1255.5 258.725 1247.69 260.822L1247.69 260.827Z" fill="white" stroke="#FA4B06" stroke-width="1.6" stroke-miterlimit="10"/>
<path d="M1271.16 299.223L1275.48 311.265C1275.48 311.265 1283.22 322.05 1289.69 314.491C1296.17 306.932 1286.37 303.499 1284.23 304.665C1284.23 304.665 1298.5 298.433 1290.56 288.555C1282.62 278.678 1272.41 293.733 1271.16 299.223Z" fill="white" stroke="#FA4B06" stroke-width="1.6" stroke-miterlimit="10"/>
<path d="M1270.27 299.691C1270.27 299.691 1259.91 287.713 1253.39 294.907C1246.88 302.101 1252.06 307.316 1256.57 309.135C1261.08 310.955 1264.85 310.024 1264.85 310.024C1264.85 310.024 1257.89 315.478 1265.2 321.977C1272.51 328.476 1276.1 317.255 1274.76 312.242L1270.27 299.695L1270.27 299.691Z" fill="white" stroke="#FA4B06" stroke-width="1.6" stroke-linecap="round" stroke-linejoin="round"/>
<path d="M1269.32 299.687C1269.32 299.687 1268.24 295.934 1269.44 295.335C1270.64 294.737 1272.72 298.645 1272.72 298.645C1272.72 298.645 1279.23 313.415 1277.3 314.54C1275.36 315.665 1272.08 311.367 1269.33 299.683L1269.32 299.687Z" fill="#FA4B06"/>
<path d="M1269.8 295.729C1269.8 295.729 1268.5 288.669 1272.28 284.877" stroke="#FA4B06" stroke-width="1.6" stroke-miterlimit="10"/>
<path d="M1269.41 295.867C1269.41 295.867 1264.13 292.423 1263.95 287.715" stroke="#FA4B06" stroke-width="1.6" stroke-miterlimit="10"/>
<path d="M1271.85 284.391C1271.74 284.828 1271.59 286.258 1273.24 284.97C1274.88 283.683 1274.33 282.549 1274.33 282.549C1274.33 282.549 1273.02 280.6 1271.85 284.392L1271.85 284.391Z" fill="#FA4B06"/>
<path d="M1262.9 289C1262.9 289 1264.41 291.17 1264.78 288.452C1265.14 285.733 1263.53 285.738 1263.53 285.738C1263.53 285.738 1261.27 285.84 1262.9 289.004L1262.9 289Z" fill="#FA4B06"/>
<path d="M1247.69 260.826L1239.61 280.652C1239.61 280.652 1231.48 287.836 1226.57 283.242C1221.67 278.648 1226.82 272.27 1232.2 269.21C1232.2 269.21 1221.11 260.965 1225.27 254.732C1229.76 248.007 1240.03 246.139 1247.69 260.822L1247.69 260.826Z" fill="white" stroke="#FA4B06" stroke-width="1.6" stroke-miterlimit="10"/>
<path d="M1246.12 259.81C1247.04 258.139 1249.29 256.937 1249.44 260.429C1248.36 266.656 1241.78 282.597 1240.78 283.889C1239.69 286.259 1236.68 286.38 1237.68 282.427C1238.68 278.473 1245.21 261.482 1246.12 259.81Z" fill="#FA4B06"/>
</g>
<defs>
<clipPath id="clip0_541_5113">
<rect width="101.346" height="189.682" fill="white" transform="matrix(0.951487 -0.307688 0.375696 0.926743 189 81.3975)"/>
</clipPath>
<clipPath id="clip1_541_5113">
<rect width="158.722" height="167.179" fill="white" transform="matrix(0.951487 -0.307688 0.375696 0.926743 241.895 87.3184)"/>
</clipPath>
<clipPath id="clip2_541_5113">
<rect width="326.74" height="219.674" fill="white" transform="translate(908.408) rotate(14.6095)"/>
</clipPath>
<clipPath id="clip3_541_5113">
<rect width="92" height="83" fill="white" transform="translate(0 285.819) rotate(-43.0641)"/>
</clipPath>
<clipPath id="clip4_541_5113">
<rect width="74.6155" height="78.3462" fill="white" transform="translate(1225.34 240) rotate(6.84515)"/>
</clipPath>
</defs>
</svg>
