<svg width="160" height="192" viewBox="0 0 160 192" fill="none" xmlns="http://www.w3.org/2000/svg">
<g clip-path="url(#clip0_488_4195)">
<path d="M50.4993 151.912C48.5141 161.073 47.7173 165.434 45.8631 174.595L19.4739 168.901C21.466 159.753 22.3526 155.58 24.1729 146.533L50.4993 151.912ZM53.7533 67.9126C57.9266 68.1563 61.6814 68.7647 65.0453 69.5953L65.0451 69.5963C75.7334 72.2738 82.6189 77.5283 86.4444 83.6298C90.2744 89.7389 91.0917 96.7817 89.4956 103.145C87.6115 110.595 81.5598 117.661 73.4724 120.242C64.6033 122.973 60.1057 125.186 57.546 128.603C56.2647 130.314 55.5148 132.263 54.8971 134.565C54.349 136.608 53.8726 139.053 53.2444 141.907L26.6458 137.08C28.5554 129.088 30.3803 124.479 34.5123 120.422C38.8994 116.114 45.9378 112.368 58.7084 106.197L59.1772 105.972L59.1886 105.911C63.0918 103.921 65.1573 101.625 66.0732 99.4306C67.0213 97.1593 66.6911 95.1045 66.0401 93.8742C64.9433 91.6742 62.7958 90.1422 60.2298 89.3012C57.6456 88.4544 54.5524 88.275 51.4064 88.842C45.4079 89.9231 39.1042 93.7443 35.6344 101.072L16.1616 87.8578C24.4257 70.8409 41.2531 67.1853 53.7533 67.9126Z" fill="#FABF06" stroke="white" stroke-width="2.06267"/>
<path d="M110.027 26.5038C116.576 33.4247 123.124 40.3235 129.65 47.2385C120.484 53.4382 111.295 59.6534 102.13 65.8528C100.401 64.056 98.6683 62.258 96.9358 60.4608C95.19 58.6501 93.4454 56.8384 91.7047 55.029C97.812 45.5207 103.919 36.0122 110.027 26.5038Z" fill="#FABF06" stroke="white" stroke-width="2.06267"/>
<path d="M134.319 82.8096C134.857 86.0207 135.393 89.2313 135.926 92.4407C132.169 92.4467 128.416 92.4576 124.664 92.4688C120.792 92.4805 116.922 92.4901 113.047 92.496C112.761 90.8463 112.472 89.1992 112.181 87.5547C111.885 85.8826 111.59 84.2121 111.3 82.5391C114.952 80.9627 118.6 79.3859 122.247 77.8087C125.739 76.2982 129.231 74.7872 132.728 73.2777C133.256 76.4548 133.788 79.6326 134.319 82.8096Z" fill="#FABF06" stroke="white" stroke-width="2.06267"/>
<path d="M123.575 116.563C127.303 117.327 131.029 118.092 134.759 118.861C133.373 121.766 131.988 124.676 130.602 127.586C129.201 130.526 127.799 133.465 126.399 136.401C120.137 132.048 113.877 127.694 107.621 123.322C108.33 121.808 109.036 120.294 109.741 118.78C110.458 117.24 111.175 115.7 111.896 114.162C115.792 114.966 119.684 115.765 123.575 116.563Z" fill="#FABF06" stroke="white" stroke-width="2.06267"/>
</g>
<defs>
<clipPath id="clip0_488_4195">
<rect width="130.303" height="169.147" fill="white" transform="translate(31.3229 0.80957) rotate(10.6717)"/>
</clipPath>
</defs>
</svg>
