<svg width="76" height="75" viewBox="0 0 76 75" fill="none" xmlns="http://www.w3.org/2000/svg">
<rect x="0.5" y="0.679688" width="75" height="73" rx="19.5" fill="#FA4B06"/>
<rect x="0.5" y="0.679688" width="75" height="73" rx="19.5" stroke="#FFFAE2" stroke-linecap="round"/>
<path d="M52.472 36.4277C52.472 38.7744 52.1933 40.9157 51.636 42.8517C51.0787 44.7877 50.228 46.4744 49.084 47.9117C47.94 49.3197 46.488 50.4197 44.728 51.2117L52.296 59.6597H43.76L37.996 52.6197C37.908 52.6197 37.82 52.6197 37.732 52.6197C37.6733 52.6197 37.6 52.6197 37.512 52.6197C34.96 52.6197 32.7307 52.2384 30.824 51.4757C28.9467 50.6837 27.392 49.5837 26.16 48.1757C24.9573 46.7384 24.048 45.0224 23.432 43.0277C22.8453 41.033 22.552 38.8184 22.552 36.3837C22.552 33.1277 23.08 30.297 24.136 27.8917C25.2213 25.4864 26.864 23.6237 29.064 22.3037C31.2933 20.9544 34.124 20.2797 37.556 20.2797C40.9587 20.2797 43.76 20.9544 45.96 22.3037C48.16 23.6237 49.788 25.501 50.844 27.9357C51.9293 30.341 52.472 33.1717 52.472 36.4277ZM29.548 36.4277C29.548 38.6277 29.8267 40.5197 30.384 42.1037C30.9413 43.6877 31.8067 44.905 32.98 45.7557C34.1533 46.6064 35.664 47.0317 37.512 47.0317C39.4187 47.0317 40.944 46.6064 42.088 45.7557C43.2613 44.905 44.112 43.6877 44.64 42.1037C45.1973 40.5197 45.476 38.6277 45.476 36.4277C45.476 33.113 44.86 30.517 43.628 28.6397C42.396 26.7624 40.372 25.8237 37.556 25.8237C35.6787 25.8237 34.1533 26.249 32.98 27.0997C31.8067 27.9504 30.9413 29.1677 30.384 30.7517C29.8267 32.3357 29.548 34.2277 29.548 36.4277Z" fill="#FFFAE2"/>
</svg>
