<svg width="64" height="66" viewBox="0 0 64 66" fill="none" xmlns="http://www.w3.org/2000/svg">
<path d="M17.4989 58.2669C15.9349 61.6088 14.6097 60.9832 14.0499 60.7198C13.6548 60.5305 13.1774 60.1272 13.0704 59.6745C12.9469 59.1559 13.2515 58.3986 13.9429 57.5425C14.6755 56.6206 14.5274 55.2706 13.5972 54.5298C12.6753 53.7972 11.3253 53.9454 10.5845 54.8755C8.65012 57.312 8.60074 59.3617 8.89707 60.6458C9.4815 63.1316 11.597 64.2923 12.2308 64.5968C13.5807 65.2307 18.2315 66.7782 21.3759 60.086L22.7423 57.1721L18.8653 55.353L17.4989 58.2669Z" fill="#EA4E17"/>
<path d="M38.9582 20.9211L40.1435 18.3941C40.4563 17.7273 40.1682 16.9289 39.5015 16.6161C38.8347 16.3033 38.0363 16.5914 37.7235 17.2581L36.5546 19.7523C23.3679 14.1137 7.97513 19.8922 1.82626 32.9802C1.25006 34.1984 0.780867 35.4496 0.402222 36.7008C2.68232 34.2231 6.83919 33.5646 10.5845 35.3179C15.0377 37.4087 17.2272 42.15 15.474 45.8953C17.1202 42.3969 21.6311 40.9976 25.8538 42.5368L20.3716 54.2008L22.7917 55.3367L28.2327 43.7633C31.6569 46.1175 33.1715 50.1838 31.624 53.4764C33.3855 49.7311 38.4232 48.3894 42.8846 50.4884C46.6299 52.2499 48.77 55.8717 48.3255 59.2055C49.0499 58.1189 49.7084 56.9583 50.2764 55.7318C56.31 42.8826 51.2312 27.6627 38.9664 20.9211H38.9582Z" fill="#EA4E17"/>
<path d="M45.6339 18.4108L53.6184 2.83691" stroke="#EA4E17" stroke-width="3" stroke-linecap="round" stroke-linejoin="round"/>
<path d="M32.9822 14.863L39.8143 1.50342" stroke="#EA4E17" stroke-width="3" stroke-linecap="round" stroke-linejoin="round"/>
<path d="M20.454 13.2743L26.4135 1.72559" stroke="#EA4E17" stroke-width="3" stroke-linecap="round" stroke-linejoin="round"/>
<path d="M54.7708 27.4651L61.6028 14.1055" stroke="#EA4E17" stroke-width="3" stroke-linecap="round" stroke-linejoin="round"/>
</svg>
