<svg width="48" height="70" viewBox="0 0 48 70" fill="none" xmlns="http://www.w3.org/2000/svg">
<path d="M39.4421 29.3203C41.5082 26.3076 42.7347 22.6611 42.7347 18.7347C42.7347 8.38782 34.3468 0 23.9999 0C13.6531 0 5.26523 8.38782 5.26523 18.7347C5.26523 22.6611 6.49171 26.3076 8.5578 29.3203C3.75888 33.576 0.713257 39.7825 0.713257 46.7133C0.713257 59.579 11.1425 70 23.9999 70C36.8574 70 47.2866 59.5708 47.2949 46.7133C47.2949 39.7825 44.241 33.5842 39.4503 29.3203H39.4421ZM14.7643 14.5696C14.7643 13.2279 15.8508 12.1413 17.1926 12.1413C18.5343 12.1413 19.6208 13.2279 19.6208 14.5696C19.6208 15.9113 18.5343 16.9979 17.1926 16.9979C15.8508 16.9979 14.7643 15.9113 14.7643 14.5696ZM17.884 21.2288C17.7358 20.5456 18.1062 19.8542 18.773 19.6072L23.1521 18.0268C25.4816 19.1134 24.321 21.4511 24.321 21.4511L19.4315 22.1919C18.7401 22.2989 18.098 21.8791 17.884 21.2288ZM23.5637 59.5543C22.189 59.5543 21.0696 58.4349 21.0696 57.0602C21.0696 55.6856 22.189 54.5661 23.5637 54.5661C24.9383 54.5661 26.0578 55.6856 26.0578 57.0602C26.0578 58.4349 24.9383 59.5543 23.5637 59.5543ZM23.5637 49.1416C22.189 49.1416 21.0696 48.0303 21.0696 46.6475C21.0696 45.2646 22.189 44.1533 23.5637 44.1533C24.9383 44.1533 26.0578 45.2728 26.0578 46.6475C26.0578 48.0221 24.9383 49.1416 23.5637 49.1416ZM23.5637 38.7288C22.189 38.7288 21.0696 37.6094 21.0696 36.2347C21.0696 34.8601 22.189 33.7406 23.5637 33.7406C24.9383 33.7406 26.0578 34.8601 26.0578 36.2347C26.0578 37.6094 24.9383 38.7288 23.5637 38.7288ZM30.0418 16.9979C28.7001 16.9979 27.6135 15.9113 27.6135 14.5696C27.6135 13.2279 28.7001 12.1413 30.0418 12.1413C31.3835 12.1413 32.4701 13.2279 32.4701 14.5696C32.4701 15.9113 31.3835 16.9979 30.0418 16.9979Z" fill="#EA4E17"/>
</svg>
