<svg width="71" height="71" viewBox="0 0 71 71" fill="none" xmlns="http://www.w3.org/2000/svg">
<g clip-path="url(#clip0_1185_4000)">
<path d="M35.4999 16.2339C25.0871 16.2339 16.6499 24.6711 16.6499 35.0838C16.6499 45.4966 25.0871 53.9338 35.4999 53.9338C45.9126 53.9338 54.3498 45.4966 54.3498 35.0838C54.3498 24.6711 45.9126 16.2339 35.4999 16.2339Z" fill="#EA4E17"/>
<path d="M38.2408 0.0839844H32.7505V10.6531H38.2408V0.0839844Z" fill="#EA4E17"/>
<path d="M38.2408 59.5146H32.7505V70.0838H38.2408V59.5146Z" fill="#EA4E17"/>
<path d="M12.6904 8.38824L8.80811 12.2705L16.2816 19.744L20.1639 15.8618L12.6904 8.38824Z" fill="#EA4E17"/>
<path d="M50.835 54.2959L58.3091 61.7701L62.1861 57.8931L54.7202 50.4189L50.835 54.2959Z" fill="#EA4E17"/>
<path d="M11.0691 32.3345H0.5V37.8248H11.0691V32.3345Z" fill="#EA4E17"/>
<path d="M59.9307 32.3345V37.8248H70.4998V32.3345H59.9307Z" fill="#EA4E17"/>
<path d="M8.81396 57.8931L12.691 61.7701L20.1651 54.2959L16.2799 50.4189L8.81396 57.8931Z" fill="#EA4E17"/>
<path d="M62.1861 12.2749L58.3091 8.39795L50.835 15.8638L54.7202 19.7491L62.1861 12.2749Z" fill="#EA4E17"/>
</g>
<defs>
<clipPath id="clip0_1185_4000">
<rect width="70" height="70" fill="white" transform="translate(0.5 0.0839844)"/>
</clipPath>
</defs>
</svg>
