<svg width="175" height="30" viewBox="0 0 175 30" fill="none" xmlns="http://www.w3.org/2000/svg">
<path d="M8.088 18.6757L7.92 15.2437C8.544 15.1717 9.336 15.1237 10.2 15.0517V13.8757C9.552 13.9237 8.952 13.9957 8.448 14.0437L8.28 11.0917C8.88 11.0197 9.528 10.9717 10.2 10.9237V9.21969L13.272 9.26769V10.7317C13.872 10.7077 14.448 10.6837 14.952 10.6837L15.024 13.6117C14.52 13.6117 13.92 13.6357 13.296 13.6837V14.9077C14.208 14.8597 15 14.8357 15.576 14.8357L15.672 18.2437C14.016 18.2677 9.792 18.4837 8.088 18.6757ZM3.264 16.1557L0.936 13.8277C2.52 11.9797 3.12 11.3797 4.728 9.67569L7.032 11.9317C5.52 13.4677 4.92 14.1877 3.264 16.1557ZM16.68 14.7397L16.224 10.8517C18.6 10.5877 19.656 10.4917 22.08 10.3477L22.32 14.2117C20.352 14.3077 18.672 14.4517 16.68 14.7397ZM4.2 28.2517C4.056 26.4997 3.984 24.6277 3.912 22.3477L3.312 23.1157L0.984 20.8837C2.688 18.6277 3.48 17.4277 5.28 15.2917L7.752 17.3077C6.648 18.7717 6.024 19.5637 5.208 20.6197L7.056 20.4757C7.128 23.4037 7.272 26.0197 7.392 27.9397L4.2 28.2517ZM18.192 28.1557C18.192 25.3957 18.192 23.1397 18.168 20.6677C17.568 20.7157 16.968 20.7877 16.416 20.8597L16.08 16.9957C18.408 16.7317 20.184 16.6357 22.632 16.5877L22.776 20.4517C22.344 20.4517 21.888 20.4757 21.432 20.4757C21.456 23.4517 21.456 26.0197 21.432 28.1077L18.192 28.1557ZM8.52 28.1557L8.16 24.7477C8.784 24.6517 9.576 24.5317 10.44 24.4357C10.44 24.0037 10.416 23.5717 10.416 23.1157C9.744 23.1877 9.096 23.2357 8.544 23.2837L8.4 20.3317C9.048 20.2837 9.72 20.2117 10.416 20.1637C10.416 19.7557 10.44 19.3957 10.44 19.1317L13.512 19.0117V19.9957C14.328 19.9477 15.096 19.9237 15.768 19.9237L15.84 22.8517C15.192 22.8517 14.376 22.8997 13.536 22.9237V24.0757C14.64 23.9797 15.648 23.8837 16.344 23.8357L16.608 27.2197C14.784 27.3637 10.392 27.8677 8.52 28.1557ZM42.504 25.9477L39.312 23.8357C41.64 21.1717 41.376 18.0037 38.736 16.6597C37.464 22.2517 34.248 25.8037 30.984 25.2277C28.56 24.7957 27.096 23.0197 27.096 20.4997C27.096 16.1317 31.056 12.2677 36.168 12.2677C41.064 12.2677 44.952 15.2917 44.952 20.0677C44.952 22.2757 44.064 24.3877 42.504 25.9477ZM31.656 21.6277C32.52 21.7957 34.152 19.1077 34.968 16.1557C32.232 16.4917 30.72 18.6517 30.672 20.1637C30.672 20.7157 30.816 21.4837 31.656 21.6277ZM96.472 28.2277C92.008 28.2277 89.392 26.8117 89.152 24.2917C89.008 22.7317 89.896 21.0517 91.72 19.4917C91.264 19.2757 90.76 19.1077 90.136 18.9397C90.304 17.4997 90.424 16.3477 90.544 15.3157C89.632 15.3157 88.648 15.2917 87.52 15.2677L87.688 11.6197C88.768 11.6197 89.848 11.6197 90.928 11.6197C91 10.9717 91.072 10.3477 91.12 9.77169L95.08 10.0357C95.008 10.5157 94.96 11.0197 94.888 11.5477C95.896 11.5237 96.88 11.4757 97.864 11.4037L97.96 14.9797C96.928 15.0757 95.704 15.1477 94.408 15.1957C94.312 15.8677 94.24 16.4917 94.168 17.0917C94.456 17.2117 94.672 17.3077 94.888 17.4037C96.04 16.8037 97.12 16.3477 98.224 15.9637L99.136 19.4197C98.752 19.5397 98.368 19.6837 97.96 19.8277C98.464 20.4757 98.8 20.9317 99.088 21.3637L96.28 23.5237C95.752 22.7557 95.2 22.0837 94.648 21.5317C93.472 22.2757 92.8 23.0437 92.824 23.6197C92.872 24.6997 95.008 24.9637 98.992 24.5077L99.064 28.0837C98.152 28.1797 97.288 28.2277 96.472 28.2277ZM120.184 27.7477L116.464 27.0037C117.4 23.6917 118.288 19.4197 117.736 10.5877C120.256 10.4677 122.824 10.4197 125.392 10.4197C126.328 10.4197 127.168 10.4197 128.056 10.4437C128.032 12.1717 128.032 14.3317 128.032 16.5637C128.032 21.0277 128.056 25.8277 128.056 28.2517H124.264V22.9237C123.328 22.9477 122.2 22.9717 121.096 23.0197C120.832 24.7957 120.496 26.3077 120.184 27.7477ZM107.728 24.6517C107.584 20.6437 107.536 15.0517 107.488 12.7477C111.976 12.6517 113.512 12.6277 116.248 12.6997L116.08 24.6517H107.728ZM121.624 13.8517V15.6037C122.656 15.5077 123.424 15.4597 124.264 15.4357V13.7077C123.448 13.7077 122.68 13.7557 121.624 13.8517ZM110.8 15.7957C110.824 16.3237 110.824 16.8517 110.824 17.4277H112.936C112.936 16.7797 112.936 16.2277 112.96 15.7477C112.192 15.7477 111.664 15.7717 110.8 15.7957ZM121.552 18.5557C121.504 19.0597 121.48 19.5637 121.432 20.0437C122.44 19.9957 123.424 19.9717 124.264 19.9477V18.4357C123.4 18.4597 122.584 18.5077 121.552 18.5557ZM110.872 20.0437C110.896 20.5237 110.896 21.0037 110.896 21.4837H112.84C112.84 21.0037 112.864 20.5237 112.864 20.0437H110.872ZM143.68 28.0117V21.2437C143.296 21.7477 143.08 21.9877 142.864 22.2517L140.632 20.7637C140.608 22.3717 140.584 24.2917 140.512 25.6597H134.536C134.488 24.0517 134.44 22.6837 134.416 21.4357C134.08 22.1317 133.768 22.7077 133.48 23.2117L131.08 21.6037C132.28 19.5157 133.288 17.3317 134.152 15.0757L132.52 15.1477L132.472 11.9557C135.568 11.8117 138.184 11.7397 140.224 11.7397V14.9797C139.24 15.0037 138.28 15.0037 137.368 15.0277C136.96 16.0837 136.576 17.0197 136.168 17.9557C137.56 17.9317 138.904 17.9317 140.68 17.9557C140.68 18.3637 140.656 19.1317 140.656 20.0677C142.48 18.0997 143.632 16.1077 144.352 13.7077C144.112 13.7077 143.92 13.7077 143.656 13.7557C143.656 14.1397 143.68 14.5237 143.68 14.8597L140.872 15.0517C140.8 13.6357 140.776 11.8357 140.824 10.8037L145.048 10.6117C145.144 9.93969 145.264 9.26769 145.36 8.54769L148.6 8.76369C148.528 9.36369 148.432 9.93969 148.36 10.4917H152.488C152.44 12.6517 152.368 13.4917 152.176 14.9797L149.344 14.8117C149.416 14.3557 149.488 13.9237 149.536 13.4917C148.888 13.4677 148.312 13.4677 147.76 13.4677C147.472 14.5957 147.088 15.6757 146.584 16.8037C146.896 16.8037 147.208 16.7797 147.52 16.7797C147.856 16.1317 148.12 15.6517 148.36 15.1237L150.736 15.7477L150.256 16.7317C151.168 16.7317 151.912 16.7077 152.176 16.7077L152.2 19.4677C151.888 19.4677 151.24 19.4917 150.424 19.4917V20.3317C151.12 20.3317 151.672 20.3077 151.936 20.3077L151.96 21.7237C151.744 21.7477 151.528 21.7477 150.424 21.7477C150.4 22.0357 150.424 22.2997 150.424 22.5637C151.072 22.5637 151.624 22.5397 151.888 22.5397L151.912 23.9797C151.576 23.9797 151.048 24.0037 150.424 24.0037V24.8197C151.024 24.7957 151.672 24.7957 152.392 24.7957L152.416 27.9877C150.448 27.9877 148.552 28.0117 146.176 28.0117H143.68ZM146.824 20.3797C147.28 20.3797 147.76 20.3797 148.264 20.3557V19.5397C147.544 19.5397 147.16 19.5397 146.824 19.5637V20.3797ZM137.056 23.1157C137.368 23.1157 137.656 23.0917 138.016 23.0917C138.064 22.1317 138.088 21.2677 138.112 20.5957C137.488 20.5957 137.296 20.5957 137.032 20.6197C137.032 22.1077 137.032 22.5637 137.056 23.1157ZM146.824 22.6117C147.28 22.6117 147.76 22.6117 148.264 22.5877V21.7957C147.76 21.7957 147.28 21.8197 146.824 21.8197V22.6117ZM146.824 24.8437C147.328 24.8437 147.808 24.8437 148.264 24.8197V24.0277C147.76 24.0277 147.28 24.0517 146.824 24.0517V24.8437ZM159.352 27.0037C158.464 24.2677 158.032 21.2677 158.032 18.0517C158.032 15.7717 158.248 13.3957 158.68 10.9237L162.664 11.5717C161.632 16.5397 161.872 22.4677 163.24 25.7797L159.352 27.0037ZM174.064 25.5157C172.048 25.8517 168.184 25.5397 165.688 24.8437L166.48 21.1237C168.808 21.7957 171.424 22.0117 174.256 21.7957L174.064 25.5157ZM166.408 16.4917L166.576 12.7957C168.4 12.8437 172.12 12.7717 173.32 12.6517L173.512 16.3477C172.528 16.4677 168.688 16.5397 166.408 16.4917Z" fill="#231815"/>
<path d="M64.898 13.7637C64.864 13.0837 64.864 12.2677 64.864 11.3497C64.456 11.7917 64.082 12.2337 63.742 12.6077L61.498 10.0917C62.756 8.83369 63.742 7.88169 64.66 6.92969C64.082 6.96369 63.436 6.99769 62.756 7.06569L62.722 2.37369L64.66 2.27169V0.503687L68.298 0.639685C68.298 1.11569 68.264 1.62569 68.264 2.13569C69.012 2.10169 69.726 2.10169 70.372 2.10169V6.72569C69.658 6.72569 69.012 6.72569 68.4 6.75969C69.284 7.50769 70.304 8.25569 71.256 8.90169L69.386 11.7577C68.91 11.3837 68.502 11.0437 68.094 10.7377L68.196 13.6957L64.898 13.7637ZM77.376 13.6957L74.078 13.6277C74.044 12.9137 74.044 12.0297 74.01 11.0777C73.67 11.5197 73.33 11.9617 72.99 12.3697L70.576 10.3637C71.766 9.07169 72.65 7.98369 73.5 6.92969C72.99 6.99769 72.446 7.03169 71.868 7.06569L71.8 2.37369L73.84 2.27169V0.503687L77.444 0.639685C77.444 1.11569 77.444 1.62569 77.41 2.13569C78.158 2.10169 78.838 2.10169 79.45 2.10169V6.72569C78.736 6.72569 78.056 6.72569 77.444 6.75969V6.82769C78.396 7.64369 79.518 8.52769 80.3 9.10569L78.362 11.9277C77.988 11.5877 77.648 11.2477 77.274 10.9417L77.376 13.6957ZM53.882 25.3237C53.814 22.9777 53.78 21.0057 53.746 19.2717C53.406 19.9177 53.066 20.5297 52.726 21.1417L49.564 18.6597C51.264 15.7017 52.556 12.7097 53.712 9.61569L51.366 9.71769L51.298 5.19569C55.004 5.02569 58.268 4.88969 61.6 4.88969V9.47969C60.41 9.51369 59.288 9.51369 58.234 9.51369C57.656 11.0437 57.112 12.3697 56.568 13.6957C58.812 13.5937 60.104 13.6277 62.586 13.6957C62.552 15.3617 62.45 21.5157 62.212 25.3237C58.676 25.2897 57.452 25.2897 53.882 25.3237ZM77.104 29.1317C74.112 29.1317 69.93 28.6217 67.312 27.3637C67.176 27.9077 67.074 28.4517 66.938 28.9617L62.926 28.4517C63.436 25.8677 63.742 23.9977 64.048 21.4477L68.06 21.9237C68.026 22.4677 67.958 23.0797 67.89 23.6917C68.264 23.8617 68.672 24.0317 69.114 24.1677V18.7277C67.448 18.7957 65.918 18.8977 64.626 18.9997L64.422 14.6817C67.414 14.4777 76.628 14.1717 79.246 14.1717C79.45 17.1637 79.45 18.7617 78.668 21.1077L75.336 20.3257C75.642 19.4417 75.812 18.8977 75.914 18.4897C75.2 18.5237 74.452 18.5237 73.636 18.5577C73.67 19.4417 73.67 20.3597 73.67 21.2437C74.826 21.1757 75.71 21.1757 77.172 21.1417L77.24 24.0997H73.67V25.0177C75.812 25.2557 77.852 25.2557 78.94 25.1537L78.77 29.0637C78.294 29.0977 77.716 29.1317 77.104 29.1317ZM57.452 21.6857C57.86 21.6857 58.234 21.6857 58.642 21.6517L58.812 17.4017C58.302 17.4017 57.86 17.4017 57.418 17.4357C57.418 18.6597 57.418 20.0877 57.452 21.6857Z" fill="#FA4B06"/>
</svg>
