<svg width="265" height="29" viewBox="0 0 265 29" fill="none" xmlns="http://www.w3.org/2000/svg">
<path d="M8.088 18.6757L7.92 15.2437C8.544 15.1717 9.336 15.1237 10.2 15.0517V13.8757C9.552 13.9237 8.952 13.9957 8.448 14.0437L8.28 11.0917C8.88 11.0197 9.528 10.9717 10.2 10.9237V9.21969L13.272 9.26769V10.7317C13.872 10.7077 14.448 10.6837 14.952 10.6837L15.024 13.6117C14.52 13.6117 13.92 13.6357 13.296 13.6837V14.9077C14.208 14.8597 15 14.8357 15.576 14.8357L15.672 18.2437C14.016 18.2677 9.792 18.4837 8.088 18.6757ZM3.264 16.1557L0.936 13.8277C2.52 11.9797 3.12 11.3797 4.728 9.67569L7.032 11.9317C5.52 13.4677 4.92 14.1877 3.264 16.1557ZM16.68 14.7397L16.224 10.8517C18.6 10.5877 19.656 10.4917 22.08 10.3477L22.32 14.2117C20.352 14.3077 18.672 14.4517 16.68 14.7397ZM4.2 28.2517C4.056 26.4997 3.984 24.6277 3.912 22.3477L3.312 23.1157L0.984 20.8837C2.688 18.6277 3.48 17.4277 5.28 15.2917L7.752 17.3077C6.648 18.7717 6.024 19.5637 5.208 20.6197L7.056 20.4757C7.128 23.4037 7.272 26.0197 7.392 27.9397L4.2 28.2517ZM18.192 28.1557C18.192 25.3957 18.192 23.1397 18.168 20.6677C17.568 20.7157 16.968 20.7877 16.416 20.8597L16.08 16.9957C18.408 16.7317 20.184 16.6357 22.632 16.5877L22.776 20.4517C22.344 20.4517 21.888 20.4757 21.432 20.4757C21.456 23.4517 21.456 26.0197 21.432 28.1077L18.192 28.1557ZM8.52 28.1557L8.16 24.7477C8.784 24.6517 9.576 24.5317 10.44 24.4357C10.44 24.0037 10.416 23.5717 10.416 23.1157C9.744 23.1877 9.096 23.2357 8.544 23.2837L8.4 20.3317C9.048 20.2837 9.72 20.2117 10.416 20.1637C10.416 19.7557 10.44 19.3957 10.44 19.1317L13.512 19.0117V19.9957C14.328 19.9477 15.096 19.9237 15.768 19.9237L15.84 22.8517C15.192 22.8517 14.376 22.8997 13.536 22.9237V24.0757C14.64 23.9797 15.648 23.8837 16.344 23.8357L16.608 27.2197C14.784 27.3637 10.392 27.8677 8.52 28.1557ZM45.624 25.9477L42.432 23.8357C44.76 21.1717 44.496 18.0037 41.856 16.6597C40.584 22.2517 37.368 25.8037 34.104 25.2277C31.68 24.7957 30.216 23.0197 30.216 20.4997C30.216 16.1317 34.176 12.2677 39.288 12.2677C44.184 12.2677 48.072 15.2917 48.072 20.0677C48.072 22.2757 47.184 24.3877 45.624 25.9477ZM34.776 21.6277C35.64 21.7957 37.272 19.1077 38.088 16.1557C35.352 16.4917 33.84 18.6517 33.792 20.1637C33.792 20.7157 33.936 21.4837 34.776 21.6277ZM133.592 28.2277C129.128 28.2277 126.512 26.8117 126.272 24.2917C126.128 22.7317 127.016 21.0517 128.84 19.4917C128.384 19.2757 127.88 19.1077 127.256 18.9397C127.424 17.4997 127.544 16.3477 127.664 15.3157C126.752 15.3157 125.768 15.2917 124.64 15.2677L124.808 11.6197C125.888 11.6197 126.968 11.6197 128.048 11.6197C128.12 10.9717 128.192 10.3477 128.24 9.77169L132.2 10.0357C132.128 10.5157 132.08 11.0197 132.008 11.5477C133.016 11.5237 134 11.4757 134.984 11.4037L135.08 14.9797C134.048 15.0757 132.824 15.1477 131.528 15.1957C131.432 15.8677 131.36 16.4917 131.288 17.0917C131.576 17.2117 131.792 17.3077 132.008 17.4037C133.16 16.8037 134.24 16.3477 135.344 15.9637L136.256 19.4197C135.872 19.5397 135.488 19.6837 135.08 19.8277C135.584 20.4757 135.92 20.9317 136.208 21.3637L133.4 23.5237C132.872 22.7557 132.32 22.0837 131.768 21.5317C130.592 22.2757 129.92 23.0437 129.944 23.6197C129.992 24.6997 132.128 24.9637 136.112 24.5077L136.184 28.0837C135.272 28.1797 134.408 28.2277 133.592 28.2277ZM154.472 27.1477L152.864 23.4277C157.856 21.2917 159.032 20.4037 158.744 19.1077C158.264 16.8997 155.504 16.6837 147.728 18.2197L147.224 14.2597C150.296 13.4677 152.912 13.0837 155.144 13.0837C159.968 13.0837 162.728 14.9797 163.04 18.5077C163.064 18.7477 163.064 18.8677 163.064 18.9877C163.064 22.3477 160.064 25.2037 154.472 27.1477ZM181.784 27.6757C179.84 26.2837 174.68 22.0357 172.328 19.8997C174.56 17.3317 178.856 12.3877 180.872 10.1317L184.136 12.9637C182.624 14.6437 179.792 17.8837 178.352 19.4677C179.144 20.1877 182.048 22.3957 184.832 24.4117L181.784 27.6757ZM203.192 28.4677C200.48 28.4677 198.44 27.0037 198.44 25.0837C198.44 21.2197 203.864 20.1157 205.736 23.3317C205.808 23.1157 205.832 22.8277 205.832 22.4677C205.832 20.1637 203.192 19.3717 198.752 20.3557L198.224 19.0117C199.52 17.2357 200.264 16.1317 201.392 14.4037C200.24 14.3797 198.776 14.3797 197.456 14.4037L197.408 10.7797C198.032 10.7797 198.656 10.7797 199.256 10.7797C201.464 10.7797 203.72 10.8037 207.416 10.8997C205.808 13.6837 204.992 15.0037 203.816 16.9237C207.08 16.7317 209.552 19.0357 209.552 22.2757C209.552 26.0197 207.032 28.4677 203.192 28.4677ZM202.688 25.7317C203.312 25.7797 203.96 25.7077 204.368 25.4677C204.296 23.4517 201.632 23.5477 201.536 24.6037C201.512 25.3237 202.016 25.6837 202.688 25.7317ZM225.728 28.2517L225.464 20.2117C226.496 20.2117 227.6 20.1877 229.016 20.1637V18.5077C227.336 18.5317 225.8 18.5317 224.84 18.5557L224.768 14.8117C225.944 14.8117 227.456 14.7877 229.016 14.7877V12.8197L227.264 13.2517L226.472 9.93969C229.88 9.07569 231.344 8.83569 234.296 8.16369L235.088 11.4037C234.44 11.5717 233.744 11.7157 232.808 11.9317V14.7637C234.392 14.7397 235.832 14.7397 236.864 14.7397L236.912 18.4357C235.976 18.4357 234.464 18.4597 232.808 18.4597V20.0917C233.96 20.0917 235.112 20.1157 236.456 20.1397L236.288 28.2517H225.728ZM222.2 14.5957C220.64 14.3797 219.296 14.1637 217.736 14.0437L218.192 10.6357C220.064 10.8037 221.36 10.9477 222.656 11.1397L222.2 14.5957ZM221.432 20.1877C219.392 19.8757 218.84 19.8037 216.968 19.6837L217.328 16.2037C219.392 16.3957 220.736 16.5637 221.912 16.7797L221.432 20.1877ZM219.248 27.5557L217.448 24.4597C218.504 23.8597 219.584 23.2357 221.96 21.8197L223.784 24.8677C222.056 25.9957 221.24 26.4757 219.248 27.5557ZM229.232 25.0117H232.736C232.784 24.4357 232.808 23.8837 232.808 23.4037C231.56 23.3797 230.576 23.4277 229.208 23.4757C229.208 23.9557 229.232 24.4597 229.232 25.0117ZM244.496 28.5637L244.376 25.7077C245.168 25.6357 246.44 25.5637 247.856 25.4677C247.856 25.2517 247.856 24.9637 247.856 24.5797C247.184 24.6037 246.488 24.6277 245.744 24.6517L245.672 22.7557C246.488 22.7317 247.184 22.7077 247.832 22.6837C247.832 22.4437 247.832 22.2037 247.832 21.9397H244.28C244.184 20.3797 244.088 16.5637 244.016 15.1957C245.384 15.1957 246.296 15.1957 247.808 15.1477C247.808 14.9557 247.808 14.7397 247.808 14.5477C246.512 14.5957 245.288 14.6197 244.352 14.6677L244.232 12.3157C245.24 12.2917 246.488 12.2437 247.784 12.1957C247.784 12.0037 247.784 11.8117 247.784 11.6437C247.088 11.7637 246.392 11.9077 245.624 12.0517L245.072 9.72369C248 9.14769 249.632 8.97969 252.416 8.54769L252.896 10.8517C252.08 10.9717 251.36 11.0677 250.664 11.1637C250.664 11.4277 250.664 11.7637 250.664 12.1237C252.056 12.0997 253.328 12.0757 254.288 12.0757V14.4517C253.328 14.4517 252.032 14.4757 250.688 14.4997C250.688 14.6917 250.688 14.9077 250.688 15.1237C251.936 15.1237 253.184 15.1237 254.48 15.1477C254.48 17.0917 254.384 19.9957 254.288 21.9397H250.712C250.712 22.1557 250.712 22.3957 250.712 22.6117C251.432 22.5877 252.2 22.5877 253.088 22.5877L253.04 24.5077C252.2 24.5077 251.432 24.5077 250.712 24.5317C250.736 24.8197 250.736 25.0597 250.736 25.2517C252.032 25.1317 253.232 25.0357 253.952 24.9157L254.264 27.7237C252.08 28.1317 246.752 28.4677 244.496 28.5637ZM258.68 25.6117L255.44 24.9637C255.92 23.1397 256.328 20.5717 256.616 17.9557C256.232 17.9797 255.824 18.0277 255.392 18.0517L255.2 14.5957C255.776 14.5477 256.376 14.4997 256.952 14.4757C257.024 13.4917 257.096 12.5797 257.12 11.7397L260.408 11.9077C260.36 12.6277 260.312 13.4437 260.24 14.3077C261.704 14.2597 263.144 14.2597 264.512 14.3317C264.488 20.5477 264.152 22.9477 262.376 28.0357L259.04 26.6437C260.768 22.7557 260.912 21.0997 261.08 17.8597C260.696 17.8597 260.288 17.8597 259.88 17.8597C259.568 20.5957 259.16 23.4277 258.68 25.6117ZM250.688 17.7877C251.048 17.7877 251.408 17.7877 251.816 17.7877C251.816 17.5237 251.816 17.2597 251.84 16.9957C251.432 16.9957 251.048 16.9717 250.688 16.9717C250.688 17.2357 250.688 17.4997 250.688 17.7877ZM246.728 17.0437C246.728 17.2837 246.728 17.5477 246.752 17.8117C247.136 17.8117 247.472 17.7877 247.808 17.7877C247.808 17.5237 247.808 17.2597 247.808 16.9957C247.448 17.0197 247.088 17.0197 246.728 17.0437ZM250.688 19.1077C250.688 19.3717 250.688 19.6117 250.688 19.8757C251.024 19.8757 251.36 19.8757 251.72 19.8757C251.72 19.6117 251.744 19.3717 251.744 19.1077C251.408 19.1077 251.048 19.1077 250.688 19.1077ZM246.824 19.8757C247.184 19.8757 247.496 19.8757 247.808 19.8757C247.808 19.6357 247.808 19.3717 247.808 19.1077C247.496 19.1077 247.136 19.1317 246.8 19.1317C246.8 19.3717 246.824 19.6357 246.824 19.8757Z" fill="#231815"/>
<path d="M59.62 28.2137L56.016 24.0997C58.872 21.8217 61.286 20.0197 63.564 18.2177C61.524 18.3197 59.518 18.4557 57.444 18.5917L57.274 13.0837C60.198 12.8797 62.986 12.7097 65.774 12.6077V9.68369L59.076 9.88769L59.008 4.82169C61.354 4.71969 63.564 4.65169 65.774 4.58369C65.774 2.95169 65.774 1.69369 65.808 0.979687H71.01C70.976 1.72769 70.976 2.95169 70.976 4.48169H77.878V9.51369C75.6 9.51369 73.322 9.54769 70.942 9.58169V12.4717C73.696 12.4377 76.586 12.4377 79.748 12.4377V18.0137C76.926 17.9797 74.24 17.9797 71.588 18.0137C74.512 19.8497 77.198 21.2097 80.87 22.9437L78.286 27.4657C75.872 26.1737 73.628 24.8817 71.01 23.2157C71.044 25.6637 71.078 27.7037 71.112 28.8937H65.91C65.876 27.8737 65.876 25.5617 65.842 22.6717C63.836 24.4737 61.694 26.3777 59.62 28.2137ZM99.91 28.7917C99.91 27.7717 99.876 25.9017 99.842 23.5557C97.836 25.0517 95.66 26.6497 93.518 28.3157L90.594 24.2357C93.076 22.5357 95.354 21.0397 97.428 19.6457C94.844 19.7137 92.6 19.7817 91.342 19.8497L91.274 15.0557C92.838 14.9877 96.17 14.9197 99.808 14.8517C99.774 12.3697 99.774 9.92169 99.774 7.74569C97.53 7.77969 95.354 7.84769 93.382 7.88169V3.18969C95.32 3.15569 97.496 3.12169 99.774 3.05369C99.774 2.27169 99.808 1.62569 99.808 1.14969H105.01C105.01 1.62569 104.976 2.23769 104.976 2.98569C107.322 2.95169 109.634 2.91769 111.606 2.91769L111.538 7.64369C109.43 7.60969 107.22 7.60969 104.942 7.64369C104.942 9.81969 104.942 12.3017 104.976 14.7837L113.544 14.7157V19.4757C112.354 19.4757 110.008 19.4757 107.22 19.5097C109.328 20.9717 111.538 22.2637 114.088 23.6237L111.504 27.7717C109.43 26.4797 107.39 25.1877 105.01 23.3857C105.044 25.6297 105.078 27.5677 105.112 28.7917H99.91ZM110.246 14.1717L106.03 13.2197C106.676 11.3157 106.846 10.8397 107.322 8.52769L111.674 9.30969C111.164 11.4177 111.028 11.8937 110.246 14.1717ZM94.436 14.2737C93.824 12.4037 93.62 12.0637 93.11 9.61569L97.326 8.66369C97.836 10.8397 98.074 11.3837 98.618 13.1177L94.436 14.2737Z" fill="#FA4B06"/>
</svg>
