<svg width="209" height="31" viewBox="0 0 209 31" fill="none" xmlns="http://www.w3.org/2000/svg">
<path d="M4.006 28.3297L0.334 23.7057C3.496 21.4957 5.944 19.5237 7.916 17.4497C5.876 15.5457 3.836 13.6757 1.932 11.9757L6.692 7.72569C8.222 9.08569 9.922 10.6497 11.656 12.2477C12.71 10.2417 13.56 7.99769 14.308 5.31169L20.53 6.63769C19.646 10.5137 18.218 13.8457 16.382 16.7697C18.014 18.3677 19.544 19.8977 20.802 21.2237L16.178 25.6097C15.09 24.4877 13.798 23.1617 12.404 21.7677C9.956 24.3177 7.1 26.4597 4.006 28.3297ZM42.664 27.9217L39.944 22.4477C49.26 18.9457 51.912 15.5117 54.632 8.77969L60.174 11.2617C57.692 19.6937 51.402 24.8957 42.664 27.9217ZM44.534 14.2197C42.052 12.9957 39.468 11.9417 36.51 11.0237L38.55 6.09369C41.304 6.70569 44.534 7.89569 46.71 9.28969L44.534 14.2197ZM76.664 25.8137L70.986 23.5357C72.72 20.0677 74.658 13.1657 75.304 8.60969L81.594 9.56169C80.404 15.9537 78.874 21.7677 76.664 25.8137ZM93.868 24.7597C90.672 20.6117 88.734 15.0017 88.428 10.5477L94.514 9.08569C95.126 13.6417 96.656 17.7557 99.648 21.4957L93.868 24.7597ZM94.242 7.62369C94.174 6.50169 94.004 4.59769 93.868 3.30569L96.928 3.03369C97.098 4.32569 97.234 6.36569 97.302 7.35169L94.242 7.62369ZM98.832 7.31769C98.764 6.05969 98.594 4.18969 98.526 2.96569L101.518 2.69369C101.688 3.98569 101.858 5.99169 101.926 7.01169L98.832 7.31769ZM133.546 18.8097C131.914 18.8437 126.644 18.9457 121.272 18.9457C117.94 18.9457 114.608 18.8777 112.024 18.7757L112.194 13.1317C118.654 13.2677 129.976 13.3017 133.546 13.0637V18.8097ZM153.368 7.07969C153.368 6.73969 153.334 6.36569 153.334 5.95769C152.076 6.02569 150.818 6.05969 149.594 6.09369L149.424 2.08169C150.58 2.04769 151.872 2.01369 153.198 1.94569C153.198 1.50369 153.164 1.06169 153.164 0.687685L157.856 0.619686C157.856 0.959686 157.89 1.36769 157.89 1.84369C159.284 1.80969 160.678 1.77569 162.004 1.77569V0.483686L166.73 0.517686V1.70769C168.09 1.67369 169.348 1.67369 170.334 1.67369V5.61769C169.178 5.61769 167.988 5.61769 166.73 5.65169V6.94369L162.038 6.90969V5.71969L158.026 5.82169C158.026 6.26369 158.06 6.70569 158.06 7.04569L153.368 7.07969ZM163.976 30.4037L160.576 29.3837C161.8 27.8877 162.106 27.3437 162.412 26.2557H160.066C159.59 27.4797 159.046 28.6357 158.23 30.0637L154.796 28.7377C155.34 27.8877 155.782 27.1737 156.122 26.4597L155 26.5617L154.864 23.7737C153.674 24.9977 152.348 26.1197 150.92 27.2077L147.86 24.2157C149.016 23.5357 150.036 22.8557 150.92 22.1417C150.138 22.1757 149.39 22.2097 148.71 22.2097L148.574 18.1977C150.478 18.1297 152.382 18.0957 154.252 18.0617C154.456 17.6877 154.626 17.3477 154.796 16.9737H152.45C152.348 14.7977 152.246 9.35769 152.178 7.69169C156.564 7.58969 163.5 7.58969 167.716 7.65769C167.614 10.1397 167.546 15.7497 167.478 16.9737H159.25C159.148 17.3137 159.012 17.6197 158.876 17.9597C163.228 17.8577 167.546 17.7897 171.762 17.6877L171.728 21.6997C171.014 21.6997 170.3 21.7337 169.586 21.7337C170.402 22.4477 171.32 23.0257 172.646 23.6717L170.096 26.7997C168.668 25.8477 167.41 24.8277 166.288 23.7737C166.152 26.6977 165.948 27.8877 163.976 30.4037ZM156.598 11.6357H163.364C163.364 11.2617 163.364 10.9217 163.398 10.6157C161.188 10.5817 158.74 10.6157 156.564 10.7177C156.564 10.9897 156.598 11.3297 156.598 11.6357ZM156.632 14.1177C159.42 14.1177 161.018 14.1177 163.262 14.0837C163.262 13.7777 163.296 13.4037 163.296 13.0637H156.632V14.1177ZM155.238 23.3997L157.21 23.2977C157.312 22.8557 157.448 22.3457 157.55 21.8017L161.256 22.2097C161.188 22.5497 161.086 22.8897 161.018 23.1957C162.514 23.1617 164.078 23.1957 165.744 23.2637C165.166 22.6857 164.588 22.1077 164.01 21.4957C161.562 21.5297 159.114 21.6317 156.7 21.6657C156.258 22.2777 155.782 22.8557 155.238 23.3997ZM187.13 24.4537L187.096 20.6117C188.524 20.5437 191.856 20.4757 195.426 20.4417C195.426 20.0337 195.46 19.6257 195.46 19.2517C195.052 19.2517 194.644 19.2517 194.236 19.2517H189.136V11.1257C188.796 11.6017 188.49 12.0437 188.15 12.5197L184.546 10.2417C186.994 6.67169 189.476 3.23769 191.448 0.619686L195.222 2.62569C194.78 3.20369 194.372 3.74769 193.964 4.32569C195.154 4.32569 196.31 4.32569 197.398 4.32569C198.282 2.99969 198.792 2.18369 199.574 1.09569L202.77 3.16969C202.396 3.61169 202.124 3.95169 201.852 4.32569C203.314 4.32569 204.742 4.29169 206.238 4.29169L206.272 8.16769C204.912 8.16769 203.212 8.13369 201.376 8.13369C201.376 8.47369 201.376 8.84769 201.376 9.22169H205.286L205.354 11.2617H201.444C201.444 11.6017 201.444 11.9757 201.444 12.3157H205.354L205.456 14.3557H201.512C201.512 14.6957 201.512 15.0697 201.512 15.4097C203.212 15.4097 204.844 15.3757 206.544 15.3757L206.612 19.2517C204.844 19.2517 202.566 19.2177 200.152 19.2177C200.152 19.5917 200.118 19.9997 200.118 20.4077C203.926 20.3737 207.292 20.3737 208.312 20.3737V24.1137C207.53 24.1137 206.068 24.1137 204.266 24.1477C205.49 24.7597 206.85 25.3717 208.414 26.0177L206.204 29.6217C204.402 28.7037 202.294 27.4797 200.152 26.1197C200.186 27.4457 200.22 28.7377 200.254 29.9957H195.562C195.528 28.9757 195.494 27.6497 195.494 26.2217C193.862 27.5137 192.026 28.9417 190.53 30.2337L187.47 27.1057C188.728 26.1537 190.088 25.2357 191.414 24.3177C189.578 24.3517 188.048 24.4197 187.13 24.4537ZM194.236 9.22169H197.16C197.16 8.88169 197.126 8.50769 197.126 8.13369C196.174 8.13369 195.188 8.13369 194.236 8.16769V9.22169ZM194.236 12.3157H197.228C197.228 11.9757 197.228 11.6017 197.194 11.2617H194.236V12.3157ZM194.236 14.3557V15.4097C195.29 15.4097 196.31 15.4097 197.296 15.4097C197.296 15.0357 197.296 14.6957 197.262 14.3557H194.236Z" fill="black"/>
</svg>
