<svg width="201" height="29" viewBox="0 0 201 29" fill="none" xmlns="http://www.w3.org/2000/svg">
<path d="M8.088 18.6757L7.92 15.2437C8.544 15.1717 9.336 15.1237 10.2 15.0517V13.8757C9.552 13.9237 8.952 13.9957 8.448 14.0437L8.28 11.0917C8.88 11.0197 9.528 10.9717 10.2 10.9237V9.21969L13.272 9.26769V10.7317C13.872 10.7077 14.448 10.6837 14.952 10.6837L15.024 13.6117C14.52 13.6117 13.92 13.6357 13.296 13.6837V14.9077C14.208 14.8597 15 14.8357 15.576 14.8357L15.672 18.2437C14.016 18.2677 9.792 18.4837 8.088 18.6757ZM3.264 16.1557L0.936 13.8277C2.52 11.9797 3.12 11.3797 4.728 9.67569L7.032 11.9317C5.52 13.4677 4.92 14.1877 3.264 16.1557ZM16.68 14.7397L16.224 10.8517C18.6 10.5877 19.656 10.4917 22.08 10.3477L22.32 14.2117C20.352 14.3077 18.672 14.4517 16.68 14.7397ZM4.2 28.2517C4.056 26.4997 3.984 24.6277 3.912 22.3477L3.312 23.1157L0.984 20.8837C2.688 18.6277 3.48 17.4277 5.28 15.2917L7.752 17.3077C6.648 18.7717 6.024 19.5637 5.208 20.6197L7.056 20.4757C7.128 23.4037 7.272 26.0197 7.392 27.9397L4.2 28.2517ZM18.192 28.1557C18.192 25.3957 18.192 23.1397 18.168 20.6677C17.568 20.7157 16.968 20.7877 16.416 20.8597L16.08 16.9957C18.408 16.7317 20.184 16.6357 22.632 16.5877L22.776 20.4517C22.344 20.4517 21.888 20.4757 21.432 20.4757C21.456 23.4517 21.456 26.0197 21.432 28.1077L18.192 28.1557ZM8.52 28.1557L8.16 24.7477C8.784 24.6517 9.576 24.5317 10.44 24.4357C10.44 24.0037 10.416 23.5717 10.416 23.1157C9.744 23.1877 9.096 23.2357 8.544 23.2837L8.4 20.3317C9.048 20.2837 9.72 20.2117 10.416 20.1637C10.416 19.7557 10.44 19.3957 10.44 19.1317L13.512 19.0117V19.9957C14.328 19.9477 15.096 19.9237 15.768 19.9237L15.84 22.8517C15.192 22.8517 14.376 22.8997 13.536 22.9237V24.0757C14.64 23.9797 15.648 23.8837 16.344 23.8357L16.608 27.2197C14.784 27.3637 10.392 27.8677 8.52 28.1557ZM42.504 25.9477L39.312 23.8357C41.64 21.1717 41.376 18.0037 38.736 16.6597C37.464 22.2517 34.248 25.8037 30.984 25.2277C28.56 24.7957 27.096 23.0197 27.096 20.4997C27.096 16.1317 31.056 12.2677 36.168 12.2677C41.064 12.2677 44.952 15.2917 44.952 20.0677C44.952 22.2757 44.064 24.3877 42.504 25.9477ZM31.656 21.6277C32.52 21.7957 34.152 19.1077 34.968 16.1557C32.232 16.4917 30.72 18.6517 30.672 20.1637C30.672 20.7157 30.816 21.4837 31.656 21.6277ZM96.472 28.2277C92.008 28.2277 89.392 26.8117 89.152 24.2917C89.008 22.7317 89.896 21.0517 91.72 19.4917C91.264 19.2757 90.76 19.1077 90.136 18.9397C90.304 17.4997 90.424 16.3477 90.544 15.3157C89.632 15.3157 88.648 15.2917 87.52 15.2677L87.688 11.6197C88.768 11.6197 89.848 11.6197 90.928 11.6197C91 10.9717 91.072 10.3477 91.12 9.77169L95.08 10.0357C95.008 10.5157 94.96 11.0197 94.888 11.5477C95.896 11.5237 96.88 11.4757 97.864 11.4037L97.96 14.9797C96.928 15.0757 95.704 15.1477 94.408 15.1957C94.312 15.8677 94.24 16.4917 94.168 17.0917C94.456 17.2117 94.672 17.3077 94.888 17.4037C96.04 16.8037 97.12 16.3477 98.224 15.9637L99.136 19.4197C98.752 19.5397 98.368 19.6837 97.96 19.8277C98.464 20.4757 98.8 20.9317 99.088 21.3637L96.28 23.5237C95.752 22.7557 95.2 22.0837 94.648 21.5317C93.472 22.2757 92.8 23.0437 92.824 23.6197C92.872 24.6997 95.008 24.9637 98.992 24.5077L99.064 28.0837C98.152 28.1797 97.288 28.2277 96.472 28.2277ZM111.712 28.3957L108.664 26.5477C109.576 25.1317 110.344 23.8597 110.92 22.3477C110.224 22.3717 109.576 22.3957 108.952 22.4197L108.88 18.8437C109.744 18.7957 110.752 18.7717 111.832 18.7237C111.952 17.9317 112.024 17.0677 112.072 16.0837C111.616 16.1077 111.136 16.1317 110.656 16.1557C110.44 16.7557 110.176 17.3797 109.912 17.9797L106.84 16.8277C107.752 14.5957 108.64 12.0277 109.384 9.53169L112.6 10.3957C112.384 11.1157 112.168 11.8357 111.928 12.5557C113.92 12.4597 115.864 12.3637 117.88 12.3157L118 15.8917C117.208 15.9157 116.416 15.9397 115.6 15.9637C115.528 16.9477 115.456 17.8117 115.36 18.6037C116.512 18.5797 117.616 18.5557 118.528 18.5317L118.648 22.0837C117.592 22.1317 116.176 22.1797 114.688 22.2277C114.064 24.4357 113.128 26.0437 111.712 28.3957ZM119.608 24.6517C119.512 20.9797 119.416 18.3877 119.368 15.0037H121.336C124.36 14.9317 125.8 14.9557 128.584 14.9557C128.56 16.2997 128.44 21.1717 128.416 24.6517H119.608ZM122.824 18.1237C122.848 19.2037 122.896 20.3557 122.92 21.5557C123.712 21.5557 124.36 21.5557 125.128 21.5557C125.2 20.0677 125.248 18.9397 125.272 18.0757C124.408 18.0757 123.808 18.0997 122.824 18.1237ZM117.832 28.2277C116.56 27.2677 115.6 26.5237 114.4 25.3477L116.776 22.8997C117.76 23.9797 118.912 24.8677 119.92 25.5877L117.832 28.2277ZM142.072 28.4677C139.36 28.4677 137.32 27.0037 137.32 25.0837C137.32 21.2197 142.744 20.1157 144.616 23.3317C144.688 23.1157 144.712 22.8277 144.712 22.4677C144.712 20.1637 142.072 19.3717 137.632 20.3557L137.104 19.0117C138.4 17.2357 139.144 16.1317 140.272 14.4037C139.12 14.3797 137.656 14.3797 136.336 14.4037L136.288 10.7797C136.912 10.7797 137.536 10.7797 138.136 10.7797C140.344 10.7797 142.6 10.8037 146.296 10.8997C144.688 13.6837 143.872 15.0037 142.696 16.9237C145.96 16.7317 148.432 19.0357 148.432 22.2757C148.432 26.0197 145.912 28.4677 142.072 28.4677ZM141.568 25.7317C142.192 25.7797 142.84 25.7077 143.248 25.4677C143.176 23.4517 140.512 23.5477 140.416 24.6037C140.392 25.3237 140.896 25.6837 141.568 25.7317ZM164.608 28.2517L164.344 20.2117C165.376 20.2117 166.48 20.1877 167.896 20.1637V18.5077C166.216 18.5317 164.68 18.5317 163.72 18.5557L163.648 14.8117C164.824 14.8117 166.336 14.7877 167.896 14.7877V12.8197L166.144 13.2517L165.352 9.93969C168.76 9.07569 170.224 8.83569 173.176 8.16369L173.968 11.4037C173.32 11.5717 172.624 11.7157 171.688 11.9317V14.7637C173.272 14.7397 174.712 14.7397 175.744 14.7397L175.792 18.4357C174.856 18.4357 173.344 18.4597 171.688 18.4597V20.0917C172.84 20.0917 173.992 20.1157 175.336 20.1397L175.168 28.2517H164.608ZM161.08 14.5957C159.52 14.3797 158.176 14.1637 156.616 14.0437L157.072 10.6357C158.944 10.8037 160.24 10.9477 161.536 11.1397L161.08 14.5957ZM160.312 20.1877C158.272 19.8757 157.72 19.8037 155.848 19.6837L156.208 16.2037C158.272 16.3957 159.616 16.5637 160.792 16.7797L160.312 20.1877ZM158.128 27.5557L156.328 24.4597C157.384 23.8597 158.464 23.2357 160.84 21.8197L162.664 24.8677C160.936 25.9957 160.12 26.4757 158.128 27.5557ZM168.112 25.0117H171.616C171.664 24.4357 171.688 23.8837 171.688 23.4037C170.44 23.3797 169.456 23.4277 168.088 23.4757C168.088 23.9557 168.112 24.4597 168.112 25.0117ZM180.256 28.5637L180.136 25.7077C180.928 25.6357 182.2 25.5637 183.616 25.4677C183.616 25.2517 183.616 24.9637 183.616 24.5797C182.944 24.6037 182.248 24.6277 181.504 24.6517L181.432 22.7557C182.248 22.7317 182.944 22.7077 183.592 22.6837C183.592 22.4437 183.592 22.2037 183.592 21.9397H180.04C179.944 20.3797 179.848 16.5637 179.776 15.1957C181.144 15.1957 182.056 15.1957 183.568 15.1477C183.568 14.9557 183.568 14.7397 183.568 14.5477C182.272 14.5957 181.048 14.6197 180.112 14.6677L179.992 12.3157C181 12.2917 182.248 12.2437 183.544 12.1957C183.544 12.0037 183.544 11.8117 183.544 11.6437C182.848 11.7637 182.152 11.9077 181.384 12.0517L180.832 9.72369C183.76 9.14769 185.392 8.97969 188.176 8.54769L188.656 10.8517C187.84 10.9717 187.12 11.0677 186.424 11.1637C186.424 11.4277 186.424 11.7637 186.424 12.1237C187.816 12.0997 189.088 12.0757 190.048 12.0757V14.4517C189.088 14.4517 187.792 14.4757 186.448 14.4997C186.448 14.6917 186.448 14.9077 186.448 15.1237C187.696 15.1237 188.944 15.1237 190.24 15.1477C190.24 17.0917 190.144 19.9957 190.048 21.9397H186.472C186.472 22.1557 186.472 22.3957 186.472 22.6117C187.192 22.5877 187.96 22.5877 188.848 22.5877L188.8 24.5077C187.96 24.5077 187.192 24.5077 186.472 24.5317C186.496 24.8197 186.496 25.0597 186.496 25.2517C187.792 25.1317 188.992 25.0357 189.712 24.9157L190.024 27.7237C187.84 28.1317 182.512 28.4677 180.256 28.5637ZM194.44 25.6117L191.2 24.9637C191.68 23.1397 192.088 20.5717 192.376 17.9557C191.992 17.9797 191.584 18.0277 191.152 18.0517L190.96 14.5957C191.536 14.5477 192.136 14.4997 192.712 14.4757C192.784 13.4917 192.856 12.5797 192.88 11.7397L196.168 11.9077C196.12 12.6277 196.072 13.4437 196 14.3077C197.464 14.2597 198.904 14.2597 200.272 14.3317C200.248 20.5477 199.912 22.9477 198.136 28.0357L194.8 26.6437C196.528 22.7557 196.672 21.0997 196.84 17.8597C196.456 17.8597 196.048 17.8597 195.64 17.8597C195.328 20.5957 194.92 23.4277 194.44 25.6117ZM186.448 17.7877C186.808 17.7877 187.168 17.7877 187.576 17.7877C187.576 17.5237 187.576 17.2597 187.6 16.9957C187.192 16.9957 186.808 16.9717 186.448 16.9717C186.448 17.2357 186.448 17.4997 186.448 17.7877ZM182.488 17.0437C182.488 17.2837 182.488 17.5477 182.512 17.8117C182.896 17.8117 183.232 17.7877 183.568 17.7877C183.568 17.5237 183.568 17.2597 183.568 16.9957C183.208 17.0197 182.848 17.0197 182.488 17.0437ZM186.448 19.1077C186.448 19.3717 186.448 19.6117 186.448 19.8757C186.784 19.8757 187.12 19.8757 187.48 19.8757C187.48 19.6117 187.504 19.3717 187.504 19.1077C187.168 19.1077 186.808 19.1077 186.448 19.1077ZM182.584 19.8757C182.944 19.8757 183.256 19.8757 183.568 19.8757C183.568 19.6357 183.568 19.3717 183.568 19.1077C183.256 19.1077 182.896 19.1317 182.56 19.1317C182.56 19.3717 182.584 19.6357 182.584 19.8757Z" fill="#231815"/>
<path d="M54.97 14.9877L51.91 11.0097C56.024 8.25569 59.934 5.46769 63.402 1.72769L64.184 0.877686C68.774 4.54969 73.024 7.06569 78.26 9.37769L75.846 13.9337C71.868 12.1657 68.162 10.1937 64.592 7.43969C61.906 10.0917 58.778 12.5737 54.97 14.9877ZM60.444 15.9737L60.206 11.9957C62.96 11.6897 67.482 11.5537 69.896 11.5537V15.6677C67.38 15.7697 63.13 15.8717 60.444 15.9737ZM69.93 28.4177L64.796 27.1597C65.578 25.2557 66.088 23.9637 66.666 22.2297C63.266 22.2637 60.614 22.3997 58.404 22.5697L58.064 17.7757C60.376 17.6057 70.542 17.2657 73.432 17.5717C72.548 21.7877 71.8 24.2697 69.93 28.4177Z" fill="#FA4B06"/>
</svg>
