<svg width="270" height="30" viewBox="0 0 270 30" fill="none" xmlns="http://www.w3.org/2000/svg">
<path d="M15.48 26.8357L11.64 26.3077C11.928 25.0117 12.216 23.3317 12.48 21.3877C11.232 21.1717 10.128 21.0277 9.024 20.9797C8.016 24.6037 6.624 26.0917 4.008 26.1877C1.872 26.2597 0.144 24.5557 0.144 22.2277C0.144 19.2997 2.28 17.4997 6.144 17.2117C6.216 16.6357 6.288 16.0357 6.36 15.3637C5.208 15.3397 3.84 15.3637 2.16 15.4117L2.184 11.6677C2.424 11.6677 2.688 11.6677 2.952 11.6677C5.088 11.6677 8.16 11.7397 10.416 11.8597L10.128 14.3317C10.032 15.0757 9.96 15.8197 9.768 17.2597C10.8 17.3317 11.856 17.4757 12.936 17.6197C13.128 15.8197 13.272 14.0917 13.344 12.7477L17.208 13.1557C17.136 14.4997 16.992 16.2997 16.776 18.3157C17.4 18.4357 18.048 18.5557 18.672 18.6997L17.88 22.6357C17.304 22.4917 16.776 22.3477 16.272 22.2277C16.008 24.1237 15.744 25.6597 15.48 26.8357ZM4.128 22.9717C4.704 22.9717 5.112 22.3717 5.472 21.0037C3.912 21.1237 3.24 21.4837 3.24 22.1797C3.24 22.7077 3.552 22.9717 4.128 22.9717ZM28.392 27.8197L24.552 26.1637C26.04 23.0677 28.32 15.3637 29.136 10.7557L33.288 11.3317C32.904 13.5877 32.064 17.1877 31.176 20.1877C32.568 19.3477 33.336 18.8917 33.984 18.5557C35.304 24.0277 36.576 24.7237 40.464 22.0357L42.648 25.1077C38.616 28.5637 33.768 28.1557 31.92 24.1717C31.104 24.6277 30.312 25.1557 29.256 25.8517C29.016 26.4757 28.728 27.1237 28.392 27.8197ZM57.1496 28.0837C51.7016 28.0837 51.4376 19.8277 57.7016 19.8277C58.1816 19.8277 58.3016 19.8277 58.5416 19.8517C58.4936 19.2277 58.4216 18.5077 58.3496 17.8357L62.2376 17.6437C62.3576 18.7717 62.4056 19.8037 62.3816 20.6917C63.5816 21.1477 64.8056 21.8197 65.4776 22.3717L63.3416 25.5397C62.9576 25.2517 62.4056 24.8917 61.9256 24.6277C61.8776 24.7717 61.8296 24.9397 61.7816 25.0597C60.9896 27.0997 59.4776 28.0837 57.1496 28.0837ZM57.3176 24.9157C57.9176 24.9157 58.3016 24.3877 58.4936 23.3317C58.0616 23.2597 57.7736 23.2357 57.5096 23.2357C56.6696 23.2117 56.2136 23.4997 56.2136 24.0517C56.2136 24.5317 56.6936 24.9157 57.3176 24.9157ZM52.4216 20.7877L48.4616 20.2597C48.8696 19.0357 49.2536 17.6437 49.5896 16.1797C48.8936 16.1797 48.2456 16.1797 47.6936 16.1797L47.8136 12.4837C48.6296 12.4837 49.4456 12.4597 50.2616 12.4597C50.3816 11.6437 50.4776 10.7557 50.5496 9.84369L54.5336 10.0597C54.4376 10.8517 54.3176 11.5957 54.2216 12.3397C54.8936 12.3157 55.5896 12.2917 56.7896 12.2197L56.8856 15.9157C55.9736 15.9637 55.0136 16.0117 53.5496 16.0837C53.1656 17.9797 52.7816 19.5877 52.4216 20.7877ZM64.9016 16.9477C63.7496 16.6597 61.9256 16.2997 59.1416 15.7957L59.7416 12.4597C61.2536 12.6997 62.6696 12.9877 65.5016 13.6117L64.9016 16.9477ZM87.2696 25.9477L84.0776 23.8357C86.4056 21.1717 86.1416 18.0037 83.5016 16.6597C82.2296 22.2517 79.0136 25.8037 75.7496 25.2277C73.3256 24.7957 71.8616 23.0197 71.8616 20.4997C71.8616 16.1317 75.8216 12.2677 80.9336 12.2677C85.8296 12.2677 89.7176 15.2917 89.7176 20.0677C89.7176 22.2757 88.8296 24.3877 87.2696 25.9477ZM76.4216 21.6277C77.2856 21.7957 78.9176 19.1077 79.7336 16.1557C76.9976 16.4917 75.4856 18.6517 75.4376 20.1637C75.4376 20.7157 75.5816 21.4837 76.4216 21.6277ZM141.238 28.2277C136.774 28.2277 134.158 26.8117 133.918 24.2917C133.774 22.7317 134.662 21.0517 136.486 19.4917C136.03 19.2757 135.526 19.1077 134.902 18.9397C135.07 17.4997 135.19 16.3477 135.31 15.3157C134.398 15.3157 133.414 15.2917 132.286 15.2677L132.454 11.6197C133.534 11.6197 134.614 11.6197 135.694 11.6197C135.766 10.9717 135.838 10.3477 135.886 9.77169L139.846 10.0357C139.774 10.5157 139.726 11.0197 139.654 11.5477C140.662 11.5237 141.646 11.4757 142.63 11.4037L142.726 14.9797C141.694 15.0757 140.47 15.1477 139.174 15.1957C139.078 15.8677 139.006 16.4917 138.934 17.0917C139.222 17.2117 139.438 17.3077 139.654 17.4037C140.806 16.8037 141.886 16.3477 142.99 15.9637L143.902 19.4197C143.518 19.5397 143.134 19.6837 142.726 19.8277C143.23 20.4757 143.566 20.9317 143.854 21.3637L141.046 23.5237C140.518 22.7557 139.966 22.0837 139.414 21.5317C138.238 22.2757 137.566 23.0437 137.59 23.6197C137.638 24.6997 139.774 24.9637 143.758 24.5077L143.83 28.0837C142.918 28.1797 142.054 28.2277 141.238 28.2277ZM155.446 24.8437L155.422 22.1317C156.43 22.0837 158.782 22.0357 161.302 22.0117C161.302 21.7237 161.326 21.4357 161.326 21.1717C161.038 21.1717 160.75 21.1717 160.462 21.1717H156.862V15.4357C156.622 15.7717 156.406 16.0837 156.166 16.4197L153.622 14.8117C155.35 12.2917 157.102 9.86769 158.494 8.01969L161.158 9.43569C160.846 9.84369 160.558 10.2277 160.27 10.6357C161.11 10.6357 161.926 10.6357 162.694 10.6357C163.318 9.69969 163.678 9.12369 164.23 8.35569L166.486 9.81969C166.222 10.1317 166.03 10.3717 165.838 10.6357C166.87 10.6357 167.878 10.6117 168.934 10.6117L168.958 13.3477C167.998 13.3477 166.798 13.3237 165.502 13.3237C165.502 13.5637 165.502 13.8277 165.502 14.0917H168.262L168.31 15.5317H165.55C165.55 15.7717 165.55 16.0357 165.55 16.2757H168.31L168.382 17.7157H165.598C165.598 17.9557 165.598 18.2197 165.598 18.4597C166.798 18.4597 167.95 18.4357 169.15 18.4357L169.198 21.1717C167.95 21.1717 166.342 21.1477 164.638 21.1477C164.638 21.4117 164.614 21.6997 164.614 21.9877C167.302 21.9637 169.678 21.9637 170.398 21.9637V24.6037C169.846 24.6037 168.814 24.6037 167.542 24.6277C168.406 25.0597 169.366 25.4917 170.47 25.9477L168.91 28.4917C167.638 27.8437 166.15 26.9797 164.638 26.0197C164.662 26.9557 164.686 27.8677 164.71 28.7557H161.398C161.374 28.0357 161.35 27.0997 161.35 26.0917C160.198 27.0037 158.902 28.0117 157.846 28.9237L155.686 26.7157C156.574 26.0437 157.534 25.3957 158.47 24.7477C157.174 24.7717 156.094 24.8197 155.446 24.8437ZM160.462 14.0917H162.526C162.526 13.8517 162.502 13.5877 162.502 13.3237C161.83 13.3237 161.134 13.3237 160.462 13.3477V14.0917ZM160.462 16.2757H162.574C162.574 16.0357 162.574 15.7717 162.55 15.5317H160.462V16.2757ZM160.462 17.7157V18.4597C161.206 18.4597 161.926 18.4597 162.622 18.4597C162.622 18.1957 162.622 17.9557 162.598 17.7157H160.462ZM194.326 26.6917L191.038 25.1797C192.022 23.5717 192.574 22.0837 192.574 21.1477C192.574 20.0437 191.998 19.0117 191.062 18.3877C188.758 23.5237 185.71 26.1397 181.99 26.1397C179.326 26.1397 177.478 24.4357 177.478 21.9637C177.478 21.6757 177.502 21.3397 177.598 20.8357C178.03 18.7957 179.494 16.8517 181.582 15.5797C181.438 14.1637 181.342 12.9157 181.318 11.7877L185.038 11.6197C185.038 12.2917 185.062 12.9397 185.182 14.2117C186.238 13.9957 187.414 13.9717 188.71 14.1157C188.998 13.1797 189.214 12.5077 189.43 11.7397L193.03 12.6757C192.838 13.2997 192.598 14.1637 192.382 14.8357C194.878 15.8437 196.342 18.0517 196.342 20.7637C196.342 20.8837 196.342 21.1717 196.294 21.5317C196.126 23.2837 195.43 25.0837 194.326 26.6917ZM181.966 22.7797C182.302 22.7797 182.614 22.7317 182.902 22.6117C182.638 21.6997 182.398 20.6677 182.182 19.5397C180.79 21.0037 180.67 22.7557 181.966 22.7797ZM186.142 20.1397C186.862 19.2517 187.414 18.3157 187.726 17.4277C186.982 17.4277 186.286 17.4997 185.662 17.6437C185.758 18.2917 185.902 19.0117 186.142 20.1397ZM210.838 28.4677C208.126 28.4677 206.086 27.0037 206.086 25.0837C206.086 21.2197 211.51 20.1157 213.382 23.3317C213.454 23.1157 213.478 22.8277 213.478 22.4677C213.478 20.1637 210.838 19.3717 206.398 20.3557L205.87 19.0117C207.166 17.2357 207.91 16.1317 209.038 14.4037C207.886 14.3797 206.422 14.3797 205.102 14.4037L205.054 10.7797C205.678 10.7797 206.302 10.7797 206.902 10.7797C209.11 10.7797 211.366 10.8037 215.062 10.8997C213.454 13.6837 212.638 15.0037 211.462 16.9237C214.726 16.7317 217.198 19.0357 217.198 22.2757C217.198 26.0197 214.678 28.4677 210.838 28.4677ZM210.334 25.7317C210.958 25.7797 211.606 25.7077 212.014 25.4677C211.942 23.4517 209.278 23.5477 209.182 24.6037C209.158 25.3237 209.662 25.6837 210.334 25.7317ZM233.374 28.2517L233.11 20.2117C234.142 20.2117 235.246 20.1877 236.662 20.1637V18.5077C234.982 18.5317 233.446 18.5317 232.486 18.5557L232.414 14.8117C233.59 14.8117 235.102 14.7877 236.662 14.7877V12.8197L234.91 13.2517L234.118 9.93969C237.526 9.07569 238.99 8.83569 241.942 8.16369L242.734 11.4037C242.086 11.5717 241.39 11.7157 240.454 11.9317V14.7637C242.038 14.7397 243.478 14.7397 244.51 14.7397L244.558 18.4357C243.622 18.4357 242.11 18.4597 240.454 18.4597V20.0917C241.606 20.0917 242.758 20.1157 244.102 20.1397L243.934 28.2517H233.374ZM229.846 14.5957C228.286 14.3797 226.942 14.1637 225.382 14.0437L225.838 10.6357C227.71 10.8037 229.006 10.9477 230.302 11.1397L229.846 14.5957ZM229.078 20.1877C227.038 19.8757 226.486 19.8037 224.614 19.6837L224.974 16.2037C227.038 16.3957 228.382 16.5637 229.558 16.7797L229.078 20.1877ZM226.894 27.5557L225.094 24.4597C226.15 23.8597 227.23 23.2357 229.606 21.8197L231.43 24.8677C229.702 25.9957 228.886 26.4757 226.894 27.5557ZM236.878 25.0117H240.382C240.43 24.4357 240.454 23.8837 240.454 23.4037C239.206 23.3797 238.222 23.4277 236.854 23.4757C236.854 23.9557 236.878 24.4597 236.878 25.0117ZM249.022 28.5637L248.902 25.7077C249.694 25.6357 250.966 25.5637 252.382 25.4677C252.382 25.2517 252.382 24.9637 252.382 24.5797C251.71 24.6037 251.014 24.6277 250.27 24.6517L250.198 22.7557C251.014 22.7317 251.71 22.7077 252.358 22.6837C252.358 22.4437 252.358 22.2037 252.358 21.9397H248.806C248.71 20.3797 248.614 16.5637 248.542 15.1957C249.91 15.1957 250.822 15.1957 252.334 15.1477C252.334 14.9557 252.334 14.7397 252.334 14.5477C251.038 14.5957 249.814 14.6197 248.878 14.6677L248.758 12.3157C249.766 12.2917 251.014 12.2437 252.31 12.1957C252.31 12.0037 252.31 11.8117 252.31 11.6437C251.614 11.7637 250.918 11.9077 250.15 12.0517L249.598 9.72369C252.526 9.14769 254.158 8.97969 256.942 8.54769L257.422 10.8517C256.606 10.9717 255.886 11.0677 255.19 11.1637C255.19 11.4277 255.19 11.7637 255.19 12.1237C256.582 12.0997 257.854 12.0757 258.814 12.0757V14.4517C257.854 14.4517 256.558 14.4757 255.214 14.4997C255.214 14.6917 255.214 14.9077 255.214 15.1237C256.462 15.1237 257.71 15.1237 259.006 15.1477C259.006 17.0917 258.91 19.9957 258.814 21.9397H255.238C255.238 22.1557 255.238 22.3957 255.238 22.6117C255.958 22.5877 256.726 22.5877 257.614 22.5877L257.566 24.5077C256.726 24.5077 255.958 24.5077 255.238 24.5317C255.262 24.8197 255.262 25.0597 255.262 25.2517C256.558 25.1317 257.758 25.0357 258.478 24.9157L258.79 27.7237C256.606 28.1317 251.278 28.4677 249.022 28.5637ZM263.206 25.6117L259.966 24.9637C260.446 23.1397 260.854 20.5717 261.142 17.9557C260.758 17.9797 260.35 18.0277 259.918 18.0517L259.726 14.5957C260.302 14.5477 260.902 14.4997 261.478 14.4757C261.55 13.4917 261.622 12.5797 261.646 11.7397L264.934 11.9077C264.886 12.6277 264.838 13.4437 264.766 14.3077C266.23 14.2597 267.67 14.2597 269.038 14.3317C269.014 20.5477 268.678 22.9477 266.902 28.0357L263.566 26.6437C265.294 22.7557 265.438 21.0997 265.606 17.8597C265.222 17.8597 264.814 17.8597 264.406 17.8597C264.094 20.5957 263.686 23.4277 263.206 25.6117ZM255.214 17.7877C255.574 17.7877 255.934 17.7877 256.342 17.7877C256.342 17.5237 256.342 17.2597 256.366 16.9957C255.958 16.9957 255.574 16.9717 255.214 16.9717C255.214 17.2357 255.214 17.4997 255.214 17.7877ZM251.254 17.0437C251.254 17.2837 251.254 17.5477 251.278 17.8117C251.662 17.8117 251.998 17.7877 252.334 17.7877C252.334 17.5237 252.334 17.2597 252.334 16.9957C251.974 17.0197 251.614 17.0197 251.254 17.0437ZM255.214 19.1077C255.214 19.3717 255.214 19.6117 255.214 19.8757C255.55 19.8757 255.886 19.8757 256.246 19.8757C256.246 19.6117 256.27 19.3717 256.27 19.1077C255.934 19.1077 255.574 19.1077 255.214 19.1077ZM251.35 19.8757C251.71 19.8757 252.022 19.8757 252.334 19.8757C252.334 19.6357 252.334 19.3717 252.334 19.1077C252.022 19.1077 251.662 19.1317 251.326 19.1317C251.326 19.3717 251.35 19.6357 251.35 19.8757Z" fill="#231815"/>
<path d="M103.068 11.3157L102.762 7.64369C104.122 7.57569 105.516 7.54169 106.978 7.50769C106.944 7.03169 106.944 6.55569 106.944 6.04569C104.7 6.11369 102.456 6.21569 100.28 6.31769L100.144 2.37369C102.32 2.30569 104.666 2.23769 107.012 2.13569C107.046 1.72769 107.046 1.31969 107.046 0.911686L112.452 0.809685C112.452 1.21769 112.418 1.59169 112.418 1.99969C114.798 1.93169 117.178 1.89769 119.354 1.86369L119.32 5.77369C116.974 5.77369 114.628 5.80769 112.316 5.87569V7.40569C113.88 7.37169 115.41 7.37169 116.838 7.33769L116.702 11.0437C112.35 11.0097 107.556 11.1117 103.068 11.3157ZM101.946 29.0637L97.4236 27.0917C99.6336 23.3857 100.042 18.8637 100.042 15.0897V12.6757C104.258 12.5057 116.09 12.3697 119.932 12.4377C119.864 16.0757 119.694 19.2377 119.456 22.5017H116.974C114.628 22.5017 107.59 22.6037 104.326 22.7737C103.884 24.8477 103.136 26.8877 101.946 29.0637ZM111.738 18.6937C112.928 18.6937 114.084 18.6597 115.036 18.6597L115.24 16.7217C114.254 16.7217 113.064 16.7557 111.738 16.7557V18.6937ZM104.87 18.8637L108.202 18.7617V16.7897C107.114 16.7897 105.992 16.7897 104.938 16.8237C104.938 17.5037 104.904 18.1837 104.87 18.8637Z" fill="#FA4B06"/>
</svg>
