<svg width="57" height="38" viewBox="0 0 57 38" fill="none" xmlns="http://www.w3.org/2000/svg">
<path d="M46.4226 16.3253C46.4226 16.3253 46.4226 16.3253 46.4061 16.3253C46.4061 16.1525 46.4226 15.9714 46.4226 15.7985C46.4226 7.32838 39.5576 0.463379 31.0875 0.463379C23.1524 0.463379 16.6248 6.48878 15.8346 14.2099C14.7234 13.8641 13.5381 13.683 12.3198 13.683C5.75114 13.683 0.425415 19.0088 0.425415 25.5774C0.425415 32.1461 5.75114 37.4718 12.3198 37.4718H46.4308C52.2751 37.4718 57.0082 32.7388 57.0082 26.8945C57.0082 21.0502 52.2751 16.3171 46.4308 16.3171L46.4226 16.3253Z" fill="#EA4E17"/>
</svg>
